999
Design created by Aurora
0
SECTION
2
HEADER
9
$ACADVER
1
AC1009
0
ENDSEC
0
SECTION
2
TABLES
0
TABLE
2
LTYPE
100
AcDbLinetypeTableRecord
2
LTYPE
0
LTYPE
2
DASHED
70
0
3

72
65
73
1
40
0.0
0
ENDTAB
0
TABLE
2
LAYER
70
1
0
LAYER
100
AcDbSymbolTable
100
AcDbLayerTable
2
1
70
0
62
7
6
CONTINUOUS
0
ENDTAB
0
ENDSEC
0
SECTION
2
ENTITIES
0
LINE
8
Modules
10
58.8021
20
23.3586
11
58.8777
21
19.9276
62
254
0
LINE
8
Modules
10
58.8777
20
19.9276
11
54.0548
21
19.8214
62
254
0
LINE
8
Modules
10
54.0548
20
19.8214
11
53.9792
21
23.2524
62
254
0
LINE
8
Modules
10
53.9792
20
23.2524
11
58.8021
21
23.3586
62
254
0
LINE
8
Modules
10
63.6298
20
23.4649
11
63.7053
21
20.034
62
254
0
LINE
8
Modules
10
63.7053
20
20.034
11
58.8825
21
19.9277
62
254
0
LINE
8
Modules
10
58.8825
20
19.9277
11
58.8069
21
23.3587
62
254
0
LINE
8
Modules
10
58.8069
20
23.3587
11
63.6298
21
23.4649
62
254
0
LINE
8
Modules
10
68.4575
20
23.5712
11
68.533
21
20.1403
62
254
0
LINE
8
Modules
10
68.533
20
20.1403
11
63.7101
21
20.0341
62
254
0
LINE
8
Modules
10
63.7101
20
20.0341
11
63.6346
21
23.465
62
254
0
LINE
8
Modules
10
63.6346
20
23.465
11
68.4575
21
23.5712
62
254
0
LINE
8
Modules
10
44.2434
20
26.4744
11
44.319
21
23.0435
62
254
0
LINE
8
Modules
10
44.319
20
23.0435
11
39.4961
21
22.9372
62
254
0
LINE
8
Modules
10
39.4961
20
22.9372
11
39.4206
21
26.3682
62
254
0
LINE
8
Modules
10
39.4206
20
26.3682
11
44.2434
21
26.4744
62
254
0
LINE
8
Modules
10
49.0711
20
26.5807
11
49.1467
21
23.1498
62
254
0
LINE
8
Modules
10
49.1467
20
23.1498
11
44.3238
21
23.0436
62
254
0
LINE
8
Modules
10
44.3238
20
23.0436
11
44.2482
21
26.4745
62
254
0
LINE
8
Modules
10
44.2482
20
26.4745
11
49.0711
21
26.5807
62
254
0
LINE
8
Modules
10
53.8988
20
26.687
11
53.9743
21
23.2561
62
254
0
LINE
8
Modules
10
53.9743
20
23.2561
11
49.1515
21
23.1499
62
254
0
LINE
8
Modules
10
49.1515
20
23.1499
11
49.0759
21
26.5808
62
254
0
LINE
8
Modules
10
49.0759
20
26.5808
11
53.8988
21
26.687
62
254
0
LINE
8
Modules
10
58.7265
20
26.7933
11
58.802
21
23.3624
62
254
0
LINE
8
Modules
10
58.802
20
23.3624
11
53.9792
21
23.2562
62
254
0
LINE
8
Modules
10
53.9792
20
23.2562
11
53.9036
21
26.6871
62
254
0
LINE
8
Modules
10
53.9036
20
26.6871
11
58.7265
21
26.7933
62
254
0
LINE
8
Modules
10
63.5541
20
26.8997
11
63.6297
21
23.4687
62
254
0
LINE
8
Modules
10
63.6297
20
23.4687
11
58.8068
21
23.3625
62
254
0
LINE
8
Modules
10
58.8068
20
23.3625
11
58.7313
21
26.7934
62
254
0
LINE
8
Modules
10
58.7313
20
26.7934
11
63.5541
21
26.8997
62
254
0
LINE
8
Modules
10
68.3818
20
27.006
11
68.4574
21
23.575
62
254
0
LINE
8
Modules
10
68.4574
20
23.575
11
63.6345
21
23.4688
62
254
0
LINE
8
Modules
10
63.6345
20
23.4688
11
63.5589
21
26.8998
62
254
0
LINE
8
Modules
10
63.5589
20
26.8998
11
68.3818
21
27.006
62
254
0
LINE
8
Modules
10
29.6848
20
29.5902
11
29.7603
21
26.1593
62
254
0
LINE
8
Modules
10
29.7603
20
26.1593
11
24.9375
21
26.0531
62
254
0
LINE
8
Modules
10
24.9375
20
26.0531
11
24.8619
21
29.484
62
254
0
LINE
8
Modules
10
24.8619
20
29.484
11
29.6848
21
29.5902
62
254
0
LINE
8
Modules
10
34.5124
20
29.6965
11
34.588
21
26.2656
62
254
0
LINE
8
Modules
10
34.588
20
26.2656
11
29.7651
21
26.1594
62
254
0
LINE
8
Modules
10
29.7651
20
26.1594
11
29.6896
21
29.5903
62
254
0
LINE
8
Modules
10
29.6896
20
29.5903
11
34.5124
21
29.6965
62
254
0
LINE
8
Modules
10
39.3401
20
29.8028
11
39.4157
21
26.3719
62
254
0
LINE
8
Modules
10
39.4157
20
26.3719
11
34.5928
21
26.2657
62
254
0
LINE
8
Modules
10
34.5928
20
26.2657
11
34.5173
21
29.6966
62
254
0
LINE
8
Modules
10
34.5173
20
29.6966
11
39.3401
21
29.8028
62
254
0
LINE
8
Modules
10
44.1678
20
29.9092
11
44.2434
21
26.4782
62
254
0
LINE
8
Modules
10
44.2434
20
26.4782
11
39.4205
21
26.372
62
254
0
LINE
8
Modules
10
39.4205
20
26.372
11
39.3449
21
29.8029
62
254
0
LINE
8
Modules
10
39.3449
20
29.8029
11
44.1678
21
29.9092
62
254
0
LINE
8
Modules
10
48.9955
20
30.0155
11
49.071
21
26.5845
62
254
0
LINE
8
Modules
10
49.071
20
26.5845
11
44.2482
21
26.4783
62
254
0
LINE
8
Modules
10
44.2482
20
26.4783
11
44.1726
21
29.9093
62
254
0
LINE
8
Modules
10
44.1726
20
29.9093
11
48.9955
21
30.0155
62
254
0
LINE
8
Modules
10
53.8231
20
30.1218
11
53.8987
21
26.6909
62
254
0
LINE
8
Modules
10
53.8987
20
26.6909
11
49.0758
21
26.5846
62
254
0
LINE
8
Modules
10
49.0758
20
26.5846
11
49.0003
21
30.0156
62
254
0
LINE
8
Modules
10
49.0003
20
30.0156
11
53.8231
21
30.1218
62
254
0
LINE
8
Modules
10
58.6508
20
30.2281
11
58.7264
21
26.7972
62
254
0
LINE
8
Modules
10
58.7264
20
26.7972
11
53.9035
21
26.691
62
254
0
LINE
8
Modules
10
53.9035
20
26.691
11
53.828
21
30.1219
62
254
0
LINE
8
Modules
10
53.828
20
30.1219
11
58.6508
21
30.2281
62
254
0
LINE
8
Modules
10
63.4785
20
30.3344
11
63.5541
21
26.9035
62
254
0
LINE
8
Modules
10
63.5541
20
26.9035
11
58.7312
21
26.7973
62
254
0
LINE
8
Modules
10
58.7312
20
26.7973
11
58.6556
21
30.2282
62
254
0
LINE
8
Modules
10
58.6556
20
30.2282
11
63.4785
21
30.3344
62
254
0
LINE
8
Modules
10
68.3062
20
30.4407
11
68.3817
21
27.0098
62
254
0
LINE
8
Modules
10
68.3817
20
27.0098
11
63.5589
21
26.9036
62
254
0
LINE
8
Modules
10
63.5589
20
26.9036
11
63.4833
21
30.3345
62
254
0
LINE
8
Modules
10
63.4833
20
30.3345
11
68.3062
21
30.4407
62
254
0
LINE
8
Modules
10
19.9538
20
32.8123
11
20.0293
21
29.3814
62
254
0
LINE
8
Modules
10
20.0293
20
29.3814
11
15.2065
21
29.2752
62
254
0
LINE
8
Modules
10
15.2065
20
29.2752
11
15.1309
21
32.7061
62
254
0
LINE
8
Modules
10
15.1309
20
32.7061
11
19.9538
21
32.8123
62
254
0
LINE
8
Modules
10
24.7814
20
32.9187
11
24.857
21
29.4877
62
254
0
LINE
8
Modules
10
24.857
20
29.4877
11
20.0341
21
29.3815
62
254
0
LINE
8
Modules
10
20.0341
20
29.3815
11
19.9586
21
32.8124
62
254
0
LINE
8
Modules
10
19.9586
20
32.8124
11
24.7814
21
32.9187
62
254
0
LINE
8
Modules
10
29.6091
20
33.025
11
29.6847
21
29.594
62
254
0
LINE
8
Modules
10
29.6847
20
29.594
11
24.8618
21
29.4878
62
254
0
LINE
8
Modules
10
24.8618
20
29.4878
11
24.7863
21
32.9188
62
254
0
LINE
8
Modules
10
24.7863
20
32.9188
11
29.6091
21
33.025
62
254
0
LINE
8
Modules
10
34.4368
20
33.1313
11
34.5124
21
29.7004
62
254
0
LINE
8
Modules
10
34.5124
20
29.7004
11
29.6895
21
29.5941
62
254
0
LINE
8
Modules
10
29.6895
20
29.5941
11
29.6139
21
33.0251
62
254
0
LINE
8
Modules
10
29.6139
20
33.0251
11
34.4368
21
33.1313
62
254
0
LINE
8
Modules
10
39.2645
20
33.2376
11
39.34
21
29.8067
62
254
0
LINE
8
Modules
10
39.34
20
29.8067
11
34.5172
21
29.7005
62
254
0
LINE
8
Modules
10
34.5172
20
29.7005
11
34.4416
21
33.1314
62
254
0
LINE
8
Modules
10
34.4416
20
33.1314
11
39.2645
21
33.2376
62
254
0
LINE
8
Modules
10
44.0922
20
33.3439
11
44.1677
21
29.913
62
254
0
LINE
8
Modules
10
44.1677
20
29.913
11
39.3448
21
29.8068
62
254
0
LINE
8
Modules
10
39.3448
20
29.8068
11
39.2693
21
33.2377
62
254
0
LINE
8
Modules
10
39.2693
20
33.2377
11
44.0922
21
33.3439
62
254
0
LINE
8
Modules
10
48.9198
20
33.4502
11
48.9954
21
30.0193
62
254
0
LINE
8
Modules
10
48.9954
20
30.0193
11
44.1725
21
29.9131
62
254
0
LINE
8
Modules
10
44.1725
20
29.9131
11
44.097
21
33.344
62
254
0
LINE
8
Modules
10
44.097
20
33.344
11
48.9198
21
33.4502
62
254
0
LINE
8
Modules
10
53.7475
20
33.5566
11
53.8231
21
30.1256
62
254
0
LINE
8
Modules
10
53.8231
20
30.1256
11
49.0002
21
30.0194
62
254
0
LINE
8
Modules
10
49.0002
20
30.0194
11
48.9246
21
33.4503
62
254
0
LINE
8
Modules
10
48.9246
20
33.4503
11
53.7475
21
33.5566
62
254
0
LINE
8
Modules
10
58.5752
20
33.6629
11
58.6507
21
30.2319
62
254
0
LINE
8
Modules
10
58.6507
20
30.2319
11
53.8279
21
30.1257
62
254
0
LINE
8
Modules
10
53.8279
20
30.1257
11
53.7523
21
33.5567
62
254
0
LINE
8
Modules
10
53.7523
20
33.5567
11
58.5752
21
33.6629
62
254
0
LINE
8
Modules
10
63.4029
20
33.7692
11
63.4784
21
30.3383
62
254
0
LINE
8
Modules
10
63.4784
20
30.3383
11
58.6555
21
30.2321
62
254
0
LINE
8
Modules
10
58.6555
20
30.2321
11
58.58
21
33.663
62
254
0
LINE
8
Modules
10
58.58
20
33.663
11
63.4029
21
33.7692
62
254
0
LINE
8
Modules
10
68.2305
20
33.8755
11
68.3061
21
30.4446
62
254
0
LINE
8
Modules
10
68.3061
20
30.4446
11
63.4832
21
30.3384
62
254
0
LINE
8
Modules
10
63.4832
20
30.3384
11
63.4077
21
33.7693
62
254
0
LINE
8
Modules
10
63.4077
20
33.7693
11
68.2305
21
33.8755
62
254
0
LINE
8
Modules
10
19.8781
20
36.2471
11
19.9537
21
32.8162
62
254
0
LINE
8
Modules
10
19.9537
20
32.8162
11
15.1308
21
32.71
62
254
0
LINE
8
Modules
10
15.1308
20
32.71
11
15.0553
21
36.1409
62
254
0
LINE
8
Modules
10
15.0553
20
36.1409
11
19.8781
21
36.2471
62
254
0
LINE
8
Modules
10
24.7058
20
36.3534
11
24.7814
21
32.9225
62
254
0
LINE
8
Modules
10
24.7814
20
32.9225
11
19.9585
21
32.8163
62
254
0
LINE
8
Modules
10
19.9585
20
32.8163
11
19.8829
21
36.2472
62
254
0
LINE
8
Modules
10
19.8829
20
36.2472
11
24.7058
21
36.3534
62
254
0
LINE
8
Modules
10
29.5335
20
36.4597
11
29.609
21
33.0288
62
254
0
LINE
8
Modules
10
29.609
20
33.0288
11
24.7862
21
32.9226
62
254
0
LINE
8
Modules
10
24.7862
20
32.9226
11
24.7106
21
36.3535
62
254
0
LINE
8
Modules
10
24.7106
20
36.3535
11
29.5335
21
36.4597
62
254
0
LINE
8
Modules
10
34.3612
20
36.5661
11
34.4367
21
33.1351
62
254
0
LINE
8
Modules
10
34.4367
20
33.1351
11
29.6138
21
33.0289
62
254
0
LINE
8
Modules
10
29.6138
20
33.0289
11
29.5383
21
36.4598
62
254
0
LINE
8
Modules
10
29.5383
20
36.4598
11
34.3612
21
36.5661
62
254
0
LINE
8
Modules
10
39.1888
20
36.6724
11
39.2644
21
33.2414
62
254
0
LINE
8
Modules
10
39.2644
20
33.2414
11
34.4415
21
33.1352
62
254
0
LINE
8
Modules
10
34.4415
20
33.1352
11
34.366
21
36.5662
62
254
0
LINE
8
Modules
10
34.366
20
36.5662
11
39.1888
21
36.6724
62
254
0
LINE
8
Modules
10
44.0165
20
36.7787
11
44.0921
21
33.3478
62
254
0
LINE
8
Modules
10
44.0921
20
33.3478
11
39.2692
21
33.2416
62
254
0
LINE
8
Modules
10
39.2692
20
33.2416
11
39.1936
21
36.6725
62
254
0
LINE
8
Modules
10
39.1936
20
36.6725
11
44.0165
21
36.7787
62
254
0
LINE
8
Modules
10
48.8442
20
36.885
11
48.9197
21
33.4541
62
254
0
LINE
8
Modules
10
48.9197
20
33.4541
11
44.0969
21
33.3479
62
254
0
LINE
8
Modules
10
44.0969
20
33.3479
11
44.0213
21
36.7788
62
254
0
LINE
8
Modules
10
44.0213
20
36.7788
11
48.8442
21
36.885
62
254
0
LINE
8
Modules
10
53.6719
20
36.9913
11
53.7474
21
33.5604
62
254
0
LINE
8
Modules
10
53.7474
20
33.5604
11
48.9246
21
33.4542
62
254
0
LINE
8
Modules
10
48.9246
20
33.4542
11
48.849
21
36.8851
62
254
0
LINE
8
Modules
10
48.849
20
36.8851
11
53.6719
21
36.9913
62
254
0
LINE
8
Modules
10
58.4995
20
37.0976
11
58.5751
21
33.6667
62
254
0
LINE
8
Modules
10
58.5751
20
33.6667
11
53.7522
21
33.5605
62
254
0
LINE
8
Modules
10
53.7522
20
33.5605
11
53.6767
21
36.9914
62
254
0
LINE
8
Modules
10
53.6767
20
36.9914
11
58.4995
21
37.0976
62
254
0
LINE
8
Modules
10
63.3272
20
37.204
11
63.4028
21
33.773
62
254
0
LINE
8
Modules
10
63.4028
20
33.773
11
58.5799
21
33.6668
62
254
0
LINE
8
Modules
10
58.5799
20
33.6668
11
58.5043
21
37.0978
62
254
0
LINE
8
Modules
10
58.5043
20
37.0978
11
63.3272
21
37.204
62
254
0
LINE
8
Modules
10
68.1549
20
37.3103
11
68.2304
21
33.8794
62
254
0
LINE
8
Modules
10
68.2304
20
33.8794
11
63.4076
21
33.7731
62
254
0
LINE
8
Modules
10
63.4076
20
33.7731
11
63.332
21
37.2041
62
254
0
LINE
8
Modules
10
63.332
20
37.2041
11
68.1549
21
37.3103
62
254
0
LINE
8
Modules
10
54.9432
20
-0.749845
11
53.3947
21
-3.81239
62
254
0
LINE
8
Modules
10
53.3947
20
-3.81239
11
49.0881
21
-1.63488
62
254
0
LINE
8
Modules
10
49.0881
20
-1.63488
11
50.6366
21
1.42767
62
254
0
LINE
8
Modules
10
50.6366
20
1.42767
11
54.9432
21
-0.749845
62
254
0
LINE
8
Modules
10
59.2542
20
-2.92953
11
57.7057
21
-5.99208
62
254
0
LINE
8
Modules
10
57.7057
20
-5.99208
11
53.399
21
-3.81456
62
254
0
LINE
8
Modules
10
53.399
20
-3.81456
11
54.9475
21
-0.752016
62
254
0
LINE
8
Modules
10
54.9475
20
-0.752016
11
59.2542
21
-2.92953
62
254
0
LINE
8
Modules
10
13.3839
20
24.113
11
11.8354
21
21.0504
62
254
0
LINE
8
Modules
10
11.8354
20
21.0504
11
7.52873
21
23.2279
62
254
0
LINE
8
Modules
10
7.52873
20
23.2279
11
9.0772
21
26.2905
62
254
0
LINE
8
Modules
10
9.0772
20
26.2905
11
13.3839
21
24.113
62
254
0
LINE
8
Modules
10
17.6948
20
21.9333
11
16.1463
21
18.8707
62
254
0
LINE
8
Modules
10
16.1463
20
18.8707
11
11.8397
21
21.0483
62
254
0
LINE
8
Modules
10
11.8397
20
21.0483
11
13.3882
21
24.1108
62
254
0
LINE
8
Modules
10
13.3882
20
24.1108
11
17.6948
21
21.9333
62
254
0
LINE
8
Modules
10
22.0058
20
19.7536
11
20.4573
21
16.6911
62
254
0
LINE
8
Modules
10
20.4573
20
16.6911
11
16.1506
21
18.8686
62
254
0
LINE
8
Modules
10
16.1506
20
18.8686
11
17.6991
21
21.9311
62
254
0
LINE
8
Modules
10
17.6991
20
21.9311
11
22.0058
21
19.7536
62
254
0
LINE
8
Modules
10
26.3167
20
17.5739
11
24.7683
21
14.5114
62
254
0
LINE
8
Modules
10
24.7683
20
14.5114
11
20.4616
21
16.6889
62
254
0
LINE
8
Modules
10
20.4616
20
16.6889
11
22.0101
21
19.7514
62
254
0
LINE
8
Modules
10
22.0101
20
19.7514
11
26.3167
21
17.5739
62
254
0
LINE
8
Modules
10
30.6277
20
15.3942
11
29.0792
21
12.3317
62
254
0
LINE
8
Modules
10
29.0792
20
12.3317
11
24.7726
21
14.5092
62
254
0
LINE
8
Modules
10
24.7726
20
14.5092
11
26.321
21
17.5717
62
254
0
LINE
8
Modules
10
26.321
20
17.5717
11
30.6277
21
15.3942
62
254
0
LINE
8
Modules
10
34.9386
20
13.2146
11
33.3902
21
10.152
62
254
0
LINE
8
Modules
10
33.3902
20
10.152
11
29.0835
21
12.3295
62
254
0
LINE
8
Modules
10
29.0835
20
12.3295
11
30.632
21
15.3921
62
254
0
LINE
8
Modules
10
30.632
20
15.3921
11
34.9386
21
13.2146
62
254
0
LINE
8
Modules
10
39.2496
20
11.0349
11
37.7011
21
7.97232
62
254
0
LINE
8
Modules
10
37.7011
20
7.97232
11
33.3945
21
10.1498
62
254
0
LINE
8
Modules
10
33.3945
20
10.1498
11
34.9429
21
13.2124
62
254
0
LINE
8
Modules
10
34.9429
20
13.2124
11
39.2496
21
11.0349
62
254
0
LINE
8
Modules
10
43.5606
20
8.85518
11
42.0121
21
5.79264
62
254
0
LINE
8
Modules
10
42.0121
20
5.79264
11
37.7054
21
7.97015
62
254
0
LINE
8
Modules
10
37.7054
20
7.97015
11
39.2539
21
11.0327
62
254
0
LINE
8
Modules
10
39.2539
20
11.0327
11
43.5606
21
8.85518
62
254
0
LINE
8
Modules
10
47.8715
20
6.6755
11
46.323
21
3.61295
62
254
0
LINE
8
Modules
10
46.323
20
3.61295
11
42.0164
21
5.79047
62
254
0
LINE
8
Modules
10
42.0164
20
5.79047
11
43.5648
21
8.85301
62
254
0
LINE
8
Modules
10
43.5648
20
8.85301
11
47.8715
21
6.6755
62
254
0
LINE
8
Modules
10
52.1825
20
4.49582
11
50.634
21
1.43327
62
254
0
LINE
8
Modules
10
50.634
20
1.43327
11
46.3273
21
3.61078
62
254
0
LINE
8
Modules
10
46.3273
20
3.61078
11
47.8758
21
6.67333
62
254
0
LINE
8
Modules
10
47.8758
20
6.67333
11
52.1825
21
4.49582
62
254
0
LINE
8
Modules
10
56.4934
20
2.31613
11
54.9449
21
-0.746414
62
254
0
LINE
8
Modules
10
54.9449
20
-0.746414
11
50.6383
21
1.4311
62
254
0
LINE
8
Modules
10
50.6383
20
1.4311
11
52.1868
21
4.49365
62
254
0
LINE
8
Modules
10
52.1868
20
4.49365
11
56.4934
21
2.31613
62
254
0
LINE
8
Modules
10
60.8044
20
0.13645
11
59.2559
21
-2.9261
62
254
0
LINE
8
Modules
10
59.2559
20
-2.9261
11
54.9492
21
-0.748586
62
254
0
LINE
8
Modules
10
54.9492
20
-0.748586
11
56.4977
21
2.31396
62
254
0
LINE
8
Modules
10
56.4977
20
2.31396
11
60.8044
21
0.13645
62
254
0
LINE
8
Modules
10
14.9341
20
27.1789
11
13.3856
21
24.1164
62
254
0
LINE
8
Modules
10
13.3856
20
24.1164
11
9.07894
21
26.2939
62
254
0
LINE
8
Modules
10
9.07894
20
26.2939
11
10.6274
21
29.3565
62
254
0
LINE
8
Modules
10
10.6274
20
29.3565
11
14.9341
21
27.1789
62
254
0
LINE
8
Modules
10
19.245
20
24.9993
11
17.6966
21
21.9367
62
254
0
LINE
8
Modules
10
17.6966
20
21.9367
11
13.3899
21
24.1142
62
254
0
LINE
8
Modules
10
13.3899
20
24.1142
11
14.9384
21
27.1768
62
254
0
LINE
8
Modules
10
14.9384
20
27.1768
11
19.245
21
24.9993
62
254
0
LINE
8
Modules
10
23.556
20
22.8196
11
22.0075
21
19.757
62
254
0
LINE
8
Modules
10
22.0075
20
19.757
11
17.7009
21
21.9345
62
254
0
LINE
8
Modules
10
17.7009
20
21.9345
11
19.2493
21
24.9971
62
254
0
LINE
8
Modules
10
19.2493
20
24.9971
11
23.556
21
22.8196
62
254
0
LINE
8
Modules
10
27.8669
20
20.6399
11
26.3185
21
17.5774
62
254
0
LINE
8
Modules
10
26.3185
20
17.5774
11
22.0118
21
19.7549
62
254
0
LINE
8
Modules
10
22.0118
20
19.7549
11
23.5603
21
22.8174
62
254
0
LINE
8
Modules
10
23.5603
20
22.8174
11
27.8669
21
20.6399
62
254
0
LINE
8
Modules
10
32.1779
20
18.4602
11
30.6294
21
15.3977
62
254
0
LINE
8
Modules
10
30.6294
20
15.3977
11
26.3228
21
17.5752
62
254
0
LINE
8
Modules
10
26.3228
20
17.5752
11
27.8712
21
20.6377
62
254
0
LINE
8
Modules
10
27.8712
20
20.6377
11
32.1779
21
18.4602
62
254
0
LINE
8
Modules
10
36.4888
20
16.2805
11
34.9404
21
13.218
62
254
0
LINE
8
Modules
10
34.9404
20
13.218
11
30.6337
21
15.3955
62
254
0
LINE
8
Modules
10
30.6337
20
15.3955
11
32.1822
21
18.458
62
254
0
LINE
8
Modules
10
32.1822
20
18.458
11
36.4888
21
16.2805
62
254
0
LINE
8
Modules
10
40.7998
20
14.1008
11
39.2513
21
11.0383
62
254
0
LINE
8
Modules
10
39.2513
20
11.0383
11
34.9447
21
13.2158
62
254
0
LINE
8
Modules
10
34.9447
20
13.2158
11
36.4931
21
16.2784
62
254
0
LINE
8
Modules
10
36.4931
20
16.2784
11
40.7998
21
14.1008
62
254
0
LINE
8
Modules
10
45.1108
20
11.9212
11
43.5623
21
8.85862
62
254
0
LINE
8
Modules
10
43.5623
20
8.85862
11
39.2556
21
11.0361
62
254
0
LINE
8
Modules
10
39.2556
20
11.0361
11
40.8041
21
14.0987
62
254
0
LINE
8
Modules
10
40.8041
20
14.0987
11
45.1108
21
11.9212
62
254
0
LINE
8
Modules
10
49.4217
20
9.74148
11
47.8732
21
6.67893
62
254
0
LINE
8
Modules
10
47.8732
20
6.67893
11
43.5666
21
8.85644
62
254
0
LINE
8
Modules
10
43.5666
20
8.85644
11
45.1151
21
11.919
62
254
0
LINE
8
Modules
10
45.1151
20
11.919
11
49.4217
21
9.74148
62
254
0
LINE
8
Modules
10
53.7327
20
7.5618
11
52.1842
21
4.49925
62
254
0
LINE
8
Modules
10
52.1842
20
4.49925
11
47.8775
21
6.67676
62
254
0
LINE
8
Modules
10
47.8775
20
6.67676
11
49.426
21
9.73931
62
254
0
LINE
8
Modules
10
49.426
20
9.73931
11
53.7327
21
7.5618
62
254
0
LINE
8
Modules
10
58.0436
20
5.38211
11
56.4952
21
2.31956
62
254
0
LINE
8
Modules
10
56.4952
20
2.31956
11
52.1885
21
4.49708
62
254
0
LINE
8
Modules
10
52.1885
20
4.49708
11
53.737
21
7.55963
62
254
0
LINE
8
Modules
10
53.737
20
7.55963
11
58.0436
21
5.38211
62
254
0
LINE
8
Modules
10
62.3546
20
3.20243
11
60.8061
21
0.139881
62
254
0
LINE
8
Modules
10
60.8061
20
0.139881
11
56.4995
21
2.31739
62
254
0
LINE
8
Modules
10
56.4995
20
2.31739
11
58.0479
21
5.37994
62
254
0
LINE
8
Modules
10
58.0479
20
5.37994
11
62.3546
21
3.20243
62
254
0
LINE
8
Modules
10
29.4171
20
23.7059
11
27.8687
21
20.6433
62
254
0
LINE
8
Modules
10
27.8687
20
20.6433
11
23.562
21
22.8208
62
254
0
LINE
8
Modules
10
23.562
20
22.8208
11
25.1105
21
25.8834
62
254
0
LINE
8
Modules
10
25.1105
20
25.8834
11
29.4171
21
23.7059
62
254
0
LINE
8
Modules
10
33.7281
20
21.5262
11
32.1796
21
18.4636
62
254
0
LINE
8
Modules
10
32.1796
20
18.4636
11
27.873
21
20.6412
62
254
0
LINE
8
Modules
10
27.873
20
20.6412
11
29.4214
21
23.7037
62
254
0
LINE
8
Modules
10
29.4214
20
23.7037
11
33.7281
21
21.5262
62
254
0
LINE
8
Modules
10
38.0391
20
19.3465
11
36.4906
21
16.284
62
254
0
LINE
8
Modules
10
36.4906
20
16.284
11
32.1839
21
18.4615
62
254
0
LINE
8
Modules
10
32.1839
20
18.4615
11
33.7324
21
21.524
62
254
0
LINE
8
Modules
10
33.7324
20
21.524
11
38.0391
21
19.3465
62
254
0
LINE
8
Modules
10
42.35
20
17.1668
11
40.8015
21
14.1043
62
254
0
LINE
8
Modules
10
40.8015
20
14.1043
11
36.4949
21
16.2818
62
254
0
LINE
8
Modules
10
36.4949
20
16.2818
11
38.0434
21
19.3443
62
254
0
LINE
8
Modules
10
38.0434
20
19.3443
11
42.35
21
17.1668
62
254
0
LINE
8
Modules
10
46.661
20
14.9871
11
45.1125
21
11.9246
62
254
0
LINE
8
Modules
10
45.1125
20
11.9246
11
40.8058
21
14.1021
62
254
0
LINE
8
Modules
10
40.8058
20
14.1021
11
42.3543
21
17.1647
62
254
0
LINE
8
Modules
10
42.3543
20
17.1647
11
46.661
21
14.9871
62
254
0
LINE
8
Modules
10
50.9719
20
12.8075
11
49.4235
21
9.74491
62
254
0
LINE
8
Modules
10
49.4235
20
9.74491
11
45.1168
21
11.9224
62
254
0
LINE
8
Modules
10
45.1168
20
11.9224
11
46.6653
21
14.985
62
254
0
LINE
8
Modules
10
46.6653
20
14.985
11
50.9719
21
12.8075
62
254
0
LINE
8
Modules
10
55.2829
20
10.6278
11
53.7344
21
7.56523
62
254
0
LINE
8
Modules
10
53.7344
20
7.56523
11
49.4277
21
9.74274
62
254
0
LINE
8
Modules
10
49.4277
20
9.74274
11
50.9762
21
12.8053
62
254
0
LINE
8
Modules
10
50.9762
20
12.8053
11
55.2829
21
10.6278
62
254
0
LINE
8
Modules
10
59.5938
20
8.44809
11
58.0454
21
5.38554
62
254
0
LINE
8
Modules
10
58.0454
20
5.38554
11
53.7387
21
7.56306
62
254
0
LINE
8
Modules
10
53.7387
20
7.56306
11
55.2872
21
10.6256
62
254
0
LINE
8
Modules
10
55.2872
20
10.6256
11
59.5938
21
8.44809
62
254
0
LINE
8
Modules
10
63.9048
20
6.26841
11
62.3563
21
3.20586
62
254
0
LINE
8
Modules
10
62.3563
20
3.20586
11
58.0497
21
5.38337
62
254
0
LINE
8
Modules
10
58.0497
20
5.38337
11
59.5981
21
8.44592
62
254
0
LINE
8
Modules
10
59.5981
20
8.44592
11
63.9048
21
6.26841
62
254
0
LINE
8
Modules
10
43.9002
20
20.2328
11
42.3517
21
17.1703
62
254
0
LINE
8
Modules
10
42.3517
20
17.1703
11
38.0451
21
19.3478
62
254
0
LINE
8
Modules
10
38.0451
20
19.3478
11
39.5936
21
22.4103
62
254
0
LINE
8
Modules
10
39.5936
20
22.4103
11
43.9002
21
20.2328
62
254
0
LINE
8
Modules
10
48.2112
20
18.0531
11
46.6627
21
14.9906
62
254
0
LINE
8
Modules
10
46.6627
20
14.9906
11
42.356
21
17.1681
62
254
0
LINE
8
Modules
10
42.356
20
17.1681
11
43.9045
21
20.2306
62
254
0
LINE
8
Modules
10
43.9045
20
20.2306
11
48.2112
21
18.0531
62
254
0
LINE
8
Modules
10
52.5221
20
15.8734
11
50.9737
21
12.8109
62
254
0
LINE
8
Modules
10
50.9737
20
12.8109
11
46.667
21
14.9884
62
254
0
LINE
8
Modules
10
46.667
20
14.9884
11
48.2155
21
18.051
62
254
0
LINE
8
Modules
10
48.2155
20
18.051
11
52.5221
21
15.8734
62
254
0
LINE
8
Modules
10
56.8331
20
13.6938
11
55.2846
21
10.6312
62
254
0
LINE
8
Modules
10
55.2846
20
10.6312
11
50.978
21
12.8087
62
254
0
LINE
8
Modules
10
50.978
20
12.8087
11
52.5264
21
15.8713
62
254
0
LINE
8
Modules
10
52.5264
20
15.8713
11
56.8331
21
13.6938
62
254
0
LINE
8
Modules
10
61.144
20
11.5141
11
59.5956
21
8.45152
62
254
0
LINE
8
Modules
10
59.5956
20
8.45152
11
55.2889
21
10.629
62
254
0
LINE
8
Modules
10
55.2889
20
10.629
11
56.8374
21
13.6916
62
254
0
LINE
8
Modules
10
56.8374
20
13.6916
11
61.144
21
11.5141
62
254
0
LINE
8
Modules
10
65.455
20
9.33439
11
63.9065
21
6.27184
62
254
0
LINE
8
Modules
10
63.9065
20
6.27184
11
59.5999
21
8.44935
62
254
0
LINE
8
Modules
10
59.5999
20
8.44935
11
61.1483
21
11.5119
62
254
0
LINE
8
Modules
10
61.1483
20
11.5119
11
65.455
21
9.33439
62
254
0
LINE
8
Modules
10
58.3833
20
16.7597
11
56.8348
21
13.6972
62
254
0
LINE
8
Modules
10
56.8348
20
13.6972
11
52.5282
21
15.8747
62
254
0
LINE
8
Modules
10
52.5282
20
15.8747
11
54.0766
21
18.9372
62
254
0
LINE
8
Modules
10
54.0766
20
18.9372
11
58.3833
21
16.7597
62
254
0
LINE
8
Modules
10
62.6942
20
14.5801
11
61.1458
21
11.5175
62
254
0
LINE
8
Modules
10
61.1458
20
11.5175
11
56.8391
21
13.695
62
254
0
LINE
8
Modules
10
56.8391
20
13.695
11
58.3876
21
16.7576
62
254
0
LINE
8
Modules
10
58.3876
20
16.7576
11
62.6942
21
14.5801
62
254
0
LINE
8
Modules
10
67.0052
20
12.4004
11
65.4567
21
9.33782
62
254
0
LINE
8
Modules
10
65.4567
20
9.33782
11
61.1501
21
11.5153
62
254
0
LINE
8
Modules
10
61.1501
20
11.5153
11
62.6985
21
14.5779
62
254
0
LINE
8
Modules
10
62.6985
20
14.5779
11
67.0052
21
12.4004
62
254
0
LINE
8
Modules
10
8.25331
20
15.2451
11
5.1895
21
13.6991
62
254
0
LINE
8
Modules
10
5.1895
20
13.6991
11
3.0633
21
17.9129
62
254
0
LINE
8
Modules
10
3.0633
20
17.9129
11
6.12711
21
19.4588
62
254
0
LINE
8
Modules
10
6.12711
20
19.4588
11
8.25331
21
15.2451
62
254
0
LINE
8
Modules
10
10.3815
20
11.0273
11
7.31773
21
9.48135
62
254
0
LINE
8
Modules
10
7.31773
20
9.48135
11
5.19153
21
13.6951
62
254
0
LINE
8
Modules
10
5.19153
20
13.6951
11
8.25534
21
15.2411
62
254
0
LINE
8
Modules
10
8.25534
20
15.2411
11
10.3815
21
11.0273
62
254
0
LINE
8
Modules
10
11.3206
20
16.7928
11
8.25675
21
15.2468
62
254
0
LINE
8
Modules
10
8.25675
20
15.2468
11
6.13055
21
19.4606
62
254
0
LINE
8
Modules
10
6.13055
20
19.4606
11
9.19436
21
21.0065
62
254
0
LINE
8
Modules
10
9.19436
20
21.0065
11
11.3206
21
16.7928
62
254
0
LINE
8
Modules
10
13.4488
20
12.575
11
10.385
21
11.029
62
254
0
LINE
8
Modules
10
10.385
20
11.029
11
8.25878
21
15.2428
62
254
0
LINE
8
Modules
10
8.25878
20
15.2428
11
11.3226
21
16.7888
62
254
0
LINE
8
Modules
10
11.3226
20
16.7888
11
13.4488
21
12.575
62
254
0
LINE
8
Modules
10
15.577
20
8.35724
11
12.5132
21
6.81128
62
254
0
LINE
8
Modules
10
12.5132
20
6.81128
11
10.387
21
11.025
62
254
0
LINE
8
Modules
10
10.387
20
11.025
11
13.4508
21
12.571
62
254
0
LINE
8
Modules
10
13.4508
20
12.571
11
15.577
21
8.35724
62
254
0
LINE
8
Modules
10
17.7053
20
4.13948
11
14.6414
21
2.59352
62
254
0
LINE
8
Modules
10
14.6414
20
2.59352
11
12.5152
21
6.80727
62
254
0
LINE
8
Modules
10
12.5152
20
6.80727
11
15.5791
21
8.35323
62
254
0
LINE
8
Modules
10
15.5791
20
8.35323
11
17.7053
21
4.13948
62
254
0
LINE
8
Modules
10
19.8335
20
-0.0782835
11
16.7697
21
-1.62425
62
254
0
LINE
8
Modules
10
16.7697
20
-1.62425
11
14.6435
21
2.5895
62
254
0
LINE
8
Modules
10
14.6435
20
2.5895
11
17.7073
21
4.13547
62
254
0
LINE
8
Modules
10
17.7073
20
4.13547
11
19.8335
21
-0.0782835
62
254
0
LINE
8
Modules
10
21.9617
20
-4.29605
11
18.8979
21
-5.84201
62
254
0
LINE
8
Modules
10
18.8979
20
-5.84201
11
16.7717
21
-1.62826
62
254
0
LINE
8
Modules
10
16.7717
20
-1.62826
11
19.8355
21
-0.0822966
62
254
0
LINE
8
Modules
10
19.8355
20
-0.0822966
11
21.9617
21
-4.29605
62
254
0
LINE
8
Modules
10
16.516
20
14.1227
11
13.4522
21
12.5767
62
254
0
LINE
8
Modules
10
13.4522
20
12.5767
11
11.326
21
16.7905
62
254
0
LINE
8
Modules
10
11.326
20
16.7905
11
14.3898
21
18.3364
62
254
0
LINE
8
Modules
10
14.3898
20
18.3364
11
16.516
21
14.1227
62
254
0
LINE
8
Modules
10
18.6443
20
9.90493
11
15.5805
21
8.35897
62
254
0
LINE
8
Modules
10
15.5805
20
8.35897
11
13.4543
21
12.5727
62
254
0
LINE
8
Modules
10
13.4543
20
12.5727
11
16.5181
21
14.1187
62
254
0
LINE
8
Modules
10
16.5181
20
14.1187
11
18.6443
21
9.90493
62
254
0
LINE
8
Modules
10
20.7725
20
5.68717
11
17.7087
21
4.14121
62
254
0
LINE
8
Modules
10
17.7087
20
4.14121
11
15.5825
21
8.35496
62
254
0
LINE
8
Modules
10
15.5825
20
8.35496
11
18.6463
21
9.90092
62
254
0
LINE
8
Modules
10
18.6463
20
9.90092
11
20.7725
21
5.68717
62
254
0
LINE
8
Modules
10
22.9007
20
1.46941
11
19.8369
21
-0.0765517
62
254
0
LINE
8
Modules
10
19.8369
20
-0.0765517
11
17.7107
21
4.1372
62
254
0
LINE
8
Modules
10
17.7107
20
4.1372
11
20.7745
21
5.68316
62
254
0
LINE
8
Modules
10
20.7745
20
5.68316
11
22.9007
21
1.46941
62
254
0
LINE
8
Modules
10
25.029
20
-2.74835
11
21.9652
21
-4.29431
62
254
0
LINE
8
Modules
10
21.9652
20
-4.29431
11
19.839
21
-0.0805647
62
254
0
LINE
8
Modules
10
19.839
20
-0.0805647
11
22.9028
21
1.4654
62
254
0
LINE
8
Modules
10
22.9028
20
1.4654
11
25.029
21
-2.74835
62
254
0
LINE
8
Modules
10
27.1572
20
-6.96611
11
24.0934
21
-8.51208
62
254
0
LINE
8
Modules
10
24.0934
20
-8.51208
11
21.9672
21
-4.29833
62
254
0
LINE
8
Modules
10
21.9672
20
-4.29833
11
25.031
21
-2.75236
62
254
0
LINE
8
Modules
10
25.031
20
-2.75236
11
27.1572
21
-6.96611
62
254
0
LINE
8
Modules
10
29.2854
20
-11.1839
11
26.2216
21
-12.7298
62
254
0
LINE
8
Modules
10
26.2216
20
-12.7298
11
24.0954
21
-8.51609
62
254
0
LINE
8
Modules
10
24.0954
20
-8.51609
11
27.1592
21
-6.97013
62
254
0
LINE
8
Modules
10
27.1592
20
-6.97013
11
29.2854
21
-11.1839
62
254
0
LINE
8
Modules
10
31.4137
20
-15.4016
11
28.3498
21
-16.9476
62
254
0
LINE
8
Modules
10
28.3498
20
-16.9476
11
26.2236
21
-12.7339
62
254
0
LINE
8
Modules
10
26.2236
20
-12.7339
11
29.2875
21
-11.1879
62
254
0
LINE
8
Modules
10
29.2875
20
-11.1879
11
31.4137
21
-15.4016
62
254
0
LINE
8
Modules
10
33.5419
20
-19.6194
11
30.4781
21
-21.1654
62
254
0
LINE
8
Modules
10
30.4781
20
-21.1654
11
28.3519
21
-16.9516
62
254
0
LINE
8
Modules
10
28.3519
20
-16.9516
11
31.4157
21
-15.4057
62
254
0
LINE
8
Modules
10
31.4157
20
-15.4057
11
33.5419
21
-19.6194
62
254
0
LINE
8
Modules
10
23.8398
20
7.23487
11
20.7759
21
5.6889
62
254
0
LINE
8
Modules
10
20.7759
20
5.6889
11
18.6497
21
9.90265
62
254
0
LINE
8
Modules
10
18.6497
20
9.90265
11
21.7136
21
11.4486
62
254
0
LINE
8
Modules
10
21.7136
20
11.4486
11
23.8398
21
7.23487
62
254
0
LINE
8
Modules
10
25.968
20
3.0171
11
22.9042
21
1.47114
62
254
0
LINE
8
Modules
10
22.9042
20
1.47114
11
20.778
21
5.68489
62
254
0
LINE
8
Modules
10
20.778
20
5.68489
11
23.8418
21
7.23085
62
254
0
LINE
8
Modules
10
23.8418
20
7.23085
11
25.968
21
3.0171
62
254
0
LINE
8
Modules
10
28.0962
20
-1.20066
11
25.0324
21
-2.74662
62
254
0
LINE
8
Modules
10
25.0324
20
-2.74662
11
22.9062
21
1.46713
62
254
0
LINE
8
Modules
10
22.9062
20
1.46713
11
25.97
21
3.01309
62
254
0
LINE
8
Modules
10
25.97
20
3.01309
11
28.0962
21
-1.20066
62
254
0
LINE
8
Modules
10
30.2245
20
-5.41842
11
27.1606
21
-6.96438
62
254
0
LINE
8
Modules
10
27.1606
20
-6.96438
11
25.0344
21
-2.75063
62
254
0
LINE
8
Modules
10
25.0344
20
-2.75063
11
28.0982
21
-1.20467
62
254
0
LINE
8
Modules
10
28.0982
20
-1.20467
11
30.2245
21
-5.41842
62
254
0
LINE
8
Modules
10
32.3527
20
-9.63618
11
29.2889
21
-11.1821
62
254
0
LINE
8
Modules
10
29.2889
20
-11.1821
11
27.1627
21
-6.96839
62
254
0
LINE
8
Modules
10
27.1627
20
-6.96839
11
30.2265
21
-5.42243
62
254
0
LINE
8
Modules
10
30.2265
20
-5.42243
11
32.3527
21
-9.63618
62
254
0
LINE
8
Modules
10
34.4809
20
-13.8539
11
31.4171
21
-15.3999
62
254
0
LINE
8
Modules
10
31.4171
20
-15.3999
11
29.2909
21
-11.1862
62
254
0
LINE
8
Modules
10
29.2909
20
-11.1862
11
32.3547
21
-9.64019
62
254
0
LINE
8
Modules
10
32.3547
20
-9.64019
11
34.4809
21
-13.8539
62
254
0
LINE
8
Modules
10
36.6091
20
-18.0717
11
33.5453
21
-19.6177
62
254
0
LINE
8
Modules
10
33.5453
20
-19.6177
11
31.4191
21
-15.4039
62
254
0
LINE
8
Modules
10
31.4191
20
-15.4039
11
34.4829
21
-13.858
62
254
0
LINE
8
Modules
10
34.4829
20
-13.858
11
36.6091
21
-18.0717
62
254
0
LINE
8
Modules
10
29.0352
20
4.5648
11
25.9714
21
3.01884
62
254
0
LINE
8
Modules
10
25.9714
20
3.01884
11
23.8452
21
7.23259
62
254
0
LINE
8
Modules
10
23.8452
20
7.23259
11
26.909
21
8.77855
62
254
0
LINE
8
Modules
10
26.909
20
8.77855
11
29.0352
21
4.5648
62
254
0
LINE
8
Modules
10
31.1635
20
0.347036
11
28.0997
21
-1.19893
62
254
0
LINE
8
Modules
10
28.0997
20
-1.19893
11
25.9735
21
3.01482
62
254
0
LINE
8
Modules
10
25.9735
20
3.01482
11
29.0373
21
4.56079
62
254
0
LINE
8
Modules
10
29.0373
20
4.56079
11
31.1635
21
0.347036
62
254
0
LINE
8
Modules
10
33.2917
20
-3.87073
11
30.2279
21
-5.41669
62
254
0
LINE
8
Modules
10
30.2279
20
-5.41669
11
28.1017
21
-1.20294
62
254
0
LINE
8
Modules
10
28.1017
20
-1.20294
11
31.1655
21
0.343023
62
254
0
LINE
8
Modules
10
31.1655
20
0.343023
11
33.2917
21
-3.87073
62
254
0
LINE
8
Modules
10
35.4199
20
-8.08849
11
32.3561
21
-9.63445
62
254
0
LINE
8
Modules
10
32.3561
20
-9.63445
11
30.2299
21
-5.4207
62
254
0
LINE
8
Modules
10
30.2299
20
-5.4207
11
33.2937
21
-3.87474
62
254
0
LINE
8
Modules
10
33.2937
20
-3.87474
11
35.4199
21
-8.08849
62
254
0
LINE
8
Modules
10
37.5482
20
-12.3062
11
34.4843
21
-13.8522
62
254
0
LINE
8
Modules
10
34.4843
20
-13.8522
11
32.3581
21
-9.63846
62
254
0
LINE
8
Modules
10
32.3581
20
-9.63846
11
35.422
21
-8.0925
62
254
0
LINE
8
Modules
10
35.422
20
-8.0925
11
37.5482
21
-12.3062
62
254
0
LINE
8
Modules
10
39.6764
20
-16.524
11
36.6126
21
-18.07
62
254
0
LINE
8
Modules
10
36.6126
20
-18.07
11
34.4864
21
-13.8562
62
254
0
LINE
8
Modules
10
34.4864
20
-13.8562
11
37.5502
21
-12.3103
62
254
0
LINE
8
Modules
10
37.5502
20
-12.3103
11
39.6764
21
-16.524
62
254
0
LINE
8
Modules
10
34.2307
20
1.89473
11
31.1669
21
0.348768
62
254
0
LINE
8
Modules
10
31.1669
20
0.348768
11
29.0407
21
4.56252
62
254
0
LINE
8
Modules
10
29.0407
20
4.56252
11
32.1045
21
6.10848
62
254
0
LINE
8
Modules
10
32.1045
20
6.10848
11
34.2307
21
1.89473
62
254
0
LINE
8
Modules
10
36.359
20
-2.32303
11
33.2951
21
-3.86899
62
254
0
LINE
8
Modules
10
33.2951
20
-3.86899
11
31.1689
21
0.344755
62
254
0
LINE
8
Modules
10
31.1689
20
0.344755
11
34.2327
21
1.89072
62
254
0
LINE
8
Modules
10
34.2327
20
1.89072
11
36.359
21
-2.32303
62
254
0
LINE
8
Modules
10
38.4872
20
-6.54079
11
35.4234
21
-8.08676
62
254
0
LINE
8
Modules
10
35.4234
20
-8.08676
11
33.2972
21
-3.87301
62
254
0
LINE
8
Modules
10
33.2972
20
-3.87301
11
36.361
21
-2.32704
62
254
0
LINE
8
Modules
10
36.361
20
-2.32704
11
38.4872
21
-6.54079
62
254
0
LINE
8
Modules
10
40.6154
20
-10.7586
11
37.5516
21
-12.3045
62
254
0
LINE
8
Modules
10
37.5516
20
-12.3045
11
35.4254
21
-8.09077
62
254
0
LINE
8
Modules
10
35.4254
20
-8.09077
11
38.4892
21
-6.54481
62
254
0
LINE
8
Modules
10
38.4892
20
-6.54481
11
40.6154
21
-10.7586
62
254
0
LINE
8
Modules
10
42.7436
20
-14.9763
11
39.6798
21
-16.5223
62
254
0
LINE
8
Modules
10
39.6798
20
-16.5223
11
37.5536
21
-12.3085
62
254
0
LINE
8
Modules
10
37.5536
20
-12.3085
11
40.6174
21
-10.7626
62
254
0
LINE
8
Modules
10
40.6174
20
-10.7626
11
42.7436
21
-14.9763
62
254
0
LINE
8
Modules
10
39.4262
20
-0.775338
11
36.3624
21
-2.3213
62
254
0
LINE
8
Modules
10
36.3624
20
-2.3213
11
34.2362
21
1.89245
62
254
0
LINE
8
Modules
10
34.2362
20
1.89245
11
37.3
21
3.43841
62
254
0
LINE
8
Modules
10
37.3
20
3.43841
11
39.4262
21
-0.775338
62
254
0
LINE
8
Modules
10
41.5544
20
-4.9931
11
38.4906
21
-6.53906
62
254
0
LINE
8
Modules
10
38.4906
20
-6.53906
11
36.3644
21
-2.32531
62
254
0
LINE
8
Modules
10
36.3644
20
-2.32531
11
39.4282
21
-0.779351
62
254
0
LINE
8
Modules
10
39.4282
20
-0.779351
11
41.5544
21
-4.9931
62
254
0
LINE
8
Modules
10
43.6827
20
-9.21086
11
40.6188
21
-10.7568
62
254
0
LINE
8
Modules
10
40.6188
20
-10.7568
11
38.4926
21
-6.54307
62
254
0
LINE
8
Modules
10
38.4926
20
-6.54307
11
41.5565
21
-4.99711
62
254
0
LINE
8
Modules
10
41.5565
20
-4.99711
11
43.6827
21
-9.21086
62
254
0
LINE
8
Modules
10
45.8109
20
-13.4286
11
42.7471
21
-14.9746
62
254
0
LINE
8
Modules
10
42.7471
20
-14.9746
11
40.6209
21
-10.7608
62
254
0
LINE
8
Modules
10
40.6209
20
-10.7608
11
43.6847
21
-9.21487
62
254
0
LINE
8
Modules
10
43.6847
20
-9.21487
11
45.8109
21
-13.4286
62
254
0
LINE
8
Modules
10
44.6217
20
-3.44541
11
41.5579
21
-4.99137
62
254
0
LINE
8
Modules
10
41.5579
20
-4.99137
11
39.4317
21
-0.777619
62
254
0
LINE
8
Modules
10
39.4317
20
-0.777619
11
42.4955
21
0.768343
62
254
0
LINE
8
Modules
10
42.4955
20
0.768343
11
44.6217
21
-3.44541
62
254
0
LINE
8
Modules
10
46.7499
20
-7.66317
11
43.6861
21
-9.20913
62
254
0
LINE
8
Modules
10
43.6861
20
-9.20913
11
41.5599
21
-4.99538
62
254
0
LINE
8
Modules
10
41.5599
20
-4.99538
11
44.6237
21
-3.44942
62
254
0
LINE
8
Modules
10
44.6237
20
-3.44942
11
46.7499
21
-7.66317
62
254
0
LINE
8
Modules
10
48.8781
20
-11.8809
11
45.8143
21
-13.4269
62
254
0
LINE
8
Modules
10
45.8143
20
-13.4269
11
43.6881
21
-9.21314
62
254
0
LINE
8
Modules
10
43.6881
20
-9.21314
11
46.7519
21
-7.66718
62
254
0
LINE
8
Modules
10
46.7519
20
-7.66718
11
48.8781
21
-11.8809
62
254
0
LINE
8
Modules
10
49.8172
20
-6.11547
11
46.7534
21
-7.66144
62
254
0
LINE
8
Modules
10
46.7534
20
-7.66144
11
44.6271
21
-3.44769
62
254
0
LINE
8
Modules
10
44.6271
20
-3.44769
11
47.691
21
-1.90172
62
254
0
LINE
8
Modules
10
47.691
20
-1.90172
11
49.8172
21
-6.11547
62
254
0
LINE
8
Modules
10
51.9454
20
-10.3332
11
48.8816
21
-11.8792
62
254
0
LINE
8
Modules
10
48.8816
20
-11.8792
11
46.7554
21
-7.66545
62
254
0
LINE
8
Modules
10
46.7554
20
-7.66545
11
49.8192
21
-6.11949
62
254
0
LINE
8
Modules
10
49.8192
20
-6.11949
11
51.9454
21
-10.3332
62
254
0
LINE
8
Modules
10
55.0126
20
-8.78554
11
51.9488
21
-10.3315
62
254
0
LINE
8
Modules
10
51.9488
20
-10.3315
11
49.8226
21
-6.11775
62
254
0
LINE
8
Modules
10
49.8226
20
-6.11775
11
52.8864
21
-4.57179
62
254
0
LINE
8
Modules
10
52.8864
20
-4.57179
11
55.0126
21
-8.78554
62
254
0
LINE
8
Modules
10
-5.82574
20
15.126
11
-9.25683
21
15.0586
62
254
0
LINE
8
Modules
10
-9.25683
20
15.0586
11
-9.34623
21
19.6069
62
254
0
LINE
8
Modules
10
-9.34623
20
19.6069
11
-5.91514
21
19.6744
62
254
0
LINE
8
Modules
10
-5.91514
20
19.6744
11
-5.82574
21
15.126
62
254
0
LINE
8
Modules
10
-5.73626
20
10.5736
11
-9.16735
21
10.5062
62
254
0
LINE
8
Modules
10
-9.16735
20
10.5062
11
-9.25675
21
15.0545
62
254
0
LINE
8
Modules
10
-9.25675
20
15.0545
11
-5.82566
21
15.122
62
254
0
LINE
8
Modules
10
-5.82566
20
15.122
11
-5.73626
21
10.5736
62
254
0
LINE
8
Modules
10
-5.64678
20
6.02124
11
-9.07787
21
5.9538
62
254
0
LINE
8
Modules
10
-9.07787
20
5.9538
11
-9.16727
21
10.5022
62
254
0
LINE
8
Modules
10
-9.16727
20
10.5022
11
-5.73618
21
10.5696
62
254
0
LINE
8
Modules
10
-5.73618
20
10.5696
11
-5.64678
21
6.02124
62
254
0
LINE
8
Modules
10
-5.5573
20
1.46885
11
-8.98839
21
1.40141
62
254
0
LINE
8
Modules
10
-8.98839
20
1.40141
11
-9.07779
21
5.94977
62
254
0
LINE
8
Modules
10
-9.07779
20
5.94977
11
-5.6467
21
6.01721
62
254
0
LINE
8
Modules
10
-5.6467
20
6.01721
11
-5.5573
21
1.46885
62
254
0
LINE
8
Modules
10
-5.46782
20
-3.08354
11
-8.89891
21
-3.15098
62
254
0
LINE
8
Modules
10
-8.89891
20
-3.15098
11
-8.98831
21
1.39738
62
254
0
LINE
8
Modules
10
-8.98831
20
1.39738
11
-5.55722
21
1.46482
62
254
0
LINE
8
Modules
10
-5.55722
20
1.46482
11
-5.46782
21
-3.08354
62
254
0
LINE
8
Modules
10
-5.37834
20
-7.63593
11
-8.80943
21
-7.70337
62
254
0
LINE
8
Modules
10
-8.80943
20
-7.70337
11
-8.89883
21
-3.15501
62
254
0
LINE
8
Modules
10
-8.89883
20
-3.15501
11
-5.46774
21
-3.08757
62
254
0
LINE
8
Modules
10
-5.46774
20
-3.08757
11
-5.37834
21
-7.63593
62
254
0
LINE
8
Modules
10
-5.28886
20
-12.1883
11
-8.71995
21
-12.2558
62
254
0
LINE
8
Modules
10
-8.71995
20
-12.2558
11
-8.80935
21
-7.7074
62
254
0
LINE
8
Modules
10
-8.80935
20
-7.7074
11
-5.37826
21
-7.63996
62
254
0
LINE
8
Modules
10
-5.37826
20
-7.63996
11
-5.28886
21
-12.1883
62
254
0
LINE
8
Modules
10
-5.19938
20
-16.7407
11
-8.63047
21
-16.8082
62
254
0
LINE
8
Modules
10
-8.63047
20
-16.8082
11
-8.71987
21
-12.2598
62
254
0
LINE
8
Modules
10
-8.71987
20
-12.2598
11
-5.28878
21
-12.1924
62
254
0
LINE
8
Modules
10
-5.28878
20
-12.1924
11
-5.19938
21
-16.7407
62
254
0
LINE
8
Modules
10
-5.1099
20
-21.2931
11
-8.54099
21
-21.3605
62
254
0
LINE
8
Modules
10
-8.54099
20
-21.3605
11
-8.63039
21
-16.8122
62
254
0
LINE
8
Modules
10
-8.63039
20
-16.8122
11
-5.1993
21
-16.7447
62
254
0
LINE
8
Modules
10
-5.1993
20
-16.7447
11
-5.1099
21
-21.2931
62
254
0
LINE
8
Modules
10
-2.39079
20
15.1935
11
-5.82189
21
15.1261
62
254
0
LINE
8
Modules
10
-5.82189
20
15.1261
11
-5.91129
21
19.6745
62
254
0
LINE
8
Modules
10
-5.91129
20
19.6745
11
-2.48019
21
19.7419
62
254
0
LINE
8
Modules
10
-2.48019
20
19.7419
11
-2.39079
21
15.1935
62
254
0
LINE
8
Modules
10
-2.30131
20
10.6411
11
-5.73241
21
10.5737
62
254
0
LINE
8
Modules
10
-5.73241
20
10.5737
11
-5.82181
21
15.1221
62
254
0
LINE
8
Modules
10
-5.82181
20
15.1221
11
-2.39071
21
15.1895
62
254
0
LINE
8
Modules
10
-2.39071
20
15.1895
11
-2.30131
21
10.6411
62
254
0
LINE
8
Modules
10
-2.21183
20
6.08875
11
-5.64293
21
6.02131
62
254
0
LINE
8
Modules
10
-5.64293
20
6.02131
11
-5.73233
21
10.5697
62
254
0
LINE
8
Modules
10
-5.73233
20
10.5697
11
-2.30123
21
10.6371
62
254
0
LINE
8
Modules
10
-2.30123
20
10.6371
11
-2.21183
21
6.08875
62
254
0
LINE
8
Modules
10
-2.12235
20
1.53636
11
-5.55345
21
1.46892
62
254
0
LINE
8
Modules
10
-5.55345
20
1.46892
11
-5.64285
21
6.01728
62
254
0
LINE
8
Modules
10
-5.64285
20
6.01728
11
-2.21175
21
6.08472
62
254
0
LINE
8
Modules
10
-2.21175
20
6.08472
11
-2.12235
21
1.53636
62
254
0
LINE
8
Modules
10
-2.03287
20
-3.01603
11
-5.46397
21
-3.08347
62
254
0
LINE
8
Modules
10
-5.46397
20
-3.08347
11
-5.55337
21
1.46489
62
254
0
LINE
8
Modules
10
-5.55337
20
1.46489
11
-2.12227
21
1.53233
62
254
0
LINE
8
Modules
10
-2.12227
20
1.53233
11
-2.03287
21
-3.01603
62
254
0
LINE
8
Modules
10
-1.94339
20
-7.56842
11
-5.37449
21
-7.63586
62
254
0
LINE
8
Modules
10
-5.37449
20
-7.63586
11
-5.46389
21
-3.0875
62
254
0
LINE
8
Modules
10
-5.46389
20
-3.0875
11
-2.03279
21
-3.02006
62
254
0
LINE
8
Modules
10
-2.03279
20
-3.02006
11
-1.94339
21
-7.56842
62
254
0
LINE
8
Modules
10
-1.85391
20
-12.1208
11
-5.28501
21
-12.1882
62
254
0
LINE
8
Modules
10
-5.28501
20
-12.1882
11
-5.37441
21
-7.63989
62
254
0
LINE
8
Modules
10
-5.37441
20
-7.63989
11
-1.94331
21
-7.57245
62
254
0
LINE
8
Modules
10
-1.94331
20
-7.57245
11
-1.85391
21
-12.1208
62
254
0
LINE
8
Modules
10
-1.76443
20
-16.6732
11
-5.19553
21
-16.7406
62
254
0
LINE
8
Modules
10
-5.19553
20
-16.7406
11
-5.28493
21
-12.1923
62
254
0
LINE
8
Modules
10
-5.28493
20
-12.1923
11
-1.85383
21
-12.1248
62
254
0
LINE
8
Modules
10
-1.85383
20
-12.1248
11
-1.76443
21
-16.6732
62
254
0
LINE
8
Modules
10
-1.67495
20
-21.2256
11
-5.10605
21
-21.293
62
254
0
LINE
8
Modules
10
-5.10605
20
-21.293
11
-5.19545
21
-16.7447
62
254
0
LINE
8
Modules
10
-5.19545
20
-16.7447
11
-1.76435
21
-16.6772
62
254
0
LINE
8
Modules
10
-1.76435
20
-16.6772
11
-1.67495
21
-21.2256
62
254
0
LINE
8
Modules
10
1.13363
20
10.7087
11
-2.29747
21
10.6412
62
254
0
LINE
8
Modules
10
-2.29747
20
10.6412
11
-2.38687
21
15.1896
62
254
0
LINE
8
Modules
10
-2.38687
20
15.1896
11
1.04423
21
15.257
62
254
0
LINE
8
Modules
10
1.04423
20
15.257
11
1.13363
21
10.7087
62
254
0
LINE
8
Modules
10
1.22311
20
6.15627
11
-2.20799
21
6.08883
62
254
0
LINE
8
Modules
10
-2.20799
20
6.08883
11
-2.29739
21
10.6372
62
254
0
LINE
8
Modules
10
-2.29739
20
10.6372
11
1.13371
21
10.7046
62
254
0
LINE
8
Modules
10
1.13371
20
10.7046
11
1.22311
21
6.15627
62
254
0
LINE
8
Modules
10
1.31259
20
1.60388
11
-2.11851
21
1.53644
62
254
0
LINE
8
Modules
10
-2.11851
20
1.53644
11
-2.20791
21
6.0848
62
254
0
LINE
8
Modules
10
-2.20791
20
6.0848
11
1.22319
21
6.15224
62
254
0
LINE
8
Modules
10
1.22319
20
6.15224
11
1.31259
21
1.60388
62
254
0
LINE
8
Modules
10
1.40207
20
-2.94851
11
-2.02903
21
-3.01595
62
254
0
LINE
8
Modules
10
-2.02903
20
-3.01595
11
-2.11843
21
1.53241
62
254
0
LINE
8
Modules
10
-2.11843
20
1.53241
11
1.31267
21
1.59985
62
254
0
LINE
8
Modules
10
1.31267
20
1.59985
11
1.40207
21
-2.94851
62
254
0
LINE
8
Modules
10
1.49155
20
-7.5009
11
-1.93955
21
-7.56834
62
254
0
LINE
8
Modules
10
-1.93955
20
-7.56834
11
-2.02895
21
-3.01998
62
254
0
LINE
8
Modules
10
-2.02895
20
-3.01998
11
1.40215
21
-2.95254
62
254
0
LINE
8
Modules
10
1.40215
20
-2.95254
11
1.49155
21
-7.5009
62
254
0
LINE
8
Modules
10
1.58103
20
-12.0533
11
-1.85007
21
-12.1207
62
254
0
LINE
8
Modules
10
-1.85007
20
-12.1207
11
-1.93947
21
-7.57237
62
254
0
LINE
8
Modules
10
-1.93947
20
-7.57237
11
1.49163
21
-7.50493
62
254
0
LINE
8
Modules
10
1.49163
20
-7.50493
11
1.58103
21
-12.0533
62
254
0
LINE
8
Modules
10
1.67051
20
-16.6057
11
-1.76059
21
-16.6731
62
254
0
LINE
8
Modules
10
-1.76059
20
-16.6731
11
-1.84999
21
-12.1248
62
254
0
LINE
8
Modules
10
-1.84999
20
-12.1248
11
1.58111
21
-12.0573
62
254
0
LINE
8
Modules
10
1.58111
20
-12.0573
11
1.67051
21
-16.6057
62
254
0
LINE
8
Modules
10
1.75999
20
-21.1581
11
-1.67111
21
-21.2255
62
254
0
LINE
8
Modules
10
-1.67111
20
-21.2255
11
-1.76051
21
-16.6772
62
254
0
LINE
8
Modules
10
-1.76051
20
-16.6772
11
1.67059
21
-16.6097
62
254
0
LINE
8
Modules
10
1.67059
20
-16.6097
11
1.75999
21
-21.1581
62
254
0
LINE
8
Modules
10
4.65805
20
6.22378
11
1.22696
21
6.15634
62
254
0
LINE
8
Modules
10
1.22696
20
6.15634
11
1.13756
21
10.7047
62
254
0
LINE
8
Modules
10
1.13756
20
10.7047
11
4.56865
21
10.7721
62
254
0
LINE
8
Modules
10
4.56865
20
10.7721
11
4.65805
21
6.22378
62
254
0
LINE
8
Modules
10
4.74753
20
1.67139
11
1.31644
21
1.60395
62
254
0
LINE
8
Modules
10
1.31644
20
1.60395
11
1.22704
21
6.15232
62
254
0
LINE
8
Modules
10
1.22704
20
6.15232
11
4.65813
21
6.21976
62
254
0
LINE
8
Modules
10
4.65813
20
6.21976
11
4.74753
21
1.67139
62
254
0
LINE
8
Modules
10
4.83701
20
-2.881
11
1.40592
21
-2.94844
62
254
0
LINE
8
Modules
10
1.40592
20
-2.94844
11
1.31652
21
1.59992
62
254
0
LINE
8
Modules
10
1.31652
20
1.59992
11
4.74761
21
1.66736
62
254
0
LINE
8
Modules
10
4.74761
20
1.66736
11
4.83701
21
-2.881
62
254
0
LINE
8
Modules
10
4.92649
20
-7.43339
11
1.4954
21
-7.50083
62
254
0
LINE
8
Modules
10
1.4954
20
-7.50083
11
1.406
21
-2.95247
62
254
0
LINE
8
Modules
10
1.406
20
-2.95247
11
4.83709
21
-2.88503
62
254
0
LINE
8
Modules
10
4.83709
20
-2.88503
11
4.92649
21
-7.43339
62
254
0
LINE
8
Modules
10
5.01597
20
-11.9858
11
1.58488
21
-12.0532
62
254
0
LINE
8
Modules
10
1.58488
20
-12.0532
11
1.49548
21
-7.50486
62
254
0
LINE
8
Modules
10
1.49548
20
-7.50486
11
4.92657
21
-7.43742
62
254
0
LINE
8
Modules
10
4.92657
20
-7.43742
11
5.01597
21
-11.9858
62
254
0
LINE
8
Modules
10
5.10545
20
-16.5382
11
1.67436
21
-16.6056
62
254
0
LINE
8
Modules
10
1.67436
20
-16.6056
11
1.58496
21
-12.0572
62
254
0
LINE
8
Modules
10
1.58496
20
-12.0572
11
5.01605
21
-11.9898
62
254
0
LINE
8
Modules
10
5.01605
20
-11.9898
11
5.10545
21
-16.5382
62
254
0
LINE
8
Modules
10
5.19493
20
-21.0906
11
1.76384
21
-21.158
62
254
0
LINE
8
Modules
10
1.76384
20
-21.158
11
1.67444
21
-16.6096
62
254
0
LINE
8
Modules
10
1.67444
20
-16.6096
11
5.10553
21
-16.5422
62
254
0
LINE
8
Modules
10
5.10553
20
-16.5422
11
5.19493
21
-21.0906
62
254
0
LINE
8
Modules
10
8.18248
20
1.73891
11
4.75138
21
1.67147
62
254
0
LINE
8
Modules
10
4.75138
20
1.67147
11
4.66198
21
6.21983
62
254
0
LINE
8
Modules
10
4.66198
20
6.21983
11
8.09307
21
6.28727
62
254
0
LINE
8
Modules
10
8.09307
20
6.28727
11
8.18248
21
1.73891
62
254
0
LINE
8
Modules
10
8.27196
20
-2.81348
11
4.84086
21
-2.88092
62
254
0
LINE
8
Modules
10
4.84086
20
-2.88092
11
4.75146
21
1.66744
62
254
0
LINE
8
Modules
10
4.75146
20
1.66744
11
8.18255
21
1.73488
62
254
0
LINE
8
Modules
10
8.18255
20
1.73488
11
8.27196
21
-2.81348
62
254
0
LINE
8
Modules
10
8.36144
20
-7.36587
11
4.93034
21
-7.43331
62
254
0
LINE
8
Modules
10
4.93034
20
-7.43331
11
4.84094
21
-2.88495
62
254
0
LINE
8
Modules
10
4.84094
20
-2.88495
11
8.27203
21
-2.81751
62
254
0
LINE
8
Modules
10
8.27203
20
-2.81751
11
8.36144
21
-7.36587
62
254
0
LINE
8
Modules
10
8.45092
20
-11.9183
11
5.01982
21
-11.9857
62
254
0
LINE
8
Modules
10
5.01982
20
-11.9857
11
4.93042
21
-7.43734
62
254
0
LINE
8
Modules
10
4.93042
20
-7.43734
11
8.36151
21
-7.3699
62
254
0
LINE
8
Modules
10
8.36151
20
-7.3699
11
8.45092
21
-11.9183
62
254
0
LINE
8
Modules
10
8.5404
20
-16.4707
11
5.1093
21
-16.5381
62
254
0
LINE
8
Modules
10
5.1093
20
-16.5381
11
5.0199
21
-11.9897
62
254
0
LINE
8
Modules
10
5.0199
20
-11.9897
11
8.45099
21
-11.9223
62
254
0
LINE
8
Modules
10
8.45099
20
-11.9223
11
8.5404
21
-16.4707
62
254
0
LINE
8
Modules
10
8.62987
20
-21.023
11
5.19878
21
-21.0905
62
254
0
LINE
8
Modules
10
5.19878
20
-21.0905
11
5.10938
21
-16.5421
62
254
0
LINE
8
Modules
10
5.10938
20
-16.5421
11
8.54047
21
-16.4747
62
254
0
LINE
8
Modules
10
8.54047
20
-16.4747
11
8.62987
21
-21.023
62
254
0
LINE
8
Modules
10
11.7069
20
-2.74596
11
8.2758
21
-2.81341
62
254
0
LINE
8
Modules
10
8.2758
20
-2.81341
11
8.1864
21
1.73496
62
254
0
LINE
8
Modules
10
8.1864
20
1.73496
11
11.6175
21
1.8024
62
254
0
LINE
8
Modules
10
11.6175
20
1.8024
11
11.7069
21
-2.74596
62
254
0
LINE
8
Modules
10
11.7964
20
-7.29836
11
8.36528
21
-7.3658
62
254
0
LINE
8
Modules
10
8.36528
20
-7.3658
11
8.27588
21
-2.81743
62
254
0
LINE
8
Modules
10
8.27588
20
-2.81743
11
11.707
21
-2.74999
62
254
0
LINE
8
Modules
10
11.707
20
-2.74999
11
11.7964
21
-7.29836
62
254
0
LINE
8
Modules
10
11.8859
20
-11.8507
11
8.45476
21
-11.9182
62
254
0
LINE
8
Modules
10
8.45476
20
-11.9182
11
8.36536
21
-7.36982
62
254
0
LINE
8
Modules
10
8.36536
20
-7.36982
11
11.7965
21
-7.30238
62
254
0
LINE
8
Modules
10
11.7965
20
-7.30238
11
11.8859
21
-11.8507
62
254
0
LINE
8
Modules
10
11.9753
20
-16.4031
11
8.54424
21
-16.4706
62
254
0
LINE
8
Modules
10
8.54424
20
-16.4706
11
8.45484
21
-11.9222
62
254
0
LINE
8
Modules
10
8.45484
20
-11.9222
11
11.8859
21
-11.8548
62
254
0
LINE
8
Modules
10
11.8859
20
-11.8548
11
11.9753
21
-16.4031
62
254
0
LINE
8
Modules
10
12.0648
20
-20.9555
11
8.63372
21
-21.023
62
254
0
LINE
8
Modules
10
8.63372
20
-21.023
11
8.54432
21
-16.4746
62
254
0
LINE
8
Modules
10
8.54432
20
-16.4746
11
11.9754
21
-16.4072
62
254
0
LINE
8
Modules
10
11.9754
20
-16.4072
11
12.0648
21
-20.9555
62
254
0
LINE
8
Modules
10
15.2313
20
-7.23084
11
11.8002
21
-7.29828
62
254
0
LINE
8
Modules
10
11.8002
20
-7.29828
11
11.7108
21
-2.74992
62
254
0
LINE
8
Modules
10
11.7108
20
-2.74992
11
15.1419
21
-2.68248
62
254
0
LINE
8
Modules
10
15.1419
20
-2.68248
11
15.2313
21
-7.23084
62
254
0
LINE
8
Modules
10
15.3208
20
-11.7832
11
11.8897
21
-11.8507
62
254
0
LINE
8
Modules
10
11.8897
20
-11.8507
11
11.8003
21
-7.30231
62
254
0
LINE
8
Modules
10
11.8003
20
-7.30231
11
15.2314
21
-7.23487
62
254
0
LINE
8
Modules
10
15.2314
20
-7.23487
11
15.3208
21
-11.7832
62
254
0
LINE
8
Modules
10
15.4103
20
-16.3356
11
11.9792
21
-16.4031
62
254
0
LINE
8
Modules
10
11.9792
20
-16.4031
11
11.8898
21
-11.8547
62
254
0
LINE
8
Modules
10
11.8898
20
-11.8547
11
15.3209
21
-11.7873
62
254
0
LINE
8
Modules
10
15.3209
20
-11.7873
11
15.4103
21
-16.3356
62
254
0
LINE
8
Modules
10
15.4998
20
-20.888
11
12.0687
21
-20.9555
62
254
0
LINE
8
Modules
10
12.0687
20
-20.9555
11
11.9793
21
-16.4071
62
254
0
LINE
8
Modules
10
11.9793
20
-16.4071
11
15.4104
21
-16.3397
62
254
0
LINE
8
Modules
10
15.4104
20
-16.3397
11
15.4998
21
-20.888
62
254
0
LINE
8
Modules
10
18.7557
20
-11.7157
11
15.3246
21
-11.7832
62
254
0
LINE
8
Modules
10
15.3246
20
-11.7832
11
15.2352
21
-7.23479
62
254
0
LINE
8
Modules
10
15.2352
20
-7.23479
11
18.6663
21
-7.16735
62
254
0
LINE
8
Modules
10
18.6663
20
-7.16735
11
18.7557
21
-11.7157
62
254
0
LINE
8
Modules
10
18.8452
20
-16.2681
11
15.4141
21
-16.3355
62
254
0
LINE
8
Modules
10
15.4141
20
-16.3355
11
15.3247
21
-11.7872
62
254
0
LINE
8
Modules
10
15.3247
20
-11.7872
11
18.7558
21
-11.7197
62
254
0
LINE
8
Modules
10
18.7558
20
-11.7197
11
18.8452
21
-16.2681
62
254
0
LINE
8
Modules
10
18.9347
20
-20.8205
11
15.5036
21
-20.8879
62
254
0
LINE
8
Modules
10
15.5036
20
-20.8879
11
15.4142
21
-16.3396
62
254
0
LINE
8
Modules
10
15.4142
20
-16.3396
11
18.8453
21
-16.2721
62
254
0
LINE
8
Modules
10
18.8453
20
-16.2721
11
18.9347
21
-20.8205
62
254
0
LINE
8
Modules
10
22.2802
20
-16.2006
11
18.8491
21
-16.268
62
254
0
LINE
8
Modules
10
18.8491
20
-16.268
11
18.7597
21
-11.7197
62
254
0
LINE
8
Modules
10
18.7597
20
-11.7197
11
22.1908
21
-11.6522
62
254
0
LINE
8
Modules
10
22.1908
20
-11.6522
11
22.2802
21
-16.2006
62
254
0
LINE
8
Modules
10
22.3696
20
-20.753
11
18.9386
21
-20.8204
62
254
0
LINE
8
Modules
10
18.9386
20
-20.8204
11
18.8491
21
-16.2721
62
254
0
LINE
8
Modules
10
18.8491
20
-16.2721
11
22.2802
21
-16.2046
62
254
0
LINE
8
Modules
10
22.2802
20
-16.2046
11
22.3696
21
-20.753
62
254
0
LINE
8
Modules
10
25.8046
20
-20.6855
11
22.3735
21
-20.7529
62
254
0
LINE
8
Modules
10
22.3735
20
-20.7529
11
22.2841
21
-16.2045
62
254
0
LINE
8
Modules
10
22.2841
20
-16.2045
11
25.7152
21
-16.1371
62
254
0
LINE
8
Modules
10
25.7152
20
-16.1371
11
25.8046
21
-20.6855
62
254
0
LINE
8
Modules
10
-42.782
20
-17.8918
11
-46.1901
21
-17.4896
62
254
0
LINE
8
Modules
10
-46.1901
20
-17.4896
11
-45.6593
21
-12.9912
62
254
0
LINE
8
Modules
10
-45.6593
20
-12.9912
11
-42.2511
21
-13.3934
62
254
0
LINE
8
Modules
10
-42.2511
20
-13.3934
11
-42.782
21
-17.8918
62
254
0
LINE
8
Modules
10
-38.8388
20
-13.7921
11
-42.2469
21
-13.3899
62
254
0
LINE
8
Modules
10
-42.2469
20
-13.3899
11
-41.716
21
-8.89142
62
254
0
LINE
8
Modules
10
-41.716
20
-8.89142
11
-38.3079
21
-9.29362
62
254
0
LINE
8
Modules
10
-38.3079
20
-9.29362
11
-38.8388
21
-13.7921
62
254
0
LINE
8
Modules
10
-39.3701
20
-18.2945
11
-42.7782
21
-17.8923
62
254
0
LINE
8
Modules
10
-42.7782
20
-17.8923
11
-42.2473
21
-13.3938
62
254
0
LINE
8
Modules
10
-42.2473
20
-13.3938
11
-38.8392
21
-13.796
62
254
0
LINE
8
Modules
10
-38.8392
20
-13.796
11
-39.3701
21
-18.2945
62
254
0
LINE
8
Modules
10
-34.3641
20
-5.18993
11
-37.7723
21
-4.78773
62
254
0
LINE
8
Modules
10
-37.7723
20
-4.78773
11
-37.2414
21
-0.289281
62
254
0
LINE
8
Modules
10
-37.2414
20
-0.289281
11
-33.8333
21
-0.69148
62
254
0
LINE
8
Modules
10
-33.8333
20
-0.69148
11
-34.3641
21
-5.18993
62
254
0
LINE
8
Modules
10
-34.8955
20
-9.69232
11
-38.3036
21
-9.29012
62
254
0
LINE
8
Modules
10
-38.3036
20
-9.29012
11
-37.7727
21
-4.79168
62
254
0
LINE
8
Modules
10
-37.7727
20
-4.79168
11
-34.3646
21
-5.19387
62
254
0
LINE
8
Modules
10
-34.3646
20
-5.19387
11
-34.8955
21
-9.69232
62
254
0
LINE
8
Modules
10
-35.4268
20
-14.1947
11
-38.8349
21
-13.7925
62
254
0
LINE
8
Modules
10
-38.8349
20
-13.7925
11
-38.3041
21
-9.29407
62
254
0
LINE
8
Modules
10
-38.3041
20
-9.29407
11
-34.8959
21
-9.69627
62
254
0
LINE
8
Modules
10
-34.8959
20
-9.69627
11
-35.4268
21
-14.1947
62
254
0
LINE
8
Modules
10
-35.9582
20
-18.6971
11
-39.3663
21
-18.2949
62
254
0
LINE
8
Modules
10
-39.3663
20
-18.2949
11
-38.8354
21
-13.7965
62
254
0
LINE
8
Modules
10
-38.8354
20
-13.7965
11
-35.4273
21
-14.1987
62
254
0
LINE
8
Modules
10
-35.4273
20
-14.1987
11
-35.9582
21
-18.6971
62
254
0
LINE
8
Modules
10
-30.4209
20
-1.09018
11
-33.829
21
-0.687984
62
254
0
LINE
8
Modules
10
-33.829
20
-0.687984
11
-33.2981
21
3.81046
62
254
0
LINE
8
Modules
10
-33.2981
20
3.81046
11
-29.89
21
3.40826
62
254
0
LINE
8
Modules
10
-29.89
20
3.40826
11
-30.4209
21
-1.09018
62
254
0
LINE
8
Modules
10
-30.9522
20
-5.59258
11
-34.3603
21
-5.19038
62
254
0
LINE
8
Modules
10
-34.3603
20
-5.19038
11
-33.8295
21
-0.691931
62
254
0
LINE
8
Modules
10
-33.8295
20
-0.691931
11
-30.4213
21
-1.09413
62
254
0
LINE
8
Modules
10
-30.4213
20
-1.09413
11
-30.9522
21
-5.59258
62
254
0
LINE
8
Modules
10
-31.4836
20
-10.095
11
-34.8917
21
-9.69277
62
254
0
LINE
8
Modules
10
-34.8917
20
-9.69277
11
-34.3608
21
-5.19432
62
254
0
LINE
8
Modules
10
-34.3608
20
-5.19432
11
-30.9527
21
-5.59652
62
254
0
LINE
8
Modules
10
-30.9527
20
-5.59652
11
-31.4836
21
-10.095
62
254
0
LINE
8
Modules
10
-32.0149
20
-14.5974
11
-35.423
21
-14.1952
62
254
0
LINE
8
Modules
10
-35.423
20
-14.1952
11
-34.8921
21
-9.69672
62
254
0
LINE
8
Modules
10
-34.8921
20
-9.69672
11
-31.484
21
-10.0989
62
254
0
LINE
8
Modules
10
-31.484
20
-10.0989
11
-32.0149
21
-14.5974
62
254
0
LINE
8
Modules
10
-32.5462
20
-19.0998
11
-35.9543
21
-18.6976
62
254
0
LINE
8
Modules
10
-35.9543
20
-18.6976
11
-35.4235
21
-14.1991
62
254
0
LINE
8
Modules
10
-35.4235
20
-14.1991
11
-32.0154
21
-14.6013
62
254
0
LINE
8
Modules
10
-32.0154
20
-14.6013
11
-32.5462
21
-19.0998
62
254
0
LINE
8
Modules
10
-25.9463
20
7.51196
11
-29.3544
21
7.91416
62
254
0
LINE
8
Modules
10
-29.3544
20
7.91416
11
-28.8235
21
12.4126
62
254
0
LINE
8
Modules
10
-28.8235
20
12.4126
11
-25.4154
21
12.0104
62
254
0
LINE
8
Modules
10
-25.4154
20
12.0104
11
-25.9463
21
7.51196
62
254
0
LINE
8
Modules
10
-26.4776
20
3.00956
11
-29.8857
21
3.41176
62
254
0
LINE
8
Modules
10
-29.8857
20
3.41176
11
-29.3548
21
7.91021
62
254
0
LINE
8
Modules
10
-29.3548
20
7.91021
11
-25.9467
21
7.50801
62
254
0
LINE
8
Modules
10
-25.9467
20
7.50801
11
-26.4776
21
3.00956
62
254
0
LINE
8
Modules
10
-27.0089
20
-1.49283
11
-30.4171
21
-1.09063
62
254
0
LINE
8
Modules
10
-30.4171
20
-1.09063
11
-29.8862
21
3.40781
62
254
0
LINE
8
Modules
10
-29.8862
20
3.40781
11
-26.4781
21
3.00561
62
254
0
LINE
8
Modules
10
-26.4781
20
3.00561
11
-27.0089
21
-1.49283
62
254
0
LINE
8
Modules
10
-27.5403
20
-5.99523
11
-30.9484
21
-5.59303
62
254
0
LINE
8
Modules
10
-30.9484
20
-5.59303
11
-30.4175
21
-1.09458
62
254
0
LINE
8
Modules
10
-30.4175
20
-1.09458
11
-27.0094
21
-1.49678
62
254
0
LINE
8
Modules
10
-27.0094
20
-1.49678
11
-27.5403
21
-5.99523
62
254
0
LINE
8
Modules
10
-28.0716
20
-10.4976
11
-31.4797
21
-10.0954
62
254
0
LINE
8
Modules
10
-31.4797
20
-10.0954
11
-30.9489
21
-5.59697
62
254
0
LINE
8
Modules
10
-30.9489
20
-5.59697
11
-27.5408
21
-5.99917
62
254
0
LINE
8
Modules
10
-27.5408
20
-5.99917
11
-28.0716
21
-10.4976
62
254
0
LINE
8
Modules
10
-28.603
20
-15
11
-32.0111
21
-14.5978
62
254
0
LINE
8
Modules
10
-32.0111
20
-14.5978
11
-31.4802
21
-10.0994
62
254
0
LINE
8
Modules
10
-31.4802
20
-10.0994
11
-28.0721
21
-10.5016
62
254
0
LINE
8
Modules
10
-28.0721
20
-10.5016
11
-28.603
21
-15
62
254
0
LINE
8
Modules
10
-29.1343
20
-19.5024
11
-32.5424
21
-19.1002
62
254
0
LINE
8
Modules
10
-32.5424
20
-19.1002
11
-32.0115
21
-14.6018
62
254
0
LINE
8
Modules
10
-32.0115
20
-14.6018
11
-28.6034
21
-15.004
62
254
0
LINE
8
Modules
10
-28.6034
20
-15.004
11
-29.1343
21
-19.5024
62
254
0
LINE
8
Modules
10
-22.003
20
11.6117
11
-25.4111
21
12.0139
62
254
0
LINE
8
Modules
10
-25.4111
20
12.0139
11
-24.8802
21
16.5123
62
254
0
LINE
8
Modules
10
-24.8802
20
16.5123
11
-21.4721
21
16.1101
62
254
0
LINE
8
Modules
10
-21.4721
20
16.1101
11
-22.003
21
11.6117
62
254
0
LINE
8
Modules
10
-22.5343
20
7.10931
11
-25.9424
21
7.51151
62
254
0
LINE
8
Modules
10
-25.9424
20
7.51151
11
-25.4116
21
12.01
62
254
0
LINE
8
Modules
10
-25.4116
20
12.01
11
-22.0035
21
11.6078
62
254
0
LINE
8
Modules
10
-22.0035
20
11.6078
11
-22.5343
21
7.10931
62
254
0
LINE
8
Modules
10
-23.0657
20
2.60691
11
-26.4738
21
3.00911
62
254
0
LINE
8
Modules
10
-26.4738
20
3.00911
11
-25.9429
21
7.50756
62
254
0
LINE
8
Modules
10
-25.9429
20
7.50756
11
-22.5348
21
7.10536
62
254
0
LINE
8
Modules
10
-22.5348
20
7.10536
11
-23.0657
21
2.60691
62
254
0
LINE
8
Modules
10
-23.597
20
-1.89548
11
-27.0051
21
-1.49328
62
254
0
LINE
8
Modules
10
-27.0051
20
-1.49328
11
-26.4743
21
3.00516
62
254
0
LINE
8
Modules
10
-26.4743
20
3.00516
11
-23.0661
21
2.60297
62
254
0
LINE
8
Modules
10
-23.0661
20
2.60297
11
-23.597
21
-1.89548
62
254
0
LINE
8
Modules
10
-24.1284
20
-6.39788
11
-27.5365
21
-5.99568
62
254
0
LINE
8
Modules
10
-27.5365
20
-5.99568
11
-27.0056
21
-1.49723
62
254
0
LINE
8
Modules
10
-27.0056
20
-1.49723
11
-23.5975
21
-1.89943
62
254
0
LINE
8
Modules
10
-23.5975
20
-1.89943
11
-24.1284
21
-6.39788
62
254
0
LINE
8
Modules
10
-24.6597
20
-10.9003
11
-28.0678
21
-10.4981
62
254
0
LINE
8
Modules
10
-28.0678
20
-10.4981
11
-27.5369
21
-5.99962
62
254
0
LINE
8
Modules
10
-27.5369
20
-5.99962
11
-24.1288
21
-6.40182
62
254
0
LINE
8
Modules
10
-24.1288
20
-6.40182
11
-24.6597
21
-10.9003
62
254
0
LINE
8
Modules
10
-25.191
20
-15.4027
11
-28.5991
21
-15.0005
62
254
0
LINE
8
Modules
10
-28.5991
20
-15.0005
11
-28.0683
21
-10.502
62
254
0
LINE
8
Modules
10
-28.0683
20
-10.502
11
-24.6602
21
-10.9042
62
254
0
LINE
8
Modules
10
-24.6602
20
-10.9042
11
-25.191
21
-15.4027
62
254
0
LINE
8
Modules
10
-25.7224
20
-19.9051
11
-29.1305
21
-19.5029
62
254
0
LINE
8
Modules
10
-29.1305
20
-19.5029
11
-28.5996
21
-15.0044
62
254
0
LINE
8
Modules
10
-28.5996
20
-15.0044
11
-25.1915
21
-15.4066
62
254
0
LINE
8
Modules
10
-25.1915
20
-15.4066
11
-25.7224
21
-19.9051
62
254
0
LINE
8
Modules
10
-17.5284
20
20.2138
11
-20.9365
21
20.616
62
254
0
LINE
8
Modules
10
-20.9365
20
20.616
11
-20.4056
21
25.1145
62
254
0
LINE
8
Modules
10
-20.4056
20
25.1145
11
-16.9975
21
24.7123
62
254
0
LINE
8
Modules
10
-16.9975
20
24.7123
11
-17.5284
21
20.2138
62
254
0
LINE
8
Modules
10
-18.0597
20
15.7114
11
-21.4678
21
16.1136
62
254
0
LINE
8
Modules
10
-21.4678
20
16.1136
11
-20.937
21
20.6121
62
254
0
LINE
8
Modules
10
-20.937
20
20.6121
11
-17.5289
21
20.2099
62
254
0
LINE
8
Modules
10
-17.5289
20
20.2099
11
-18.0597
21
15.7114
62
254
0
LINE
8
Modules
10
-18.5911
20
11.2091
11
-21.9992
21
11.6113
62
254
0
LINE
8
Modules
10
-21.9992
20
11.6113
11
-21.4683
21
16.1097
62
254
0
LINE
8
Modules
10
-21.4683
20
16.1097
11
-18.0602
21
15.7075
62
254
0
LINE
8
Modules
10
-18.0602
20
15.7075
11
-18.5911
21
11.2091
62
254
0
LINE
8
Modules
10
-19.1224
20
6.70666
11
-22.5305
21
7.10886
62
254
0
LINE
8
Modules
10
-22.5305
20
7.10886
11
-21.9996
21
11.6073
62
254
0
LINE
8
Modules
10
-21.9996
20
11.6073
11
-18.5915
21
11.2051
62
254
0
LINE
8
Modules
10
-18.5915
20
11.2051
11
-19.1224
21
6.70666
62
254
0
LINE
8
Modules
10
-19.6537
20
2.20426
11
-23.0619
21
2.60646
62
254
0
LINE
8
Modules
10
-23.0619
20
2.60646
11
-22.531
21
7.10491
62
254
0
LINE
8
Modules
10
-22.531
20
7.10491
11
-19.1229
21
6.70271
62
254
0
LINE
8
Modules
10
-19.1229
20
6.70271
11
-19.6537
21
2.20426
62
254
0
LINE
8
Modules
10
-20.1851
20
-2.29813
11
-23.5932
21
-1.89593
62
254
0
LINE
8
Modules
10
-23.5932
20
-1.89593
11
-23.0623
21
2.60251
62
254
0
LINE
8
Modules
10
-23.0623
20
2.60251
11
-19.6542
21
2.20032
62
254
0
LINE
8
Modules
10
-19.6542
20
2.20032
11
-20.1851
21
-2.29813
62
254
0
LINE
8
Modules
10
-20.7164
20
-6.80053
11
-24.1245
21
-6.39833
62
254
0
LINE
8
Modules
10
-24.1245
20
-6.39833
11
-23.5937
21
-1.89988
62
254
0
LINE
8
Modules
10
-23.5937
20
-1.89988
11
-20.1856
21
-2.30208
62
254
0
LINE
8
Modules
10
-20.1856
20
-2.30208
11
-20.7164
21
-6.80053
62
254
0
LINE
8
Modules
10
-21.2478
20
-11.3029
11
-24.6559
21
-10.9007
62
254
0
LINE
8
Modules
10
-24.6559
20
-10.9007
11
-24.125
21
-6.40227
62
254
0
LINE
8
Modules
10
-24.125
20
-6.40227
11
-20.7169
21
-6.80447
62
254
0
LINE
8
Modules
10
-20.7169
20
-6.80447
11
-21.2478
21
-11.3029
62
254
0
LINE
8
Modules
10
-21.7791
20
-15.8053
11
-25.1872
21
-15.4031
62
254
0
LINE
8
Modules
10
-25.1872
20
-15.4031
11
-24.6563
21
-10.9047
62
254
0
LINE
8
Modules
10
-24.6563
20
-10.9047
11
-21.2482
21
-11.3069
62
254
0
LINE
8
Modules
10
-21.2482
20
-11.3069
11
-21.7791
21
-15.8053
62
254
0
LINE
8
Modules
10
-22.3104
20
-20.3077
11
-25.7186
21
-19.9055
62
254
0
LINE
8
Modules
10
-25.7186
20
-19.9055
11
-25.1877
21
-15.4071
62
254
0
LINE
8
Modules
10
-25.1877
20
-15.4071
11
-21.7796
21
-15.8093
62
254
0
LINE
8
Modules
10
-21.7796
20
-15.8093
11
-22.3104
21
-20.3077
62
254
0
LINE
8
Modules
10
-14.1165
20
19.8112
11
-17.5246
21
20.2134
62
254
0
LINE
8
Modules
10
-17.5246
20
20.2134
11
-16.9937
21
24.7118
62
254
0
LINE
8
Modules
10
-16.9937
20
24.7118
11
-13.5856
21
24.3096
62
254
0
LINE
8
Modules
10
-13.5856
20
24.3096
11
-14.1165
21
19.8112
62
254
0
LINE
8
Modules
10
-14.6478
20
15.3088
11
-18.0559
21
15.711
62
254
0
LINE
8
Modules
10
-18.0559
20
15.711
11
-17.525
21
20.2094
62
254
0
LINE
8
Modules
10
-17.525
20
20.2094
11
-14.1169
21
19.8072
62
254
0
LINE
8
Modules
10
-14.1169
20
19.8072
11
-14.6478
21
15.3088
62
254
0
LINE
8
Modules
10
-15.1791
20
10.8064
11
-18.5872
21
11.2086
62
254
0
LINE
8
Modules
10
-18.5872
20
11.2086
11
-18.0564
21
15.707
62
254
0
LINE
8
Modules
10
-18.0564
20
15.707
11
-14.6483
21
15.3048
62
254
0
LINE
8
Modules
10
-14.6483
20
15.3048
11
-15.1791
21
10.8064
62
254
0
LINE
8
Modules
10
-15.7105
20
6.30401
11
-19.1186
21
6.70621
62
254
0
LINE
8
Modules
10
-19.1186
20
6.70621
11
-18.5877
21
11.2047
62
254
0
LINE
8
Modules
10
-18.5877
20
11.2047
11
-15.1796
21
10.8025
62
254
0
LINE
8
Modules
10
-15.1796
20
10.8025
11
-15.7105
21
6.30401
62
254
0
LINE
8
Modules
10
-16.2418
20
1.80161
11
-19.6499
21
2.20381
62
254
0
LINE
8
Modules
10
-19.6499
20
2.20381
11
-19.1191
21
6.70226
62
254
0
LINE
8
Modules
10
-19.1191
20
6.70226
11
-15.7109
21
6.30006
62
254
0
LINE
8
Modules
10
-15.7109
20
6.30006
11
-16.2418
21
1.80161
62
254
0
LINE
8
Modules
10
-16.7732
20
-2.70078
11
-20.1813
21
-2.29858
62
254
0
LINE
8
Modules
10
-20.1813
20
-2.29858
11
-19.6504
21
2.19987
62
254
0
LINE
8
Modules
10
-19.6504
20
2.19987
11
-16.2423
21
1.79767
62
254
0
LINE
8
Modules
10
-16.2423
20
1.79767
11
-16.7732
21
-2.70078
62
254
0
LINE
8
Modules
10
-17.3045
20
-7.20318
11
-20.7126
21
-6.80098
62
254
0
LINE
8
Modules
10
-20.7126
20
-6.80098
11
-20.1817
21
-2.30253
62
254
0
LINE
8
Modules
10
-20.1817
20
-2.30253
11
-16.7736
21
-2.70473
62
254
0
LINE
8
Modules
10
-16.7736
20
-2.70473
11
-17.3045
21
-7.20318
62
254
0
LINE
8
Modules
10
-17.8358
20
-11.7056
11
-21.2439
21
-11.3034
62
254
0
LINE
8
Modules
10
-21.2439
20
-11.3034
11
-20.7131
21
-6.80492
62
254
0
LINE
8
Modules
10
-20.7131
20
-6.80492
11
-17.305
21
-7.20712
62
254
0
LINE
8
Modules
10
-17.305
20
-7.20712
11
-17.8358
21
-11.7056
62
254
0
LINE
8
Modules
10
-18.3672
20
-16.208
11
-21.7753
21
-15.8058
62
254
0
LINE
8
Modules
10
-21.7753
20
-15.8058
11
-21.2444
21
-11.3073
62
254
0
LINE
8
Modules
10
-21.2444
20
-11.3073
11
-17.8363
21
-11.7095
62
254
0
LINE
8
Modules
10
-17.8363
20
-11.7095
11
-18.3672
21
-16.208
62
254
0
LINE
8
Modules
10
-18.8985
20
-20.7104
11
-22.3066
21
-20.3082
62
254
0
LINE
8
Modules
10
-22.3066
20
-20.3082
11
-21.7757
21
-15.8097
62
254
0
LINE
8
Modules
10
-21.7757
20
-15.8097
11
-18.3676
21
-16.2119
62
254
0
LINE
8
Modules
10
-18.3676
20
-16.2119
11
-18.8985
21
-20.7104
62
254
0
LINE
8
Modules
10
-12.2986
20
5.90136
11
-15.7067
21
6.30356
62
254
0
LINE
8
Modules
10
-15.7067
20
6.30356
11
-15.1758
21
10.802
62
254
0
LINE
8
Modules
10
-15.1758
20
10.802
11
-11.7677
21
10.3998
62
254
0
LINE
8
Modules
10
-11.7677
20
10.3998
11
-12.2986
21
5.90136
62
254
0
LINE
8
Modules
10
-12.8299
20
1.39896
11
-16.238
21
1.80116
62
254
0
LINE
8
Modules
10
-16.238
20
1.80116
11
-15.7071
21
6.29961
62
254
0
LINE
8
Modules
10
-15.7071
20
6.29961
11
-12.299
21
5.89741
62
254
0
LINE
8
Modules
10
-12.299
20
5.89741
11
-12.8299
21
1.39896
62
254
0
LINE
8
Modules
10
-13.3612
20
-3.10343
11
-16.7693
21
-2.70123
62
254
0
LINE
8
Modules
10
-16.7693
20
-2.70123
11
-16.2385
21
1.79722
62
254
0
LINE
8
Modules
10
-16.2385
20
1.79722
11
-12.8304
21
1.39502
62
254
0
LINE
8
Modules
10
-12.8304
20
1.39502
11
-13.3612
21
-3.10343
62
254
0
LINE
8
Modules
10
-13.8926
20
-7.60583
11
-17.3007
21
-7.20363
62
254
0
LINE
8
Modules
10
-17.3007
20
-7.20363
11
-16.7698
21
-2.70518
62
254
0
LINE
8
Modules
10
-16.7698
20
-2.70518
11
-13.3617
21
-3.10738
62
254
0
LINE
8
Modules
10
-13.3617
20
-3.10738
11
-13.8926
21
-7.60583
62
254
0
LINE
8
Modules
10
-14.4239
20
-12.1082
11
-17.832
21
-11.706
62
254
0
LINE
8
Modules
10
-17.832
20
-11.706
11
-17.3011
21
-7.20757
62
254
0
LINE
8
Modules
10
-17.3011
20
-7.20757
11
-13.893
21
-7.60977
62
254
0
LINE
8
Modules
10
-13.893
20
-7.60977
11
-14.4239
21
-12.1082
62
254
0
LINE
8
Modules
10
-14.9552
20
-16.6106
11
-18.3634
21
-16.2084
62
254
0
LINE
8
Modules
10
-18.3634
20
-16.2084
11
-17.8325
21
-11.71
62
254
0
LINE
8
Modules
10
-17.8325
20
-11.71
11
-14.4244
21
-12.1122
62
254
0
LINE
8
Modules
10
-14.4244
20
-12.1122
11
-14.9552
21
-16.6106
62
254
0
LINE
8
Modules
10
-15.4866
20
-21.113
11
-18.8947
21
-20.7108
62
254
0
LINE
8
Modules
10
-18.8947
20
-20.7108
11
-18.3638
21
-16.2124
62
254
0
LINE
8
Modules
10
-18.3638
20
-16.2124
11
-14.9557
21
-16.6146
62
254
0
LINE
8
Modules
10
-14.9557
20
-16.6146
11
-15.4866
21
-21.113
62
254
0
LINE
8
Modules
10
-11.012
20
-12.5109
11
-14.4201
21
-12.1087
62
254
0
LINE
8
Modules
10
-14.4201
20
-12.1087
11
-13.8892
21
-7.61022
62
254
0
LINE
8
Modules
10
-13.8892
20
-7.61022
11
-10.4811
21
-8.01242
62
254
0
LINE
8
Modules
10
-10.4811
20
-8.01242
11
-11.012
21
-12.5109
62
254
0
LINE
8
Modules
10
-11.5433
20
-17.0133
11
-14.9514
21
-16.6111
62
254
0
LINE
8
Modules
10
-14.9514
20
-16.6111
11
-14.4206
21
-12.1126
62
254
0
LINE
8
Modules
10
-14.4206
20
-12.1126
11
-11.0124
21
-12.5148
62
254
0
LINE
8
Modules
10
-11.0124
20
-12.5148
11
-11.5433
21
-17.0133
62
254
0
LINE
8
Modules
10
-12.0747
20
-21.5157
11
-15.4828
21
-21.1135
62
254
0
LINE
8
Modules
10
-15.4828
20
-21.1135
11
-14.9519
21
-16.615
62
254
0
LINE
8
Modules
10
-14.9519
20
-16.615
11
-11.5438
21
-17.0172
62
254
0
LINE
8
Modules
10
-11.5438
20
-17.0172
11
-12.0747
21
-21.5157
62
254
0
LINE
8
Modules
10
-72.5094
20
0.492227
11
-75.2397
21
2.57128
62
254
0
LINE
8
Modules
10
-75.2397
20
2.57128
11
-72.4313
21
6.25935
62
254
0
LINE
8
Modules
10
-72.4313
20
6.25935
11
-69.701
21
4.1803
62
254
0
LINE
8
Modules
10
-69.701
20
4.1803
11
-72.5094
21
0.492227
62
254
0
LINE
8
Modules
10
-66.9651
20
2.10232
11
-69.6954
21
4.18137
62
254
0
LINE
8
Modules
10
-69.6954
20
4.18137
11
-66.887
21
7.86944
62
254
0
LINE
8
Modules
10
-66.887
20
7.86944
11
-64.1567
21
5.79039
62
254
0
LINE
8
Modules
10
-64.1567
20
5.79039
11
-66.9651
21
2.10232
62
254
0
LINE
8
Modules
10
-69.776
20
-1.58915
11
-72.5063
21
0.489898
62
254
0
LINE
8
Modules
10
-72.5063
20
0.489898
11
-69.6979
21
4.17797
62
254
0
LINE
8
Modules
10
-69.6979
20
4.17797
11
-66.9676
21
2.09892
62
254
0
LINE
8
Modules
10
-66.9676
20
2.09892
11
-69.776
21
-1.58915
62
254
0
LINE
8
Modules
10
-58.6098
20
7.40388
11
-61.3401
21
9.48293
62
254
0
LINE
8
Modules
10
-61.3401
20
9.48293
11
-58.5317
21
13.171
62
254
0
LINE
8
Modules
10
-58.5317
20
13.171
11
-55.8014
21
11.092
62
254
0
LINE
8
Modules
10
-55.8014
20
11.092
11
-58.6098
21
7.40388
62
254
0
LINE
8
Modules
10
-61.4207
20
3.71241
11
-64.151
21
5.79146
62
254
0
LINE
8
Modules
10
-64.151
20
5.79146
11
-61.3427
21
9.47953
62
254
0
LINE
8
Modules
10
-61.3427
20
9.47953
11
-58.6124
21
7.40048
62
254
0
LINE
8
Modules
10
-58.6124
20
7.40048
11
-61.4207
21
3.71241
62
254
0
LINE
8
Modules
10
-64.2317
20
0.0209387
11
-66.962
21
2.09999
62
254
0
LINE
8
Modules
10
-66.962
20
2.09999
11
-64.1536
21
5.78807
62
254
0
LINE
8
Modules
10
-64.1536
20
5.78807
11
-61.4233
21
3.70902
62
254
0
LINE
8
Modules
10
-61.4233
20
3.70902
11
-64.2317
21
0.0209387
62
254
0
LINE
8
Modules
10
-67.0427
20
-3.67053
11
-69.773
21
-1.59148
62
254
0
LINE
8
Modules
10
-69.773
20
-1.59148
11
-66.9646
21
2.0966
62
254
0
LINE
8
Modules
10
-66.9646
20
2.0966
11
-64.2343
21
0.0175459
62
254
0
LINE
8
Modules
10
-64.2343
20
0.0175459
11
-67.0427
21
-3.67053
62
254
0
LINE
8
Modules
10
-53.0655
20
9.01397
11
-55.7958
21
11.093
62
254
0
LINE
8
Modules
10
-55.7958
20
11.093
11
-52.9874
21
14.7811
62
254
0
LINE
8
Modules
10
-52.9874
20
14.7811
11
-50.2571
21
12.702
62
254
0
LINE
8
Modules
10
-50.2571
20
12.702
11
-53.0655
21
9.01397
62
254
0
LINE
8
Modules
10
-55.8764
20
5.3225
11
-58.6067
21
7.40155
62
254
0
LINE
8
Modules
10
-58.6067
20
7.40155
11
-55.7983
21
11.0896
62
254
0
LINE
8
Modules
10
-55.7983
20
11.0896
11
-53.068
21
9.01058
62
254
0
LINE
8
Modules
10
-53.068
20
9.01058
11
-55.8764
21
5.3225
62
254
0
LINE
8
Modules
10
-58.6874
20
1.63103
11
-61.4177
21
3.71008
62
254
0
LINE
8
Modules
10
-61.4177
20
3.71008
11
-58.6093
21
7.39816
62
254
0
LINE
8
Modules
10
-58.6093
20
7.39816
11
-55.879
21
5.31911
62
254
0
LINE
8
Modules
10
-55.879
20
5.31911
11
-58.6874
21
1.63103
62
254
0
LINE
8
Modules
10
-61.4983
20
-2.06044
11
-64.2286
21
0.0186097
62
254
0
LINE
8
Modules
10
-64.2286
20
0.0186097
11
-61.4203
21
3.70669
62
254
0
LINE
8
Modules
10
-61.4203
20
3.70669
11
-58.69
21
1.62764
62
254
0
LINE
8
Modules
10
-58.69
20
1.62764
11
-61.4983
21
-2.06044
62
254
0
LINE
8
Modules
10
-64.3093
20
-5.75191
11
-67.0396
21
-3.67286
62
254
0
LINE
8
Modules
10
-67.0396
20
-3.67286
11
-64.2312
21
0.0152169
62
254
0
LINE
8
Modules
10
-64.2312
20
0.0152169
11
-61.5009
21
-2.06383
62
254
0
LINE
8
Modules
10
-61.5009
20
-2.06383
11
-64.3093
21
-5.75191
62
254
0
LINE
8
Modules
10
-44.7102
20
14.3155
11
-47.4405
21
16.3946
62
254
0
LINE
8
Modules
10
-47.4405
20
16.3946
11
-44.6321
21
20.0827
62
254
0
LINE
8
Modules
10
-44.6321
20
20.0827
11
-41.9018
21
18.0036
62
254
0
LINE
8
Modules
10
-41.9018
20
18.0036
11
-44.7102
21
14.3155
62
254
0
LINE
8
Modules
10
-47.5211
20
10.6241
11
-50.2514
21
12.7031
62
254
0
LINE
8
Modules
10
-50.2514
20
12.7031
11
-47.4431
21
16.3912
62
254
0
LINE
8
Modules
10
-47.4431
20
16.3912
11
-44.7128
21
14.3121
62
254
0
LINE
8
Modules
10
-44.7128
20
14.3121
11
-47.5211
21
10.6241
62
254
0
LINE
8
Modules
10
-50.3321
20
6.93259
11
-53.0624
21
9.01164
62
254
0
LINE
8
Modules
10
-53.0624
20
9.01164
11
-50.254
21
12.6997
62
254
0
LINE
8
Modules
10
-50.254
20
12.6997
11
-47.5237
21
10.6207
62
254
0
LINE
8
Modules
10
-47.5237
20
10.6207
11
-50.3321
21
6.93259
62
254
0
LINE
8
Modules
10
-53.1431
20
3.24112
11
-55.8734
21
5.32017
62
254
0
LINE
8
Modules
10
-55.8734
20
5.32017
11
-53.065
21
9.00825
62
254
0
LINE
8
Modules
10
-53.065
20
9.00825
11
-50.3347
21
6.9292
62
254
0
LINE
8
Modules
10
-50.3347
20
6.9292
11
-53.1431
21
3.24112
62
254
0
LINE
8
Modules
10
-55.954
20
-0.45035
11
-58.6843
21
1.6287
62
254
0
LINE
8
Modules
10
-58.6843
20
1.6287
11
-55.8759
21
5.31678
62
254
0
LINE
8
Modules
10
-55.8759
20
5.31678
11
-53.1456
21
3.23773
62
254
0
LINE
8
Modules
10
-53.1456
20
3.23773
11
-55.954
21
-0.45035
62
254
0
LINE
8
Modules
10
-58.765
20
-4.14182
11
-61.4953
21
-2.06277
62
254
0
LINE
8
Modules
10
-61.4953
20
-2.06277
11
-58.6869
21
1.62531
62
254
0
LINE
8
Modules
10
-58.6869
20
1.62531
11
-55.9566
21
-0.453742
62
254
0
LINE
8
Modules
10
-55.9566
20
-0.453742
11
-58.765
21
-4.14182
62
254
0
LINE
8
Modules
10
-61.5759
20
-7.83329
11
-64.3062
21
-5.75424
62
254
0
LINE
8
Modules
10
-64.3062
20
-5.75424
11
-61.4979
21
-2.06616
62
254
0
LINE
8
Modules
10
-61.4979
20
-2.06616
11
-58.7676
21
-4.14521
62
254
0
LINE
8
Modules
10
-58.7676
20
-4.14521
11
-61.5759
21
-7.83329
62
254
0
LINE
8
Modules
10
-39.1659
20
15.9256
11
-41.8962
21
18.0047
62
254
0
LINE
8
Modules
10
-41.8962
20
18.0047
11
-39.0878
21
21.6927
62
254
0
LINE
8
Modules
10
-39.0878
20
21.6927
11
-36.3575
21
19.6137
62
254
0
LINE
8
Modules
10
-36.3575
20
19.6137
11
-39.1659
21
15.9256
62
254
0
LINE
8
Modules
10
-41.9768
20
12.2341
11
-44.7071
21
14.3132
62
254
0
LINE
8
Modules
10
-44.7071
20
14.3132
11
-41.8987
21
18.0013
62
254
0
LINE
8
Modules
10
-41.8987
20
18.0013
11
-39.1684
21
15.9222
62
254
0
LINE
8
Modules
10
-39.1684
20
15.9222
11
-41.9768
21
12.2341
62
254
0
LINE
8
Modules
10
-44.7878
20
8.54268
11
-47.5181
21
10.6217
62
254
0
LINE
8
Modules
10
-47.5181
20
10.6217
11
-44.7097
21
14.3098
62
254
0
LINE
8
Modules
10
-44.7097
20
14.3098
11
-41.9794
21
12.2308
62
254
0
LINE
8
Modules
10
-41.9794
20
12.2308
11
-44.7878
21
8.54268
62
254
0
LINE
8
Modules
10
-47.5987
20
4.85121
11
-50.329
21
6.93026
62
254
0
LINE
8
Modules
10
-50.329
20
6.93026
11
-47.5207
21
10.6183
62
254
0
LINE
8
Modules
10
-47.5207
20
10.6183
11
-44.7904
21
8.53929
62
254
0
LINE
8
Modules
10
-44.7904
20
8.53929
11
-47.5987
21
4.85121
62
254
0
LINE
8
Modules
10
-50.4097
20
1.15974
11
-53.14
21
3.23879
62
254
0
LINE
8
Modules
10
-53.14
20
3.23879
11
-50.3316
21
6.92687
62
254
0
LINE
8
Modules
10
-50.3316
20
6.92687
11
-47.6013
21
4.84782
62
254
0
LINE
8
Modules
10
-47.6013
20
4.84782
11
-50.4097
21
1.15974
62
254
0
LINE
8
Modules
10
-53.2207
20
-2.53173
11
-55.951
21
-0.452679
62
254
0
LINE
8
Modules
10
-55.951
20
-0.452679
11
-53.1426
21
3.2354
62
254
0
LINE
8
Modules
10
-53.1426
20
3.2354
11
-50.4123
21
1.15635
62
254
0
LINE
8
Modules
10
-50.4123
20
1.15635
11
-53.2207
21
-2.53173
62
254
0
LINE
8
Modules
10
-56.0316
20
-6.2232
11
-58.7619
21
-4.14415
62
254
0
LINE
8
Modules
10
-58.7619
20
-4.14415
11
-55.9535
21
-0.456071
62
254
0
LINE
8
Modules
10
-55.9535
20
-0.456071
11
-53.2232
21
-2.53512
62
254
0
LINE
8
Modules
10
-53.2232
20
-2.53512
11
-56.0316
21
-6.2232
62
254
0
LINE
8
Modules
10
-58.8426
20
-9.91467
11
-61.5729
21
-7.83562
62
254
0
LINE
8
Modules
10
-61.5729
20
-7.83562
11
-58.7645
21
-4.14754
62
254
0
LINE
8
Modules
10
-58.7645
20
-4.14754
11
-56.0342
21
-6.22659
62
254
0
LINE
8
Modules
10
-56.0342
20
-6.22659
11
-58.8426
21
-9.91467
62
254
0
LINE
8
Modules
10
-30.8106
20
21.2272
11
-33.5409
21
23.3062
62
254
0
LINE
8
Modules
10
-33.5409
20
23.3062
11
-30.7325
21
26.9943
62
254
0
LINE
8
Modules
10
-30.7325
20
26.9943
11
-28.0022
21
24.9153
62
254
0
LINE
8
Modules
10
-28.0022
20
24.9153
11
-30.8106
21
21.2272
62
254
0
LINE
8
Modules
10
-33.6215
20
17.5357
11
-36.3518
21
19.6148
62
254
0
LINE
8
Modules
10
-36.3518
20
19.6148
11
-33.5435
21
23.3028
62
254
0
LINE
8
Modules
10
-33.5435
20
23.3028
11
-30.8132
21
21.2238
62
254
0
LINE
8
Modules
10
-30.8132
20
21.2238
11
-33.6215
21
17.5357
62
254
0
LINE
8
Modules
10
-36.4325
20
13.8442
11
-39.1628
21
15.9233
62
254
0
LINE
8
Modules
10
-39.1628
20
15.9233
11
-36.3544
21
19.6114
62
254
0
LINE
8
Modules
10
-36.3544
20
19.6114
11
-33.6241
21
17.5323
62
254
0
LINE
8
Modules
10
-33.6241
20
17.5323
11
-36.4325
21
13.8442
62
254
0
LINE
8
Modules
10
-39.2435
20
10.1528
11
-41.9738
21
12.2318
62
254
0
LINE
8
Modules
10
-41.9738
20
12.2318
11
-39.1654
21
15.9199
62
254
0
LINE
8
Modules
10
-39.1654
20
15.9199
11
-36.4351
21
13.8408
62
254
0
LINE
8
Modules
10
-36.4351
20
13.8408
11
-39.2435
21
10.1528
62
254
0
LINE
8
Modules
10
-42.0544
20
6.4613
11
-44.7847
21
8.54035
62
254
0
LINE
8
Modules
10
-44.7847
20
8.54035
11
-41.9763
21
12.2284
62
254
0
LINE
8
Modules
10
-41.9763
20
12.2284
11
-39.246
21
10.1494
62
254
0
LINE
8
Modules
10
-39.246
20
10.1494
11
-42.0544
21
6.4613
62
254
0
LINE
8
Modules
10
-44.8654
20
2.76983
11
-47.5957
21
4.84888
62
254
0
LINE
8
Modules
10
-47.5957
20
4.84888
11
-44.7873
21
8.53696
62
254
0
LINE
8
Modules
10
-44.7873
20
8.53696
11
-42.057
21
6.45791
62
254
0
LINE
8
Modules
10
-42.057
20
6.45791
11
-44.8654
21
2.76983
62
254
0
LINE
8
Modules
10
-47.6763
20
-0.921638
11
-50.4066
21
1.15741
62
254
0
LINE
8
Modules
10
-50.4066
20
1.15741
11
-47.5983
21
4.84549
62
254
0
LINE
8
Modules
10
-47.5983
20
4.84549
11
-44.868
21
2.76644
62
254
0
LINE
8
Modules
10
-44.868
20
2.76644
11
-47.6763
21
-0.921638
62
254
0
LINE
8
Modules
10
-50.4873
20
-4.61311
11
-53.2176
21
-2.53406
62
254
0
LINE
8
Modules
10
-53.2176
20
-2.53406
11
-50.4092
21
1.15402
62
254
0
LINE
8
Modules
10
-50.4092
20
1.15402
11
-47.6789
21
-0.925031
62
254
0
LINE
8
Modules
10
-47.6789
20
-0.925031
11
-50.4873
21
-4.61311
62
254
0
LINE
8
Modules
10
-53.2983
20
-8.30458
11
-56.0286
21
-6.22553
62
254
0
LINE
8
Modules
10
-56.0286
20
-6.22553
11
-53.2202
21
-2.53745
62
254
0
LINE
8
Modules
10
-53.2202
20
-2.53745
11
-50.4899
21
-4.6165
62
254
0
LINE
8
Modules
10
-50.4899
20
-4.6165
11
-53.2983
21
-8.30458
62
254
0
LINE
8
Modules
10
-56.1092
20
-11.996
11
-58.8395
21
-9.917
62
254
0
LINE
8
Modules
10
-58.8395
20
-9.917
11
-56.0311
21
-6.22892
62
254
0
LINE
8
Modules
10
-56.0311
20
-6.22892
11
-53.3009
21
-8.30797
62
254
0
LINE
8
Modules
10
-53.3009
20
-8.30797
11
-56.1092
21
-11.996
62
254
0
LINE
8
Modules
10
-28.0772
20
19.1458
11
-30.8075
21
21.2248
62
254
0
LINE
8
Modules
10
-30.8075
20
21.2248
11
-27.9991
21
24.9129
62
254
0
LINE
8
Modules
10
-27.9991
20
24.9129
11
-25.2688
21
22.8339
62
254
0
LINE
8
Modules
10
-25.2688
20
22.8339
11
-28.0772
21
19.1458
62
254
0
LINE
8
Modules
10
-30.8882
20
15.4543
11
-33.6185
21
17.5334
62
254
0
LINE
8
Modules
10
-33.6185
20
17.5334
11
-30.8101
21
21.2215
62
254
0
LINE
8
Modules
10
-30.8101
20
21.2215
11
-28.0798
21
19.1424
62
254
0
LINE
8
Modules
10
-28.0798
20
19.1424
11
-30.8882
21
15.4543
62
254
0
LINE
8
Modules
10
-33.6991
20
11.7629
11
-36.4294
21
13.8419
62
254
0
LINE
8
Modules
10
-36.4294
20
13.8419
11
-33.6211
21
17.53
62
254
0
LINE
8
Modules
10
-33.6211
20
17.53
11
-30.8908
21
15.4509
62
254
0
LINE
8
Modules
10
-30.8908
20
15.4509
11
-33.6991
21
11.7629
62
254
0
LINE
8
Modules
10
-36.5101
20
8.07139
11
-39.2404
21
10.1504
62
254
0
LINE
8
Modules
10
-39.2404
20
10.1504
11
-36.432
21
13.8385
62
254
0
LINE
8
Modules
10
-36.432
20
13.8385
11
-33.7017
21
11.7595
62
254
0
LINE
8
Modules
10
-33.7017
20
11.7595
11
-36.5101
21
8.07139
62
254
0
LINE
8
Modules
10
-39.3211
20
4.37992
11
-42.0514
21
6.45897
62
254
0
LINE
8
Modules
10
-42.0514
20
6.45897
11
-39.243
21
10.147
62
254
0
LINE
8
Modules
10
-39.243
20
10.147
11
-36.5127
21
8.068
62
254
0
LINE
8
Modules
10
-36.5127
20
8.068
11
-39.3211
21
4.37992
62
254
0
LINE
8
Modules
10
-42.132
20
0.688453
11
-44.8623
21
2.7675
62
254
0
LINE
8
Modules
10
-44.8623
20
2.7675
11
-42.0539
21
6.45558
62
254
0
LINE
8
Modules
10
-42.0539
20
6.45558
11
-39.3237
21
4.37653
62
254
0
LINE
8
Modules
10
-39.3237
20
4.37653
11
-42.132
21
0.688453
62
254
0
LINE
8
Modules
10
-44.943
20
-3.00302
11
-47.6733
21
-0.923967
62
254
0
LINE
8
Modules
10
-47.6733
20
-0.923967
11
-44.8649
21
2.76411
62
254
0
LINE
8
Modules
10
-44.8649
20
2.76411
11
-42.1346
21
0.68506
62
254
0
LINE
8
Modules
10
-42.1346
20
0.68506
11
-44.943
21
-3.00302
62
254
0
LINE
8
Modules
10
-47.7539
20
-6.69449
11
-50.4842
21
-4.61544
62
254
0
LINE
8
Modules
10
-50.4842
20
-4.61544
11
-47.6759
21
-0.92736
62
254
0
LINE
8
Modules
10
-47.6759
20
-0.92736
11
-44.9456
21
-3.00641
62
254
0
LINE
8
Modules
10
-44.9456
20
-3.00641
11
-47.7539
21
-6.69449
62
254
0
LINE
8
Modules
10
-50.5649
20
-10.386
11
-53.2952
21
-8.30691
62
254
0
LINE
8
Modules
10
-53.2952
20
-8.30691
11
-50.4868
21
-4.61883
62
254
0
LINE
8
Modules
10
-50.4868
20
-4.61883
11
-47.7565
21
-6.69788
62
254
0
LINE
8
Modules
10
-47.7565
20
-6.69788
11
-50.5649
21
-10.386
62
254
0
LINE
8
Modules
10
-53.3759
20
-14.0774
11
-56.1062
21
-11.9984
62
254
0
LINE
8
Modules
10
-56.1062
20
-11.9984
11
-53.2978
21
-8.3103
62
254
0
LINE
8
Modules
10
-53.2978
20
-8.3103
11
-50.5675
21
-10.3893
62
254
0
LINE
8
Modules
10
-50.5675
20
-10.3893
11
-53.3759
21
-14.0774
62
254
0
LINE
8
Modules
10
-39.3987
20
-1.39293
11
-42.129
21
0.686124
62
254
0
LINE
8
Modules
10
-42.129
20
0.686124
11
-39.3206
21
4.3742
62
254
0
LINE
8
Modules
10
-39.3206
20
4.3742
11
-36.5903
21
2.29515
62
254
0
LINE
8
Modules
10
-36.5903
20
2.29515
11
-39.3987
21
-1.39293
62
254
0
LINE
8
Modules
10
-42.2096
20
-5.0844
11
-44.9399
21
-3.00535
62
254
0
LINE
8
Modules
10
-44.9399
20
-3.00535
11
-42.1316
21
0.682731
62
254
0
LINE
8
Modules
10
-42.1316
20
0.682731
11
-39.4013
21
-1.39632
62
254
0
LINE
8
Modules
10
-39.4013
20
-1.39632
11
-42.2096
21
-5.0844
62
254
0
LINE
8
Modules
10
-45.0206
20
-8.77587
11
-47.7509
21
-6.69682
62
254
0
LINE
8
Modules
10
-47.7509
20
-6.69682
11
-44.9425
21
-3.00874
62
254
0
LINE
8
Modules
10
-44.9425
20
-3.00874
11
-42.2122
21
-5.08779
62
254
0
LINE
8
Modules
10
-42.2122
20
-5.08779
11
-45.0206
21
-8.77587
62
254
0
LINE
8
Modules
10
-47.8316
20
-12.4673
11
-50.5618
21
-10.3883
62
254
0
LINE
8
Modules
10
-50.5618
20
-10.3883
11
-47.7535
21
-6.70021
62
254
0
LINE
8
Modules
10
-47.7535
20
-6.70021
11
-45.0232
21
-8.77926
62
254
0
LINE
8
Modules
10
-45.0232
20
-8.77926
11
-47.8316
21
-12.4673
62
254
0
LINE
8
Modules
10
-50.6425
20
-16.1588
11
-53.3728
21
-14.0798
62
254
0
LINE
8
Modules
10
-53.3728
20
-14.0798
11
-50.5644
21
-10.3917
62
254
0
LINE
8
Modules
10
-50.5644
20
-10.3917
11
-47.8341
21
-12.4707
62
254
0
LINE
8
Modules
10
-47.8341
20
-12.4707
11
-50.6425
21
-16.1588
62
254
0
LINE
8
Modules
10
-88.6848
20
25.0642
11
-90.31
21
28.0867
62
254
0
LINE
8
Modules
10
-90.31
20
28.0867
11
-86.153
21
30.3221
62
254
0
LINE
8
Modules
10
-86.153
20
30.3221
11
-84.5277
21
27.2996
62
254
0
LINE
8
Modules
10
-84.5277
20
27.2996
11
-88.6848
21
25.0642
62
254
0
LINE
8
Modules
10
-78.7356
20
26.5133
11
-80.3609
21
29.5358
62
254
0
LINE
8
Modules
10
-80.3609
20
29.5358
11
-76.2039
21
31.7712
62
254
0
LINE
8
Modules
10
-76.2039
20
31.7712
11
-74.5786
21
28.7487
62
254
0
LINE
8
Modules
10
-74.5786
20
28.7487
11
-78.7356
21
26.5133
62
254
0
LINE
8
Modules
10
-82.8966
20
24.2758
11
-84.5219
21
27.2983
62
254
0
LINE
8
Modules
10
-84.5219
20
27.2983
11
-80.3649
21
29.5337
62
254
0
LINE
8
Modules
10
-80.3649
20
29.5337
11
-78.7396
21
26.5112
62
254
0
LINE
8
Modules
10
-78.7396
20
26.5112
11
-82.8966
21
24.2758
62
254
0
LINE
8
Modules
10
-87.0577
20
22.0383
11
-88.6829
21
25.0608
62
254
0
LINE
8
Modules
10
-88.6829
20
25.0608
11
-84.5259
21
27.2962
62
254
0
LINE
8
Modules
10
-84.5259
20
27.2962
11
-82.9006
21
24.2737
62
254
0
LINE
8
Modules
10
-82.9006
20
24.2737
11
-87.0577
21
22.0383
62
254
0
LINE
8
Modules
10
-72.9475
20
25.7249
11
-74.5728
21
28.7474
62
254
0
LINE
8
Modules
10
-74.5728
20
28.7474
11
-70.4158
21
30.9828
62
254
0
LINE
8
Modules
10
-70.4158
20
30.9828
11
-68.7905
21
27.9603
62
254
0
LINE
8
Modules
10
-68.7905
20
27.9603
11
-72.9475
21
25.7249
62
254
0
LINE
8
Modules
10
-77.1085
20
23.4874
11
-78.7338
21
26.5099
62
254
0
LINE
8
Modules
10
-78.7338
20
26.5099
11
-74.5768
21
28.7453
62
254
0
LINE
8
Modules
10
-74.5768
20
28.7453
11
-72.9515
21
25.7228
62
254
0
LINE
8
Modules
10
-72.9515
20
25.7228
11
-77.1085
21
23.4874
62
254
0
LINE
8
Modules
10
-81.2696
20
21.25
11
-82.8948
21
24.2724
62
254
0
LINE
8
Modules
10
-82.8948
20
24.2724
11
-78.7378
21
26.5078
62
254
0
LINE
8
Modules
10
-78.7378
20
26.5078
11
-77.1125
21
23.4853
62
254
0
LINE
8
Modules
10
-77.1125
20
23.4853
11
-81.2696
21
21.25
62
254
0
LINE
8
Modules
10
-85.4306
20
19.0125
11
-87.0558
21
22.035
62
254
0
LINE
8
Modules
10
-87.0558
20
22.035
11
-82.8988
21
24.2703
62
254
0
LINE
8
Modules
10
-82.8988
20
24.2703
11
-81.2735
21
21.2478
62
254
0
LINE
8
Modules
10
-81.2735
20
21.2478
11
-85.4306
21
19.0125
62
254
0
LINE
8
Modules
10
-62.9984
20
27.174
11
-64.6237
21
30.1965
62
254
0
LINE
8
Modules
10
-64.6237
20
30.1965
11
-60.4667
21
32.4319
62
254
0
LINE
8
Modules
10
-60.4667
20
32.4319
11
-58.8414
21
29.4094
62
254
0
LINE
8
Modules
10
-58.8414
20
29.4094
11
-62.9984
21
27.174
62
254
0
LINE
8
Modules
10
-67.1594
20
24.9365
11
-68.7847
21
27.959
62
254
0
LINE
8
Modules
10
-68.7847
20
27.959
11
-64.6277
21
30.1944
62
254
0
LINE
8
Modules
10
-64.6277
20
30.1944
11
-63.0024
21
27.1719
62
254
0
LINE
8
Modules
10
-63.0024
20
27.1719
11
-67.1594
21
24.9365
62
254
0
LINE
8
Modules
10
-71.3204
20
22.699
11
-72.9457
21
25.7215
62
254
0
LINE
8
Modules
10
-72.9457
20
25.7215
11
-68.7887
21
27.9569
62
254
0
LINE
8
Modules
10
-68.7887
20
27.9569
11
-67.1634
21
24.9344
62
254
0
LINE
8
Modules
10
-67.1634
20
24.9344
11
-71.3204
21
22.699
62
254
0
LINE
8
Modules
10
-75.4814
20
20.4616
11
-77.1067
21
23.4841
62
254
0
LINE
8
Modules
10
-77.1067
20
23.4841
11
-72.9497
21
25.7194
62
254
0
LINE
8
Modules
10
-72.9497
20
25.7194
11
-71.3244
21
22.6969
62
254
0
LINE
8
Modules
10
-71.3244
20
22.6969
11
-75.4814
21
20.4616
62
254
0
LINE
8
Modules
10
-79.6425
20
18.2241
11
-81.2677
21
21.2466
62
254
0
LINE
8
Modules
10
-81.2677
20
21.2466
11
-77.1107
21
23.4819
62
254
0
LINE
8
Modules
10
-77.1107
20
23.4819
11
-75.4854
21
20.4594
62
254
0
LINE
8
Modules
10
-75.4854
20
20.4594
11
-79.6425
21
18.2241
62
254
0
LINE
8
Modules
10
-83.8035
20
15.9866
11
-85.4287
21
19.0091
62
254
0
LINE
8
Modules
10
-85.4287
20
19.0091
11
-81.2717
21
21.2444
62
254
0
LINE
8
Modules
10
-81.2717
20
21.2444
11
-79.6464
21
18.2219
62
254
0
LINE
8
Modules
10
-79.6464
20
18.2219
11
-83.8035
21
15.9866
62
254
0
LINE
8
Modules
10
-57.2103
20
26.3856
11
-58.8356
21
29.4081
62
254
0
LINE
8
Modules
10
-58.8356
20
29.4081
11
-54.6786
21
31.6435
62
254
0
LINE
8
Modules
10
-54.6786
20
31.6435
11
-53.0533
21
28.621
62
254
0
LINE
8
Modules
10
-53.0533
20
28.621
11
-57.2103
21
26.3856
62
254
0
LINE
8
Modules
10
-61.3713
20
24.1481
11
-62.9966
21
27.1706
62
254
0
LINE
8
Modules
10
-62.9966
20
27.1706
11
-58.8396
21
29.406
62
254
0
LINE
8
Modules
10
-58.8396
20
29.406
11
-57.2143
21
26.3835
62
254
0
LINE
8
Modules
10
-57.2143
20
26.3835
11
-61.3713
21
24.1481
62
254
0
LINE
8
Modules
10
-65.5323
20
21.9107
11
-67.1576
21
24.9331
62
254
0
LINE
8
Modules
10
-67.1576
20
24.9331
11
-63.0006
21
27.1685
62
254
0
LINE
8
Modules
10
-63.0006
20
27.1685
11
-61.3753
21
24.146
62
254
0
LINE
8
Modules
10
-61.3753
20
24.146
11
-65.5323
21
21.9107
62
254
0
LINE
8
Modules
10
-69.6933
20
19.6732
11
-71.3186
21
22.6957
62
254
0
LINE
8
Modules
10
-71.3186
20
22.6957
11
-67.1616
21
24.931
62
254
0
LINE
8
Modules
10
-67.1616
20
24.931
11
-65.5363
21
21.9085
62
254
0
LINE
8
Modules
10
-65.5363
20
21.9085
11
-69.6933
21
19.6732
62
254
0
LINE
8
Modules
10
-73.8544
20
17.4357
11
-75.4796
21
20.4582
62
254
0
LINE
8
Modules
10
-75.4796
20
20.4582
11
-71.3226
21
22.6935
62
254
0
LINE
8
Modules
10
-71.3226
20
22.6935
11
-69.6973
21
19.671
62
254
0
LINE
8
Modules
10
-69.6973
20
19.671
11
-73.8544
21
17.4357
62
254
0
LINE
8
Modules
10
-78.0154
20
15.1982
11
-79.6406
21
18.2207
62
254
0
LINE
8
Modules
10
-79.6406
20
18.2207
11
-75.4836
21
20.456
62
254
0
LINE
8
Modules
10
-75.4836
20
20.456
11
-73.8583
21
17.4336
62
254
0
LINE
8
Modules
10
-73.8583
20
17.4336
11
-78.0154
21
15.1982
62
254
0
LINE
8
Modules
10
-82.1764
20
12.9607
11
-83.8016
21
15.9832
62
254
0
LINE
8
Modules
10
-83.8016
20
15.9832
11
-79.6446
21
18.2186
62
254
0
LINE
8
Modules
10
-79.6446
20
18.2186
11
-78.0193
21
15.1961
62
254
0
LINE
8
Modules
10
-78.0193
20
15.1961
11
-82.1764
21
12.9607
62
254
0
LINE
8
Modules
10
-47.2612
20
27.8347
11
-48.8865
21
30.8572
62
254
0
LINE
8
Modules
10
-48.8865
20
30.8572
11
-44.7295
21
33.0926
62
254
0
LINE
8
Modules
10
-44.7295
20
33.0926
11
-43.1042
21
30.0701
62
254
0
LINE
8
Modules
10
-43.1042
20
30.0701
11
-47.2612
21
27.8347
62
254
0
LINE
8
Modules
10
-51.4222
20
25.5972
11
-53.0475
21
28.6197
62
254
0
LINE
8
Modules
10
-53.0475
20
28.6197
11
-48.8905
21
30.8551
62
254
0
LINE
8
Modules
10
-48.8905
20
30.8551
11
-47.2652
21
27.8326
62
254
0
LINE
8
Modules
10
-47.2652
20
27.8326
11
-51.4222
21
25.5972
62
254
0
LINE
8
Modules
10
-55.5832
20
23.3597
11
-57.2085
21
26.3822
62
254
0
LINE
8
Modules
10
-57.2085
20
26.3822
11
-53.0515
21
28.6176
62
254
0
LINE
8
Modules
10
-53.0515
20
28.6176
11
-51.4262
21
25.5951
62
254
0
LINE
8
Modules
10
-51.4262
20
25.5951
11
-55.5832
21
23.3597
62
254
0
LINE
8
Modules
10
-59.7442
20
21.1223
11
-61.3695
21
24.1448
62
254
0
LINE
8
Modules
10
-61.3695
20
24.1448
11
-57.2125
21
26.3801
62
254
0
LINE
8
Modules
10
-57.2125
20
26.3801
11
-55.5872
21
23.3576
62
254
0
LINE
8
Modules
10
-55.5872
20
23.3576
11
-59.7442
21
21.1223
62
254
0
LINE
8
Modules
10
-63.9052
20
18.8848
11
-65.5305
21
21.9073
62
254
0
LINE
8
Modules
10
-65.5305
20
21.9073
11
-61.3735
21
24.1426
62
254
0
LINE
8
Modules
10
-61.3735
20
24.1426
11
-59.7482
21
21.1201
62
254
0
LINE
8
Modules
10
-59.7482
20
21.1201
11
-63.9052
21
18.8848
62
254
0
LINE
8
Modules
10
-68.0662
20
16.6473
11
-69.6915
21
19.6698
62
254
0
LINE
8
Modules
10
-69.6915
20
19.6698
11
-65.5345
21
21.9051
62
254
0
LINE
8
Modules
10
-65.5345
20
21.9051
11
-63.9092
21
18.8826
62
254
0
LINE
8
Modules
10
-63.9092
20
18.8826
11
-68.0662
21
16.6473
62
254
0
LINE
8
Modules
10
-72.2273
20
14.4098
11
-73.8525
21
17.4323
62
254
0
LINE
8
Modules
10
-73.8525
20
17.4323
11
-69.6955
21
19.6677
62
254
0
LINE
8
Modules
10
-69.6955
20
19.6677
11
-68.0702
21
16.6452
62
254
0
LINE
8
Modules
10
-68.0702
20
16.6452
11
-72.2273
21
14.4098
62
254
0
LINE
8
Modules
10
-76.3883
20
12.1723
11
-78.0135
21
15.1948
62
254
0
LINE
8
Modules
10
-78.0135
20
15.1948
11
-73.8565
21
17.4302
62
254
0
LINE
8
Modules
10
-73.8565
20
17.4302
11
-72.2312
21
14.4077
62
254
0
LINE
8
Modules
10
-72.2312
20
14.4077
11
-76.3883
21
12.1723
62
254
0
LINE
8
Modules
10
-80.5493
20
9.93484
11
-82.1745
21
12.9573
62
254
0
LINE
8
Modules
10
-82.1745
20
12.9573
11
-78.0175
21
15.1927
62
254
0
LINE
8
Modules
10
-78.0175
20
15.1927
11
-76.3922
21
12.1702
62
254
0
LINE
8
Modules
10
-76.3922
20
12.1702
11
-80.5493
21
9.93484
62
254
0
LINE
8
Modules
10
-41.4731
20
27.0463
11
-43.0984
21
30.0688
62
254
0
LINE
8
Modules
10
-43.0984
20
30.0688
11
-38.9414
21
32.3042
62
254
0
LINE
8
Modules
10
-38.9414
20
32.3042
11
-37.3161
21
29.2817
62
254
0
LINE
8
Modules
10
-37.3161
20
29.2817
11
-41.4731
21
27.0463
62
254
0
LINE
8
Modules
10
-45.6341
20
24.8088
11
-47.2594
21
27.8313
62
254
0
LINE
8
Modules
10
-47.2594
20
27.8313
11
-43.1024
21
30.0667
62
254
0
LINE
8
Modules
10
-43.1024
20
30.0667
11
-41.4771
21
27.0442
62
254
0
LINE
8
Modules
10
-41.4771
20
27.0442
11
-45.6341
21
24.8088
62
254
0
LINE
8
Modules
10
-49.7951
20
22.5714
11
-51.4204
21
25.5938
62
254
0
LINE
8
Modules
10
-51.4204
20
25.5938
11
-47.2634
21
27.8292
62
254
0
LINE
8
Modules
10
-47.2634
20
27.8292
11
-45.6381
21
24.8067
62
254
0
LINE
8
Modules
10
-45.6381
20
24.8067
11
-49.7951
21
22.5714
62
254
0
LINE
8
Modules
10
-53.9561
20
20.3339
11
-55.5814
21
23.3564
62
254
0
LINE
8
Modules
10
-55.5814
20
23.3564
11
-51.4244
21
25.5917
62
254
0
LINE
8
Modules
10
-51.4244
20
25.5917
11
-49.7991
21
22.5692
62
254
0
LINE
8
Modules
10
-49.7991
20
22.5692
11
-53.9561
21
20.3339
62
254
0
LINE
8
Modules
10
-58.1171
20
18.0964
11
-59.7424
21
21.1189
62
254
0
LINE
8
Modules
10
-59.7424
20
21.1189
11
-55.5854
21
23.3542
62
254
0
LINE
8
Modules
10
-55.5854
20
23.3542
11
-53.9601
21
20.3317
62
254
0
LINE
8
Modules
10
-53.9601
20
20.3317
11
-58.1171
21
18.0964
62
254
0
LINE
8
Modules
10
-62.2781
20
15.8589
11
-63.9034
21
18.8814
62
254
0
LINE
8
Modules
10
-63.9034
20
18.8814
11
-59.7464
21
21.1167
62
254
0
LINE
8
Modules
10
-59.7464
20
21.1167
11
-58.1211
21
18.0943
62
254
0
LINE
8
Modules
10
-58.1211
20
18.0943
11
-62.2781
21
15.8589
62
254
0
LINE
8
Modules
10
-66.4392
20
13.6214
11
-68.0644
21
16.6439
62
254
0
LINE
8
Modules
10
-68.0644
20
16.6439
11
-63.9074
21
18.8793
62
254
0
LINE
8
Modules
10
-63.9074
20
18.8793
11
-62.2821
21
15.8568
62
254
0
LINE
8
Modules
10
-62.2821
20
15.8568
11
-66.4392
21
13.6214
62
254
0
LINE
8
Modules
10
-70.6002
20
11.3839
11
-72.2254
21
14.4064
62
254
0
LINE
8
Modules
10
-72.2254
20
14.4064
11
-68.0684
21
16.6418
62
254
0
LINE
8
Modules
10
-68.0684
20
16.6418
11
-66.4431
21
13.6193
62
254
0
LINE
8
Modules
10
-66.4431
20
13.6193
11
-70.6002
21
11.3839
62
254
0
LINE
8
Modules
10
-74.7612
20
9.14645
11
-76.3864
21
12.1689
62
254
0
LINE
8
Modules
10
-76.3864
20
12.1689
11
-72.2294
21
14.4043
62
254
0
LINE
8
Modules
10
-72.2294
20
14.4043
11
-70.6041
21
11.3818
62
254
0
LINE
8
Modules
10
-70.6041
20
11.3818
11
-74.7612
21
9.14645
62
254
0
LINE
8
Modules
10
-78.9222
20
6.90897
11
-80.5474
21
9.93146
62
254
0
LINE
8
Modules
10
-80.5474
20
9.93146
11
-76.3904
21
12.1668
62
254
0
LINE
8
Modules
10
-76.3904
20
12.1668
11
-74.7651
21
9.14432
62
254
0
LINE
8
Modules
10
-74.7651
20
9.14432
11
-78.9222
21
6.90897
62
254
0
LINE
8
Modules
10
-39.846
20
24.0204
11
-41.4713
21
27.0429
62
254
0
LINE
8
Modules
10
-41.4713
20
27.0429
11
-37.3143
21
29.2783
62
254
0
LINE
8
Modules
10
-37.3143
20
29.2783
11
-35.689
21
26.2558
62
254
0
LINE
8
Modules
10
-35.689
20
26.2558
11
-39.846
21
24.0204
62
254
0
LINE
8
Modules
10
-44.007
20
21.783
11
-45.6323
21
24.8054
62
254
0
LINE
8
Modules
10
-45.6323
20
24.8054
11
-41.4753
21
27.0408
62
254
0
LINE
8
Modules
10
-41.4753
20
27.0408
11
-39.85
21
24.0183
62
254
0
LINE
8
Modules
10
-39.85
20
24.0183
11
-44.007
21
21.783
62
254
0
LINE
8
Modules
10
-48.168
20
19.5455
11
-49.7933
21
22.568
62
254
0
LINE
8
Modules
10
-49.7933
20
22.568
11
-45.6363
21
24.8033
62
254
0
LINE
8
Modules
10
-45.6363
20
24.8033
11
-44.011
21
21.7808
62
254
0
LINE
8
Modules
10
-44.011
20
21.7808
11
-48.168
21
19.5455
62
254
0
LINE
8
Modules
10
-52.329
20
17.308
11
-53.9543
21
20.3305
62
254
0
LINE
8
Modules
10
-53.9543
20
20.3305
11
-49.7973
21
22.5658
62
254
0
LINE
8
Modules
10
-49.7973
20
22.5658
11
-48.172
21
19.5433
62
254
0
LINE
8
Modules
10
-48.172
20
19.5433
11
-52.329
21
17.308
62
254
0
LINE
8
Modules
10
-56.49
20
15.0705
11
-58.1153
21
18.093
62
254
0
LINE
8
Modules
10
-58.1153
20
18.093
11
-53.9583
21
20.3284
62
254
0
LINE
8
Modules
10
-53.9583
20
20.3284
11
-52.333
21
17.3059
62
254
0
LINE
8
Modules
10
-52.333
20
17.3059
11
-56.49
21
15.0705
62
254
0
LINE
8
Modules
10
-60.651
20
12.833
11
-62.2763
21
15.8555
62
254
0
LINE
8
Modules
10
-62.2763
20
15.8555
11
-58.1193
21
18.0909
62
254
0
LINE
8
Modules
10
-58.1193
20
18.0909
11
-56.494
21
15.0684
62
254
0
LINE
8
Modules
10
-56.494
20
15.0684
11
-60.651
21
12.833
62
254
0
LINE
8
Modules
10
-64.8121
20
10.5955
11
-66.4373
21
13.618
62
254
0
LINE
8
Modules
10
-66.4373
20
13.618
11
-62.2803
21
15.8534
62
254
0
LINE
8
Modules
10
-62.2803
20
15.8534
11
-60.655
21
12.8309
62
254
0
LINE
8
Modules
10
-60.655
20
12.8309
11
-64.8121
21
10.5955
62
254
0
LINE
8
Modules
10
-68.9731
20
8.35806
11
-70.5983
21
11.3805
62
254
0
LINE
8
Modules
10
-70.5983
20
11.3805
11
-66.4413
21
13.6159
62
254
0
LINE
8
Modules
10
-66.4413
20
13.6159
11
-64.816
21
10.5934
62
254
0
LINE
8
Modules
10
-64.816
20
10.5934
11
-68.9731
21
8.35806
62
254
0
LINE
8
Modules
10
-77.9224
20
50.3959
11
-77.2372
21
53.7586
62
254
0
LINE
8
Modules
10
-77.2372
20
53.7586
11
-72.568
21
52.8071
62
254
0
LINE
8
Modules
10
-72.568
20
52.8071
11
-73.2532
21
49.4444
62
254
0
LINE
8
Modules
10
-73.2532
20
49.4444
11
-77.9224
21
50.3959
62
254
0
LINE
8
Modules
10
-82.5962
20
51.3484
11
-81.9109
21
54.711
62
254
0
LINE
8
Modules
10
-81.9109
20
54.711
11
-77.2417
21
53.7595
62
254
0
LINE
8
Modules
10
-77.2417
20
53.7595
11
-77.927
21
50.3969
62
254
0
LINE
8
Modules
10
-77.927
20
50.3969
11
-82.5962
21
51.3484
62
254
0
LINE
8
Modules
10
-87.2699
20
52.3008
11
-86.5846
21
55.6634
62
254
0
LINE
8
Modules
10
-86.5846
20
55.6634
11
-81.9154
21
54.7119
62
254
0
LINE
8
Modules
10
-81.9154
20
54.7119
11
-82.6007
21
51.3493
62
254
0
LINE
8
Modules
10
-82.6007
20
51.3493
11
-87.2699
21
52.3008
62
254
0
LINE
8
Modules
10
-41.2186
20
39.4101
11
-40.5333
21
42.7727
62
254
0
LINE
8
Modules
10
-40.5333
20
42.7727
11
-35.8641
21
41.8212
62
254
0
LINE
8
Modules
10
-35.8641
20
41.8212
11
-36.5494
21
38.4586
62
254
0
LINE
8
Modules
10
-36.5494
20
38.4586
11
-41.2186
21
39.4101
62
254
0
LINE
8
Modules
10
-45.8923
20
40.3625
11
-45.2071
21
43.7251
62
254
0
LINE
8
Modules
10
-45.2071
20
43.7251
11
-40.5379
21
42.7736
62
254
0
LINE
8
Modules
10
-40.5379
20
42.7736
11
-41.2231
21
39.411
62
254
0
LINE
8
Modules
10
-41.2231
20
39.411
11
-45.8923
21
40.3625
62
254
0
LINE
8
Modules
10
-50.566
20
41.3149
11
-49.8808
21
44.6776
62
254
0
LINE
8
Modules
10
-49.8808
20
44.6776
11
-45.2116
21
43.7261
62
254
0
LINE
8
Modules
10
-45.2116
20
43.7261
11
-45.8969
21
40.3634
62
254
0
LINE
8
Modules
10
-45.8969
20
40.3634
11
-50.566
21
41.3149
62
254
0
LINE
8
Modules
10
-55.2398
20
42.2674
11
-54.5545
21
45.63
62
254
0
LINE
8
Modules
10
-54.5545
20
45.63
11
-49.8853
21
44.6785
62
254
0
LINE
8
Modules
10
-49.8853
20
44.6785
11
-50.5706
21
41.3158
62
254
0
LINE
8
Modules
10
-50.5706
20
41.3158
11
-55.2398
21
42.2674
62
254
0
LINE
8
Modules
10
-59.9135
20
43.2198
11
-59.2283
21
46.5824
62
254
0
LINE
8
Modules
10
-59.2283
20
46.5824
11
-54.5591
21
45.6309
62
254
0
LINE
8
Modules
10
-54.5591
20
45.6309
11
-55.2443
21
42.2683
62
254
0
LINE
8
Modules
10
-55.2443
20
42.2683
11
-59.9135
21
43.2198
62
254
0
LINE
8
Modules
10
-64.5872
20
44.1722
11
-63.902
21
47.5349
62
254
0
LINE
8
Modules
10
-63.902
20
47.5349
11
-59.2328
21
46.5834
62
254
0
LINE
8
Modules
10
-59.2328
20
46.5834
11
-59.9181
21
43.2207
62
254
0
LINE
8
Modules
10
-59.9181
20
43.2207
11
-64.5872
21
44.1722
62
254
0
LINE
8
Modules
10
-69.261
20
45.1247
11
-68.5757
21
48.4873
62
254
0
LINE
8
Modules
10
-68.5757
20
48.4873
11
-63.9065
21
47.5358
62
254
0
LINE
8
Modules
10
-63.9065
20
47.5358
11
-64.5918
21
44.1731
62
254
0
LINE
8
Modules
10
-64.5918
20
44.1731
11
-69.261
21
45.1247
62
254
0
LINE
8
Modules
10
-73.9347
20
46.0771
11
-73.2495
21
49.4397
62
254
0
LINE
8
Modules
10
-73.2495
20
49.4397
11
-68.5803
21
48.4882
62
254
0
LINE
8
Modules
10
-68.5803
20
48.4882
11
-69.2655
21
45.1256
62
254
0
LINE
8
Modules
10
-69.2655
20
45.1256
11
-73.9347
21
46.0771
62
254
0
LINE
8
Modules
10
-78.6084
20
47.0295
11
-77.9232
21
50.3922
62
254
0
LINE
8
Modules
10
-77.9232
20
50.3922
11
-73.254
21
49.4407
62
254
0
LINE
8
Modules
10
-73.254
20
49.4407
11
-73.9393
21
46.078
62
254
0
LINE
8
Modules
10
-73.9393
20
46.078
11
-78.6084
21
47.0295
62
254
0
LINE
8
Modules
10
-83.2822
20
47.982
11
-82.5969
21
51.3446
62
254
0
LINE
8
Modules
10
-82.5969
20
51.3446
11
-77.9277
21
50.3931
62
254
0
LINE
8
Modules
10
-77.9277
20
50.3931
11
-78.613
21
47.0304
62
254
0
LINE
8
Modules
10
-78.613
20
47.0304
11
-83.2822
21
47.982
62
254
0
LINE
8
Modules
10
-87.9559
20
48.9344
11
-87.2707
21
52.297
62
254
0
LINE
8
Modules
10
-87.2707
20
52.297
11
-82.6015
21
51.3455
62
254
0
LINE
8
Modules
10
-82.6015
20
51.3455
11
-83.2867
21
47.9829
62
254
0
LINE
8
Modules
10
-83.2867
20
47.9829
11
-87.9559
21
48.9344
62
254
0
LINE
8
Modules
10
-41.9046
20
36.0436
11
-41.2193
21
39.4063
62
254
0
LINE
8
Modules
10
-41.2193
20
39.4063
11
-36.5502
21
38.4548
62
254
0
LINE
8
Modules
10
-36.5502
20
38.4548
11
-37.2354
21
35.0921
62
254
0
LINE
8
Modules
10
-37.2354
20
35.0921
11
-41.9046
21
36.0436
62
254
0
LINE
8
Modules
10
-46.5783
20
36.9961
11
-45.8931
21
40.3587
62
254
0
LINE
8
Modules
10
-45.8931
20
40.3587
11
-41.2239
21
39.4072
62
254
0
LINE
8
Modules
10
-41.2239
20
39.4072
11
-41.9091
21
36.0446
62
254
0
LINE
8
Modules
10
-41.9091
20
36.0446
11
-46.5783
21
36.9961
62
254
0
LINE
8
Modules
10
-51.2521
20
37.9485
11
-50.5668
21
41.3112
62
254
0
LINE
8
Modules
10
-50.5668
20
41.3112
11
-45.8976
21
40.3596
62
254
0
LINE
8
Modules
10
-45.8976
20
40.3596
11
-46.5829
21
36.997
62
254
0
LINE
8
Modules
10
-46.5829
20
36.997
11
-51.2521
21
37.9485
62
254
0
LINE
8
Modules
10
-55.9258
20
38.9009
11
-55.2405
21
42.2636
62
254
0
LINE
8
Modules
10
-55.2405
20
42.2636
11
-50.5714
21
41.3121
62
254
0
LINE
8
Modules
10
-50.5714
20
41.3121
11
-51.2566
21
37.9494
62
254
0
LINE
8
Modules
10
-51.2566
20
37.9494
11
-55.9258
21
38.9009
62
254
0
LINE
8
Modules
10
-60.5995
20
39.8534
11
-59.9143
21
43.216
62
254
0
LINE
8
Modules
10
-59.9143
20
43.216
11
-55.2451
21
42.2645
62
254
0
LINE
8
Modules
10
-55.2451
20
42.2645
11
-55.9303
21
38.9019
62
254
0
LINE
8
Modules
10
-55.9303
20
38.9019
11
-60.5995
21
39.8534
62
254
0
LINE
8
Modules
10
-65.2733
20
40.8058
11
-64.588
21
44.1685
62
254
0
LINE
8
Modules
10
-64.588
20
44.1685
11
-59.9188
21
43.2169
62
254
0
LINE
8
Modules
10
-59.9188
20
43.2169
11
-60.6041
21
39.8543
62
254
0
LINE
8
Modules
10
-60.6041
20
39.8543
11
-65.2733
21
40.8058
62
254
0
LINE
8
Modules
10
-69.947
20
41.7582
11
-69.2617
21
45.1209
62
254
0
LINE
8
Modules
10
-69.2617
20
45.1209
11
-64.5926
21
44.1694
62
254
0
LINE
8
Modules
10
-64.5926
20
44.1694
11
-65.2778
21
40.8067
62
254
0
LINE
8
Modules
10
-65.2778
20
40.8067
11
-69.947
21
41.7582
62
254
0
LINE
8
Modules
10
-74.6207
20
42.7107
11
-73.9355
21
46.0733
62
254
0
LINE
8
Modules
10
-73.9355
20
46.0733
11
-69.2663
21
45.1218
62
254
0
LINE
8
Modules
10
-69.2663
20
45.1218
11
-69.9515
21
41.7592
62
254
0
LINE
8
Modules
10
-69.9515
20
41.7592
11
-74.6207
21
42.7107
62
254
0
LINE
8
Modules
10
-79.2945
20
43.6631
11
-78.6092
21
47.0258
62
254
0
LINE
8
Modules
10
-78.6092
20
47.0258
11
-73.94
21
46.0742
62
254
0
LINE
8
Modules
10
-73.94
20
46.0742
11
-74.6253
21
42.7116
62
254
0
LINE
8
Modules
10
-74.6253
20
42.7116
11
-79.2945
21
43.6631
62
254
0
LINE
8
Modules
10
-83.9682
20
44.6155
11
-83.283
21
47.9782
62
254
0
LINE
8
Modules
10
-83.283
20
47.9782
11
-78.6138
21
47.0267
62
254
0
LINE
8
Modules
10
-78.6138
20
47.0267
11
-79.299
21
43.664
62
254
0
LINE
8
Modules
10
-79.299
20
43.664
11
-83.9682
21
44.6155
62
254
0
LINE
8
Modules
10
-88.6419
20
45.568
11
-87.9567
21
48.9306
62
254
0
LINE
8
Modules
10
-87.9567
20
48.9306
11
-83.2875
21
47.9791
62
254
0
LINE
8
Modules
10
-83.2875
20
47.9791
11
-83.9727
21
44.6165
62
254
0
LINE
8
Modules
10
-83.9727
20
44.6165
11
-88.6419
21
45.568
62
254
0
LINE
8
Modules
10
-51.9381
20
34.5821
11
-51.2528
21
37.9447
62
254
0
LINE
8
Modules
10
-51.2528
20
37.9447
11
-46.5836
21
36.9932
62
254
0
LINE
8
Modules
10
-46.5836
20
36.9932
11
-47.2689
21
33.6306
62
254
0
LINE
8
Modules
10
-47.2689
20
33.6306
11
-51.9381
21
34.5821
62
254
0
LINE
8
Modules
10
-56.6118
20
35.5345
11
-55.9266
21
38.8972
62
254
0
LINE
8
Modules
10
-55.9266
20
38.8972
11
-51.2574
21
37.9457
62
254
0
LINE
8
Modules
10
-51.2574
20
37.9457
11
-51.9426
21
34.583
62
254
0
LINE
8
Modules
10
-51.9426
20
34.583
11
-56.6118
21
35.5345
62
254
0
LINE
8
Modules
10
-61.2856
20
36.487
11
-60.6003
21
39.8496
62
254
0
LINE
8
Modules
10
-60.6003
20
39.8496
11
-55.9311
21
38.8981
62
254
0
LINE
8
Modules
10
-55.9311
20
38.8981
11
-56.6164
21
35.5355
62
254
0
LINE
8
Modules
10
-56.6164
20
35.5355
11
-61.2856
21
36.487
62
254
0
LINE
8
Modules
10
-65.9593
20
37.4394
11
-65.274
21
40.802
62
254
0
LINE
8
Modules
10
-65.274
20
40.802
11
-60.6048
21
39.8505
62
254
0
LINE
8
Modules
10
-60.6048
20
39.8505
11
-61.2901
21
36.4879
62
254
0
LINE
8
Modules
10
-61.2901
20
36.4879
11
-65.9593
21
37.4394
62
254
0
LINE
8
Modules
10
-70.633
20
38.3918
11
-69.9478
21
41.7545
62
254
0
LINE
8
Modules
10
-69.9478
20
41.7545
11
-65.2786
21
40.803
62
254
0
LINE
8
Modules
10
-65.2786
20
40.803
11
-65.9638
21
37.4403
62
254
0
LINE
8
Modules
10
-65.9638
20
37.4403
11
-70.633
21
38.3918
62
254
0
LINE
8
Modules
10
-75.3068
20
39.3443
11
-74.6215
21
42.7069
62
254
0
LINE
8
Modules
10
-74.6215
20
42.7069
11
-69.9523
21
41.7554
62
254
0
LINE
8
Modules
10
-69.9523
20
41.7554
11
-70.6376
21
38.3928
62
254
0
LINE
8
Modules
10
-70.6376
20
38.3928
11
-75.3068
21
39.3443
62
254
0
LINE
8
Modules
10
-79.9805
20
40.2967
11
-79.2952
21
43.6593
62
254
0
LINE
8
Modules
10
-79.2952
20
43.6593
11
-74.626
21
42.7078
62
254
0
LINE
8
Modules
10
-74.626
20
42.7078
11
-75.3113
21
39.3452
62
254
0
LINE
8
Modules
10
-75.3113
20
39.3452
11
-79.9805
21
40.2967
62
254
0
LINE
8
Modules
10
-84.6542
20
41.2491
11
-83.969
21
44.6118
62
254
0
LINE
8
Modules
10
-83.969
20
44.6118
11
-79.2998
21
43.6603
62
254
0
LINE
8
Modules
10
-79.2998
20
43.6603
11
-79.985
21
40.2976
62
254
0
LINE
8
Modules
10
-79.985
20
40.2976
11
-84.6542
21
41.2491
62
254
0
LINE
8
Modules
10
-89.328
20
42.2016
11
-88.6427
21
45.5642
62
254
0
LINE
8
Modules
10
-88.6427
20
45.5642
11
-83.9735
21
44.6127
62
254
0
LINE
8
Modules
10
-83.9735
20
44.6127
11
-84.6588
21
41.25
62
254
0
LINE
8
Modules
10
-84.6588
20
41.25
11
-89.328
21
42.2016
62
254
0
LINE
8
Modules
10
-66.6453
20
34.073
11
-65.9601
21
37.4356
62
254
0
LINE
8
Modules
10
-65.9601
20
37.4356
11
-61.2909
21
36.4841
62
254
0
LINE
8
Modules
10
-61.2909
20
36.4841
11
-61.9761
21
33.1215
62
254
0
LINE
8
Modules
10
-61.9761
20
33.1215
11
-66.6453
21
34.073
62
254
0
LINE
8
Modules
10
-71.319
20
35.0254
11
-70.6338
21
38.3881
62
254
0
LINE
8
Modules
10
-70.6338
20
38.3881
11
-65.9646
21
37.4366
62
254
0
LINE
8
Modules
10
-65.9646
20
37.4366
11
-66.6499
21
34.0739
62
254
0
LINE
8
Modules
10
-66.6499
20
34.0739
11
-71.319
21
35.0254
62
254
0
LINE
8
Modules
10
-75.9928
20
35.9778
11
-75.3075
21
39.3405
62
254
0
LINE
8
Modules
10
-75.3075
20
39.3405
11
-70.6383
21
38.389
62
254
0
LINE
8
Modules
10
-70.6383
20
38.389
11
-71.3236
21
35.0263
62
254
0
LINE
8
Modules
10
-71.3236
20
35.0263
11
-75.9928
21
35.9778
62
254
0
LINE
8
Modules
10
-80.6665
20
36.9303
11
-79.9813
21
40.2929
62
254
0
LINE
8
Modules
10
-79.9813
20
40.2929
11
-75.3121
21
39.3414
62
254
0
LINE
8
Modules
10
-75.3121
20
39.3414
11
-75.9973
21
35.9788
62
254
0
LINE
8
Modules
10
-75.9973
20
35.9788
11
-80.6665
21
36.9303
62
254
0
LINE
8
Modules
10
-85.3402
20
37.8827
11
-84.655
21
41.2454
62
254
0
LINE
8
Modules
10
-84.655
20
41.2454
11
-79.9858
21
40.2938
62
254
0
LINE
8
Modules
10
-79.9858
20
40.2938
11
-80.6711
21
36.9312
62
254
0
LINE
8
Modules
10
-80.6711
20
36.9312
11
-85.3402
21
37.8827
62
254
0
LINE
8
Modules
10
-90.014
20
38.8351
11
-89.3287
21
42.1978
62
254
0
LINE
8
Modules
10
-89.3287
20
42.1978
11
-84.6595
21
41.2463
62
254
0
LINE
8
Modules
10
-84.6595
20
41.2463
11
-85.3448
21
37.8836
62
254
0
LINE
8
Modules
10
-85.3448
20
37.8836
11
-90.014
21
38.8351
62
254
0
LINE
8
Modules
10
-81.3525
20
33.5639
11
-80.6673
21
36.9265
62
254
0
LINE
8
Modules
10
-80.6673
20
36.9265
11
-75.9981
21
35.975
62
254
0
LINE
8
Modules
10
-75.9981
20
35.975
11
-76.6833
21
32.6124
62
254
0
LINE
8
Modules
10
-76.6833
20
32.6124
11
-81.3525
21
33.5639
62
254
0
LINE
8
Modules
10
-86.0263
20
34.5163
11
-85.341
21
37.8789
62
254
0
LINE
8
Modules
10
-85.341
20
37.8789
11
-80.6718
21
36.9274
62
254
0
LINE
8
Modules
10
-80.6718
20
36.9274
11
-81.3571
21
33.5648
62
254
0
LINE
8
Modules
10
-81.3571
20
33.5648
11
-86.0263
21
34.5163
62
254
0
LINE
8
Modules
10
-90.7
20
35.4687
11
-90.0148
21
38.8314
62
254
0
LINE
8
Modules
10
-90.0148
20
38.8314
11
-85.3456
21
37.8799
62
254
0
LINE
8
Modules
10
-85.3456
20
37.8799
11
-86.0308
21
34.5172
62
254
0
LINE
8
Modules
10
-86.0308
20
34.5172
11
-90.7
21
35.4687
62
254
0
LINE
8
Modules
10
-38.7483
20
48.7909
11
-36.7802
21
51.6022
62
254
0
LINE
8
Modules
10
-36.7802
20
51.6022
11
-32.9007
21
48.8865
62
254
0
LINE
8
Modules
10
-32.9007
20
48.8865
11
-34.8688
21
46.0751
62
254
0
LINE
8
Modules
10
-34.8688
20
46.0751
11
-38.7483
21
48.7909
62
254
0
LINE
8
Modules
10
-42.6314
20
51.5093
11
-40.6634
21
54.3206
62
254
0
LINE
8
Modules
10
-40.6634
20
54.3206
11
-36.7839
21
51.6049
62
254
0
LINE
8
Modules
10
-36.7839
20
51.6049
11
-38.752
21
48.7935
62
254
0
LINE
8
Modules
10
-38.752
20
48.7935
11
-42.6314
21
51.5093
62
254
0
LINE
8
Modules
10
-46.5146
20
54.2277
11
-44.5465
21
57.039
62
254
0
LINE
8
Modules
10
-44.5465
20
57.039
11
-40.6671
21
54.3232
62
254
0
LINE
8
Modules
10
-40.6671
20
54.3232
11
-42.6352
21
51.5119
62
254
0
LINE
8
Modules
10
-42.6352
20
51.5119
11
-46.5146
21
54.2277
62
254
0
LINE
8
Modules
10
-50.3978
20
56.9461
11
-48.4297
21
59.7574
62
254
0
LINE
8
Modules
10
-48.4297
20
59.7574
11
-44.5503
21
57.0416
62
254
0
LINE
8
Modules
10
-44.5503
20
57.0416
11
-46.5183
21
54.2303
62
254
0
LINE
8
Modules
10
-46.5183
20
54.2303
11
-50.3978
21
56.9461
62
254
0
LINE
8
Modules
10
-54.281
20
59.6645
11
-52.3129
21
62.4758
62
254
0
LINE
8
Modules
10
-52.3129
20
62.4758
11
-48.4334
21
59.76
62
254
0
LINE
8
Modules
10
-48.4334
20
59.76
11
-50.4015
21
56.9487
62
254
0
LINE
8
Modules
10
-50.4015
20
56.9487
11
-54.281
21
59.6645
62
254
0
LINE
8
Modules
10
-58.1641
20
62.3829
11
-56.1961
21
65.1942
62
254
0
LINE
8
Modules
10
-56.1961
20
65.1942
11
-52.3166
21
62.4784
62
254
0
LINE
8
Modules
10
-52.3166
20
62.4784
11
-54.2847
21
59.6671
62
254
0
LINE
8
Modules
10
-54.2847
20
59.6671
11
-58.1641
21
62.3829
62
254
0
LINE
8
Modules
10
-62.0473
20
65.1013
11
-60.0792
21
67.9126
62
254
0
LINE
8
Modules
10
-60.0792
20
67.9126
11
-56.1998
21
65.1968
62
254
0
LINE
8
Modules
10
-56.1998
20
65.1968
11
-58.1679
21
62.3855
62
254
0
LINE
8
Modules
10
-58.1679
20
62.3855
11
-62.0473
21
65.1013
62
254
0
LINE
8
Modules
10
-65.9305
20
67.8197
11
-63.9624
21
70.631
62
254
0
LINE
8
Modules
10
-63.9624
20
70.631
11
-60.083
21
67.9152
62
254
0
LINE
8
Modules
10
-60.083
20
67.9152
11
-62.051
21
65.1039
62
254
0
LINE
8
Modules
10
-62.051
20
65.1039
11
-65.9305
21
67.8197
62
254
0
LINE
8
Modules
10
-69.8137
20
70.5381
11
-67.8456
21
73.3494
62
254
0
LINE
8
Modules
10
-67.8456
20
73.3494
11
-63.9661
21
70.6336
62
254
0
LINE
8
Modules
10
-63.9661
20
70.6336
11
-65.9342
21
67.8223
62
254
0
LINE
8
Modules
10
-65.9342
20
67.8223
11
-69.8137
21
70.5381
62
254
0
LINE
8
Modules
10
-73.6968
20
73.2565
11
-71.7288
21
76.0678
62
254
0
LINE
8
Modules
10
-71.7288
20
76.0678
11
-67.8493
21
73.352
62
254
0
LINE
8
Modules
10
-67.8493
20
73.352
11
-69.8174
21
70.5407
62
254
0
LINE
8
Modules
10
-69.8174
20
70.5407
11
-73.6968
21
73.2565
62
254
0
LINE
8
Modules
10
-40.7185
20
45.9764
11
-38.7505
21
48.7877
62
254
0
LINE
8
Modules
10
-38.7505
20
48.7877
11
-34.871
21
46.072
62
254
0
LINE
8
Modules
10
-34.871
20
46.072
11
-36.8391
21
43.2606
62
254
0
LINE
8
Modules
10
-36.8391
20
43.2606
11
-40.7185
21
45.9764
62
254
0
LINE
8
Modules
10
-44.6017
20
48.6948
11
-42.6336
21
51.5061
62
254
0
LINE
8
Modules
10
-42.6336
20
51.5061
11
-38.7542
21
48.7904
62
254
0
LINE
8
Modules
10
-38.7542
20
48.7904
11
-40.7223
21
45.979
62
254
0
LINE
8
Modules
10
-40.7223
20
45.979
11
-44.6017
21
48.6948
62
254
0
LINE
8
Modules
10
-48.4849
20
51.4132
11
-46.5168
21
54.2245
62
254
0
LINE
8
Modules
10
-46.5168
20
54.2245
11
-42.6374
21
51.5088
62
254
0
LINE
8
Modules
10
-42.6374
20
51.5088
11
-44.6054
21
48.6974
62
254
0
LINE
8
Modules
10
-44.6054
20
48.6974
11
-48.4849
21
51.4132
62
254
0
LINE
8
Modules
10
-52.3681
20
54.1316
11
-50.4
21
56.9429
62
254
0
LINE
8
Modules
10
-50.4
20
56.9429
11
-46.5205
21
54.2272
62
254
0
LINE
8
Modules
10
-46.5205
20
54.2272
11
-48.4886
21
51.4158
62
254
0
LINE
8
Modules
10
-48.4886
20
51.4158
11
-52.3681
21
54.1316
62
254
0
LINE
8
Modules
10
-56.2512
20
56.85
11
-54.2832
21
59.6613
62
254
0
LINE
8
Modules
10
-54.2832
20
59.6613
11
-50.4037
21
56.9456
62
254
0
LINE
8
Modules
10
-50.4037
20
56.9456
11
-52.3718
21
54.1342
62
254
0
LINE
8
Modules
10
-52.3718
20
54.1342
11
-56.2512
21
56.85
62
254
0
LINE
8
Modules
10
-60.1344
20
59.5684
11
-58.1663
21
62.3797
62
254
0
LINE
8
Modules
10
-58.1663
20
62.3797
11
-54.2869
21
59.664
62
254
0
LINE
8
Modules
10
-54.2869
20
59.664
11
-56.255
21
56.8526
62
254
0
LINE
8
Modules
10
-56.255
20
56.8526
11
-60.1344
21
59.5684
62
254
0
LINE
8
Modules
10
-64.0176
20
62.2868
11
-62.0495
21
65.0981
62
254
0
LINE
8
Modules
10
-62.0495
20
65.0981
11
-58.1701
21
62.3823
62
254
0
LINE
8
Modules
10
-58.1701
20
62.3823
11
-60.1381
21
59.571
62
254
0
LINE
8
Modules
10
-60.1381
20
59.571
11
-64.0176
21
62.2868
62
254
0
LINE
8
Modules
10
-67.9008
20
65.0052
11
-65.9327
21
67.8165
62
254
0
LINE
8
Modules
10
-65.9327
20
67.8165
11
-62.0532
21
65.1007
62
254
0
LINE
8
Modules
10
-62.0532
20
65.1007
11
-64.0213
21
62.2894
62
254
0
LINE
8
Modules
10
-64.0213
20
62.2894
11
-67.9008
21
65.0052
62
254
0
LINE
8
Modules
10
-71.7839
20
67.7236
11
-69.8159
21
70.5349
62
254
0
LINE
8
Modules
10
-69.8159
20
70.5349
11
-65.9364
21
67.8191
62
254
0
LINE
8
Modules
10
-65.9364
20
67.8191
11
-67.9045
21
65.0078
62
254
0
LINE
8
Modules
10
-67.9045
20
65.0078
11
-71.7839
21
67.7236
62
254
0
LINE
8
Modules
10
-75.6671
20
70.442
11
-73.699
21
73.2533
62
254
0
LINE
8
Modules
10
-73.699
20
73.2533
11
-69.8196
21
70.5375
62
254
0
LINE
8
Modules
10
-69.8196
20
70.5375
11
-71.7877
21
67.7262
62
254
0
LINE
8
Modules
10
-71.7877
20
67.7262
11
-75.6671
21
70.442
62
254
0
LINE
8
Modules
10
-50.4552
20
48.5987
11
-48.4871
21
51.4101
62
254
0
LINE
8
Modules
10
-48.4871
20
51.4101
11
-44.6076
21
48.6943
62
254
0
LINE
8
Modules
10
-44.6076
20
48.6943
11
-46.5757
21
45.8829
62
254
0
LINE
8
Modules
10
-46.5757
20
45.8829
11
-50.4552
21
48.5987
62
254
0
LINE
8
Modules
10
-54.3383
20
51.3171
11
-52.3703
21
54.1285
62
254
0
LINE
8
Modules
10
-52.3703
20
54.1285
11
-48.4908
21
51.4127
62
254
0
LINE
8
Modules
10
-48.4908
20
51.4127
11
-50.4589
21
48.6013
62
254
0
LINE
8
Modules
10
-50.4589
20
48.6013
11
-54.3383
21
51.3171
62
254
0
LINE
8
Modules
10
-58.2215
20
54.0355
11
-56.2534
21
56.8468
62
254
0
LINE
8
Modules
10
-56.2534
20
56.8468
11
-52.374
21
54.1311
62
254
0
LINE
8
Modules
10
-52.374
20
54.1311
11
-54.3421
21
51.3197
62
254
0
LINE
8
Modules
10
-54.3421
20
51.3197
11
-58.2215
21
54.0355
62
254
0
LINE
8
Modules
10
-62.1047
20
56.7539
11
-60.1366
21
59.5652
62
254
0
LINE
8
Modules
10
-60.1366
20
59.5652
11
-56.2572
21
56.8495
62
254
0
LINE
8
Modules
10
-56.2572
20
56.8495
11
-58.2252
21
54.0381
62
254
0
LINE
8
Modules
10
-58.2252
20
54.0381
11
-62.1047
21
56.7539
62
254
0
LINE
8
Modules
10
-65.9879
20
59.4723
11
-64.0198
21
62.2836
62
254
0
LINE
8
Modules
10
-64.0198
20
62.2836
11
-60.1404
21
59.5679
62
254
0
LINE
8
Modules
10
-60.1404
20
59.5679
11
-62.1084
21
56.7565
62
254
0
LINE
8
Modules
10
-62.1084
20
56.7565
11
-65.9879
21
59.4723
62
254
0
LINE
8
Modules
10
-69.871
20
62.1907
11
-67.903
21
65.002
62
254
0
LINE
8
Modules
10
-67.903
20
65.002
11
-64.0235
21
62.2863
62
254
0
LINE
8
Modules
10
-64.0235
20
62.2863
11
-65.9916
21
59.4749
62
254
0
LINE
8
Modules
10
-65.9916
20
59.4749
11
-69.871
21
62.1907
62
254
0
LINE
8
Modules
10
-73.7542
20
64.9091
11
-71.7861
21
67.7204
62
254
0
LINE
8
Modules
10
-71.7861
20
67.7204
11
-67.9067
21
65.0047
62
254
0
LINE
8
Modules
10
-67.9067
20
65.0047
11
-69.8748
21
62.1933
62
254
0
LINE
8
Modules
10
-69.8748
20
62.1933
11
-73.7542
21
64.9091
62
254
0
LINE
8
Modules
10
-77.6374
20
67.6275
11
-75.6693
21
70.4388
62
254
0
LINE
8
Modules
10
-75.6693
20
70.4388
11
-71.7899
21
67.7231
62
254
0
LINE
8
Modules
10
-71.7899
20
67.7231
11
-73.7579
21
64.9117
62
254
0
LINE
8
Modules
10
-73.7579
20
64.9117
11
-77.6374
21
67.6275
62
254
0
LINE
8
Modules
10
-60.1918
20
51.221
11
-58.2237
21
54.0324
62
254
0
LINE
8
Modules
10
-58.2237
20
54.0324
11
-54.3443
21
51.3166
62
254
0
LINE
8
Modules
10
-54.3443
20
51.3166
11
-56.3123
21
48.5052
62
254
0
LINE
8
Modules
10
-56.3123
20
48.5052
11
-60.1918
21
51.221
62
254
0
LINE
8
Modules
10
-64.075
20
53.9394
11
-62.1069
21
56.7508
62
254
0
LINE
8
Modules
10
-62.1069
20
56.7508
11
-58.2275
21
54.035
62
254
0
LINE
8
Modules
10
-58.2275
20
54.035
11
-60.1955
21
51.2236
62
254
0
LINE
8
Modules
10
-60.1955
20
51.2236
11
-64.075
21
53.9394
62
254
0
LINE
8
Modules
10
-67.9581
20
56.6578
11
-65.9901
21
59.4692
62
254
0
LINE
8
Modules
10
-65.9901
20
59.4692
11
-62.1106
21
56.7534
62
254
0
LINE
8
Modules
10
-62.1106
20
56.7534
11
-64.0787
21
53.942
62
254
0
LINE
8
Modules
10
-64.0787
20
53.942
11
-67.9581
21
56.6578
62
254
0
LINE
8
Modules
10
-71.8413
20
59.3762
11
-69.8733
21
62.1875
62
254
0
LINE
8
Modules
10
-69.8733
20
62.1875
11
-65.9938
21
59.4718
62
254
0
LINE
8
Modules
10
-65.9938
20
59.4718
11
-67.9619
21
56.6604
62
254
0
LINE
8
Modules
10
-67.9619
20
56.6604
11
-71.8413
21
59.3762
62
254
0
LINE
8
Modules
10
-75.7245
20
62.0946
11
-73.7564
21
64.9059
62
254
0
LINE
8
Modules
10
-73.7564
20
64.9059
11
-69.877
21
62.1902
62
254
0
LINE
8
Modules
10
-69.877
20
62.1902
11
-71.8451
21
59.3788
62
254
0
LINE
8
Modules
10
-71.8451
20
59.3788
11
-75.7245
21
62.0946
62
254
0
LINE
8
Modules
10
-79.6077
20
64.813
11
-77.6396
21
67.6243
62
254
0
LINE
8
Modules
10
-77.6396
20
67.6243
11
-73.7602
21
64.9086
62
254
0
LINE
8
Modules
10
-73.7602
20
64.9086
11
-75.7282
21
62.0972
62
254
0
LINE
8
Modules
10
-75.7282
20
62.0972
11
-79.6077
21
64.813
62
254
0
LINE
8
Modules
10
-69.9284
20
53.8433
11
-67.9604
21
56.6547
62
254
0
LINE
8
Modules
10
-67.9604
20
56.6547
11
-64.0809
21
53.9389
62
254
0
LINE
8
Modules
10
-64.0809
20
53.9389
11
-66.049
21
51.1275
62
254
0
LINE
8
Modules
10
-66.049
20
51.1275
11
-69.9284
21
53.8433
62
254
0
LINE
8
Modules
10
-73.8116
20
56.5617
11
-71.8435
21
59.3731
62
254
0
LINE
8
Modules
10
-71.8435
20
59.3731
11
-67.9641
21
56.6573
62
254
0
LINE
8
Modules
10
-67.9641
20
56.6573
11
-69.9322
21
53.8459
62
254
0
LINE
8
Modules
10
-69.9322
20
53.8459
11
-73.8116
21
56.5617
62
254
0
LINE
8
Modules
10
-77.6948
20
59.2801
11
-75.7267
21
62.0915
62
254
0
LINE
8
Modules
10
-75.7267
20
62.0915
11
-71.8473
21
59.3757
62
254
0
LINE
8
Modules
10
-71.8473
20
59.3757
11
-73.8153
21
56.5643
62
254
0
LINE
8
Modules
10
-73.8153
20
56.5643
11
-77.6948
21
59.2801
62
254
0
LINE
8
Modules
10
-81.578
20
61.9985
11
-79.6099
21
64.8099
62
254
0
LINE
8
Modules
10
-79.6099
20
64.8099
11
-75.7304
21
62.0941
62
254
0
LINE
8
Modules
10
-75.7304
20
62.0941
11
-77.6985
21
59.2827
62
254
0
LINE
8
Modules
10
-77.6985
20
59.2827
11
-81.578
21
61.9985
62
254
0
LINE
8
Modules
10
-83.5482
20
59.184
11
-81.5802
21
61.9954
62
254
0
LINE
8
Modules
10
-81.5802
20
61.9954
11
-77.7007
21
59.2796
62
254
0
LINE
8
Modules
10
-77.7007
20
59.2796
11
-79.6688
21
56.4682
62
254
0
LINE
8
Modules
10
-79.6688
20
56.4682
11
-83.5482
21
59.184
62
254
0
LINE
8
Modules
10
-31.0093
20
54.3034
11
-27.8797
21
55.7116
62
254
0
LINE
8
Modules
10
-27.8797
20
55.7116
11
-25.9796
21
51.4888
62
254
0
LINE
8
Modules
10
-25.9796
20
51.4888
11
-29.1091
21
50.0806
62
254
0
LINE
8
Modules
10
-29.1091
20
50.0806
11
-31.0093
21
54.3034
62
254
0
LINE
8
Modules
10
-32.9112
20
58.5302
11
-29.7816
21
59.9384
62
254
0
LINE
8
Modules
10
-29.7816
20
59.9384
11
-27.8815
21
55.7155
62
254
0
LINE
8
Modules
10
-27.8815
20
55.7155
11
-31.011
21
54.3073
62
254
0
LINE
8
Modules
10
-31.011
20
54.3073
11
-32.9112
21
58.5302
62
254
0
LINE
8
Modules
10
-34.8131
20
62.7569
11
-31.6835
21
64.1651
62
254
0
LINE
8
Modules
10
-31.6835
20
64.1651
11
-29.7834
21
59.9423
62
254
0
LINE
8
Modules
10
-29.7834
20
59.9423
11
-32.9129
21
58.5341
62
254
0
LINE
8
Modules
10
-32.9129
20
58.5341
11
-34.8131
21
62.7569
62
254
0
LINE
8
Modules
10
-34.1423
20
52.8937
11
-31.0128
21
54.3019
62
254
0
LINE
8
Modules
10
-31.0128
20
54.3019
11
-29.1126
21
50.079
62
254
0
LINE
8
Modules
10
-29.1126
20
50.079
11
-32.2422
21
48.6708
62
254
0
LINE
8
Modules
10
-32.2422
20
48.6708
11
-34.1423
21
52.8937
62
254
0
LINE
8
Modules
10
-36.0442
20
57.1204
11
-32.9147
21
58.5286
62
254
0
LINE
8
Modules
10
-32.9147
20
58.5286
11
-31.0145
21
54.3057
62
254
0
LINE
8
Modules
10
-31.0145
20
54.3057
11
-34.1441
21
52.8976
62
254
0
LINE
8
Modules
10
-34.1441
20
52.8976
11
-36.0442
21
57.1204
62
254
0
LINE
8
Modules
10
-37.9461
20
61.3472
11
-34.8166
21
62.7554
62
254
0
LINE
8
Modules
10
-34.8166
20
62.7554
11
-32.9164
21
58.5325
62
254
0
LINE
8
Modules
10
-32.9164
20
58.5325
11
-36.046
21
57.1243
62
254
0
LINE
8
Modules
10
-36.046
20
57.1243
11
-37.9461
21
61.3472
62
254
0
LINE
8
Modules
10
-39.848
20
65.5739
11
-36.7185
21
66.9821
62
254
0
LINE
8
Modules
10
-36.7185
20
66.9821
11
-34.8183
21
62.7592
62
254
0
LINE
8
Modules
10
-34.8183
20
62.7592
11
-37.9479
21
61.3511
62
254
0
LINE
8
Modules
10
-37.9479
20
61.3511
11
-39.848
21
65.5739
62
254
0
LINE
8
Modules
10
-41.7499
20
69.8007
11
-38.6204
21
71.2089
62
254
0
LINE
8
Modules
10
-38.6204
20
71.2089
11
-36.7202
21
66.986
62
254
0
LINE
8
Modules
10
-36.7202
20
66.986
11
-39.8498
21
65.5778
62
254
0
LINE
8
Modules
10
-39.8498
20
65.5778
11
-41.7499
21
69.8007
62
254
0
LINE
8
Modules
10
-43.6518
20
74.0274
11
-40.5223
21
75.4356
62
254
0
LINE
8
Modules
10
-40.5223
20
75.4356
11
-38.6221
21
71.2127
62
254
0
LINE
8
Modules
10
-38.6221
20
71.2127
11
-41.7517
21
69.8045
62
254
0
LINE
8
Modules
10
-41.7517
20
69.8045
11
-43.6518
21
74.0274
62
254
0
LINE
8
Modules
10
-45.5537
20
78.2542
11
-42.4242
21
79.6623
62
254
0
LINE
8
Modules
10
-42.4242
20
79.6623
11
-40.524
21
75.4395
62
254
0
LINE
8
Modules
10
-40.524
20
75.4395
11
-43.6536
21
74.0313
62
254
0
LINE
8
Modules
10
-43.6536
20
74.0313
11
-45.5537
21
78.2542
62
254
0
LINE
8
Modules
10
-47.4556
20
82.4809
11
-44.3261
21
83.8891
62
254
0
LINE
8
Modules
10
-44.3261
20
83.8891
11
-42.4259
21
79.6662
62
254
0
LINE
8
Modules
10
-42.4259
20
79.6662
11
-45.5555
21
78.258
62
254
0
LINE
8
Modules
10
-45.5555
20
78.258
11
-47.4556
21
82.4809
62
254
0
LINE
8
Modules
10
-49.3575
20
86.7077
11
-46.228
21
88.1158
62
254
0
LINE
8
Modules
10
-46.228
20
88.1158
11
-44.3278
21
83.893
62
254
0
LINE
8
Modules
10
-44.3278
20
83.893
11
-47.4574
21
82.4848
62
254
0
LINE
8
Modules
10
-47.4574
20
82.4848
11
-49.3575
21
86.7077
62
254
0
LINE
8
Modules
10
-41.0791
20
59.9374
11
-37.9496
21
61.3456
62
254
0
LINE
8
Modules
10
-37.9496
20
61.3456
11
-36.0495
21
57.1227
62
254
0
LINE
8
Modules
10
-36.0495
20
57.1227
11
-39.179
21
55.7145
62
254
0
LINE
8
Modules
10
-39.179
20
55.7145
11
-41.0791
21
59.9374
62
254
0
LINE
8
Modules
10
-42.981
20
64.1642
11
-39.8515
21
65.5723
62
254
0
LINE
8
Modules
10
-39.8515
20
65.5723
11
-37.9514
21
61.3495
62
254
0
LINE
8
Modules
10
-37.9514
20
61.3495
11
-41.0809
21
59.9413
62
254
0
LINE
8
Modules
10
-41.0809
20
59.9413
11
-42.981
21
64.1642
62
254
0
LINE
8
Modules
10
-44.8829
20
68.3909
11
-41.7534
21
69.7991
62
254
0
LINE
8
Modules
10
-41.7534
20
69.7991
11
-39.8533
21
65.5762
62
254
0
LINE
8
Modules
10
-39.8533
20
65.5762
11
-42.9828
21
64.168
62
254
0
LINE
8
Modules
10
-42.9828
20
64.168
11
-44.8829
21
68.3909
62
254
0
LINE
8
Modules
10
-46.7848
20
72.6176
11
-43.6553
21
74.0258
62
254
0
LINE
8
Modules
10
-43.6553
20
74.0258
11
-41.7552
21
69.803
62
254
0
LINE
8
Modules
10
-41.7552
20
69.803
11
-44.8847
21
68.3948
62
254
0
LINE
8
Modules
10
-44.8847
20
68.3948
11
-46.7848
21
72.6176
62
254
0
LINE
8
Modules
10
-48.6867
20
76.8444
11
-45.5572
21
78.2526
62
254
0
LINE
8
Modules
10
-45.5572
20
78.2526
11
-43.6571
21
74.0297
62
254
0
LINE
8
Modules
10
-43.6571
20
74.0297
11
-46.7866
21
72.6215
62
254
0
LINE
8
Modules
10
-46.7866
20
72.6215
11
-48.6867
21
76.8444
62
254
0
LINE
8
Modules
10
-50.5886
20
81.0711
11
-47.4591
21
82.4793
62
254
0
LINE
8
Modules
10
-47.4591
20
82.4793
11
-45.559
21
78.2565
62
254
0
LINE
8
Modules
10
-45.559
20
78.2565
11
-48.6885
21
76.8483
62
254
0
LINE
8
Modules
10
-48.6885
20
76.8483
11
-50.5886
21
81.0711
62
254
0
LINE
8
Modules
10
-52.4905
20
85.2979
11
-49.361
21
86.7061
62
254
0
LINE
8
Modules
10
-49.361
20
86.7061
11
-47.4609
21
82.4832
62
254
0
LINE
8
Modules
10
-47.4609
20
82.4832
11
-50.5904
21
81.075
62
254
0
LINE
8
Modules
10
-50.5904
20
81.075
11
-52.4905
21
85.2979
62
254
0
LINE
8
Modules
10
-46.1141
20
62.7544
11
-42.9846
21
64.1626
62
254
0
LINE
8
Modules
10
-42.9846
20
64.1626
11
-41.0844
21
59.9397
62
254
0
LINE
8
Modules
10
-41.0844
20
59.9397
11
-44.2139
21
58.5315
62
254
0
LINE
8
Modules
10
-44.2139
20
58.5315
11
-46.1141
21
62.7544
62
254
0
LINE
8
Modules
10
-48.016
20
66.9811
11
-44.8865
21
68.3893
62
254
0
LINE
8
Modules
10
-44.8865
20
68.3893
11
-42.9863
21
64.1665
62
254
0
LINE
8
Modules
10
-42.9863
20
64.1665
11
-46.1158
21
62.7583
62
254
0
LINE
8
Modules
10
-46.1158
20
62.7583
11
-48.016
21
66.9811
62
254
0
LINE
8
Modules
10
-49.9179
20
71.2079
11
-46.7884
21
72.6161
62
254
0
LINE
8
Modules
10
-46.7884
20
72.6161
11
-44.8882
21
68.3932
62
254
0
LINE
8
Modules
10
-44.8882
20
68.3932
11
-48.0177
21
66.985
62
254
0
LINE
8
Modules
10
-48.0177
20
66.985
11
-49.9179
21
71.2079
62
254
0
LINE
8
Modules
10
-51.8198
20
75.4346
11
-48.6903
21
76.8428
62
254
0
LINE
8
Modules
10
-48.6903
20
76.8428
11
-46.7901
21
72.6199
62
254
0
LINE
8
Modules
10
-46.7901
20
72.6199
11
-49.9196
21
71.2118
62
254
0
LINE
8
Modules
10
-49.9196
20
71.2118
11
-51.8198
21
75.4346
62
254
0
LINE
8
Modules
10
-53.7217
20
79.6614
11
-50.5922
21
81.0696
62
254
0
LINE
8
Modules
10
-50.5922
20
81.0696
11
-48.692
21
76.8467
62
254
0
LINE
8
Modules
10
-48.692
20
76.8467
11
-51.8215
21
75.4385
62
254
0
LINE
8
Modules
10
-51.8215
20
75.4385
11
-53.7217
21
79.6614
62
254
0
LINE
8
Modules
10
-55.6236
20
83.8881
11
-52.4941
21
85.2963
62
254
0
LINE
8
Modules
10
-52.4941
20
85.2963
11
-50.5939
21
81.0734
62
254
0
LINE
8
Modules
10
-50.5939
20
81.0734
11
-53.7234
21
79.6653
62
254
0
LINE
8
Modules
10
-53.7234
20
79.6653
11
-55.6236
21
83.8881
62
254
0
LINE
8
Modules
10
-51.149
20
65.5714
11
-48.0195
21
66.9796
62
254
0
LINE
8
Modules
10
-48.0195
20
66.9796
11
-46.1193
21
62.7567
62
254
0
LINE
8
Modules
10
-46.1193
20
62.7567
11
-49.2489
21
61.3485
62
254
0
LINE
8
Modules
10
-49.2489
20
61.3485
11
-51.149
21
65.5714
62
254
0
LINE
8
Modules
10
-53.0509
20
69.7981
11
-49.9214
21
71.2063
62
254
0
LINE
8
Modules
10
-49.9214
20
71.2063
11
-48.0212
21
66.9834
62
254
0
LINE
8
Modules
10
-48.0212
20
66.9834
11
-51.1508
21
65.5752
62
254
0
LINE
8
Modules
10
-51.1508
20
65.5752
11
-53.0509
21
69.7981
62
254
0
LINE
8
Modules
10
-54.9528
20
74.0249
11
-51.8233
21
75.4331
62
254
0
LINE
8
Modules
10
-51.8233
20
75.4331
11
-49.9231
21
71.2102
62
254
0
LINE
8
Modules
10
-49.9231
20
71.2102
11
-53.0527
21
69.802
62
254
0
LINE
8
Modules
10
-53.0527
20
69.802
11
-54.9528
21
74.0249
62
254
0
LINE
8
Modules
10
-56.8547
20
78.2516
11
-53.7252
21
79.6598
62
254
0
LINE
8
Modules
10
-53.7252
20
79.6598
11
-51.825
21
75.4369
62
254
0
LINE
8
Modules
10
-51.825
20
75.4369
11
-54.9546
21
74.0287
62
254
0
LINE
8
Modules
10
-54.9546
20
74.0287
11
-56.8547
21
78.2516
62
254
0
LINE
8
Modules
10
-58.7566
20
82.4784
11
-55.6271
21
83.8865
62
254
0
LINE
8
Modules
10
-55.6271
20
83.8865
11
-53.7269
21
79.6637
62
254
0
LINE
8
Modules
10
-53.7269
20
79.6637
11
-56.8565
21
78.2555
62
254
0
LINE
8
Modules
10
-56.8565
20
78.2555
11
-58.7566
21
82.4784
62
254
0
LINE
8
Modules
10
-58.0859
20
72.6151
11
-54.9563
21
74.0233
62
254
0
LINE
8
Modules
10
-54.9563
20
74.0233
11
-53.0562
21
69.8004
62
254
0
LINE
8
Modules
10
-53.0562
20
69.8004
11
-56.1857
21
68.3922
62
254
0
LINE
8
Modules
10
-56.1857
20
68.3922
11
-58.0859
21
72.6151
62
254
0
LINE
8
Modules
10
-59.9878
20
76.8418
11
-56.8582
21
78.25
62
254
0
LINE
8
Modules
10
-56.8582
20
78.25
11
-54.9581
21
74.0272
62
254
0
LINE
8
Modules
10
-54.9581
20
74.0272
11
-58.0876
21
72.619
62
254
0
LINE
8
Modules
10
-58.0876
20
72.619
11
-59.9878
21
76.8418
62
254
0
LINE
8
Modules
10
-61.8897
20
81.0686
11
-58.7601
21
82.4768
62
254
0
LINE
8
Modules
10
-58.7601
20
82.4768
11
-56.86
21
78.2539
62
254
0
LINE
8
Modules
10
-56.86
20
78.2539
11
-59.9895
21
76.8457
62
254
0
LINE
8
Modules
10
-59.9895
20
76.8457
11
-61.8897
21
81.0686
62
254
0
LINE
8
Modules
10
-63.1208
20
75.4321
11
-59.9913
21
76.8403
62
254
0
LINE
8
Modules
10
-59.9913
20
76.8403
11
-58.0911
21
72.6174
62
254
0
LINE
8
Modules
10
-58.0911
20
72.6174
11
-61.2207
21
71.2092
62
254
0
LINE
8
Modules
10
-61.2207
20
71.2092
11
-63.1208
21
75.4321
62
254
0
LINE
8
Modules
10
-65.0227
20
79.6588
11
-61.8932
21
81.067
62
254
0
LINE
8
Modules
10
-61.8932
20
81.067
11
-59.993
21
76.8441
62
254
0
LINE
8
Modules
10
-59.993
20
76.8441
11
-63.1226
21
75.436
62
254
0
LINE
8
Modules
10
-63.1226
20
75.436
11
-65.0227
21
79.6588
62
254
0
LINE
8
Modules
10
-68.1558
20
78.2491
11
-65.0262
21
79.6572
62
254
0
LINE
8
Modules
10
-65.0262
20
79.6572
11
-63.1261
21
75.4344
62
254
0
LINE
8
Modules
10
-63.1261
20
75.4344
11
-66.2556
21
74.0262
62
254
0
LINE
8
Modules
10
-66.2556
20
74.0262
11
-68.1558
21
78.2491
62
254
0
LINE
8
Modules
10
7.80054
20
87.4482
11
11.2304
21
87.3343
62
254
0
LINE
8
Modules
10
11.2304
20
87.3343
11
11.0821
21
82.8654
62
254
0
LINE
8
Modules
10
11.0821
20
82.8654
11
7.65219
21
82.9792
62
254
0
LINE
8
Modules
10
7.65219
20
82.9792
11
7.80054
21
87.4482
62
254
0
LINE
8
Modules
10
4.06988
20
78.6166
11
7.49975
21
78.5027
62
254
0
LINE
8
Modules
10
7.49975
20
78.5027
11
7.3514
21
74.0338
62
254
0
LINE
8
Modules
10
7.3514
20
74.0338
11
3.92153
21
74.1476
62
254
0
LINE
8
Modules
10
3.92153
20
74.1476
11
4.06988
21
78.6166
62
254
0
LINE
8
Modules
10
4.21835
20
83.0894
11
7.64822
21
82.9755
62
254
0
LINE
8
Modules
10
7.64822
20
82.9755
11
7.49987
21
78.5066
62
254
0
LINE
8
Modules
10
7.49987
20
78.5066
11
4.07
21
78.6204
62
254
0
LINE
8
Modules
10
4.07
20
78.6204
11
4.21835
21
83.0894
62
254
0
LINE
8
Modules
10
4.36683
20
87.5622
11
7.7967
21
87.4483
62
254
0
LINE
8
Modules
10
7.7967
20
87.4483
11
7.64835
21
82.9793
62
254
0
LINE
8
Modules
10
7.64835
20
82.9793
11
4.21848
21
83.0932
62
254
0
LINE
8
Modules
10
4.21848
20
83.0932
11
4.36683
21
87.5622
62
254
0
LINE
8
Modules
10
0.487689
20
74.2578
11
3.91756
21
74.1439
62
254
0
LINE
8
Modules
10
3.91756
20
74.1439
11
3.76921
21
69.675
62
254
0
LINE
8
Modules
10
3.76921
20
69.675
11
0.339341
21
69.7888
62
254
0
LINE
8
Modules
10
0.339341
20
69.7888
11
0.487689
21
74.2578
62
254
0
LINE
8
Modules
10
0.636163
20
78.7306
11
4.06603
21
78.6167
62
254
0
LINE
8
Modules
10
4.06603
20
78.6167
11
3.91768
21
74.1478
62
254
0
LINE
8
Modules
10
3.91768
20
74.1478
11
0.487815
21
74.2616
62
254
0
LINE
8
Modules
10
0.487815
20
74.2616
11
0.636163
21
78.7306
62
254
0
LINE
8
Modules
10
0.784637
20
83.2034
11
4.21451
21
83.0895
62
254
0
LINE
8
Modules
10
4.21451
20
83.0895
11
4.06616
21
78.6205
62
254
0
LINE
8
Modules
10
4.06616
20
78.6205
11
0.636289
21
78.7344
62
254
0
LINE
8
Modules
10
0.636289
20
78.7344
11
0.784637
21
83.2034
62
254
0
LINE
8
Modules
10
0.933111
20
87.6761
11
4.36298
21
87.5623
62
254
0
LINE
8
Modules
10
4.36298
20
87.5623
11
4.21463
21
83.0933
62
254
0
LINE
8
Modules
10
4.21463
20
83.0933
11
0.784764
21
83.2072
62
254
0
LINE
8
Modules
10
0.784764
20
83.2072
11
0.933111
21
87.6761
62
254
0
LINE
8
Modules
10
-3.24297
20
65.4262
11
0.186895
21
65.3124
62
254
0
LINE
8
Modules
10
0.186895
20
65.3124
11
0.0385473
21
60.8434
62
254
0
LINE
8
Modules
10
0.0385473
20
60.8434
11
-3.39132
21
60.9573
62
254
0
LINE
8
Modules
10
-3.39132
20
60.9573
11
-3.24297
21
65.4262
62
254
0
LINE
8
Modules
10
-3.0945
20
69.899
11
0.335369
21
69.7852
62
254
0
LINE
8
Modules
10
0.335369
20
69.7852
11
0.187021
21
65.3162
62
254
0
LINE
8
Modules
10
0.187021
20
65.3162
11
-3.24285
21
65.43
62
254
0
LINE
8
Modules
10
-3.24285
20
65.43
11
-3.0945
21
69.899
62
254
0
LINE
8
Modules
10
-2.94603
20
74.3718
11
0.483843
21
74.2579
62
254
0
LINE
8
Modules
10
0.483843
20
74.2579
11
0.335496
21
69.789
62
254
0
LINE
8
Modules
10
0.335496
20
69.789
11
-3.09437
21
69.9028
62
254
0
LINE
8
Modules
10
-3.09437
20
69.9028
11
-2.94603
21
74.3718
62
254
0
LINE
8
Modules
10
-2.79755
20
78.8446
11
0.632317
21
78.7307
62
254
0
LINE
8
Modules
10
0.632317
20
78.7307
11
0.48397
21
74.2617
62
254
0
LINE
8
Modules
10
0.48397
20
74.2617
11
-2.9459
21
74.3756
62
254
0
LINE
8
Modules
10
-2.9459
20
74.3756
11
-2.79755
21
78.8446
62
254
0
LINE
8
Modules
10
-2.64908
20
83.3173
11
0.780791
21
83.2035
62
254
0
LINE
8
Modules
10
0.780791
20
83.2035
11
0.632444
21
78.7345
62
254
0
LINE
8
Modules
10
0.632444
20
78.7345
11
-2.79743
21
78.8484
62
254
0
LINE
8
Modules
10
-2.79743
20
78.8484
11
-2.64908
21
83.3173
62
254
0
LINE
8
Modules
10
-2.5006
20
87.7901
11
0.929265
21
87.6763
62
254
0
LINE
8
Modules
10
0.929265
20
87.6763
11
0.780918
21
83.2073
62
254
0
LINE
8
Modules
10
0.780918
20
83.2073
11
-2.64895
21
83.3212
62
254
0
LINE
8
Modules
10
-2.64895
20
83.3212
11
-2.5006
21
87.7901
62
254
0
LINE
8
Modules
10
-6.82516
20
61.0674
11
-3.39529
21
60.9536
62
254
0
LINE
8
Modules
10
-3.39529
20
60.9536
11
-3.54364
21
56.4846
62
254
0
LINE
8
Modules
10
-3.54364
20
56.4846
11
-6.97351
21
56.5985
62
254
0
LINE
8
Modules
10
-6.97351
20
56.5985
11
-6.82516
21
61.0674
62
254
0
LINE
8
Modules
10
-6.67669
20
65.5402
11
-3.24682
21
65.4264
62
254
0
LINE
8
Modules
10
-3.24682
20
65.4264
11
-3.39517
21
60.9574
62
254
0
LINE
8
Modules
10
-3.39517
20
60.9574
11
-6.82504
21
61.0712
62
254
0
LINE
8
Modules
10
-6.82504
20
61.0712
11
-6.67669
21
65.5402
62
254
0
LINE
8
Modules
10
-6.52822
20
70.013
11
-3.09835
21
69.8991
62
254
0
LINE
8
Modules
10
-3.09835
20
69.8991
11
-3.24669
21
65.4302
62
254
0
LINE
8
Modules
10
-3.24669
20
65.4302
11
-6.67656
21
65.544
62
254
0
LINE
8
Modules
10
-6.67656
20
65.544
11
-6.52822
21
70.013
62
254
0
LINE
8
Modules
10
-6.37974
20
74.4858
11
-2.94987
21
74.3719
62
254
0
LINE
8
Modules
10
-2.94987
20
74.3719
11
-3.09822
21
69.9029
62
254
0
LINE
8
Modules
10
-3.09822
20
69.9029
11
-6.52809
21
70.0168
62
254
0
LINE
8
Modules
10
-6.52809
20
70.0168
11
-6.37974
21
74.4858
62
254
0
LINE
8
Modules
10
-6.23127
20
78.9585
11
-2.8014
21
78.8447
62
254
0
LINE
8
Modules
10
-2.8014
20
78.8447
11
-2.94975
21
74.3757
62
254
0
LINE
8
Modules
10
-2.94975
20
74.3757
11
-6.37961
21
74.4896
62
254
0
LINE
8
Modules
10
-6.37961
20
74.4896
11
-6.23127
21
78.9585
62
254
0
LINE
8
Modules
10
-6.08279
20
83.4313
11
-2.65292
21
83.3175
62
254
0
LINE
8
Modules
10
-2.65292
20
83.3175
11
-2.80127
21
78.8485
62
254
0
LINE
8
Modules
10
-2.80127
20
78.8485
11
-6.23114
21
78.9624
62
254
0
LINE
8
Modules
10
-6.23114
20
78.9624
11
-6.08279
21
83.4313
62
254
0
LINE
8
Modules
10
-5.93432
20
87.9041
11
-2.50445
21
87.7903
62
254
0
LINE
8
Modules
10
-2.50445
20
87.7903
11
-2.6528
21
83.3213
62
254
0
LINE
8
Modules
10
-2.6528
20
83.3213
11
-6.08267
21
83.4351
62
254
0
LINE
8
Modules
10
-6.08267
20
83.4351
11
-5.93432
21
87.9041
62
254
0
LINE
8
Modules
10
-10.5558
20
52.2359
11
-7.12596
21
52.122
62
254
0
LINE
8
Modules
10
-7.12596
20
52.122
11
-7.27431
21
47.653
62
254
0
LINE
8
Modules
10
-7.27431
20
47.653
11
-10.7042
21
47.7669
62
254
0
LINE
8
Modules
10
-10.7042
20
47.7669
11
-10.5558
21
52.2359
62
254
0
LINE
8
Modules
10
-10.4074
20
56.7086
11
-6.97748
21
56.5948
62
254
0
LINE
8
Modules
10
-6.97748
20
56.5948
11
-7.12583
21
52.1258
62
254
0
LINE
8
Modules
10
-7.12583
20
52.1258
11
-10.5557
21
52.2397
62
254
0
LINE
8
Modules
10
-10.5557
20
52.2397
11
-10.4074
21
56.7086
62
254
0
LINE
8
Modules
10
-10.2589
20
61.1814
11
-6.82901
21
61.0676
62
254
0
LINE
8
Modules
10
-6.82901
20
61.0676
11
-6.97736
21
56.5986
62
254
0
LINE
8
Modules
10
-6.97736
20
56.5986
11
-10.4072
21
56.7124
62
254
0
LINE
8
Modules
10
-10.4072
20
56.7124
11
-10.2589
21
61.1814
62
254
0
LINE
8
Modules
10
-10.1104
20
65.6542
11
-6.68054
21
65.5403
62
254
0
LINE
8
Modules
10
-6.68054
20
65.5403
11
-6.82888
21
61.0714
62
254
0
LINE
8
Modules
10
-6.82888
20
61.0714
11
-10.2588
21
61.1852
62
254
0
LINE
8
Modules
10
-10.2588
20
61.1852
11
-10.1104
21
65.6542
62
254
0
LINE
8
Modules
10
-9.96193
20
70.127
11
-6.53206
21
70.0131
62
254
0
LINE
8
Modules
10
-6.53206
20
70.0131
11
-6.68041
21
65.5441
62
254
0
LINE
8
Modules
10
-6.68041
20
65.5441
11
-10.1103
21
65.658
62
254
0
LINE
8
Modules
10
-10.1103
20
65.658
11
-9.96193
21
70.127
62
254
0
LINE
8
Modules
10
-9.81346
20
74.5997
11
-6.38359
21
74.4859
62
254
0
LINE
8
Modules
10
-6.38359
20
74.4859
11
-6.53193
21
70.0169
62
254
0
LINE
8
Modules
10
-6.53193
20
70.0169
11
-9.9618
21
70.1308
62
254
0
LINE
8
Modules
10
-9.9618
20
70.1308
11
-9.81346
21
74.5997
62
254
0
LINE
8
Modules
10
-9.66498
20
79.0725
11
-6.23511
21
78.9587
62
254
0
LINE
8
Modules
10
-6.23511
20
78.9587
11
-6.38346
21
74.4897
62
254
0
LINE
8
Modules
10
-6.38346
20
74.4897
11
-9.81333
21
74.6036
62
254
0
LINE
8
Modules
10
-9.81333
20
74.6036
11
-9.66498
21
79.0725
62
254
0
LINE
8
Modules
10
-9.51651
20
83.5453
11
-6.08664
21
83.4315
62
254
0
LINE
8
Modules
10
-6.08664
20
83.4315
11
-6.23499
21
78.9625
62
254
0
LINE
8
Modules
10
-6.23499
20
78.9625
11
-9.66486
21
79.0763
62
254
0
LINE
8
Modules
10
-9.66486
20
79.0763
11
-9.51651
21
83.5453
62
254
0
LINE
8
Modules
10
-9.36803
20
88.0181
11
-5.93816
21
87.9042
62
254
0
LINE
8
Modules
10
-5.93816
20
87.9042
11
-6.08651
21
83.4353
62
254
0
LINE
8
Modules
10
-6.08651
20
83.4353
11
-9.51638
21
83.5491
62
254
0
LINE
8
Modules
10
-9.51638
20
83.5491
11
-9.36803
21
88.0181
62
254
0
LINE
8
Modules
10
-14.138
20
47.8771
11
-10.7081
21
47.7632
62
254
0
LINE
8
Modules
10
-10.7081
20
47.7632
11
-10.8565
21
43.2942
62
254
0
LINE
8
Modules
10
-10.8565
20
43.2942
11
-14.2864
21
43.4081
62
254
0
LINE
8
Modules
10
-14.2864
20
43.4081
11
-14.138
21
47.8771
62
254
0
LINE
8
Modules
10
-13.9895
20
52.3498
11
-10.5597
21
52.236
62
254
0
LINE
8
Modules
10
-10.5597
20
52.236
11
-10.708
21
47.767
62
254
0
LINE
8
Modules
10
-10.708
20
47.767
11
-14.1379
21
47.8809
62
254
0
LINE
8
Modules
10
-14.1379
20
47.8809
11
-13.9895
21
52.3498
62
254
0
LINE
8
Modules
10
-13.8411
20
56.8226
11
-10.4112
21
56.7088
62
254
0
LINE
8
Modules
10
-10.4112
20
56.7088
11
-10.5595
21
52.2398
62
254
0
LINE
8
Modules
10
-10.5595
20
52.2398
11
-13.9894
21
52.3536
62
254
0
LINE
8
Modules
10
-13.9894
20
52.3536
11
-13.8411
21
56.8226
62
254
0
LINE
8
Modules
10
-13.6926
20
61.2954
11
-10.2627
21
61.1815
62
254
0
LINE
8
Modules
10
-10.2627
20
61.1815
11
-10.4111
21
56.7126
62
254
0
LINE
8
Modules
10
-10.4111
20
56.7126
11
-13.8409
21
56.8264
62
254
0
LINE
8
Modules
10
-13.8409
20
56.8264
11
-13.6926
21
61.2954
62
254
0
LINE
8
Modules
10
-13.5441
20
65.7682
11
-10.1143
21
65.6543
62
254
0
LINE
8
Modules
10
-10.1143
20
65.6543
11
-10.2626
21
61.1854
62
254
0
LINE
8
Modules
10
-10.2626
20
61.1854
11
-13.6925
21
61.2992
62
254
0
LINE
8
Modules
10
-13.6925
20
61.2992
11
-13.5441
21
65.7682
62
254
0
LINE
8
Modules
10
-13.3956
20
70.241
11
-9.96578
21
70.1271
62
254
0
LINE
8
Modules
10
-9.96578
20
70.1271
11
-10.1141
21
65.6581
62
254
0
LINE
8
Modules
10
-10.1141
20
65.6581
11
-13.544
21
65.772
62
254
0
LINE
8
Modules
10
-13.544
20
65.772
11
-13.3956
21
70.241
62
254
0
LINE
8
Modules
10
-13.2472
20
74.7137
11
-9.8173
21
74.5999
62
254
0
LINE
8
Modules
10
-9.8173
20
74.5999
11
-9.96565
21
70.1309
62
254
0
LINE
8
Modules
10
-9.96565
20
70.1309
11
-13.3955
21
70.2448
62
254
0
LINE
8
Modules
10
-13.3955
20
70.2448
11
-13.2472
21
74.7137
62
254
0
LINE
8
Modules
10
-13.0987
20
79.1865
11
-9.66883
21
79.0727
62
254
0
LINE
8
Modules
10
-9.66883
20
79.0727
11
-9.81718
21
74.6037
62
254
0
LINE
8
Modules
10
-9.81718
20
74.6037
11
-13.247
21
74.7175
62
254
0
LINE
8
Modules
10
-13.247
20
74.7175
11
-13.0987
21
79.1865
62
254
0
LINE
8
Modules
10
-12.9502
20
83.6593
11
-9.52035
21
83.5454
62
254
0
LINE
8
Modules
10
-9.52035
20
83.5454
11
-9.6687
21
79.0765
62
254
0
LINE
8
Modules
10
-9.6687
20
79.0765
11
-13.0986
21
79.1903
62
254
0
LINE
8
Modules
10
-13.0986
20
79.1903
11
-12.9502
21
83.6593
62
254
0
LINE
8
Modules
10
-12.8017
20
88.1321
11
-9.37188
21
88.0182
62
254
0
LINE
8
Modules
10
-9.37188
20
88.0182
11
-9.52023
21
83.5492
62
254
0
LINE
8
Modules
10
-9.52023
20
83.5492
11
-12.9501
21
83.6631
62
254
0
LINE
8
Modules
10
-12.9501
20
83.6631
11
-12.8017
21
88.1321
62
254
0
LINE
8
Modules
10
-17.5717
20
47.991
11
-14.1419
21
47.8772
62
254
0
LINE
8
Modules
10
-14.1419
20
47.8772
11
-14.2902
21
43.4082
62
254
0
LINE
8
Modules
10
-14.2902
20
43.4082
11
-17.7201
21
43.5221
62
254
0
LINE
8
Modules
10
-17.7201
20
43.5221
11
-17.5717
21
47.991
62
254
0
LINE
8
Modules
10
-17.4233
20
52.4638
11
-13.9934
21
52.35
62
254
0
LINE
8
Modules
10
-13.9934
20
52.35
11
-14.1417
21
47.881
62
254
0
LINE
8
Modules
10
-14.1417
20
47.881
11
-17.5716
21
47.9949
62
254
0
LINE
8
Modules
10
-17.5716
20
47.9949
11
-17.4233
21
52.4638
62
254
0
LINE
8
Modules
10
-17.2748
20
56.9366
11
-13.8449
21
56.8227
62
254
0
LINE
8
Modules
10
-13.8449
20
56.8227
11
-13.9933
21
52.3538
62
254
0
LINE
8
Modules
10
-13.9933
20
52.3538
11
-17.4231
21
52.4676
62
254
0
LINE
8
Modules
10
-17.4231
20
52.4676
11
-17.2748
21
56.9366
62
254
0
LINE
8
Modules
10
-17.1263
20
61.4094
11
-13.6964
21
61.2955
62
254
0
LINE
8
Modules
10
-13.6964
20
61.2955
11
-13.8448
21
56.8266
62
254
0
LINE
8
Modules
10
-13.8448
20
56.8266
11
-17.2747
21
56.9404
62
254
0
LINE
8
Modules
10
-17.2747
20
56.9404
11
-17.1263
21
61.4094
62
254
0
LINE
8
Modules
10
-16.9778
20
65.8822
11
-13.548
21
65.7683
62
254
0
LINE
8
Modules
10
-13.548
20
65.7683
11
-13.6963
21
61.2993
62
254
0
LINE
8
Modules
10
-13.6963
20
61.2993
11
-17.1262
21
61.4132
62
254
0
LINE
8
Modules
10
-17.1262
20
61.4132
11
-16.9778
21
65.8822
62
254
0
LINE
8
Modules
10
-16.8294
20
70.3549
11
-13.3995
21
70.2411
62
254
0
LINE
8
Modules
10
-13.3995
20
70.2411
11
-13.5478
21
65.7721
62
254
0
LINE
8
Modules
10
-13.5478
20
65.7721
11
-16.9777
21
65.886
62
254
0
LINE
8
Modules
10
-16.9777
20
65.886
11
-16.8294
21
70.3549
62
254
0
LINE
8
Modules
10
-16.6809
20
74.8277
11
-13.251
21
74.7139
62
254
0
LINE
8
Modules
10
-13.251
20
74.7139
11
-13.3994
21
70.2449
62
254
0
LINE
8
Modules
10
-13.3994
20
70.2449
11
-16.8292
21
70.3587
62
254
0
LINE
8
Modules
10
-16.8292
20
70.3587
11
-16.6809
21
74.8277
62
254
0
LINE
8
Modules
10
-16.5324
20
79.3005
11
-13.1025
21
79.1866
62
254
0
LINE
8
Modules
10
-13.1025
20
79.1866
11
-13.2509
21
74.7177
62
254
0
LINE
8
Modules
10
-13.2509
20
74.7177
11
-16.6808
21
74.8315
62
254
0
LINE
8
Modules
10
-16.6808
20
74.8315
11
-16.5324
21
79.3005
62
254
0
LINE
8
Modules
10
-16.3839
20
83.7733
11
-12.9541
21
83.6594
62
254
0
LINE
8
Modules
10
-12.9541
20
83.6594
11
-13.1024
21
79.1904
62
254
0
LINE
8
Modules
10
-13.1024
20
79.1904
11
-16.5323
21
79.3043
62
254
0
LINE
8
Modules
10
-16.5323
20
79.3043
11
-16.3839
21
83.7733
62
254
0
LINE
8
Modules
10
-16.2355
20
88.2461
11
-12.8056
21
88.1322
62
254
0
LINE
8
Modules
10
-12.8056
20
88.1322
11
-12.9539
21
83.6632
62
254
0
LINE
8
Modules
10
-12.9539
20
83.6632
11
-16.3838
21
83.7771
62
254
0
LINE
8
Modules
10
-16.3838
20
83.7771
11
-16.2355
21
88.2461
62
254
0
LINE
8
Modules
10
-20.857
20
52.5778
11
-17.4271
21
52.4639
62
254
0
LINE
8
Modules
10
-17.4271
20
52.4639
11
-17.5754
21
47.995
62
254
0
LINE
8
Modules
10
-17.5754
20
47.995
11
-21.0053
21
48.1088
62
254
0
LINE
8
Modules
10
-21.0053
20
48.1088
11
-20.857
21
52.5778
62
254
0
LINE
8
Modules
10
-20.7085
20
57.0506
11
-17.2786
21
56.9367
62
254
0
LINE
8
Modules
10
-17.2786
20
56.9367
11
-17.427
21
52.4678
62
254
0
LINE
8
Modules
10
-17.427
20
52.4678
11
-20.8568
21
52.5816
62
254
0
LINE
8
Modules
10
-20.8568
20
52.5816
11
-20.7085
21
57.0506
62
254
0
LINE
8
Modules
10
-20.56
20
61.5234
11
-17.1302
21
61.4095
62
254
0
LINE
8
Modules
10
-17.1302
20
61.4095
11
-17.2785
21
56.9405
62
254
0
LINE
8
Modules
10
-17.2785
20
56.9405
11
-20.7084
21
57.0544
62
254
0
LINE
8
Modules
10
-20.7084
20
57.0544
11
-20.56
21
61.5234
62
254
0
LINE
8
Modules
10
-20.4115
20
65.9961
11
-16.9817
21
65.8823
62
254
0
LINE
8
Modules
10
-16.9817
20
65.8823
11
-17.13
21
61.4133
62
254
0
LINE
8
Modules
10
-17.13
20
61.4133
11
-20.5599
21
61.5272
62
254
0
LINE
8
Modules
10
-20.5599
20
61.5272
11
-20.4115
21
65.9961
62
254
0
LINE
8
Modules
10
-20.2631
20
70.4689
11
-16.8332
21
70.3551
62
254
0
LINE
8
Modules
10
-16.8332
20
70.3551
11
-16.9816
21
65.8861
62
254
0
LINE
8
Modules
10
-16.9816
20
65.8861
11
-20.4114
21
65.9999
62
254
0
LINE
8
Modules
10
-20.4114
20
65.9999
11
-20.2631
21
70.4689
62
254
0
LINE
8
Modules
10
-20.1146
20
74.9417
11
-16.6847
21
74.8278
62
254
0
LINE
8
Modules
10
-16.6847
20
74.8278
11
-16.8331
21
70.3589
62
254
0
LINE
8
Modules
10
-16.8331
20
70.3589
11
-20.2629
21
70.4727
62
254
0
LINE
8
Modules
10
-20.2629
20
70.4727
11
-20.1146
21
74.9417
62
254
0
LINE
8
Modules
10
-19.9661
20
79.4145
11
-16.5363
21
79.3006
62
254
0
LINE
8
Modules
10
-16.5363
20
79.3006
11
-16.6846
21
74.8317
62
254
0
LINE
8
Modules
10
-16.6846
20
74.8317
11
-20.1145
21
74.9455
62
254
0
LINE
8
Modules
10
-20.1145
20
74.9455
11
-19.9661
21
79.4145
62
254
0
LINE
8
Modules
10
-19.8177
20
83.8873
11
-16.3878
21
83.7734
62
254
0
LINE
8
Modules
10
-16.3878
20
83.7734
11
-16.5361
21
79.3044
62
254
0
LINE
8
Modules
10
-16.5361
20
79.3044
11
-19.966
21
79.4183
62
254
0
LINE
8
Modules
10
-19.966
20
79.4183
11
-19.8177
21
83.8873
62
254
0
LINE
8
Modules
10
-19.6692
20
88.36
11
-16.2393
21
88.2462
62
254
0
LINE
8
Modules
10
-16.2393
20
88.2462
11
-16.3877
21
83.7772
62
254
0
LINE
8
Modules
10
-16.3877
20
83.7772
11
-19.8175
21
83.8911
62
254
0
LINE
8
Modules
10
-19.8175
20
83.8911
11
-19.6692
21
88.36
62
254
0
LINE
8
Modules
10
-24.1422
20
57.1646
11
-20.7123
21
57.0507
62
254
0
LINE
8
Modules
10
-20.7123
20
57.0507
11
-20.8607
21
52.5817
62
254
0
LINE
8
Modules
10
-20.8607
20
52.5817
11
-24.2906
21
52.6956
62
254
0
LINE
8
Modules
10
-24.2906
20
52.6956
11
-24.1422
21
57.1646
62
254
0
LINE
8
Modules
10
-23.9937
20
61.6373
11
-20.5639
21
61.5235
62
254
0
LINE
8
Modules
10
-20.5639
20
61.5235
11
-20.7122
21
57.0545
62
254
0
LINE
8
Modules
10
-20.7122
20
57.0545
11
-24.1421
21
57.1684
62
254
0
LINE
8
Modules
10
-24.1421
20
57.1684
11
-23.9937
21
61.6373
62
254
0
LINE
8
Modules
10
-23.8453
20
66.1101
11
-20.4154
21
65.9963
62
254
0
LINE
8
Modules
10
-20.4154
20
65.9963
11
-20.5637
21
61.5273
62
254
0
LINE
8
Modules
10
-20.5637
20
61.5273
11
-23.9936
21
61.6412
62
254
0
LINE
8
Modules
10
-23.9936
20
61.6412
11
-23.8453
21
66.1101
62
254
0
LINE
8
Modules
10
-23.6968
20
70.5829
11
-20.2669
21
70.469
62
254
0
LINE
8
Modules
10
-20.2669
20
70.469
11
-20.4153
21
66.0001
62
254
0
LINE
8
Modules
10
-20.4153
20
66.0001
11
-23.8451
21
66.1139
62
254
0
LINE
8
Modules
10
-23.8451
20
66.1139
11
-23.6968
21
70.5829
62
254
0
LINE
8
Modules
10
-23.5483
20
75.0557
11
-20.1184
21
74.9418
62
254
0
LINE
8
Modules
10
-20.1184
20
74.9418
11
-20.2668
21
70.4729
62
254
0
LINE
8
Modules
10
-20.2668
20
70.4729
11
-23.6967
21
70.5867
62
254
0
LINE
8
Modules
10
-23.6967
20
70.5867
11
-23.5483
21
75.0557
62
254
0
LINE
8
Modules
10
-23.3998
20
79.5285
11
-19.97
21
79.4146
62
254
0
LINE
8
Modules
10
-19.97
20
79.4146
11
-20.1183
21
74.9456
62
254
0
LINE
8
Modules
10
-20.1183
20
74.9456
11
-23.5482
21
75.0595
62
254
0
LINE
8
Modules
10
-23.5482
20
75.0595
11
-23.3998
21
79.5285
62
254
0
LINE
8
Modules
10
-23.2514
20
84.0012
11
-19.8215
21
83.8874
62
254
0
LINE
8
Modules
10
-19.8215
20
83.8874
11
-19.9698
21
79.4184
62
254
0
LINE
8
Modules
10
-19.9698
20
79.4184
11
-23.3997
21
79.5323
62
254
0
LINE
8
Modules
10
-23.3997
20
79.5323
11
-23.2514
21
84.0012
62
254
0
LINE
8
Modules
10
-23.1029
20
88.474
11
-19.673
21
88.3602
62
254
0
LINE
8
Modules
10
-19.673
20
88.3602
11
-19.8214
21
83.8912
62
254
0
LINE
8
Modules
10
-19.8214
20
83.8912
11
-23.2512
21
84.005
62
254
0
LINE
8
Modules
10
-23.2512
20
84.005
11
-23.1029
21
88.474
62
254
0
LINE
8
Modules
10
-27.279
20
66.2241
11
-23.8491
21
66.1102
62
254
0
LINE
8
Modules
10
-23.8491
20
66.1102
11
-23.9975
21
61.6413
62
254
0
LINE
8
Modules
10
-23.9975
20
61.6413
11
-27.4273
21
61.7551
62
254
0
LINE
8
Modules
10
-27.4273
20
61.7551
11
-27.279
21
66.2241
62
254
0
LINE
8
Modules
10
-27.1305
20
70.6969
11
-23.7006
21
70.583
62
254
0
LINE
8
Modules
10
-23.7006
20
70.583
11
-23.849
21
66.1141
62
254
0
LINE
8
Modules
10
-23.849
20
66.1141
11
-27.2789
21
66.2279
62
254
0
LINE
8
Modules
10
-27.2789
20
66.2279
11
-27.1305
21
70.6969
62
254
0
LINE
8
Modules
10
-26.982
20
75.1697
11
-23.5522
21
75.0558
62
254
0
LINE
8
Modules
10
-23.5522
20
75.0558
11
-23.7005
21
70.5868
62
254
0
LINE
8
Modules
10
-23.7005
20
70.5868
11
-27.1304
21
70.7007
62
254
0
LINE
8
Modules
10
-27.1304
20
70.7007
11
-26.982
21
75.1697
62
254
0
LINE
8
Modules
10
-26.8336
20
79.6424
11
-23.4037
21
79.5286
62
254
0
LINE
8
Modules
10
-23.4037
20
79.5286
11
-23.552
21
75.0596
62
254
0
LINE
8
Modules
10
-23.552
20
75.0596
11
-26.9819
21
75.1735
62
254
0
LINE
8
Modules
10
-26.9819
20
75.1735
11
-26.8336
21
79.6424
62
254
0
LINE
8
Modules
10
-26.6851
20
84.1152
11
-23.2552
21
84.0014
62
254
0
LINE
8
Modules
10
-23.2552
20
84.0014
11
-23.4036
21
79.5324
62
254
0
LINE
8
Modules
10
-23.4036
20
79.5324
11
-26.8334
21
79.6463
62
254
0
LINE
8
Modules
10
-26.8334
20
79.6463
11
-26.6851
21
84.1152
62
254
0
LINE
8
Modules
10
-26.5366
20
88.588
11
-23.1067
21
88.4741
62
254
0
LINE
8
Modules
10
-23.1067
20
88.4741
11
-23.2551
21
84.0052
62
254
0
LINE
8
Modules
10
-23.2551
20
84.0052
11
-26.685
21
84.119
62
254
0
LINE
8
Modules
10
-26.685
20
84.119
11
-26.5366
21
88.588
62
254
0
LINE
8
Modules
10
-30.5642
20
70.8109
11
-27.1344
21
70.697
62
254
0
LINE
8
Modules
10
-27.1344
20
70.697
11
-27.2827
21
66.228
62
254
0
LINE
8
Modules
10
-27.2827
20
66.228
11
-30.7126
21
66.3419
62
254
0
LINE
8
Modules
10
-30.7126
20
66.3419
11
-30.5642
21
70.8109
62
254
0
LINE
8
Modules
10
-30.4157
20
75.2836
11
-26.9859
21
75.1698
62
254
0
LINE
8
Modules
10
-26.9859
20
75.1698
11
-27.1342
21
70.7008
62
254
0
LINE
8
Modules
10
-27.1342
20
70.7008
11
-30.5641
21
70.8147
62
254
0
LINE
8
Modules
10
-30.5641
20
70.8147
11
-30.4157
21
75.2836
62
254
0
LINE
8
Modules
10
-30.2673
20
79.7564
11
-26.8374
21
79.6426
62
254
0
LINE
8
Modules
10
-26.8374
20
79.6426
11
-26.9858
21
75.1736
62
254
0
LINE
8
Modules
10
-26.9858
20
75.1736
11
-30.4156
21
75.2875
62
254
0
LINE
8
Modules
10
-30.4156
20
75.2875
11
-30.2673
21
79.7564
62
254
0
LINE
8
Modules
10
-30.1188
20
84.2292
11
-26.6889
21
84.1153
62
254
0
LINE
8
Modules
10
-26.6889
20
84.1153
11
-26.8373
21
79.6464
62
254
0
LINE
8
Modules
10
-26.8373
20
79.6464
11
-30.2671
21
79.7602
62
254
0
LINE
8
Modules
10
-30.2671
20
79.7602
11
-30.1188
21
84.2292
62
254
0
LINE
8
Modules
10
-29.9703
20
88.702
11
-26.5405
21
88.5881
62
254
0
LINE
8
Modules
10
-26.5405
20
88.5881
11
-26.6888
21
84.1192
62
254
0
LINE
8
Modules
10
-26.6888
20
84.1192
11
-30.1187
21
84.233
62
254
0
LINE
8
Modules
10
-30.1187
20
84.233
11
-29.9703
21
88.702
62
254
0
LINE
8
Modules
10
-33.8495
20
75.3976
11
-30.4196
21
75.2838
62
254
0
LINE
8
Modules
10
-30.4196
20
75.2838
11
-30.5679
21
70.8148
62
254
0
LINE
8
Modules
10
-30.5679
20
70.8148
11
-33.9978
21
70.9287
62
254
0
LINE
8
Modules
10
-33.9978
20
70.9287
11
-33.8495
21
75.3976
62
254
0
LINE
8
Modules
10
-33.701
20
79.8704
11
-30.2711
21
79.7565
62
254
0
LINE
8
Modules
10
-30.2711
20
79.7565
11
-30.4195
21
75.2876
62
254
0
LINE
8
Modules
10
-30.4195
20
75.2876
11
-33.8493
21
75.4014
62
254
0
LINE
8
Modules
10
-33.8493
20
75.4014
11
-33.701
21
79.8704
62
254
0
LINE
8
Modules
10
-33.5525
20
84.3432
11
-30.1226
21
84.2293
62
254
0
LINE
8
Modules
10
-30.1226
20
84.2293
11
-30.271
21
79.7604
62
254
0
LINE
8
Modules
10
-30.271
20
79.7604
11
-33.7009
21
79.8742
62
254
0
LINE
8
Modules
10
-33.7009
20
79.8742
11
-33.5525
21
84.3432
62
254
0
LINE
8
Modules
10
-33.404
20
88.816
11
-29.9742
21
88.7021
62
254
0
LINE
8
Modules
10
-29.9742
20
88.7021
11
-30.1225
21
84.2331
62
254
0
LINE
8
Modules
10
-30.1225
20
84.2331
11
-33.5524
21
84.347
62
254
0
LINE
8
Modules
10
-33.5524
20
84.347
11
-33.404
21
88.816
62
254
0
LINE
8
Modules
10
-37.1347
20
79.9844
11
-33.7048
21
79.8705
62
254
0
LINE
8
Modules
10
-33.7048
20
79.8705
11
-33.8532
21
75.4016
62
254
0
LINE
8
Modules
10
-33.8532
20
75.4016
11
-37.283
21
75.5154
62
254
0
LINE
8
Modules
10
-37.283
20
75.5154
11
-37.1347
21
79.9844
62
254
0
LINE
8
Modules
10
-36.9862
20
84.4572
11
-33.5564
21
84.3433
62
254
0
LINE
8
Modules
10
-33.5564
20
84.3433
11
-33.7047
21
79.8743
62
254
0
LINE
8
Modules
10
-33.7047
20
79.8743
11
-37.1346
21
79.9882
62
254
0
LINE
8
Modules
10
-37.1346
20
79.9882
11
-36.9862
21
84.4572
62
254
0
LINE
8
Modules
10
-36.8378
20
88.9299
11
-33.4079
21
88.8161
62
254
0
LINE
8
Modules
10
-33.4079
20
88.8161
11
-33.5562
21
84.3471
62
254
0
LINE
8
Modules
10
-33.5562
20
84.3471
11
-36.9861
21
84.461
62
254
0
LINE
8
Modules
10
-36.9861
20
84.461
11
-36.8378
21
88.9299
62
254
0
LINE
8
Modules
10
-40.4199
20
84.5711
11
-36.9901
21
84.4573
62
254
0
LINE
8
Modules
10
-36.9901
20
84.4573
11
-37.1384
21
79.9883
62
254
0
LINE
8
Modules
10
-37.1384
20
79.9883
11
-40.5683
21
80.1022
62
254
0
LINE
8
Modules
10
-40.5683
20
80.1022
11
-40.4199
21
84.5711
62
254
0
LINE
8
Modules
10
-40.2715
20
89.0439
11
-36.8416
21
88.9301
62
254
0
LINE
8
Modules
10
-36.8416
20
88.9301
11
-36.9899
21
84.4611
62
254
0
LINE
8
Modules
10
-36.9899
20
84.4611
11
-40.4198
21
84.575
62
254
0
LINE
8
Modules
10
-40.4198
20
84.575
11
-40.2715
21
89.0439
62
254
0
LINE
8
Modules
10
-43.7052
20
89.1579
11
-40.2753
21
89.0441
62
254
0
LINE
8
Modules
10
-40.2753
20
89.0441
11
-40.4237
21
84.5751
62
254
0
LINE
8
Modules
10
-40.4237
20
84.5751
11
-43.8535
21
84.6889
62
254
0
LINE
8
Modules
10
-43.8535
20
84.6889
11
-43.7052
21
89.1579
62
254
0
LINE
8
Modules
10
62.6831
20
44.4596
11
65.2494
21
42.1812
62
254
0
LINE
8
Modules
10
65.2494
20
42.1812
11
62.2203
21
38.7694
62
254
0
LINE
8
Modules
10
62.2203
20
38.7694
11
59.654
21
41.0478
62
254
0
LINE
8
Modules
10
59.654
20
41.0478
11
62.6831
21
44.4596
62
254
0
LINE
8
Modules
10
60.114
20
46.7406
11
62.6803
21
44.4622
62
254
0
LINE
8
Modules
10
62.6803
20
44.4622
11
59.6511
21
41.0504
62
254
0
LINE
8
Modules
10
59.6511
20
41.0504
11
57.0849
21
43.3288
62
254
0
LINE
8
Modules
10
57.0849
20
43.3288
11
60.114
21
46.7406
62
254
0
LINE
8
Modules
10
54.513
20
45.6068
11
57.0793
21
43.3283
62
254
0
LINE
8
Modules
10
57.0793
20
43.3283
11
54.0501
21
39.9166
62
254
0
LINE
8
Modules
10
54.0501
20
39.9166
11
51.4839
21
42.195
62
254
0
LINE
8
Modules
10
51.4839
20
42.195
11
54.513
21
45.6068
62
254
0
LINE
8
Modules
10
57.5449
20
49.0216
11
60.1111
21
46.7432
62
254
0
LINE
8
Modules
10
60.1111
20
46.7432
11
57.082
21
43.3314
62
254
0
LINE
8
Modules
10
57.082
20
43.3314
11
54.5157
21
45.6098
62
254
0
LINE
8
Modules
10
54.5157
20
45.6098
11
57.5449
21
49.0216
62
254
0
LINE
8
Modules
10
48.9121
20
44.473
11
51.4783
21
42.1945
62
254
0
LINE
8
Modules
10
51.4783
20
42.1945
11
48.4492
21
38.7827
62
254
0
LINE
8
Modules
10
48.4492
20
38.7827
11
45.8829
21
41.0612
62
254
0
LINE
8
Modules
10
45.8829
20
41.0612
11
48.9121
21
44.473
62
254
0
LINE
8
Modules
10
51.9439
20
47.8878
11
54.5102
21
45.6093
62
254
0
LINE
8
Modules
10
54.5102
20
45.6093
11
51.481
21
42.1976
62
254
0
LINE
8
Modules
10
51.481
20
42.1976
11
48.9148
21
44.476
62
254
0
LINE
8
Modules
10
48.9148
20
44.476
11
51.9439
21
47.8878
62
254
0
LINE
8
Modules
10
54.9758
20
51.3026
11
57.542
21
49.0242
62
254
0
LINE
8
Modules
10
57.542
20
49.0242
11
54.5129
21
45.6124
62
254
0
LINE
8
Modules
10
54.5129
20
45.6124
11
51.9466
21
47.8908
62
254
0
LINE
8
Modules
10
51.9466
20
47.8908
11
54.9758
21
51.3026
62
254
0
LINE
8
Modules
10
43.3111
20
43.3391
11
45.8773
21
41.0607
62
254
0
LINE
8
Modules
10
45.8773
20
41.0607
11
42.8482
21
37.6489
62
254
0
LINE
8
Modules
10
42.8482
20
37.6489
11
40.2819
21
39.9274
62
254
0
LINE
8
Modules
10
40.2819
20
39.9274
11
43.3111
21
43.3391
62
254
0
LINE
8
Modules
10
46.3429
20
46.754
11
48.9092
21
44.4755
62
254
0
LINE
8
Modules
10
48.9092
20
44.4755
11
45.88
21
41.0637
62
254
0
LINE
8
Modules
10
45.88
20
41.0637
11
43.3138
21
43.3422
62
254
0
LINE
8
Modules
10
43.3138
20
43.3422
11
46.3429
21
46.754
62
254
0
LINE
8
Modules
10
49.3748
20
50.1688
11
51.941
21
47.8903
62
254
0
LINE
8
Modules
10
51.941
20
47.8903
11
48.9119
21
44.4786
62
254
0
LINE
8
Modules
10
48.9119
20
44.4786
11
46.3456
21
46.757
62
254
0
LINE
8
Modules
10
46.3456
20
46.757
11
49.3748
21
50.1688
62
254
0
LINE
8
Modules
10
52.4066
20
53.5836
11
54.9729
21
51.3052
62
254
0
LINE
8
Modules
10
54.9729
20
51.3052
11
51.9437
21
47.8934
62
254
0
LINE
8
Modules
10
51.9437
20
47.8934
11
49.3775
21
50.1718
62
254
0
LINE
8
Modules
10
49.3775
20
50.1718
11
52.4066
21
53.5836
62
254
0
LINE
8
Modules
10
40.7419
20
45.6201
11
43.3082
21
43.3417
62
254
0
LINE
8
Modules
10
43.3082
20
43.3417
11
40.2791
21
39.9299
62
254
0
LINE
8
Modules
10
40.2791
20
39.9299
11
37.7128
21
42.2084
62
254
0
LINE
8
Modules
10
37.7128
20
42.2084
11
40.7419
21
45.6201
62
254
0
LINE
8
Modules
10
43.7738
20
49.035
11
46.3401
21
46.7565
62
254
0
LINE
8
Modules
10
46.3401
20
46.7565
11
43.3109
21
43.3447
62
254
0
LINE
8
Modules
10
43.3109
20
43.3447
11
40.7447
21
45.6232
62
254
0
LINE
8
Modules
10
40.7447
20
45.6232
11
43.7738
21
49.035
62
254
0
LINE
8
Modules
10
46.8057
20
52.4498
11
49.3719
21
50.1713
62
254
0
LINE
8
Modules
10
49.3719
20
50.1713
11
46.3428
21
46.7596
62
254
0
LINE
8
Modules
10
46.3428
20
46.7596
11
43.7765
21
49.038
62
254
0
LINE
8
Modules
10
43.7765
20
49.038
11
46.8057
21
52.4498
62
254
0
LINE
8
Modules
10
49.8375
20
55.8646
11
52.4038
21
53.5862
62
254
0
LINE
8
Modules
10
52.4038
20
53.5862
11
49.3746
21
50.1744
62
254
0
LINE
8
Modules
10
49.3746
20
50.1744
11
46.8084
21
52.4528
62
254
0
LINE
8
Modules
10
46.8084
20
52.4528
11
49.8375
21
55.8646
62
254
0
LINE
8
Modules
10
35.141
20
44.4863
11
37.7072
21
42.2079
62
254
0
LINE
8
Modules
10
37.7072
20
42.2079
11
34.6781
21
38.7961
62
254
0
LINE
8
Modules
10
34.6781
20
38.7961
11
32.1118
21
41.0745
62
254
0
LINE
8
Modules
10
32.1118
20
41.0745
11
35.141
21
44.4863
62
254
0
LINE
8
Modules
10
38.1728
20
47.9011
11
40.7391
21
45.6227
62
254
0
LINE
8
Modules
10
40.7391
20
45.6227
11
37.7099
21
42.2109
62
254
0
LINE
8
Modules
10
37.7099
20
42.2109
11
35.1437
21
44.4894
62
254
0
LINE
8
Modules
10
35.1437
20
44.4894
11
38.1728
21
47.9011
62
254
0
LINE
8
Modules
10
41.2047
20
51.316
11
43.7709
21
49.0375
62
254
0
LINE
8
Modules
10
43.7709
20
49.0375
11
40.7418
21
45.6257
62
254
0
LINE
8
Modules
10
40.7418
20
45.6257
11
38.1755
21
47.9042
62
254
0
LINE
8
Modules
10
38.1755
20
47.9042
11
41.2047
21
51.316
62
254
0
LINE
8
Modules
10
44.2365
20
54.7308
11
46.8028
21
52.4523
62
254
0
LINE
8
Modules
10
46.8028
20
52.4523
11
43.7736
21
49.0406
62
254
0
LINE
8
Modules
10
43.7736
20
49.0406
11
41.2074
21
51.319
62
254
0
LINE
8
Modules
10
41.2074
20
51.319
11
44.2365
21
54.7308
62
254
0
LINE
8
Modules
10
47.2684
20
58.1456
11
49.8346
21
55.8672
62
254
0
LINE
8
Modules
10
49.8346
20
55.8672
11
46.8055
21
52.4554
62
254
0
LINE
8
Modules
10
46.8055
20
52.4554
11
44.2392
21
54.7338
62
254
0
LINE
8
Modules
10
44.2392
20
54.7338
11
47.2684
21
58.1456
62
254
0
LINE
8
Modules
10
29.54
20
43.3525
11
32.1062
21
41.0741
62
254
0
LINE
8
Modules
10
32.1062
20
41.0741
11
29.0771
21
37.6623
62
254
0
LINE
8
Modules
10
29.0771
20
37.6623
11
26.5108
21
39.9407
62
254
0
LINE
8
Modules
10
26.5108
20
39.9407
11
29.54
21
43.3525
62
254
0
LINE
8
Modules
10
32.5718
20
46.7673
11
35.1381
21
44.4889
62
254
0
LINE
8
Modules
10
35.1381
20
44.4889
11
32.1089
21
41.0771
62
254
0
LINE
8
Modules
10
32.1089
20
41.0771
11
29.5427
21
43.3555
62
254
0
LINE
8
Modules
10
29.5427
20
43.3555
11
32.5718
21
46.7673
62
254
0
LINE
8
Modules
10
35.6037
20
50.1821
11
38.1699
21
47.9037
62
254
0
LINE
8
Modules
10
38.1699
20
47.9037
11
35.1408
21
44.4919
62
254
0
LINE
8
Modules
10
35.1408
20
44.4919
11
32.5745
21
46.7704
62
254
0
LINE
8
Modules
10
32.5745
20
46.7704
11
35.6037
21
50.1821
62
254
0
LINE
8
Modules
10
38.6355
20
53.597
11
41.2018
21
51.3185
62
254
0
LINE
8
Modules
10
41.2018
20
51.3185
11
38.1726
21
47.9067
62
254
0
LINE
8
Modules
10
38.1726
20
47.9067
11
35.6064
21
50.1852
62
254
0
LINE
8
Modules
10
35.6064
20
50.1852
11
38.6355
21
53.597
62
254
0
LINE
8
Modules
10
41.6674
20
57.0118
11
44.2336
21
54.7333
62
254
0
LINE
8
Modules
10
44.2336
20
54.7333
11
41.2045
21
51.3216
62
254
0
LINE
8
Modules
10
41.2045
20
51.3216
11
38.6382
21
53.6
62
254
0
LINE
8
Modules
10
38.6382
20
53.6
11
41.6674
21
57.0118
62
254
0
LINE
8
Modules
10
44.6992
20
60.4266
11
47.2655
21
58.1482
62
254
0
LINE
8
Modules
10
47.2655
20
58.1482
11
44.2363
21
54.7364
62
254
0
LINE
8
Modules
10
44.2363
20
54.7364
11
41.6701
21
57.0148
62
254
0
LINE
8
Modules
10
41.6701
20
57.0148
11
44.6992
21
60.4266
62
254
0
LINE
8
Modules
10
26.9709
20
45.6335
11
29.5371
21
43.355
62
254
0
LINE
8
Modules
10
29.5371
20
43.355
11
26.508
21
39.9433
62
254
0
LINE
8
Modules
10
26.508
20
39.9433
11
23.9417
21
42.2217
62
254
0
LINE
8
Modules
10
23.9417
20
42.2217
11
26.9709
21
45.6335
62
254
0
LINE
8
Modules
10
30.0027
20
49.0483
11
32.569
21
46.7699
62
254
0
LINE
8
Modules
10
32.569
20
46.7699
11
29.5398
21
43.3581
62
254
0
LINE
8
Modules
10
29.5398
20
43.3581
11
26.9736
21
45.6365
62
254
0
LINE
8
Modules
10
26.9736
20
45.6365
11
30.0027
21
49.0483
62
254
0
LINE
8
Modules
10
33.0346
20
52.4631
11
35.6008
21
50.1847
62
254
0
LINE
8
Modules
10
35.6008
20
50.1847
11
32.5717
21
46.7729
62
254
0
LINE
8
Modules
10
32.5717
20
46.7729
11
30.0054
21
49.0514
62
254
0
LINE
8
Modules
10
30.0054
20
49.0514
11
33.0346
21
52.4631
62
254
0
LINE
8
Modules
10
36.0664
20
55.878
11
38.6327
21
53.5995
62
254
0
LINE
8
Modules
10
38.6327
20
53.5995
11
35.6035
21
50.1877
62
254
0
LINE
8
Modules
10
35.6035
20
50.1877
11
33.0373
21
52.4662
62
254
0
LINE
8
Modules
10
33.0373
20
52.4662
11
36.0664
21
55.878
62
254
0
LINE
8
Modules
10
39.0983
20
59.2928
11
41.6645
21
57.0143
62
254
0
LINE
8
Modules
10
41.6645
20
57.0143
11
38.6354
21
53.6026
62
254
0
LINE
8
Modules
10
38.6354
20
53.6026
11
36.0691
21
55.881
62
254
0
LINE
8
Modules
10
36.0691
20
55.881
11
39.0983
21
59.2928
62
254
0
LINE
8
Modules
10
42.1301
20
62.7076
11
44.6964
21
60.4291
62
254
0
LINE
8
Modules
10
44.6964
20
60.4291
11
41.6672
21
57.0174
62
254
0
LINE
8
Modules
10
41.6672
20
57.0174
11
39.101
21
59.2958
62
254
0
LINE
8
Modules
10
39.101
20
59.2958
11
42.1301
21
62.7076
62
254
0
LINE
8
Modules
10
21.3699
20
44.4997
11
23.9361
21
42.2212
62
254
0
LINE
8
Modules
10
23.9361
20
42.2212
11
20.907
21
38.8095
62
254
0
LINE
8
Modules
10
20.907
20
38.8095
11
18.3407
21
41.0879
62
254
0
LINE
8
Modules
10
18.3407
20
41.0879
11
21.3699
21
44.4997
62
254
0
LINE
8
Modules
10
24.4017
20
47.9145
11
26.968
21
45.636
62
254
0
LINE
8
Modules
10
26.968
20
45.636
11
23.9388
21
42.2243
62
254
0
LINE
8
Modules
10
23.9388
20
42.2243
11
21.3726
21
44.5027
62
254
0
LINE
8
Modules
10
21.3726
20
44.5027
11
24.4017
21
47.9145
62
254
0
LINE
8
Modules
10
27.4336
20
51.3293
11
29.9998
21
49.0509
62
254
0
LINE
8
Modules
10
29.9998
20
49.0509
11
26.9707
21
45.6391
62
254
0
LINE
8
Modules
10
26.9707
20
45.6391
11
24.4044
21
47.9175
62
254
0
LINE
8
Modules
10
24.4044
20
47.9175
11
27.4336
21
51.3293
62
254
0
LINE
8
Modules
10
30.4654
20
54.7441
11
33.0317
21
52.4657
62
254
0
LINE
8
Modules
10
33.0317
20
52.4657
11
30.0025
21
49.0539
62
254
0
LINE
8
Modules
10
30.0025
20
49.0539
11
27.4363
21
51.3324
62
254
0
LINE
8
Modules
10
27.4363
20
51.3324
11
30.4654
21
54.7441
62
254
0
LINE
8
Modules
10
33.4973
20
58.159
11
36.0635
21
55.8805
62
254
0
LINE
8
Modules
10
36.0635
20
55.8805
11
33.0344
21
52.4687
62
254
0
LINE
8
Modules
10
33.0344
20
52.4687
11
30.4681
21
54.7472
62
254
0
LINE
8
Modules
10
30.4681
20
54.7472
11
33.4973
21
58.159
62
254
0
LINE
8
Modules
10
36.5291
20
61.5738
11
39.0954
21
59.2953
62
254
0
LINE
8
Modules
10
39.0954
20
59.2953
11
36.0662
21
55.8835
62
254
0
LINE
8
Modules
10
36.0662
20
55.8835
11
33.5
21
58.162
62
254
0
LINE
8
Modules
10
33.5
20
58.162
11
36.5291
21
61.5738
62
254
0
LINE
8
Modules
10
39.561
20
64.9886
11
42.1272
21
62.7101
62
254
0
LINE
8
Modules
10
42.1272
20
62.7101
11
39.0981
21
59.2984
62
254
0
LINE
8
Modules
10
39.0981
20
59.2984
11
36.5318
21
61.5768
62
254
0
LINE
8
Modules
10
36.5318
20
61.5768
11
39.561
21
64.9886
62
254
0
LINE
8
Modules
10
15.7689
20
43.3659
11
18.3352
21
41.0874
62
254
0
LINE
8
Modules
10
18.3352
20
41.0874
11
15.306
21
37.6756
62
254
0
LINE
8
Modules
10
15.306
20
37.6756
11
12.7398
21
39.9541
62
254
0
LINE
8
Modules
10
12.7398
20
39.9541
11
15.7689
21
43.3659
62
254
0
LINE
8
Modules
10
18.8008
20
46.7807
11
21.367
21
44.5022
62
254
0
LINE
8
Modules
10
21.367
20
44.5022
11
18.3379
21
41.0904
62
254
0
LINE
8
Modules
10
18.3379
20
41.0904
11
15.7716
21
43.3689
62
254
0
LINE
8
Modules
10
15.7716
20
43.3689
11
18.8008
21
46.7807
62
254
0
LINE
8
Modules
10
21.8326
20
50.1955
11
24.3989
21
47.917
62
254
0
LINE
8
Modules
10
24.3989
20
47.917
11
21.3697
21
44.5053
62
254
0
LINE
8
Modules
10
21.3697
20
44.5053
11
18.8035
21
46.7837
62
254
0
LINE
8
Modules
10
18.8035
20
46.7837
11
21.8326
21
50.1955
62
254
0
LINE
8
Modules
10
24.8645
20
53.6103
11
27.4307
21
51.3319
62
254
0
LINE
8
Modules
10
27.4307
20
51.3319
11
24.4016
21
47.9201
62
254
0
LINE
8
Modules
10
24.4016
20
47.9201
11
21.8353
21
50.1985
62
254
0
LINE
8
Modules
10
21.8353
20
50.1985
11
24.8645
21
53.6103
62
254
0
LINE
8
Modules
10
27.8963
20
57.0251
11
30.4626
21
54.7467
62
254
0
LINE
8
Modules
10
30.4626
20
54.7467
11
27.4334
21
51.3349
62
254
0
LINE
8
Modules
10
27.4334
20
51.3349
11
24.8672
21
53.6134
62
254
0
LINE
8
Modules
10
24.8672
20
53.6134
11
27.8963
21
57.0251
62
254
0
LINE
8
Modules
10
30.9282
20
60.44
11
33.4944
21
58.1615
62
254
0
LINE
8
Modules
10
33.4944
20
58.1615
11
30.4653
21
54.7497
62
254
0
LINE
8
Modules
10
30.4653
20
54.7497
11
27.899
21
57.0282
62
254
0
LINE
8
Modules
10
27.899
20
57.0282
11
30.9282
21
60.44
62
254
0
LINE
8
Modules
10
33.96
20
63.8548
11
36.5263
21
61.5763
62
254
0
LINE
8
Modules
10
36.5263
20
61.5763
11
33.4971
21
58.1645
62
254
0
LINE
8
Modules
10
33.4971
20
58.1645
11
30.9309
21
60.443
62
254
0
LINE
8
Modules
10
30.9309
20
60.443
11
33.96
21
63.8548
62
254
0
LINE
8
Modules
10
36.9919
20
67.2696
11
39.5581
21
64.9911
62
254
0
LINE
8
Modules
10
39.5581
20
64.9911
11
36.529
21
61.5794
62
254
0
LINE
8
Modules
10
36.529
20
61.5794
11
33.9627
21
63.8578
62
254
0
LINE
8
Modules
10
33.9627
20
63.8578
11
36.9919
21
67.2696
62
254
0
LINE
8
Modules
10
10.1679
20
42.232
11
12.7342
21
39.9536
62
254
0
LINE
8
Modules
10
12.7342
20
39.9536
11
9.70502
21
36.5418
62
254
0
LINE
8
Modules
10
9.70502
20
36.5418
11
7.13877
21
38.8203
62
254
0
LINE
8
Modules
10
7.13877
20
38.8203
11
10.1679
21
42.232
62
254
0
LINE
8
Modules
10
13.1998
20
45.6469
11
15.766
21
43.3684
62
254
0
LINE
8
Modules
10
15.766
20
43.3684
11
12.7369
21
39.9566
62
254
0
LINE
8
Modules
10
12.7369
20
39.9566
11
10.1706
21
42.2351
62
254
0
LINE
8
Modules
10
10.1706
20
42.2351
11
13.1998
21
45.6469
62
254
0
LINE
8
Modules
10
16.2316
20
49.0617
11
18.7979
21
46.7832
62
254
0
LINE
8
Modules
10
18.7979
20
46.7832
11
15.7687
21
43.3714
62
254
0
LINE
8
Modules
10
15.7687
20
43.3714
11
13.2025
21
45.6499
62
254
0
LINE
8
Modules
10
13.2025
20
45.6499
11
16.2316
21
49.0617
62
254
0
LINE
8
Modules
10
19.2635
20
52.4765
11
21.8297
21
50.198
62
254
0
LINE
8
Modules
10
21.8297
20
50.198
11
18.8006
21
46.7863
62
254
0
LINE
8
Modules
10
18.8006
20
46.7863
11
16.2343
21
49.0647
62
254
0
LINE
8
Modules
10
16.2343
20
49.0647
11
19.2635
21
52.4765
62
254
0
LINE
8
Modules
10
22.2953
20
55.8913
11
24.8616
21
53.6129
62
254
0
LINE
8
Modules
10
24.8616
20
53.6129
11
21.8324
21
50.2011
62
254
0
LINE
8
Modules
10
21.8324
20
50.2011
11
19.2662
21
52.4795
62
254
0
LINE
8
Modules
10
19.2662
20
52.4795
11
22.2953
21
55.8913
62
254
0
LINE
8
Modules
10
25.3272
20
59.3061
11
27.8934
21
57.0277
62
254
0
LINE
8
Modules
10
27.8934
20
57.0277
11
24.8643
21
53.6159
62
254
0
LINE
8
Modules
10
24.8643
20
53.6159
11
22.298
21
55.8944
62
254
0
LINE
8
Modules
10
22.298
20
55.8944
11
25.3272
21
59.3061
62
254
0
LINE
8
Modules
10
28.359
20
62.721
11
30.9253
21
60.4425
62
254
0
LINE
8
Modules
10
30.9253
20
60.4425
11
27.8961
21
57.0307
62
254
0
LINE
8
Modules
10
27.8961
20
57.0307
11
25.3299
21
59.3092
62
254
0
LINE
8
Modules
10
25.3299
20
59.3092
11
28.359
21
62.721
62
254
0
LINE
8
Modules
10
31.3909
20
66.1358
11
33.9571
21
63.8573
62
254
0
LINE
8
Modules
10
33.9571
20
63.8573
11
30.928
21
60.4455
62
254
0
LINE
8
Modules
10
30.928
20
60.4455
11
28.3617
21
62.724
62
254
0
LINE
8
Modules
10
28.3617
20
62.724
11
31.3909
21
66.1358
62
254
0
LINE
8
Modules
10
34.4227
20
69.5506
11
36.989
21
67.2721
62
254
0
LINE
8
Modules
10
36.989
20
67.2721
11
33.9598
21
63.8604
62
254
0
LINE
8
Modules
10
33.9598
20
63.8604
11
31.3936
21
66.1388
62
254
0
LINE
8
Modules
10
31.3936
20
66.1388
11
34.4227
21
69.5506
62
254
0
LINE
8
Modules
10
7.59879
20
44.513
11
10.165
21
42.2346
62
254
0
LINE
8
Modules
10
10.165
20
42.2346
11
7.13589
21
38.8228
62
254
0
LINE
8
Modules
10
7.13589
20
38.8228
11
4.56964
21
41.1013
62
254
0
LINE
8
Modules
10
4.56964
20
41.1013
11
7.59879
21
44.513
62
254
0
LINE
8
Modules
10
10.6306
20
47.9279
11
13.1969
21
45.6494
62
254
0
LINE
8
Modules
10
13.1969
20
45.6494
11
10.1677
21
42.2376
62
254
0
LINE
8
Modules
10
10.1677
20
42.2376
11
7.60149
21
44.5161
62
254
0
LINE
8
Modules
10
7.60149
20
44.5161
11
10.6306
21
47.9279
62
254
0
LINE
8
Modules
10
13.6625
20
51.3427
11
16.2287
21
49.0642
62
254
0
LINE
8
Modules
10
16.2287
20
49.0642
11
13.1996
21
45.6524
62
254
0
LINE
8
Modules
10
13.1996
20
45.6524
11
10.6333
21
47.9309
62
254
0
LINE
8
Modules
10
10.6333
20
47.9309
11
13.6625
21
51.3427
62
254
0
LINE
8
Modules
10
16.6943
20
54.7575
11
19.2606
21
52.479
62
254
0
LINE
8
Modules
10
19.2606
20
52.479
11
16.2314
21
49.0673
62
254
0
LINE
8
Modules
10
16.2314
20
49.0673
11
13.6652
21
51.3457
62
254
0
LINE
8
Modules
10
13.6652
20
51.3457
11
16.6943
21
54.7575
62
254
0
LINE
8
Modules
10
19.7262
20
58.1723
11
22.2924
21
55.8939
62
254
0
LINE
8
Modules
10
22.2924
20
55.8939
11
19.2633
21
52.4821
62
254
0
LINE
8
Modules
10
19.2633
20
52.4821
11
16.697
21
54.7605
62
254
0
LINE
8
Modules
10
16.697
20
54.7605
11
19.7262
21
58.1723
62
254
0
LINE
8
Modules
10
22.758
20
61.5871
11
25.3243
21
59.3087
62
254
0
LINE
8
Modules
10
25.3243
20
59.3087
11
22.2952
21
55.8969
62
254
0
LINE
8
Modules
10
22.2952
20
55.8969
11
19.7289
21
58.1754
62
254
0
LINE
8
Modules
10
19.7289
20
58.1754
11
22.758
21
61.5871
62
254
0
LINE
8
Modules
10
25.7899
20
65.002
11
28.3562
21
62.7235
62
254
0
LINE
8
Modules
10
28.3562
20
62.7235
11
25.327
21
59.3117
62
254
0
LINE
8
Modules
10
25.327
20
59.3117
11
22.7608
21
61.5902
62
254
0
LINE
8
Modules
10
22.7608
20
61.5902
11
25.7899
21
65.002
62
254
0
LINE
8
Modules
10
28.8218
20
68.4168
11
31.388
21
66.1383
62
254
0
LINE
8
Modules
10
31.388
20
66.1383
11
28.3589
21
62.7265
62
254
0
LINE
8
Modules
10
28.3589
20
62.7265
11
25.7926
21
65.005
62
254
0
LINE
8
Modules
10
25.7926
20
65.005
11
28.8218
21
68.4168
62
254
0
LINE
8
Modules
10
31.8536
20
71.8316
11
34.4199
21
69.5531
62
254
0
LINE
8
Modules
10
34.4199
20
69.5531
11
31.3907
21
66.1414
62
254
0
LINE
8
Modules
10
31.3907
20
66.1414
11
28.8245
21
68.4198
62
254
0
LINE
8
Modules
10
28.8245
20
68.4198
11
31.8536
21
71.8316
62
254
0
LINE
8
Modules
10
1.99781
20
43.3792
11
4.56406
21
41.1008
62
254
0
LINE
8
Modules
10
4.56406
20
41.1008
11
1.53491
21
37.689
62
254
0
LINE
8
Modules
10
1.53491
20
37.689
11
-1.03134
21
39.9674
62
254
0
LINE
8
Modules
10
-1.03134
20
39.9674
11
1.99781
21
43.3792
62
254
0
LINE
8
Modules
10
5.02966
20
46.794
11
7.59591
21
44.5156
62
254
0
LINE
8
Modules
10
7.59591
20
44.5156
11
4.56676
21
41.1038
62
254
0
LINE
8
Modules
10
4.56676
20
41.1038
11
2.00051
21
43.3823
62
254
0
LINE
8
Modules
10
2.00051
20
43.3823
11
5.02966
21
46.794
62
254
0
LINE
8
Modules
10
8.06151
20
50.2089
11
10.6278
21
47.9304
62
254
0
LINE
8
Modules
10
10.6278
20
47.9304
11
7.59862
21
44.5186
62
254
0
LINE
8
Modules
10
7.59862
20
44.5186
11
5.03236
21
46.7971
62
254
0
LINE
8
Modules
10
5.03236
20
46.7971
11
8.06151
21
50.2089
62
254
0
LINE
8
Modules
10
11.0934
20
53.6237
11
13.6596
21
51.3452
62
254
0
LINE
8
Modules
10
13.6596
20
51.3452
11
10.6305
21
47.9334
62
254
0
LINE
8
Modules
10
10.6305
20
47.9334
11
8.06422
21
50.2119
62
254
0
LINE
8
Modules
10
8.06422
20
50.2119
11
11.0934
21
53.6237
62
254
0
LINE
8
Modules
10
14.1252
20
57.0385
11
16.6915
21
54.76
62
254
0
LINE
8
Modules
10
16.6915
20
54.76
11
13.6623
21
51.3483
62
254
0
LINE
8
Modules
10
13.6623
20
51.3483
11
11.0961
21
53.6267
62
254
0
LINE
8
Modules
10
11.0961
20
53.6267
11
14.1252
21
57.0385
62
254
0
LINE
8
Modules
10
17.1571
20
60.4533
11
19.7233
21
58.1749
62
254
0
LINE
8
Modules
10
19.7233
20
58.1749
11
16.6942
21
54.7631
62
254
0
LINE
8
Modules
10
16.6942
20
54.7631
11
14.1279
21
57.0415
62
254
0
LINE
8
Modules
10
14.1279
20
57.0415
11
17.1571
21
60.4533
62
254
0
LINE
8
Modules
10
20.1889
20
63.8681
11
22.7552
21
61.5897
62
254
0
LINE
8
Modules
10
22.7552
20
61.5897
11
19.726
21
58.1779
62
254
0
LINE
8
Modules
10
19.726
20
58.1779
11
17.1598
21
60.4564
62
254
0
LINE
8
Modules
10
17.1598
20
60.4564
11
20.1889
21
63.8681
62
254
0
LINE
8
Modules
10
23.2208
20
67.283
11
25.787
21
65.0045
62
254
0
LINE
8
Modules
10
25.787
20
65.0045
11
22.7579
21
61.5927
62
254
0
LINE
8
Modules
10
22.7579
20
61.5927
11
20.1916
21
63.8712
62
254
0
LINE
8
Modules
10
20.1916
20
63.8712
11
23.2208
21
67.283
62
254
0
LINE
8
Modules
10
26.2526
20
70.6978
11
28.8189
21
68.4193
62
254
0
LINE
8
Modules
10
28.8189
20
68.4193
11
25.7897
21
65.0075
62
254
0
LINE
8
Modules
10
25.7897
20
65.0075
11
23.2235
21
67.286
62
254
0
LINE
8
Modules
10
23.2235
20
67.286
11
26.2526
21
70.6978
62
254
0
LINE
8
Modules
10
29.2845
20
74.1126
11
31.8507
21
71.8341
62
254
0
LINE
8
Modules
10
31.8507
20
71.8341
11
28.8216
21
68.4224
62
254
0
LINE
8
Modules
10
28.8216
20
68.4224
11
26.2553
21
70.7008
62
254
0
LINE
8
Modules
10
26.2553
20
70.7008
11
29.2845
21
74.1126
62
254
0
LINE
8
Modules
10
-3.60317
20
42.2454
11
-1.03692
21
39.9669
62
254
0
LINE
8
Modules
10
-1.03692
20
39.9669
11
-4.06607
21
36.5552
62
254
0
LINE
8
Modules
10
-4.06607
20
36.5552
11
-6.63232
21
38.8336
62
254
0
LINE
8
Modules
10
-6.63232
20
38.8336
11
-3.60317
21
42.2454
62
254
0
LINE
8
Modules
10
-0.57132
20
45.6602
11
1.99493
21
43.3818
62
254
0
LINE
8
Modules
10
1.99493
20
43.3818
11
-1.03422
21
39.97
62
254
0
LINE
8
Modules
10
-1.03422
20
39.97
11
-3.60047
21
42.2484
62
254
0
LINE
8
Modules
10
-3.60047
20
42.2484
11
-0.57132
21
45.6602
62
254
0
LINE
8
Modules
10
2.46053
20
49.075
11
5.02678
21
46.7966
62
254
0
LINE
8
Modules
10
5.02678
20
46.7966
11
1.99763
21
43.3848
62
254
0
LINE
8
Modules
10
1.99763
20
43.3848
11
-0.568617
21
45.6633
62
254
0
LINE
8
Modules
10
-0.568617
20
45.6633
11
2.46053
21
49.075
62
254
0
LINE
8
Modules
10
5.49238
20
52.4899
11
8.05864
21
50.2114
62
254
0
LINE
8
Modules
10
8.05864
20
50.2114
11
5.02949
21
46.7996
62
254
0
LINE
8
Modules
10
5.02949
20
46.7996
11
2.46324
21
49.0781
62
254
0
LINE
8
Modules
10
2.46324
20
49.0781
11
5.49238
21
52.4899
62
254
0
LINE
8
Modules
10
8.52424
20
55.9047
11
11.0905
21
53.6262
62
254
0
LINE
8
Modules
10
11.0905
20
53.6262
11
8.06134
21
50.2144
62
254
0
LINE
8
Modules
10
8.06134
20
50.2144
11
5.49509
21
52.4929
62
254
0
LINE
8
Modules
10
5.49509
20
52.4929
11
8.52424
21
55.9047
62
254
0
LINE
8
Modules
10
11.5561
20
59.3195
11
14.1223
21
57.041
62
254
0
LINE
8
Modules
10
14.1223
20
57.041
11
11.0932
21
53.6293
62
254
0
LINE
8
Modules
10
11.0932
20
53.6293
11
8.52694
21
55.9077
62
254
0
LINE
8
Modules
10
8.52694
20
55.9077
11
11.5561
21
59.3195
62
254
0
LINE
8
Modules
10
14.5879
20
62.7343
11
17.1542
21
60.4559
62
254
0
LINE
8
Modules
10
17.1542
20
60.4559
11
14.125
21
57.0441
62
254
0
LINE
8
Modules
10
14.125
20
57.0441
11
11.5588
21
59.3225
62
254
0
LINE
8
Modules
10
11.5588
20
59.3225
11
14.5879
21
62.7343
62
254
0
LINE
8
Modules
10
17.6198
20
66.1491
11
20.186
21
63.8707
62
254
0
LINE
8
Modules
10
20.186
20
63.8707
11
17.1569
21
60.4589
62
254
0
LINE
8
Modules
10
17.1569
20
60.4589
11
14.5906
21
62.7374
62
254
0
LINE
8
Modules
10
14.5906
20
62.7374
11
17.6198
21
66.1491
62
254
0
LINE
8
Modules
10
20.6516
20
69.564
11
23.2179
21
67.2855
62
254
0
LINE
8
Modules
10
23.2179
20
67.2855
11
20.1887
21
63.8737
62
254
0
LINE
8
Modules
10
20.1887
20
63.8737
11
17.6225
21
66.1522
62
254
0
LINE
8
Modules
10
17.6225
20
66.1522
11
20.6516
21
69.564
62
254
0
LINE
8
Modules
10
23.6835
20
72.9788
11
26.2497
21
70.7003
62
254
0
LINE
8
Modules
10
26.2497
20
70.7003
11
23.2206
21
67.2885
62
254
0
LINE
8
Modules
10
23.2206
20
67.2885
11
20.6543
21
69.567
62
254
0
LINE
8
Modules
10
20.6543
20
69.567
11
23.6835
21
72.9788
62
254
0
LINE
8
Modules
10
26.7153
20
76.3936
11
29.2816
21
74.1151
62
254
0
LINE
8
Modules
10
29.2816
20
74.1151
11
26.2524
21
70.7034
62
254
0
LINE
8
Modules
10
26.2524
20
70.7034
11
23.6862
21
72.9818
62
254
0
LINE
8
Modules
10
23.6862
20
72.9818
11
26.7153
21
76.3936
62
254
0
LINE
8
Modules
10
-6.1723
20
44.5264
11
-3.60605
21
42.2479
62
254
0
LINE
8
Modules
10
-3.60605
20
42.2479
11
-6.6352
21
38.8362
62
254
0
LINE
8
Modules
10
-6.6352
20
38.8362
11
-9.20145
21
41.1146
62
254
0
LINE
8
Modules
10
-9.20145
20
41.1146
11
-6.1723
21
44.5264
62
254
0
LINE
8
Modules
10
-3.14045
20
47.9412
11
-0.574197
21
45.6628
62
254
0
LINE
8
Modules
10
-0.574197
20
45.6628
11
-3.60335
21
42.251
62
254
0
LINE
8
Modules
10
-3.60335
20
42.251
11
-6.1696
21
44.5294
62
254
0
LINE
8
Modules
10
-6.1696
20
44.5294
11
-3.14045
21
47.9412
62
254
0
LINE
8
Modules
10
-0.108597
20
51.356
11
2.45765
21
49.0776
62
254
0
LINE
8
Modules
10
2.45765
20
49.0776
11
-0.571494
21
45.6658
62
254
0
LINE
8
Modules
10
-0.571494
20
45.6658
11
-3.13775
21
47.9443
62
254
0
LINE
8
Modules
10
-3.13775
20
47.9443
11
-0.108597
21
51.356
62
254
0
LINE
8
Modules
10
2.92325
20
54.7709
11
5.48951
21
52.4924
62
254
0
LINE
8
Modules
10
5.48951
20
52.4924
11
2.46036
21
49.0806
62
254
0
LINE
8
Modules
10
2.46036
20
49.0806
11
-0.105894
21
51.3591
62
254
0
LINE
8
Modules
10
-0.105894
20
51.3591
11
2.92325
21
54.7709
62
254
0
LINE
8
Modules
10
5.95511
20
58.1857
11
8.52136
21
55.9072
62
254
0
LINE
8
Modules
10
8.52136
20
55.9072
11
5.49221
21
52.4954
62
254
0
LINE
8
Modules
10
5.49221
20
52.4954
11
2.92596
21
54.7739
62
254
0
LINE
8
Modules
10
2.92596
20
54.7739
11
5.95511
21
58.1857
62
254
0
LINE
8
Modules
10
8.98696
20
61.6005
11
11.5532
21
59.322
62
254
0
LINE
8
Modules
10
11.5532
20
59.322
11
8.52406
21
55.9103
62
254
0
LINE
8
Modules
10
8.52406
20
55.9103
11
5.95781
21
58.1887
62
254
0
LINE
8
Modules
10
5.95781
20
58.1887
11
8.98696
21
61.6005
62
254
0
LINE
8
Modules
10
12.0188
20
65.0153
11
14.5851
21
62.7369
62
254
0
LINE
8
Modules
10
14.5851
20
62.7369
11
11.5559
21
59.3251
62
254
0
LINE
8
Modules
10
11.5559
20
59.3251
11
8.98966
21
61.6035
62
254
0
LINE
8
Modules
10
8.98966
20
61.6035
11
12.0188
21
65.0153
62
254
0
LINE
8
Modules
10
15.0507
20
68.4301
11
17.6169
21
66.1517
62
254
0
LINE
8
Modules
10
17.6169
20
66.1517
11
14.5878
21
62.7399
62
254
0
LINE
8
Modules
10
14.5878
20
62.7399
11
12.0215
21
65.0184
62
254
0
LINE
8
Modules
10
12.0215
20
65.0184
11
15.0507
21
68.4301
62
254
0
LINE
8
Modules
10
18.0825
20
71.845
11
20.6488
21
69.5665
62
254
0
LINE
8
Modules
10
20.6488
20
69.5665
11
17.6196
21
66.1547
62
254
0
LINE
8
Modules
10
17.6196
20
66.1547
11
15.0534
21
68.4332
62
254
0
LINE
8
Modules
10
15.0534
20
68.4332
11
18.0825
21
71.845
62
254
0
LINE
8
Modules
10
21.1144
20
75.2598
11
23.6806
21
72.9813
62
254
0
LINE
8
Modules
10
23.6806
20
72.9813
11
20.6515
21
69.5695
62
254
0
LINE
8
Modules
10
20.6515
20
69.5695
11
18.0852
21
71.848
62
254
0
LINE
8
Modules
10
18.0852
20
71.848
11
21.1144
21
75.2598
62
254
0
LINE
8
Modules
10
24.1462
20
78.6746
11
26.7125
21
76.3961
62
254
0
LINE
8
Modules
10
26.7125
20
76.3961
11
23.6833
21
72.9844
62
254
0
LINE
8
Modules
10
23.6833
20
72.9844
11
21.1171
21
75.2628
62
254
0
LINE
8
Modules
10
21.1171
20
75.2628
11
24.1462
21
78.6746
62
254
0
LINE
8
Modules
10
-2.67773
20
53.637
11
-0.111474
21
51.3586
62
254
0
LINE
8
Modules
10
-0.111474
20
51.3586
11
-3.14062
21
47.9468
62
254
0
LINE
8
Modules
10
-3.14062
20
47.9468
11
-5.70687
21
50.2253
62
254
0
LINE
8
Modules
10
-5.70687
20
50.2253
11
-2.67773
21
53.637
62
254
0
LINE
8
Modules
10
0.354126
20
57.0519
11
2.92038
21
54.7734
62
254
0
LINE
8
Modules
10
2.92038
20
54.7734
11
-0.108771
21
51.3616
62
254
0
LINE
8
Modules
10
-0.108771
20
51.3616
11
-2.67502
21
53.6401
62
254
0
LINE
8
Modules
10
-2.67502
20
53.6401
11
0.354126
21
57.0519
62
254
0
LINE
8
Modules
10
3.38598
20
60.4667
11
5.95223
21
58.1882
62
254
0
LINE
8
Modules
10
5.95223
20
58.1882
11
2.92308
21
54.7764
62
254
0
LINE
8
Modules
10
2.92308
20
54.7764
11
0.356829
21
57.0549
62
254
0
LINE
8
Modules
10
0.356829
20
57.0549
11
3.38598
21
60.4667
62
254
0
LINE
8
Modules
10
6.41783
20
63.8815
11
8.98408
21
61.603
62
254
0
LINE
8
Modules
10
8.98408
20
61.603
11
5.95493
21
58.1913
62
254
0
LINE
8
Modules
10
5.95493
20
58.1913
11
3.38868
21
60.4697
62
254
0
LINE
8
Modules
10
3.38868
20
60.4697
11
6.41783
21
63.8815
62
254
0
LINE
8
Modules
10
9.44968
20
67.2963
11
12.0159
21
65.0179
62
254
0
LINE
8
Modules
10
12.0159
20
65.0179
11
8.98678
21
61.6061
62
254
0
LINE
8
Modules
10
8.98678
20
61.6061
11
6.42053
21
63.8845
62
254
0
LINE
8
Modules
10
6.42053
20
63.8845
11
9.44968
21
67.2963
62
254
0
LINE
8
Modules
10
12.4815
20
70.7111
11
15.0478
21
68.4327
62
254
0
LINE
8
Modules
10
15.0478
20
68.4327
11
12.0186
21
65.0209
62
254
0
LINE
8
Modules
10
12.0186
20
65.0209
11
9.45238
21
67.2994
62
254
0
LINE
8
Modules
10
9.45238
20
67.2994
11
12.4815
21
70.7111
62
254
0
LINE
8
Modules
10
15.5134
20
74.126
11
18.0796
21
71.8475
62
254
0
LINE
8
Modules
10
18.0796
20
71.8475
11
15.0505
21
68.4357
62
254
0
LINE
8
Modules
10
15.0505
20
68.4357
11
12.4842
21
70.7142
62
254
0
LINE
8
Modules
10
12.4842
20
70.7142
11
15.5134
21
74.126
62
254
0
LINE
8
Modules
10
18.5452
20
77.5408
11
21.1115
21
75.2623
62
254
0
LINE
8
Modules
10
21.1115
20
75.2623
11
18.0823
21
71.8505
62
254
0
LINE
8
Modules
10
18.0823
20
71.8505
11
15.5161
21
74.129
62
254
0
LINE
8
Modules
10
15.5161
20
74.129
11
18.5452
21
77.5408
62
254
0
LINE
8
Modules
10
21.5771
20
80.9556
11
24.1433
21
78.6771
62
254
0
LINE
8
Modules
10
24.1433
20
78.6771
11
21.1142
21
75.2654
62
254
0
LINE
8
Modules
10
21.1142
20
75.2654
11
18.5479
21
77.5438
62
254
0
LINE
8
Modules
10
18.5479
20
77.5438
11
21.5771
21
80.9556
62
254
0
LINE
8
Modules
10
6.88055
20
69.5773
11
9.4468
21
67.2989
62
254
0
LINE
8
Modules
10
9.4468
20
67.2989
11
6.41766
21
63.8871
62
254
0
LINE
8
Modules
10
6.41766
20
63.8871
11
3.8514
21
66.1655
62
254
0
LINE
8
Modules
10
3.8514
20
66.1655
11
6.88055
21
69.5773
62
254
0
LINE
8
Modules
10
9.9124
20
72.9921
11
12.4787
21
70.7137
62
254
0
LINE
8
Modules
10
12.4787
20
70.7137
11
9.44951
21
67.3019
62
254
0
LINE
8
Modules
10
9.44951
20
67.3019
11
6.88326
21
69.5804
62
254
0
LINE
8
Modules
10
6.88326
20
69.5804
11
9.9124
21
72.9921
62
254
0
LINE
8
Modules
10
12.9443
20
76.407
11
15.5105
21
74.1285
62
254
0
LINE
8
Modules
10
15.5105
20
74.1285
11
12.4814
21
70.7167
62
254
0
LINE
8
Modules
10
12.4814
20
70.7167
11
9.91511
21
72.9952
62
254
0
LINE
8
Modules
10
9.91511
20
72.9952
11
12.9443
21
76.407
62
254
0
LINE
8
Modules
10
15.9761
20
79.8218
11
18.5424
21
77.5433
62
254
0
LINE
8
Modules
10
18.5424
20
77.5433
11
15.5132
21
74.1315
62
254
0
LINE
8
Modules
10
15.5132
20
74.1315
11
12.947
21
76.41
62
254
0
LINE
8
Modules
10
12.947
20
76.41
11
15.9761
21
79.8218
62
254
0
LINE
8
Modules
10
19.008
20
83.2366
11
21.5742
21
80.9581
62
254
0
LINE
8
Modules
10
21.5742
20
80.9581
11
18.5451
21
77.5464
62
254
0
LINE
8
Modules
10
18.5451
20
77.5464
11
15.9788
21
79.8248
62
254
0
LINE
8
Modules
10
15.9788
20
79.8248
11
19.008
21
83.2366
62
254
0
LINE
8
Modules
10
13.407
20
82.1028
11
15.9732
21
79.8243
62
254
0
LINE
8
Modules
10
15.9732
20
79.8243
11
12.9441
21
76.4125
62
254
0
LINE
8
Modules
10
12.9441
20
76.4125
11
10.3778
21
78.691
62
254
0
LINE
8
Modules
10
10.3778
20
78.691
11
13.407
21
82.1028
62
254
0
LINE
8
Modules
10
16.4388
20
85.5176
11
19.0051
21
83.2391
62
254
0
LINE
8
Modules
10
19.0051
20
83.2391
11
15.9759
21
79.8274
62
254
0
LINE
8
Modules
10
15.9759
20
79.8274
11
13.4097
21
82.1058
62
254
0
LINE
8
Modules
10
13.4097
20
82.1058
11
16.4388
21
85.5176
62
254
0
LINE
8
Roofs
10
-14.1551
20
35.1964
11
69.2452
21
38.7646
62
252
0
LINE
8
Roofs
10
69.2452
20
38.7646
11
69.7563
21
15.5584
62
252
0
LINE
8
Roofs
10
69.7563
20
15.5584
11
-14.1551
21
35.1964
62
252
0
LINE
8
Setbacks
10
-14.1551
20
35.1964
11
69.2452
21
38.7646
62
2
0
LINE
8
Setbacks
10
69.2452
20
38.7646
11
69.7563
21
15.5584
62
2
0
LINE
8
Setbacks
10
69.7563
20
15.5584
11
-14.1551
21
35.1964
62
2
0
LINE
8
Roofs
10
-14.1551
20
35.1964
11
69.7563
21
15.5584
62
252
0
LINE
8
Roofs
10
69.7563
20
15.5584
11
58.2796
21
-7.14008
62
252
0
LINE
8
Roofs
10
58.2796
20
-7.14008
11
-14.1551
21
35.1964
62
252
0
LINE
8
Setbacks
10
-14.1551
20
35.1964
11
69.7563
21
15.5584
62
2
0
LINE
8
Setbacks
10
69.7563
20
15.5584
11
58.2796
21
-7.14008
62
2
0
LINE
8
Setbacks
10
58.2796
20
-7.14008
11
-14.1551
21
35.1964
62
2
0
LINE
8
Roofs
10
-14.1551
20
35.1964
11
58.2796
21
-7.14008
62
252
0
LINE
8
Roofs
10
58.2796
20
-7.14008
11
30.4774
21
-21.1682
62
252
0
LINE
8
Roofs
10
30.4774
20
-21.1682
11
-14.1551
21
35.1964
62
252
0
LINE
8
Setbacks
10
-14.1551
20
35.1964
11
58.2796
21
-7.14008
62
2
0
LINE
8
Setbacks
10
58.2796
20
-7.14008
11
30.4774
21
-21.1682
62
2
0
LINE
8
Setbacks
10
30.4774
20
-21.1682
11
-14.1551
21
35.1964
62
2
0
LINE
8
Roofs
10
-14.1551
20
35.1964
11
30.4774
21
-21.1682
62
252
0
LINE
8
Roofs
10
30.4774
20
-21.1682
11
-8.54288
21
-21.9352
62
252
0
LINE
8
Roofs
10
-8.54288
20
-21.9352
11
-14.1551
21
35.1964
62
252
0
LINE
8
Setbacks
10
-14.1551
20
35.1964
11
30.4774
21
-21.1682
62
2
0
LINE
8
Setbacks
10
30.4774
20
-21.1682
11
-8.54288
21
-21.9352
62
2
0
LINE
8
Setbacks
10
-8.54288
20
-21.9352
11
-14.1551
21
35.1964
62
2
0
LINE
8
Roofs
10
-14.1551
20
35.1964
11
-8.54288
21
-21.9352
62
252
0
LINE
8
Roofs
10
-8.54288
20
-21.9352
11
-49.6042
21
-17.0887
62
252
0
LINE
8
Roofs
10
-49.6042
20
-17.0887
11
-14.1551
21
35.1964
62
252
0
LINE
8
Setbacks
10
-14.1551
20
35.1964
11
-8.54288
21
-21.9352
62
2
0
LINE
8
Setbacks
10
-8.54288
20
-21.9352
11
-49.6042
21
-17.0887
62
2
0
LINE
8
Setbacks
10
-49.6042
20
-17.0887
11
-14.1551
21
35.1964
62
2
0
LINE
8
Roofs
10
-14.1551
20
35.1964
11
-49.6042
21
-17.0887
62
252
0
LINE
8
Roofs
10
-49.6042
20
-17.0887
11
-77.4033
21
4.07952
62
252
0
LINE
8
Roofs
10
-77.4033
20
4.07952
11
-14.1551
21
35.1964
62
252
0
LINE
8
Setbacks
10
-14.1551
20
35.1964
11
-49.6042
21
-17.0887
62
2
0
LINE
8
Setbacks
10
-49.6042
20
-17.0887
11
-77.4033
21
4.07952
62
2
0
LINE
8
Setbacks
10
-77.4033
20
4.07952
11
-14.1551
21
35.1964
62
2
0
LINE
8
Roofs
10
-14.1551
20
35.1964
11
-77.4033
21
4.07952
62
252
0
LINE
8
Roofs
10
-77.4033
20
4.07952
11
-91.94
21
31.1132
62
252
0
LINE
8
Roofs
10
-91.94
20
31.1132
11
-14.1551
21
35.1964
62
252
0
LINE
8
Setbacks
10
-14.1551
20
35.1964
11
-77.4033
21
4.07952
62
2
0
LINE
8
Setbacks
10
-77.4033
20
4.07952
11
-91.94
21
31.1132
62
2
0
LINE
8
Setbacks
10
-91.94
20
31.1132
11
-14.1551
21
35.1964
62
2
0
LINE
8
Roofs
10
-14.1551
20
35.1964
11
-91.94
21
31.1132
62
252
0
LINE
8
Roofs
10
-91.94
20
31.1132
11
-86.5865
21
57.3836
62
252
0
LINE
8
Roofs
10
-86.5865
20
57.3836
11
-14.1551
21
35.1964
62
252
0
LINE
8
Setbacks
10
-14.1551
20
35.1964
11
-91.94
21
31.1132
62
2
0
LINE
8
Setbacks
10
-91.94
20
31.1132
11
-86.5865
21
57.3836
62
2
0
LINE
8
Setbacks
10
-86.5865
20
57.3836
11
-14.1551
21
35.1964
62
2
0
LINE
8
Roofs
10
-14.1551
20
35.1964
11
-86.5865
21
57.3836
62
252
0
LINE
8
Roofs
10
-86.5865
20
57.3836
11
-72.3021
21
77.7885
62
252
0
LINE
8
Roofs
10
-72.3021
20
77.7885
11
-14.1551
21
35.1964
62
252
0
LINE
8
Setbacks
10
-14.1551
20
35.1964
11
-86.5865
21
57.3836
62
2
0
LINE
8
Setbacks
10
-86.5865
20
57.3836
11
-72.3021
21
77.7885
62
2
0
LINE
8
Setbacks
10
-72.3021
20
77.7885
11
-14.1551
21
35.1964
62
2
0
LINE
8
Roofs
10
-14.1551
20
35.1964
11
-72.3021
21
77.7885
62
252
0
LINE
8
Roofs
10
-72.3021
20
77.7885
11
-46.7997
21
89.2638
62
252
0
LINE
8
Roofs
10
-46.7997
20
89.2638
11
-14.1551
21
35.1964
62
252
0
LINE
8
Setbacks
10
-14.1551
20
35.1964
11
-72.3021
21
77.7885
62
2
0
LINE
8
Setbacks
10
-72.3021
20
77.7885
11
-46.7997
21
89.2638
62
2
0
LINE
8
Setbacks
10
-46.7997
20
89.2638
11
-14.1551
21
35.1964
62
2
0
LINE
8
Roofs
10
-14.1551
20
35.1964
11
-46.7997
21
89.2638
62
252
0
LINE
8
Roofs
10
-46.7997
20
89.2638
11
14.6661
21
87.2222
62
252
0
LINE
8
Roofs
10
14.6661
20
87.2222
11
-14.1551
21
35.1964
62
252
0
LINE
8
Setbacks
10
-14.1551
20
35.1964
11
-46.7997
21
89.2638
62
2
0
LINE
8
Setbacks
10
-46.7997
20
89.2638
11
14.6661
21
87.2222
62
2
0
LINE
8
Setbacks
10
14.6661
20
87.2222
11
-14.1551
21
35.1964
62
2
0
LINE
8
Roofs
10
-14.1551
20
35.1964
11
14.6661
21
87.2222
62
252
0
LINE
8
Roofs
10
14.6661
20
87.2222
11
69.2452
21
38.7646
62
252
0
LINE
8
Roofs
10
69.2452
20
38.7646
11
-14.1551
21
35.1964
62
252
0
LINE
8
Setbacks
10
-14.1551
20
35.1964
11
14.6661
21
87.2222
62
2
0
LINE
8
Setbacks
10
14.6661
20
87.2222
11
69.2452
21
38.7646
62
2
0
LINE
8
Setbacks
10
69.2452
20
38.7646
11
-14.1551
21
35.1964
62
2
0
ENDSEC
0
EOF