999
Design created by Aurora
0
SECTION
2
HEADER
9
$ACADVER
1
AC1009
0
ENDSEC
0
SECTION
2
TABLES
0
TABLE
2
LTYPE
100
AcDbLinetypeTableRecord
2
LTYPE
0
LTYPE
2
DASHED
70
0
3

72
65
73
1
40
0.0
0
ENDTAB
0
TABLE
2
LAYER
70
1
0
LAYER
100
AcDbSymbolTable
100
AcDbLayerTable
2
1
70
0
62
7
6
CONTINUOUS
0
ENDTAB
0
ENDSEC
0
SECTION
2
ENTITIES
0
LINE
8
Modules
10
-9.62987
20
15.28
11
-12.2787
21
17.4619
62
254
0
LINE
8
Modules
10
-12.2787
20
17.4619
11
-9.4596
21
20.8843
62
254
0
LINE
8
Modules
10
-9.4596
20
20.8843
11
-6.81078
21
18.7024
62
254
0
LINE
8
Modules
10
-6.81078
20
18.7024
11
-9.62987
21
15.28
62
254
0
LINE
8
Modules
10
-6.98192
20
13.0959
11
-9.63075
21
15.2778
62
254
0
LINE
8
Modules
10
-9.63075
20
15.2778
11
-6.81165
21
18.7002
62
254
0
LINE
8
Modules
10
-6.81165
20
18.7002
11
-4.16283
21
16.5183
62
254
0
LINE
8
Modules
10
-4.16283
20
16.5183
11
-6.98192
21
13.0959
62
254
0
LINE
8
Modules
10
-4.33397
20
10.9156
11
-6.9828
21
13.0975
62
254
0
LINE
8
Modules
10
-6.9828
20
13.0975
11
-4.1637
21
16.5199
62
254
0
LINE
8
Modules
10
-4.1637
20
16.5199
11
-1.51487
21
14.338
62
254
0
LINE
8
Modules
10
-1.51487
20
14.338
11
-4.33397
21
10.9156
62
254
0
LINE
8
Modules
10
-1.68313
20
8.7352
11
-4.33196
21
10.9171
62
254
0
LINE
8
Modules
10
-4.33196
20
10.9171
11
-1.51287
21
14.3395
62
254
0
LINE
8
Modules
10
-1.51287
20
14.3395
11
1.13596
21
12.1576
62
254
0
LINE
8
Modules
10
1.13596
20
12.1576
11
-1.68313
21
8.7352
62
254
0
LINE
8
Modules
10
-12.4942
20
11.8031
11
-15.143
21
13.985
62
254
0
LINE
8
Modules
10
-15.143
20
13.985
11
-12.3239
21
17.4073
62
254
0
LINE
8
Modules
10
-12.3239
20
17.4073
11
-9.67506
21
15.2254
62
254
0
LINE
8
Modules
10
-9.67506
20
15.2254
11
-12.4942
21
11.8031
62
254
0
LINE
8
Modules
10
-9.84621
20
9.61904
11
-12.495
21
11.8009
62
254
0
LINE
8
Modules
10
-12.495
20
11.8009
11
-9.67594
21
15.2233
62
254
0
LINE
8
Modules
10
-9.67594
20
15.2233
11
-7.02711
21
13.0414
62
254
0
LINE
8
Modules
10
-7.02711
20
13.0414
11
-9.84621
21
9.61904
62
254
0
LINE
8
Modules
10
-7.19826
20
7.43867
11
-9.84708
21
9.62057
62
254
0
LINE
8
Modules
10
-9.84708
20
9.62057
11
-7.02799
21
13.043
62
254
0
LINE
8
Modules
10
-7.02799
20
13.043
11
-4.37916
21
10.8611
62
254
0
LINE
8
Modules
10
-4.37916
20
10.8611
11
-7.19826
21
7.43867
62
254
0
LINE
8
Modules
10
-4.55031
20
5.25464
11
-7.19913
21
7.43654
62
254
0
LINE
8
Modules
10
-7.19913
20
7.43654
11
-4.38004
21
10.8589
62
254
0
LINE
8
Modules
10
-4.38004
20
10.8589
11
-1.73121
21
8.67703
62
254
0
LINE
8
Modules
10
-1.73121
20
8.67703
11
-4.55031
21
5.25464
62
254
0
LINE
8
Modules
10
4.64608
20
21.8164
11
7.29491
21
19.6345
62
254
0
LINE
8
Modules
10
7.29491
20
19.6345
11
4.48041
21
16.2177
62
254
0
LINE
8
Modules
10
4.48041
20
16.2177
11
1.83158
21
18.3996
62
254
0
LINE
8
Modules
10
1.83158
20
18.3996
11
4.64608
21
21.8164
62
254
0
LINE
8
Modules
10
1.99524
20
24.0005
11
4.64407
21
21.8186
62
254
0
LINE
8
Modules
10
4.64407
20
21.8186
11
1.82957
21
18.4018
62
254
0
LINE
8
Modules
10
1.82957
20
18.4018
11
-0.819254
21
20.5837
62
254
0
LINE
8
Modules
10
-0.819254
20
20.5837
11
1.99524
21
24.0005
62
254
0
LINE
8
Modules
10
-0.652707
20
26.1808
11
1.99612
21
23.9989
62
254
0
LINE
8
Modules
10
1.99612
20
23.9989
11
-0.818377
21
20.5821
62
254
0
LINE
8
Modules
10
-0.818377
20
20.5821
11
-3.4672
21
22.764
62
254
0
LINE
8
Modules
10
-3.4672
20
22.764
11
-0.652707
21
26.1808
62
254
0
LINE
8
Modules
10
-3.30066
20
28.3612
11
-0.65183
21
26.1793
62
254
0
LINE
8
Modules
10
-0.65183
20
26.1793
11
-3.46633
21
22.7625
62
254
0
LINE
8
Modules
10
-3.46633
20
22.7625
11
-6.11515
21
24.9444
62
254
0
LINE
8
Modules
10
-6.11515
20
24.9444
11
-3.30066
21
28.3612
62
254
0
LINE
8
Modules
10
7.50748
20
25.2897
11
10.1563
21
23.1078
62
254
0
LINE
8
Modules
10
10.1563
20
23.1078
11
7.34181
21
19.691
62
254
0
LINE
8
Modules
10
7.34181
20
19.691
11
4.69298
21
21.8729
62
254
0
LINE
8
Modules
10
4.69298
20
21.8729
11
7.50748
21
25.2897
62
254
0
LINE
8
Modules
10
4.85665
20
27.4737
11
7.50547
21
25.2918
62
254
0
LINE
8
Modules
10
7.50547
20
25.2918
11
4.69098
21
21.875
62
254
0
LINE
8
Modules
10
4.69098
20
21.875
11
2.04215
21
24.0569
62
254
0
LINE
8
Modules
10
2.04215
20
24.0569
11
4.85665
21
27.4737
62
254
0
LINE
8
Modules
10
2.2087
20
29.6541
11
4.85752
21
27.4722
62
254
0
LINE
8
Modules
10
4.85752
20
27.4722
11
2.04302
21
24.0554
62
254
0
LINE
8
Modules
10
2.04302
20
24.0554
11
-0.605802
21
26.2373
62
254
0
LINE
8
Modules
10
-0.605802
20
26.2373
11
2.2087
21
29.6541
62
254
0
LINE
8
Modules
10
-0.439255
20
31.8345
11
2.20957
21
29.6526
62
254
0
LINE
8
Modules
10
2.20957
20
29.6526
11
-0.604926
21
26.2358
62
254
0
LINE
8
Modules
10
-0.604926
20
26.2358
11
-3.25375
21
28.4177
62
254
0
LINE
8
Modules
10
-3.25375
20
28.4177
11
-0.439255
21
31.8345
62
254
0
LINE
8
Modules
10
14.3309
20
12.7399
11
16.974
21
10.551
62
254
0
LINE
8
Modules
10
16.974
20
10.551
11
14.1274
21
7.11358
62
254
0
LINE
8
Modules
10
14.1274
20
7.11358
11
11.4843
21
9.3024
62
254
0
LINE
8
Modules
10
11.4843
20
9.3024
11
14.3309
21
12.7399
62
254
0
LINE
8
Modules
10
11.6887
20
14.9312
11
14.3318
21
12.7424
62
254
0
LINE
8
Modules
10
14.3318
20
12.7424
11
11.4852
21
9.30491
62
254
0
LINE
8
Modules
10
11.4852
20
9.30491
11
8.84207
21
11.4937
62
254
0
LINE
8
Modules
10
8.84207
20
11.4937
11
11.6887
21
14.9312
62
254
0
LINE
8
Modules
10
5.24922
20
1.76972
11
2.60611
21
3.95854
62
254
0
LINE
8
Modules
10
2.60611
20
3.95854
11
5.41758
21
7.35351
62
254
0
LINE
8
Modules
10
5.41758
20
7.35351
11
8.06068
21
5.16469
62
254
0
LINE
8
Modules
10
8.06068
20
5.16469
11
5.24922
21
1.76972
62
254
0
LINE
8
Modules
10
7.8914
20
-0.421611
11
5.2483
21
1.76721
62
254
0
LINE
8
Modules
10
5.2483
20
1.76721
11
8.05976
21
5.16219
62
254
0
LINE
8
Modules
10
8.05976
20
5.16219
11
10.7029
21
2.97336
62
254
0
LINE
8
Modules
10
10.7029
20
2.97336
11
7.8914
21
-0.421611
62
254
0
LINE
8
Modules
10
10.5365
20
-2.60929
11
7.89336
21
-0.420464
62
254
0
LINE
8
Modules
10
7.89336
20
-0.420464
11
10.7048
21
2.97451
62
254
0
LINE
8
Modules
10
10.7048
20
2.97451
11
13.3479
21
0.785685
62
254
0
LINE
8
Modules
10
13.3479
20
0.785685
11
10.5365
21
-2.60929
62
254
0
LINE
8
Modules
10
19.3145
20
-10.6178
11
16.664
21
-8.43792
62
254
0
LINE
8
Modules
10
16.664
20
-8.43792
11
19.8106
21
-4.61194
62
254
0
LINE
8
Modules
10
19.8106
20
-4.61194
11
22.4611
21
-6.79181
62
254
0
LINE
8
Modules
10
22.4611
20
-6.79181
11
19.3145
21
-10.6178
62
254
0
LINE
8
Modules
10
21.9653
20
-12.7982
11
19.3148
21
-10.6183
62
254
0
LINE
8
Modules
10
19.3148
20
-10.6183
11
22.4614
21
-6.79231
62
254
0
LINE
8
Modules
10
22.4614
20
-6.79231
11
25.1119
21
-8.97218
62
254
0
LINE
8
Modules
10
25.1119
20
-8.97218
11
21.9653
21
-12.7982
62
254
0
LINE
8
Modules
10
2.3907
20
-1.68163
11
-0.252403
21
0.507199
62
254
0
LINE
8
Modules
10
-0.252403
20
0.507199
11
2.55906
21
3.90217
62
254
0
LINE
8
Modules
10
2.55906
20
3.90217
11
5.20217
21
1.71335
62
254
0
LINE
8
Modules
10
5.20217
20
1.71335
11
2.3907
21
-1.68163
62
254
0
LINE
8
Modules
10
5.03289
20
-3.87295
11
2.38978
21
-1.68413
62
254
0
LINE
8
Modules
10
2.38978
20
-1.68413
11
5.20124
21
1.71084
62
254
0
LINE
8
Modules
10
5.20124
20
1.71084
11
7.84435
21
-0.477981
62
254
0
LINE
8
Modules
10
7.84435
20
-0.477981
11
5.03289
21
-3.87295
62
254
0
LINE
8
Modules
10
16.1098
20
-14.4672
11
13.4593
21
-12.2874
62
254
0
LINE
8
Modules
10
13.4593
20
-12.2874
11
16.6059
21
-8.46138
62
254
0
LINE
8
Modules
10
16.6059
20
-8.46138
11
19.2564
21
-10.6412
62
254
0
LINE
8
Modules
10
19.2564
20
-10.6412
11
16.1098
21
-14.4672
62
254
0
LINE
8
Modules
10
18.7606
20
-16.6476
11
16.1101
21
-14.4677
62
254
0
LINE
8
Modules
10
16.1101
20
-14.4677
11
19.2568
21
-10.6417
62
254
0
LINE
8
Modules
10
19.2568
20
-10.6417
11
21.9073
21
-12.8216
62
254
0
LINE
8
Modules
10
21.9073
20
-12.8216
11
18.7606
21
-16.6476
62
254
0
LINE
8
Modules
10
-0.464928
20
-5.12932
11
-3.10804
21
-2.94049
62
254
0
LINE
8
Modules
10
-3.10804
20
-2.94049
11
-0.296574
21
0.454481
62
254
0
LINE
8
Modules
10
-0.296574
20
0.454481
11
2.34653
21
-1.73434
62
254
0
LINE
8
Modules
10
2.34653
20
-1.73434
11
-0.464928
21
-5.12932
62
254
0
LINE
8
Modules
10
2.17725
20
-7.32064
11
-0.465854
21
-5.13182
62
254
0
LINE
8
Modules
10
-0.465854
20
-5.13182
11
2.34561
21
-1.73685
62
254
0
LINE
8
Modules
10
2.34561
20
-1.73685
11
4.98872
21
-3.92567
62
254
0
LINE
8
Modules
10
4.98872
20
-3.92567
11
2.17725
21
-7.32064
62
254
0
LINE
8
Modules
10
4.82232
20
-9.50832
11
2.17921
21
-7.3195
62
254
0
LINE
8
Modules
10
2.17921
20
-7.3195
11
4.99067
21
-3.92452
62
254
0
LINE
8
Modules
10
4.99067
20
-3.92452
11
7.63378
21
-6.11335
62
254
0
LINE
8
Modules
10
7.63378
20
-6.11335
11
4.82232
21
-9.50832
62
254
0
LINE
8
Modules
10
12.8734
20
-18.324
11
10.2229
21
-16.1441
62
254
0
LINE
8
Modules
10
10.2229
20
-16.1441
11
13.3696
21
-12.3181
62
254
0
LINE
8
Modules
10
13.3696
20
-12.3181
11
16.0201
21
-14.498
62
254
0
LINE
8
Modules
10
16.0201
20
-14.498
11
12.8734
21
-18.324
62
254
0
LINE
8
Modules
10
15.5243
20
-20.5007
11
12.8738
21
-18.3208
62
254
0
LINE
8
Modules
10
12.8738
20
-18.3208
11
16.0204
21
-14.4948
62
254
0
LINE
8
Modules
10
16.0204
20
-14.4948
11
18.6709
21
-16.6747
62
254
0
LINE
8
Modules
10
18.6709
20
-16.6747
11
15.5243
21
-20.5007
62
254
0
LINE
8
Modules
10
-12.2951
20
17.4713
11
-14.944
21
19.6532
62
254
0
LINE
8
Modules
10
-14.944
20
19.6532
11
-12.1249
21
23.0756
62
254
0
LINE
8
Modules
10
-12.1249
20
23.0756
11
-9.47603
21
20.8937
62
254
0
LINE
8
Modules
10
-9.47603
20
20.8937
11
-12.2951
21
17.4713
62
254
0
LINE
8
Modules
10
-15.145
20
14.0163
11
-17.7938
21
16.1982
62
254
0
LINE
8
Modules
10
-17.7938
20
16.1982
11
-14.9747
21
19.6206
62
254
0
LINE
8
Modules
10
-14.9747
20
19.6206
11
-12.3259
21
17.4387
62
254
0
LINE
8
Modules
10
-12.3259
20
17.4387
11
-15.145
21
14.0163
62
254
0
LINE
8
Modules
10
-5.93419
20
30.5379
11
-3.28536
21
28.356
62
254
0
LINE
8
Modules
10
-3.28536
20
28.356
11
-6.09986
21
24.9392
62
254
0
LINE
8
Modules
10
-6.09986
20
24.9392
11
-8.74868
21
27.1211
62
254
0
LINE
8
Modules
10
-8.74868
20
27.1211
11
-5.93419
21
30.5379
62
254
0
LINE
8
Modules
10
-3.09009
20
34.0477
11
-0.441263
21
31.8658
62
254
0
LINE
8
Modules
10
-0.441263
20
31.8658
11
-3.25576
21
28.449
62
254
0
LINE
8
Modules
10
-3.25576
20
28.449
11
-5.90459
21
30.6309
62
254
0
LINE
8
Modules
10
-5.90459
20
30.6309
11
-3.09009
21
34.0477
62
254
0
LINE
8
Modules
10
16.9731
20
10.5522
11
19.6162
21
8.36336
62
254
0
LINE
8
Modules
10
19.6162
20
8.36336
11
16.7695
21
4.9259
62
254
0
LINE
8
Modules
10
16.7695
20
4.9259
11
14.1264
21
7.11473
62
254
0
LINE
8
Modules
10
14.1264
20
7.11473
11
16.9731
21
10.5522
62
254
0
LINE
8
Modules
10
17.2442
20
16.246
11
19.8873
21
14.0572
62
254
0
LINE
8
Modules
10
19.8873
20
14.0572
11
17.0407
21
10.6197
62
254
0
LINE
8
Modules
10
17.0407
20
10.6197
11
14.3976
21
12.8085
62
254
0
LINE
8
Modules
10
14.3976
20
12.8085
11
17.2442
21
16.246
62
254
0
LINE
8
Modules
10
14.5992
20
18.4373
11
17.2423
21
16.2485
62
254
0
LINE
8
Modules
10
17.2423
20
16.2485
11
14.3956
21
12.811
62
254
0
LINE
8
Modules
10
14.3956
20
12.811
11
11.7525
21
14.9999
62
254
0
LINE
8
Modules
10
11.7525
20
14.9999
11
14.5992
21
18.4373
62
254
0
LINE
8
Modules
10
19.8864
20
14.0583
11
22.5295
21
11.8695
62
254
0
LINE
8
Modules
10
22.5295
20
11.8695
11
19.6829
21
8.43203
62
254
0
LINE
8
Modules
10
19.6829
20
8.43203
11
17.0398
21
10.6209
62
254
0
LINE
8
Modules
10
17.0398
20
10.6209
11
19.8864
21
14.0583
62
254
0
LINE
8
Buildings
10
14.7281
20
23.3523
11
27.815
21
12.5161
62
252
0
LINE
8
Buildings
10
27.815
20
12.5161
11
29.8976
21
15.0289
62
252
0
LINE
8
Buildings
10
29.8976
20
15.0289
11
43.9969
21
3.35273
62
252
0
LINE
8
Buildings
10
43.9969
20
3.35273
11
31.9716
21
-11.1685
62
252
0
LINE
8
Buildings
10
31.9716
20
-11.1685
11
4.78535
21
11.3474
62
252
0
LINE
8
Buildings
10
4.78535
20
11.3474
11
14.7281
21
23.3523
62
252
0
LINE
8
Setbacks
10
8.7665
20
11.451
11
17.0386
21
21.4387
62
2
0
LINE
8
Setbacks
10
41.6862
20
5.26593
11
31.3317
21
-7.23763
62
2
0
LINE
8
Setbacks
10
31.3317
20
-7.23763
11
8.7665
21
11.451
62
2
0
LINE
8
Buildings
10
25.0748
20
-19.4955
11
27.1458
21
-21.2121
62
252
0
LINE
8
Buildings
10
27.1458
20
-21.2121
11
19.3491
21
-30.6275
62
252
0
LINE
8
Buildings
10
19.3491
20
-30.6275
11
0.813423
21
-15.2809
62
252
0
LINE
8
Buildings
10
0.813423
20
-15.2809
11
3.5306
21
-11.9975
62
252
0
LINE
8
Buildings
10
3.5306
20
-11.9975
11
-7.19389
21
-3.11534
62
252
0
LINE
8
Buildings
10
-7.19389
20
-3.11534
11
4.78535
21
11.3474
62
252
0
LINE
8
Buildings
10
4.78535
20
11.3474
11
31.9716
21
-11.1685
62
252
0
LINE
8
Buildings
10
31.9716
20
-11.1685
11
25.0748
21
-19.4955
62
252
0
LINE
8
Setbacks
10
-4.88321
20
-5.02865
11
5.4456
21
7.44154
62
2
0
LINE
8
Setbacks
10
5.4456
20
7.44154
11
28.0109
21
-11.2473
62
2
0
LINE
8
Setbacks
10
28.0109
20
-11.2473
11
22.7645
21
-17.5817
62
2
0
LINE
8
Setbacks
10
22.7645
20
-17.5817
11
22.3677
21
-18.2911
62
2
0
LINE
8
Setbacks
10
22.3677
20
-18.2911
11
22.2358
21
-19.1183
62
2
0
LINE
8
Setbacks
10
22.2358
20
-19.1183
11
22.3818
21
-19.9825
62
2
0
LINE
8
Setbacks
10
22.3818
20
-19.9825
11
22.7914
21
-20.799
62
2
0
LINE
8
Setbacks
10
22.7914
20
-20.799
11
23.213
21
-21.2577
62
2
0
LINE
8
Setbacks
10
23.213
20
-21.2577
11
17.0387
21
-28.7138
62
2
0
LINE
8
Setbacks
10
17.0387
20
-28.7138
11
17.0386
21
-28.714
62
2
0
LINE
8
Buildings
10
8.05058
20
-11.2415
11
8.60151
21
-16.8988
62
252
0
LINE
8
Buildings
10
8.60151
20
-16.8988
11
15.0108
21
-22.1689
62
252
0
LINE
8
Buildings
10
15.0108
20
-22.1689
11
20.2779
21
-21.6576
62
252
0
LINE
8
Buildings
10
20.2779
20
-21.6576
11
29.5976
21
-10.3248
62
252
0
LINE
8
Buildings
10
29.5976
20
-10.3248
11
17.1944
21
-0.124175
62
252
0
LINE
8
Buildings
10
17.1944
20
-0.124175
11
8.05058
21
-11.2415
62
252
0
LINE
8
Setbacks
10
10.3676
20
-13.1472
11
19.5112
21
-2.03002
62
2
0
LINE
8
Setbacks
10
8.3336
20
-14.1444
11
8.83953
21
-14.1031
62
2
0
LINE
8
Setbacks
10
8.83953
20
-14.1031
11
9.68346
21
-13.7478
62
2
0
LINE
8
Setbacks
10
9.68346
20
-13.7478
11
10.3676
21
-13.1472
62
2
0
LINE
8
Setbacks
10
27.2804
20
-8.41948
11
17.9608
21
-19.7521
62
2
0
LINE
8
Setbacks
10
17.9608
20
-19.7521
11
17.5035
21
-20.5393
62
2
0
LINE
8
Setbacks
10
17.5035
20
-20.5393
11
17.3178
21
-21.436
62
2
0
LINE
8
Setbacks
10
17.3178
20
-21.436
11
17.3749
21
-21.9391
62
2
0
LINE
8
Buildings
10
26.3814
20
12.3408
11
38.5885
21
2.17672
62
252
0
LINE
8
Buildings
10
38.5885
20
2.17672
11
31.112
21
-6.80042
62
252
0
LINE
8
Buildings
10
31.112
20
-6.80042
11
18.9049
21
3.36369
62
252
0
LINE
8
Buildings
10
18.9049
20
3.36369
11
26.3814
21
12.3408
62
252
0
LINE
8
Setbacks
10
21.2105
20
1.44434
11
28.6867
21
10.421
62
2
0
LINE
8
Setbacks
10
28.6867
20
10.421
11
28.6867
21
10.421
62
2
0
LINE
8
Setbacks
10
36.2829
20
4.09608
11
28.8068
21
-4.88054
62
2
0
LINE
8
Setbacks
10
28.8068
20
-4.88054
11
28.8067
21
-4.88057
62
2
0
LINE
8
Buildings
10
-3.84789
20
38.9655
11
14.6301
21
23.743
62
252
0
LINE
8
Buildings
10
14.6301
20
23.743
11
5.17475
21
12.2678
62
252
0
LINE
8
Buildings
10
5.17475
20
12.2678
11
-13.3003
21
27.4902
62
252
0
LINE
8
Buildings
10
-13.3003
20
27.4902
11
-3.84789
21
38.9655
62
252
0
LINE
8
Setbacks
10
12.3144
20
25.6503
11
4.51158
21
16.1806
62
2
0
LINE
8
Setbacks
10
4.51158
20
16.1806
11
-9.33317
21
27.5879
62
2
0
LINE
8
Setbacks
10
-9.33317
20
27.5879
11
-1.53263
21
37.0577
62
2
0
LINE
8
Buildings
10
-2.91909
20
2.44333
11
-21.3942
21
17.6621
62
252
0
LINE
8
Buildings
10
-21.3942
20
17.6621
11
-13.3003
21
27.4902
62
252
0
LINE
8
Buildings
10
-13.3003
20
27.4902
11
5.17475
21
12.2678
62
252
0
LINE
8
Buildings
10
5.17475
20
12.2678
11
-2.91909
21
2.44333
62
252
0
LINE
8
Setbacks
10
-19.0784
20
15.7549
11
-12.6394
21
23.5736
62
2
0
LINE
8
Setbacks
10
-12.6394
20
23.5736
11
1.20466
21
12.1669
62
2
0
LINE
8
Setbacks
10
1.20466
20
12.1669
11
-5.23442
21
4.351
62
2
0
ENDSEC
0
EOF