999
Design created by Aurora
0
SECTION
2
HEADER
9
$ACADVER
1
AC1009
0
ENDSEC
0
SECTION
2
TABLES
0
TABLE
2
LTYPE
100
AcDbLinetypeTableRecord
2
LTYPE
0
LTYPE
2
DASHED
70
0
3

72
65
73
1
40
0.0
0
ENDTAB
0
TABLE
2
LAYER
70
1
0
LAYER
100
AcDbSymbolTable
100
AcDbLayerTable
2
1
70
0
62
7
6
CONTINUOUS
0
ENDTAB
0
ENDSEC
0
SECTION
2
ENTITIES
0
LINE
8
Modules
10
-35.7797
20
-27.7079
11
-38.5083
21
-25.6265
62
254
0
LINE
8
Modules
10
-38.5083
20
-25.6265
11
-35.741
21
-21.9988
62
254
0
LINE
8
Modules
10
-35.741
20
-21.9988
11
-33.0124
21
-24.0801
62
254
0
LINE
8
Modules
10
-33.0124
20
-24.0801
11
-35.7797
21
-27.7079
62
254
0
LINE
8
Modules
10
-33.0509
20
-29.7896
11
-35.7795
21
-27.7083
62
254
0
LINE
8
Modules
10
-35.7795
20
-27.7083
11
-33.0122
21
-24.0805
62
254
0
LINE
8
Modules
10
-33.0122
20
-24.0805
11
-30.2836
21
-26.1619
62
254
0
LINE
8
Modules
10
-30.2836
20
-26.1619
11
-33.0509
21
-29.7896
62
254
0
LINE
8
Modules
10
-30.3222
20
-31.8714
11
-33.0507
21
-29.7901
62
254
0
LINE
8
Modules
10
-33.0507
20
-29.7901
11
-30.2834
21
-26.1623
62
254
0
LINE
8
Modules
10
-30.2834
20
-26.1623
11
-27.5549
21
-28.2436
62
254
0
LINE
8
Modules
10
-27.5549
20
-28.2436
11
-30.3222
21
-31.8714
62
254
0
LINE
8
Modules
10
-27.5934
20
-33.9532
11
-30.3219
21
-31.8718
62
254
0
LINE
8
Modules
10
-30.3219
20
-31.8718
11
-27.5547
21
-28.244
62
254
0
LINE
8
Modules
10
-27.5547
20
-28.244
11
-24.8261
21
-30.3254
62
254
0
LINE
8
Modules
10
-24.8261
20
-30.3254
11
-27.5934
21
-33.9532
62
254
0
LINE
8
Modules
10
-24.8646
20
-36.0349
11
-27.5932
21
-33.9536
62
254
0
LINE
8
Modules
10
-27.5932
20
-33.9536
11
-24.8259
21
-30.3258
62
254
0
LINE
8
Modules
10
-24.8259
20
-30.3258
11
-22.0973
21
-32.4071
62
254
0
LINE
8
Modules
10
-22.0973
20
-32.4071
11
-24.8646
21
-36.0349
62
254
0
LINE
8
Modules
10
-22.1389
20
-38.113
11
-24.8674
21
-36.0317
62
254
0
LINE
8
Modules
10
-24.8674
20
-36.0317
11
-22.1002
21
-32.4039
62
254
0
LINE
8
Modules
10
-22.1002
20
-32.4039
11
-19.3716
21
-34.4852
62
254
0
LINE
8
Modules
10
-19.3716
20
-34.4852
11
-22.1389
21
-38.113
62
254
0
LINE
8
Modules
10
-19.4101
20
-40.1948
11
-22.1387
21
-38.1135
62
254
0
LINE
8
Modules
10
-22.1387
20
-38.1135
11
-19.3714
21
-34.4857
62
254
0
LINE
8
Modules
10
-19.3714
20
-34.4857
11
-16.6428
21
-36.567
62
254
0
LINE
8
Modules
10
-16.6428
20
-36.567
11
-19.4101
21
-40.1948
62
254
0
LINE
8
Modules
10
-16.6813
20
-42.2766
11
-19.4099
21
-40.1952
62
254
0
LINE
8
Modules
10
-19.4099
20
-40.1952
11
-16.6426
21
-36.5674
62
254
0
LINE
8
Modules
10
-16.6426
20
-36.5674
11
-13.914
21
-38.6488
62
254
0
LINE
8
Modules
10
-13.914
20
-38.6488
11
-16.6813
21
-42.2766
62
254
0
LINE
8
Modules
10
-13.9526
20
-44.3583
11
-16.6811
21
-42.277
62
254
0
LINE
8
Modules
10
-16.6811
20
-42.277
11
-13.9138
21
-38.6492
62
254
0
LINE
8
Modules
10
-13.9138
20
-38.6492
11
-11.1853
21
-40.7305
62
254
0
LINE
8
Modules
10
-11.1853
20
-40.7305
11
-13.9526
21
-44.3583
62
254
0
LINE
8
Modules
10
-30.4105
20
-37.6456
11
-33.139
21
-35.5642
62
254
0
LINE
8
Modules
10
-33.139
20
-35.5642
11
-30.3717
21
-31.9364
62
254
0
LINE
8
Modules
10
-30.3717
20
-31.9364
11
-27.6432
21
-34.0178
62
254
0
LINE
8
Modules
10
-27.6432
20
-34.0178
11
-30.4105
21
-37.6456
62
254
0
LINE
8
Modules
10
-27.6817
20
-39.7273
11
-30.4103
21
-37.646
62
254
0
LINE
8
Modules
10
-30.4103
20
-37.646
11
-27.643
21
-34.0182
62
254
0
LINE
8
Modules
10
-27.643
20
-34.0182
11
-24.9144
21
-36.0995
62
254
0
LINE
8
Modules
10
-24.9144
20
-36.0995
11
-27.6817
21
-39.7273
62
254
0
LINE
8
Modules
10
-24.956
20
-41.8091
11
-27.6845
21
-39.7277
62
254
0
LINE
8
Modules
10
-27.6845
20
-39.7277
11
-24.9172
21
-36.1
62
254
0
LINE
8
Modules
10
-24.9172
20
-36.1
11
-22.1887
21
-38.1813
62
254
0
LINE
8
Modules
10
-22.1887
20
-38.1813
11
-24.956
21
-41.8091
62
254
0
LINE
8
Modules
10
-22.2272
20
-43.8908
11
-24.9557
21
-41.8095
62
254
0
LINE
8
Modules
10
-24.9557
20
-41.8095
11
-22.1885
21
-38.1817
62
254
0
LINE
8
Modules
10
-22.1885
20
-38.1817
11
-19.4599
21
-40.263
62
254
0
LINE
8
Modules
10
-19.4599
20
-40.263
11
-22.2272
21
-43.8908
62
254
0
LINE
8
Modules
10
-19.4984
20
-45.969
11
-22.227
21
-43.8876
62
254
0
LINE
8
Modules
10
-22.227
20
-43.8876
11
-19.4597
21
-40.2598
62
254
0
LINE
8
Modules
10
-19.4597
20
-40.2598
11
-16.7311
21
-42.3412
62
254
0
LINE
8
Modules
10
-16.7311
20
-42.3412
11
-19.4984
21
-45.969
62
254
0
LINE
8
Modules
10
-16.7696
20
-48.0507
11
-19.4982
21
-45.9694
62
254
0
LINE
8
Modules
10
-19.4982
20
-45.9694
11
-16.7309
21
-42.3416
62
254
0
LINE
8
Modules
10
-16.7309
20
-42.3416
11
-14.0024
21
-44.4229
62
254
0
LINE
8
Modules
10
-14.0024
20
-44.4229
11
-16.7696
21
-48.0507
62
254
0
LINE
8
Modules
10
-9.40267
20
-35.0102
11
-6.67411
21
-37.0916
62
254
0
LINE
8
Modules
10
-6.67411
20
-37.0916
11
-9.44902
21
-40.7294
62
254
0
LINE
8
Modules
10
-9.44902
20
-40.7294
11
-12.1776
21
-38.648
62
254
0
LINE
8
Modules
10
-12.1776
20
-38.648
11
-9.40267
21
-35.0102
62
254
0
LINE
8
Modules
10
-12.1314
20
-32.9285
11
-9.40289
21
-35.0098
62
254
0
LINE
8
Modules
10
-9.40289
20
-35.0098
11
-12.1778
21
-38.6476
62
254
0
LINE
8
Modules
10
-12.1778
20
-38.6476
11
-14.9063
21
-36.5663
62
254
0
LINE
8
Modules
10
-14.9063
20
-36.5663
11
-12.1314
21
-32.9285
62
254
0
LINE
8
Modules
10
-14.8602
20
-30.8467
11
-12.1317
21
-32.9281
62
254
0
LINE
8
Modules
10
-12.1317
20
-32.9281
11
-14.9066
21
-36.5659
62
254
0
LINE
8
Modules
10
-14.9066
20
-36.5659
11
-17.6351
21
-34.4845
62
254
0
LINE
8
Modules
10
-17.6351
20
-34.4845
11
-14.8602
21
-30.8467
62
254
0
LINE
8
Modules
10
-17.589
20
-28.765
11
-14.8604
21
-30.8463
62
254
0
LINE
8
Modules
10
-14.8604
20
-30.8463
11
-17.6353
21
-34.4841
62
254
0
LINE
8
Modules
10
-17.6353
20
-34.4841
11
-20.3639
21
-32.4028
62
254
0
LINE
8
Modules
10
-20.3639
20
-32.4028
11
-17.589
21
-28.765
62
254
0
LINE
8
Modules
10
-20.3147
20
-26.6868
11
-17.5862
21
-28.7682
62
254
0
LINE
8
Modules
10
-17.5862
20
-28.7682
11
-20.3611
21
-32.406
62
254
0
LINE
8
Modules
10
-20.3611
20
-32.406
11
-23.0896
21
-30.3246
62
254
0
LINE
8
Modules
10
-23.0896
20
-30.3246
11
-20.3147
21
-26.6868
62
254
0
LINE
8
Modules
10
-23.0435
20
-24.6051
11
-20.3149
21
-26.6864
62
254
0
LINE
8
Modules
10
-20.3149
20
-26.6864
11
-23.0898
21
-30.3242
62
254
0
LINE
8
Modules
10
-23.0898
20
-30.3242
11
-25.8184
21
-28.2429
62
254
0
LINE
8
Modules
10
-25.8184
20
-28.2429
11
-23.0435
21
-24.6051
62
254
0
LINE
8
Modules
10
-12.034
20
-27.1434
11
-9.30543
21
-29.2247
62
254
0
LINE
8
Modules
10
-9.30543
20
-29.2247
11
-12.0803
21
-32.8625
62
254
0
LINE
8
Modules
10
-12.0803
20
-32.8625
11
-14.8089
21
-30.7812
62
254
0
LINE
8
Modules
10
-14.8089
20
-30.7812
11
-12.034
21
-27.1434
62
254
0
LINE
8
Modules
10
-14.7628
20
-25.0616
11
-12.0342
21
-27.1429
62
254
0
LINE
8
Modules
10
-12.0342
20
-27.1429
11
-14.8091
21
-30.7807
62
254
0
LINE
8
Modules
10
-14.8091
20
-30.7807
11
-17.5377
21
-28.6994
62
254
0
LINE
8
Modules
10
-17.5377
20
-28.6994
11
-14.7628
21
-25.0616
62
254
0
LINE
8
Modules
10
-17.4885
20
-22.9798
11
-14.7599
21
-25.0612
62
254
0
LINE
8
Modules
10
-14.7599
20
-25.0612
11
-17.5348
21
-28.699
62
254
0
LINE
8
Modules
10
-17.5348
20
-28.699
11
-20.2634
21
-26.6176
62
254
0
LINE
8
Modules
10
-20.2634
20
-26.6176
11
-17.4885
21
-22.9798
62
254
0
LINE
8
Modules
10
-16.9272
20
-18.9708
11
-19.0085
21
-21.6994
62
254
0
LINE
8
Modules
10
-19.0085
20
-21.6994
11
-22.6462
21
-18.9246
62
254
0
LINE
8
Modules
10
-22.6462
20
-18.9246
11
-20.5648
21
-16.196
62
254
0
LINE
8
Modules
10
-20.5648
20
-16.196
11
-16.9272
21
-18.9708
62
254
0
LINE
8
Modules
10
-14.8471
20
-16.239
11
-16.9284
21
-18.9675
62
254
0
LINE
8
Modules
10
-16.9284
20
-18.9675
11
-20.5661
21
-16.1927
62
254
0
LINE
8
Modules
10
-20.5661
20
-16.1927
11
-18.4847
21
-13.4642
62
254
0
LINE
8
Modules
10
-18.4847
20
-13.4642
11
-14.8471
21
-16.239
62
254
0
LINE
8
Modules
10
-12.767
20
-13.5144
11
-14.8483
21
-16.243
62
254
0
LINE
8
Modules
10
-14.8483
20
-16.243
11
-18.486
21
-13.4682
62
254
0
LINE
8
Modules
10
-18.486
20
-13.4682
11
-16.4047
21
-10.7396
62
254
0
LINE
8
Modules
10
-16.4047
20
-10.7396
11
-12.767
21
-13.5144
62
254
0
LINE
8
Modules
10
-10.6839
20
-10.7862
11
-12.7652
21
-13.5148
62
254
0
LINE
8
Modules
10
-12.7652
20
-13.5148
11
-16.4029
21
-10.7399
62
254
0
LINE
8
Modules
10
-16.4029
20
-10.7399
11
-14.3215
21
-8.0114
62
254
0
LINE
8
Modules
10
-14.3215
20
-8.0114
11
-10.6839
21
-10.7862
62
254
0
LINE
8
Modules
10
-8.60379
20
-8.05434
11
-10.6851
21
-10.7829
62
254
0
LINE
8
Modules
10
-10.6851
20
-10.7829
11
-14.3228
21
-8.00809
62
254
0
LINE
8
Modules
10
-14.3228
20
-8.00809
11
-12.2414
21
-5.27954
62
254
0
LINE
8
Modules
10
-12.2414
20
-5.27954
11
-8.60379
21
-8.05434
62
254
0
LINE
8
Modules
10
-24.6402
20
10.767
11
-27.3685
21
12.8487
62
254
0
LINE
8
Modules
10
-27.3685
20
12.8487
11
-24.5935
21
16.4858
62
254
0
LINE
8
Modules
10
-24.5935
20
16.4858
11
-21.8652
21
14.4041
62
254
0
LINE
8
Modules
10
-21.8652
20
14.4041
11
-24.6402
21
10.767
62
254
0
LINE
8
Modules
10
-21.9114
20
8.68529
11
-24.6397
21
10.767
62
254
0
LINE
8
Modules
10
-24.6397
20
10.767
11
-21.8647
21
14.404
62
254
0
LINE
8
Modules
10
-21.8647
20
14.404
11
-19.1364
21
12.3223
62
254
0
LINE
8
Modules
10
-19.1364
20
12.3223
11
-21.9114
21
8.68529
62
254
0
LINE
8
Modules
10
-16.4539
20
4.52176
11
-19.1822
21
6.60343
62
254
0
LINE
8
Modules
10
-19.1822
20
6.60343
11
-16.4071
21
10.2405
62
254
0
LINE
8
Modules
10
-16.4071
20
10.2405
11
-13.6788
21
8.15882
62
254
0
LINE
8
Modules
10
-13.6788
20
8.15882
11
-16.4539
21
4.52176
62
254
0
LINE
8
Modules
10
-13.7251
20
2.44
11
-16.4534
21
4.52167
62
254
0
LINE
8
Modules
10
-16.4534
20
4.52167
11
-13.6784
21
8.15873
62
254
0
LINE
8
Modules
10
-13.6784
20
8.15873
11
-10.9501
21
6.07706
62
254
0
LINE
8
Modules
10
-10.9501
20
6.07706
11
-13.7251
21
2.44
62
254
0
LINE
8
Modules
10
-10.9963
20
0.358237
11
-13.7246
21
2.43991
62
254
0
LINE
8
Modules
10
-13.7246
20
2.43991
11
-10.9496
21
6.07696
62
254
0
LINE
8
Modules
10
-10.9496
20
6.07696
11
-8.22129
21
3.99529
62
254
0
LINE
8
Modules
10
-8.22129
20
3.99529
11
-10.9963
21
0.358237
62
254
0
LINE
8
Modules
10
-27.4634
20
7.0637
11
-30.1917
21
9.14537
62
254
0
LINE
8
Modules
10
-30.1917
20
9.14537
11
-27.4166
21
12.7824
62
254
0
LINE
8
Modules
10
-27.4166
20
12.7824
11
-24.6883
21
10.7008
62
254
0
LINE
8
Modules
10
-24.6883
20
10.7008
11
-27.4634
21
7.0637
62
254
0
LINE
8
Modules
10
-24.7346
20
4.98194
11
-27.4629
21
7.06361
62
254
0
LINE
8
Modules
10
-27.4629
20
7.06361
11
-24.6879
21
10.7007
62
254
0
LINE
8
Modules
10
-24.6879
20
10.7007
11
-21.9596
21
8.619
62
254
0
LINE
8
Modules
10
-21.9596
20
8.619
11
-24.7346
21
4.98194
62
254
0
LINE
8
Modules
10
-22.0058
20
2.90018
11
-24.7341
21
4.98185
62
254
0
LINE
8
Modules
10
-24.7341
20
4.98185
11
-21.9591
21
8.61891
62
254
0
LINE
8
Modules
10
-21.9591
20
8.61891
11
-19.2308
21
6.53723
62
254
0
LINE
8
Modules
10
-19.2308
20
6.53723
11
-22.0058
21
2.90018
62
254
0
LINE
8
Modules
10
-18.6594
20
-4.54961
11
-16.578
21
-1.82106
62
254
0
LINE
8
Modules
10
-16.578
20
-1.82106
11
-12.9408
21
-4.59554
62
254
0
LINE
8
Modules
10
-12.9408
20
-4.59554
11
-15.0221
21
-7.32409
62
254
0
LINE
8
Modules
10
-15.0221
20
-7.32409
11
-18.6594
21
-4.54961
62
254
0
LINE
8
Modules
10
-20.7425
20
-7.27781
11
-18.6612
21
-4.54926
62
254
0
LINE
8
Modules
10
-18.6612
20
-4.54926
11
-15.0239
21
-7.32374
62
254
0
LINE
8
Modules
10
-15.0239
20
-7.32374
11
-17.1053
21
-10.0523
62
254
0
LINE
8
Modules
10
-17.1053
20
-10.0523
11
-20.7425
21
-7.27781
62
254
0
LINE
8
Modules
10
-22.8226
20
-10.006
11
-20.7412
21
-7.27746
62
254
0
LINE
8
Modules
10
-20.7412
20
-7.27746
11
-17.104
21
-10.0519
62
254
0
LINE
8
Modules
10
-17.104
20
-10.0519
11
-19.1853
21
-12.7805
62
254
0
LINE
8
Modules
10
-19.1853
20
-12.7805
11
-22.8226
21
-10.006
62
254
0
LINE
8
Modules
10
4.91749
20
-7.94232
11
2.18894
21
-5.86099
62
254
0
LINE
8
Modules
10
2.18894
20
-5.86099
11
4.96213
21
-2.22544
62
254
0
LINE
8
Modules
10
4.96213
20
-2.22544
11
7.69068
21
-4.30678
62
254
0
LINE
8
Modules
10
7.69068
20
-4.30678
11
4.91749
21
-7.94232
62
254
0
LINE
8
Modules
10
7.64627
20
-10.0241
11
4.91771
21
-7.94275
62
254
0
LINE
8
Modules
10
4.91771
20
-7.94275
11
7.6909
21
-4.3072
62
254
0
LINE
8
Modules
10
7.6909
20
-4.3072
11
10.4195
21
-6.38854
62
254
0
LINE
8
Modules
10
10.4195
20
-6.38854
11
7.64627
21
-10.0241
62
254
0
LINE
8
Modules
10
10.3781
20
-12.1058
11
7.64953
21
-10.0245
62
254
0
LINE
8
Modules
10
7.64953
20
-10.0245
11
10.4227
21
-6.38897
62
254
0
LINE
8
Modules
10
10.4227
20
-6.38897
11
13.1513
21
-8.4703
62
254
0
LINE
8
Modules
10
13.1513
20
-8.4703
11
10.3781
21
-12.1058
62
254
0
LINE
8
Modules
10
13.1069
20
-14.1876
11
10.3783
21
-12.1063
62
254
0
LINE
8
Modules
10
10.3783
20
-12.1063
11
13.1515
21
-8.47073
62
254
0
LINE
8
Modules
10
13.1515
20
-8.47073
11
15.88
21
-10.5521
62
254
0
LINE
8
Modules
10
15.88
20
-10.5521
11
13.1069
21
-14.1876
62
254
0
LINE
8
Modules
10
15.8356
20
-16.2694
11
13.1071
21
-14.188
62
254
0
LINE
8
Modules
10
13.1071
20
-14.188
11
15.8803
21
-10.5525
62
254
0
LINE
8
Modules
10
15.8803
20
-10.5525
11
18.6088
21
-12.6338
62
254
0
LINE
8
Modules
10
18.6088
20
-12.6338
11
15.8356
21
-16.2694
62
254
0
LINE
8
Modules
10
2.09736
20
-11.642
11
-0.631198
21
-9.56068
62
254
0
LINE
8
Modules
10
-0.631198
20
-9.56068
11
2.14199
21
-5.92514
62
254
0
LINE
8
Modules
10
2.14199
20
-5.92514
11
4.87054
21
-8.00647
62
254
0
LINE
8
Modules
10
4.87054
20
-8.00647
11
2.09736
21
-11.642
62
254
0
LINE
8
Modules
10
4.82613
20
-13.7238
11
2.09758
21
-11.6424
62
254
0
LINE
8
Modules
10
2.09758
20
-11.6424
11
4.87076
21
-8.0069
62
254
0
LINE
8
Modules
10
4.87076
20
-8.0069
11
7.59932
21
-10.0882
62
254
0
LINE
8
Modules
10
7.59932
20
-10.0882
11
4.82613
21
-13.7238
62
254
0
LINE
8
Modules
10
7.5549
20
-15.8055
11
4.82635
21
-13.7242
62
254
0
LINE
8
Modules
10
4.82635
20
-13.7242
11
7.59954
21
-10.0887
62
254
0
LINE
8
Modules
10
7.59954
20
-10.0887
11
10.3281
21
-12.17
62
254
0
LINE
8
Modules
10
10.3281
20
-12.17
11
7.5549
21
-15.8055
62
254
0
LINE
8
Modules
10
10.2837
20
-17.8873
11
7.55512
21
-15.806
62
254
0
LINE
8
Modules
10
7.55512
20
-15.806
11
10.3283
21
-12.1704
62
254
0
LINE
8
Modules
10
10.3283
20
-12.1704
11
13.0569
21
-14.2518
62
254
0
LINE
8
Modules
10
13.0569
20
-14.2518
11
10.2837
21
-17.8873
62
254
0
LINE
8
Modules
10
13.0125
20
-19.9691
11
10.2839
21
-17.8877
62
254
0
LINE
8
Modules
10
10.2839
20
-17.8877
11
13.0571
21
-14.2522
62
254
0
LINE
8
Modules
10
13.0571
20
-14.2522
11
15.7856
21
-16.3335
62
254
0
LINE
8
Modules
10
15.7856
20
-16.3335
11
13.0125
21
-19.9691
62
254
0
LINE
8
Modules
10
19.2058
20
-6.1265
11
21.9344
21
-8.20783
62
254
0
LINE
8
Modules
10
21.9344
20
-8.20783
11
19.1675
21
-11.8351
62
254
0
LINE
8
Modules
10
19.1675
20
-11.8351
11
16.439
21
-9.75375
62
254
0
LINE
8
Modules
10
16.439
20
-9.75375
11
19.2058
21
-6.1265
62
254
0
LINE
8
Modules
10
16.4771
20
-4.04474
11
19.2056
21
-6.12607
62
254
0
LINE
8
Modules
10
19.2056
20
-6.12607
11
16.4388
21
-9.75333
62
254
0
LINE
8
Modules
10
16.4388
20
-9.75333
11
13.7102
21
-7.67199
62
254
0
LINE
8
Modules
10
13.7102
20
-7.67199
11
16.4771
21
-4.04474
62
254
0
LINE
8
Modules
10
13.7483
20
-1.96297
11
16.4769
21
-4.04431
62
254
0
LINE
8
Modules
10
16.4769
20
-4.04431
11
13.71
21
-7.67157
62
254
0
LINE
8
Modules
10
13.71
20
-7.67157
11
10.9814
21
-5.59023
62
254
0
LINE
8
Modules
10
10.9814
20
-5.59023
11
13.7483
21
-1.96297
62
254
0
LINE
8
Modules
10
11.0195
20
0.118788
11
13.7481
21
-1.96255
62
254
0
LINE
8
Modules
10
13.7481
20
-1.96255
11
10.9812
21
-5.58981
62
254
0
LINE
8
Modules
10
10.9812
20
-5.58981
11
8.25266
21
-3.50847
62
254
0
LINE
8
Modules
10
8.25266
20
-3.50847
11
11.0195
21
0.118788
62
254
0
LINE
8
Modules
10
8.29075
20
2.20055
11
11.0193
21
0.119214
62
254
0
LINE
8
Modules
10
11.0193
20
0.119214
11
8.25244
21
-3.50804
62
254
0
LINE
8
Modules
10
8.25244
20
-3.50804
11
5.52389
21
-1.42671
62
254
0
LINE
8
Modules
10
5.52389
20
-1.42671
11
8.29075
21
2.20055
62
254
0
LINE
8
Modules
10
5.56198
20
4.28231
11
8.29053
21
2.20098
62
254
0
LINE
8
Modules
10
8.29053
20
2.20098
11
5.52367
21
-1.42628
62
254
0
LINE
8
Modules
10
5.52367
20
-1.42628
11
2.79511
21
0.655056
62
254
0
LINE
8
Modules
10
2.79511
20
0.655056
11
5.56198
21
4.28231
62
254
0
LINE
8
Modules
10
2.83625
20
6.36042
11
5.5648
21
4.27909
62
254
0
LINE
8
Modules
10
5.5648
20
4.27909
11
2.79794
21
0.651829
62
254
0
LINE
8
Modules
10
2.79794
20
0.651829
11
0.0693834
21
2.73317
62
254
0
LINE
8
Modules
10
0.0693834
20
2.73317
11
2.83625
21
6.36042
62
254
0
LINE
8
Modules
10
22.0229
20
-2.43411
11
24.7515
21
-4.51545
62
254
0
LINE
8
Modules
10
24.7515
20
-4.51545
11
21.9846
21
-8.1427
62
254
0
LINE
8
Modules
10
21.9846
20
-8.1427
11
19.2561
21
-6.06137
62
254
0
LINE
8
Modules
10
19.2561
20
-6.06137
11
22.0229
21
-2.43411
62
254
0
LINE
8
Modules
10
19.2942
20
-0.352347
11
22.0227
21
-2.43368
62
254
0
LINE
8
Modules
10
22.0227
20
-2.43368
11
19.2559
21
-6.06094
62
254
0
LINE
8
Modules
10
19.2559
20
-6.06094
11
16.5273
21
-3.9796
62
254
0
LINE
8
Modules
10
16.5273
20
-3.9796
11
19.2942
21
-0.352347
62
254
0
LINE
8
Modules
10
16.5654
20
1.72941
11
19.2939
21
-0.351922
62
254
0
LINE
8
Modules
10
19.2939
20
-0.351922
11
16.5271
21
-3.97918
62
254
0
LINE
8
Modules
10
16.5271
20
-3.97918
11
13.7985
21
-1.89784
62
254
0
LINE
8
Modules
10
13.7985
20
-1.89784
11
16.5654
21
1.72941
62
254
0
LINE
8
Modules
10
13.8366
20
3.81118
11
16.5652
21
1.72984
62
254
0
LINE
8
Modules
10
16.5652
20
1.72984
11
13.7983
21
-1.89742
62
254
0
LINE
8
Modules
10
13.7983
20
-1.89742
11
11.0698
21
0.18392
62
254
0
LINE
8
Modules
10
11.0698
20
0.18392
11
13.8366
21
3.81118
62
254
0
LINE
8
Modules
10
11.1078
20
5.89294
11
13.8364
21
3.8116
62
254
0
LINE
8
Modules
10
13.8364
20
3.8116
11
11.0695
21
0.184345
62
254
0
LINE
8
Modules
10
11.0695
20
0.184345
11
8.34098
21
2.26568
62
254
0
LINE
8
Modules
10
8.34098
20
2.26568
11
11.1078
21
5.89294
62
254
0
LINE
8
Modules
10
8.37907
20
7.9747
11
11.1076
21
5.89336
62
254
0
LINE
8
Modules
10
11.1076
20
5.89336
11
8.34076
21
2.26611
62
254
0
LINE
8
Modules
10
8.34076
20
2.26611
11
5.61221
21
4.34744
62
254
0
LINE
8
Modules
10
5.61221
20
4.34744
11
8.37907
21
7.9747
62
254
0
LINE
8
Modules
10
-39.1511
20
3.06454
11
-41.8779
21
5.14825
62
254
0
LINE
8
Modules
10
-41.8779
20
5.14825
11
-39.1001
21
8.78324
62
254
0
LINE
8
Modules
10
-39.1001
20
8.78324
11
-36.3734
21
6.69953
62
254
0
LINE
8
Modules
10
-36.3734
20
6.69953
11
-39.1511
21
3.06454
62
254
0
LINE
8
Modules
10
-36.4254
20
0.982779
11
-39.1522
21
3.06649
62
254
0
LINE
8
Modules
10
-39.1522
20
3.06649
11
-36.3744
21
6.70148
62
254
0
LINE
8
Modules
10
-36.3744
20
6.70148
11
-33.6476
21
4.61777
62
254
0
LINE
8
Modules
10
-33.6476
20
4.61777
11
-36.4254
21
0.982779
62
254
0
LINE
8
Modules
10
-33.6966
20
-1.10264
11
-36.4234
21
0.981076
62
254
0
LINE
8
Modules
10
-36.4234
20
0.981076
11
-33.6456
21
4.61607
62
254
0
LINE
8
Modules
10
-33.6456
20
4.61607
11
-30.9189
21
2.53235
62
254
0
LINE
8
Modules
10
-30.9189
20
2.53235
11
-33.6966
21
-1.10264
62
254
0
LINE
8
Modules
10
-30.9709
20
-3.18805
11
-33.6976
21
-1.10434
62
254
0
LINE
8
Modules
10
-33.6976
20
-1.10434
11
-30.9199
21
2.53065
62
254
0
LINE
8
Modules
10
-30.9199
20
2.53065
11
-28.1931
21
0.44694
62
254
0
LINE
8
Modules
10
-28.1931
20
0.44694
11
-30.9709
21
-3.18805
62
254
0
LINE
8
Modules
10
-41.9804
20
-0.635152
11
-44.7072
21
1.44856
62
254
0
LINE
8
Modules
10
-44.7072
20
1.44856
11
-41.9294
21
5.08355
62
254
0
LINE
8
Modules
10
-41.9294
20
5.08355
11
-39.2026
21
2.99984
62
254
0
LINE
8
Modules
10
-39.2026
20
2.99984
11
-41.9804
21
-0.635152
62
254
0
LINE
8
Modules
10
-39.2516
20
-2.71691
11
-41.9784
21
-0.633203
62
254
0
LINE
8
Modules
10
-41.9784
20
-0.633203
11
-39.2006
21
3.00179
62
254
0
LINE
8
Modules
10
-39.2006
20
3.00179
11
-36.4739
21
0.918076
62
254
0
LINE
8
Modules
10
-36.4739
20
0.918076
11
-39.2516
21
-2.71691
62
254
0
LINE
8
Modules
10
-36.5259
20
-4.80233
11
-39.2527
21
-2.71862
62
254
0
LINE
8
Modules
10
-39.2527
20
-2.71862
11
-36.4749
21
0.916373
62
254
0
LINE
8
Modules
10
-36.4749
20
0.916373
11
-33.7481
21
-1.16734
62
254
0
LINE
8
Modules
10
-33.7481
20
-1.16734
11
-36.5259
21
-4.80233
62
254
0
LINE
8
Modules
10
-33.7971
20
-6.88774
11
-36.5239
21
-4.80403
62
254
0
LINE
8
Modules
10
-36.5239
20
-4.80403
11
-33.7461
21
-1.16904
62
254
0
LINE
8
Modules
10
-33.7461
20
-1.16904
11
-31.0194
21
-3.25275
62
254
0
LINE
8
Modules
10
-31.0194
20
-3.25275
11
-33.7971
21
-6.88774
62
254
0
LINE
8
Modules
10
27.7632
20
5.04703
11
30.4905
21
2.9641
62
254
0
LINE
8
Modules
10
30.4905
20
2.9641
11
27.7138
21
-0.671682
62
254
0
LINE
8
Modules
10
27.7138
20
-0.671682
11
24.9864
21
1.41125
62
254
0
LINE
8
Modules
10
24.9864
20
1.41125
11
27.7632
21
5.04703
62
254
0
LINE
8
Modules
10
25.0344
20
7.1288
11
27.7617
21
5.04587
62
254
0
LINE
8
Modules
10
27.7617
20
5.04587
11
24.985
21
1.41008
62
254
0
LINE
8
Modules
10
24.985
20
1.41008
11
22.2577
21
3.49301
62
254
0
LINE
8
Modules
10
22.2577
20
3.49301
11
25.0344
21
7.1288
62
254
0
LINE
8
Modules
10
22.3087
20
9.21056
11
25.036
21
7.12763
62
254
0
LINE
8
Modules
10
25.036
20
7.12763
11
22.2593
21
3.49184
62
254
0
LINE
8
Modules
10
22.2593
20
3.49184
11
19.5319
21
5.57477
62
254
0
LINE
8
Modules
10
19.5319
20
5.57477
11
22.3087
21
9.21056
62
254
0
LINE
8
Modules
10
19.5799
20
11.296
11
22.3072
21
9.21304
62
254
0
LINE
8
Modules
10
22.3072
20
9.21304
11
19.5305
21
5.57726
62
254
0
LINE
8
Modules
10
19.5305
20
5.57726
11
16.8032
21
7.66019
62
254
0
LINE
8
Modules
10
16.8032
20
7.66019
11
19.5799
21
11.296
62
254
0
LINE
8
Modules
10
16.8542
20
13.3777
11
19.5815
21
11.2948
62
254
0
LINE
8
Modules
10
19.5815
20
11.2948
11
16.8048
21
7.65902
62
254
0
LINE
8
Modules
10
16.8048
20
7.65902
11
14.0774
21
9.74195
62
254
0
LINE
8
Modules
10
14.0774
20
9.74195
11
16.8542
21
13.3777
62
254
0
LINE
8
Modules
10
14.1254
20
15.4595
11
16.8527
21
13.3766
62
254
0
LINE
8
Modules
10
16.8527
20
13.3766
11
14.076
21
9.74078
62
254
0
LINE
8
Modules
10
14.076
20
9.74078
11
11.3487
21
11.8237
62
254
0
LINE
8
Modules
10
11.3487
20
11.8237
11
14.1254
21
15.4595
62
254
0
LINE
8
Modules
10
11.3997
20
17.5449
11
14.127
21
15.462
62
254
0
LINE
8
Modules
10
14.127
20
15.462
11
11.3503
21
11.8262
62
254
0
LINE
8
Modules
10
11.3503
20
11.8262
11
8.62293
21
13.9091
62
254
0
LINE
8
Modules
10
8.62293
20
13.9091
11
11.3997
21
17.5449
62
254
0
LINE
8
Modules
10
-7.68314
20
35.7892
11
-5.60021
21
38.5165
62
254
0
LINE
8
Modules
10
-5.60021
20
38.5165
11
-2.29394
21
35.9914
62
254
0
LINE
8
Modules
10
-2.29394
20
35.9914
11
-4.37687
21
33.2641
62
254
0
LINE
8
Modules
10
-4.37687
20
33.2641
11
-7.68314
21
35.7892
62
254
0
LINE
8
Modules
10
-9.76627
20
33.0646
11
-7.68334
21
35.792
62
254
0
LINE
8
Modules
10
-7.68334
20
35.792
11
-4.37706
21
33.2669
62
254
0
LINE
8
Modules
10
-4.37706
20
33.2669
11
-6.45999
21
30.5395
62
254
0
LINE
8
Modules
10
-6.45999
20
30.5395
11
-9.76627
21
33.0646
62
254
0
LINE
8
Modules
10
-11.0576
20
38.3676
11
-8.97463
21
41.095
62
254
0
LINE
8
Modules
10
-8.97463
20
41.095
11
-5.66836
21
38.5699
62
254
0
LINE
8
Modules
10
-5.66836
20
38.5699
11
-7.75129
21
35.8426
62
254
0
LINE
8
Modules
10
-7.75129
20
35.8426
11
-11.0576
21
38.3676
62
254
0
LINE
8
Modules
10
-13.1376
20
35.6431
11
-11.0547
21
38.3704
62
254
0
LINE
8
Modules
10
-11.0547
20
38.3704
11
-7.74844
21
35.8453
62
254
0
LINE
8
Modules
10
-7.74844
20
35.8453
11
-9.83137
21
33.118
62
254
0
LINE
8
Modules
10
-9.83137
20
33.118
11
-13.1376
21
35.6431
62
254
0
LINE
8
Modules
10
0.125749
20
8.44584
11
2.8543
21
6.3645
62
254
0
LINE
8
Modules
10
2.8543
20
6.3645
11
0.0874361
21
2.73724
62
254
0
LINE
8
Modules
10
0.0874361
20
2.73724
11
-2.64112
21
4.81858
62
254
0
LINE
8
Modules
10
-2.64112
20
4.81858
11
0.125749
21
8.44584
62
254
0
LINE
8
Roofs
10
-39.083
20
-36.3468
11
-44.9243
21
-31.8875
62
252
0
LINE
8
Roofs
10
-44.9243
20
-31.8875
11
-34.6244
21
-30.5033
62
252
0
LINE
8
Roofs
10
-34.6244
20
-30.5033
11
-39.083
21
-36.3468
62
252
0
LINE
8
Setbacks
10
-39.167
20
-35.7216
11
-43.7979
21
-32.1862
62
2
0
LINE
8
Setbacks
10
-43.7979
20
-32.1862
11
-35.6322
21
-31.0888
62
2
0
LINE
8
Setbacks
10
-35.6322
20
-31.0888
11
-39.167
21
-35.7216
62
2
0
LINE
8
Roofs
10
-39.083
20
-36.3468
11
-34.6244
21
-30.5033
62
252
0
LINE
8
Roofs
10
-34.6244
20
-30.5033
11
-33.2387
21
-40.8025
62
252
0
LINE
8
Roofs
10
-33.2387
20
-40.8025
11
-39.083
21
-36.3468
62
252
0
LINE
8
Setbacks
10
-38.4577
20
-36.2627
11
-34.9229
21
-31.6298
62
2
0
LINE
8
Setbacks
10
-34.9229
20
-31.6298
11
-33.8243
21
-39.7952
62
2
0
LINE
8
Setbacks
10
-33.8243
20
-39.7952
11
-38.4577
21
-36.2627
62
2
0
LINE
8
Roofs
10
-6.51738
20
8.34166
11
1.08725
21
18.3122
62
252
0
LINE
8
Roofs
10
1.08725
20
18.3122
11
8.9812
21
12.2897
62
252
0
LINE
8
Roofs
10
8.9812
20
12.2897
11
7.39754
21
10.2152
62
252
0
LINE
8
Roofs
10
7.39754
20
10.2152
11
-6.51738
21
8.34166
62
252
0
LINE
8
Setbacks
10
-5.50984
20
8.9273
11
1.17135
21
17.6871
62
2
0
LINE
8
Setbacks
10
1.17135
20
17.6871
11
8.35604
21
12.2057
62
2
0
LINE
8
Setbacks
10
8.35604
20
12.2057
11
7.15508
21
10.6326
62
2
0
LINE
8
Setbacks
10
7.15508
20
10.6326
11
-5.50984
21
8.9273
62
2
0
LINE
8
Roofs
10
1.08725
20
18.3122
11
-6.51738
21
8.34166
62
252
0
LINE
8
Roofs
10
-6.51738
20
8.34166
11
-8.39037
21
22.2566
62
252
0
LINE
8
Roofs
10
-8.39037
20
22.2566
11
-6.80671
21
24.3311
62
252
0
LINE
8
Roofs
10
-6.80671
20
24.3311
11
1.08725
21
18.3122
62
252
0
LINE
8
Setbacks
10
0.462153
20
18.228
11
-6.21903
21
9.4682
62
2
0
LINE
8
Setbacks
10
-6.21903
20
9.4682
11
-7.92373
21
22.1329
62
2
0
LINE
8
Setbacks
10
-7.92373
20
22.1329
11
-6.72268
21
23.7062
62
2
0
LINE
8
Setbacks
10
-6.72268
20
23.7062
11
0.462153
21
18.228
62
2
0
LINE
8
Roofs
10
-2.53995
20
-8.65575
11
13.1231
21
-20.6058
62
252
0
LINE
8
Roofs
10
13.1231
20
-20.6058
11
19.2902
21
-12.5198
62
252
0
LINE
8
Roofs
10
19.2902
20
-12.5198
11
3.5602
21
-0.518614
62
252
0
LINE
8
Roofs
10
3.5602
20
-0.518614
11
-2.53995
21
-8.65575
62
252
0
LINE
8
Setbacks
10
-1.91645
20
-8.56923
11
13.0388
21
-19.9793
62
2
0
LINE
8
Setbacks
10
13.0388
20
-19.9793
11
18.6638
21
-12.6041
62
2
0
LINE
8
Setbacks
10
18.6638
20
-12.6041
11
3.64745
21
-1.14741
62
2
0
LINE
8
Setbacks
10
3.64745
20
-1.14741
11
-1.91645
21
-8.56923
62
2
0
LINE
8
Roofs
10
-26.8126
20
-23.5787
11
-8.77715
21
0.0620876
62
252
0
LINE
8
Roofs
10
-8.77715
20
0.0620876
11
-6.86153
21
-14.1779
62
252
0
LINE
8
Roofs
10
-6.86153
20
-14.1779
11
-12.5688
21
-21.6613
62
252
0
LINE
8
Roofs
10
-12.5688
20
-21.6613
11
-26.8126
21
-23.5787
62
252
0
LINE
8
Setbacks
10
-25.802
20
-22.9914
11
-9.07645
21
-1.0676
62
2
0
LINE
8
Setbacks
10
-9.07645
20
-1.0676
11
-7.32947
21
-14.054
62
2
0
LINE
8
Setbacks
10
-7.32947
20
-14.054
11
-12.8121
21
-21.2428
62
2
0
LINE
8
Setbacks
10
-12.8121
20
-21.2428
11
-25.802
21
-22.9914
62
2
0
LINE
8
Roofs
10
-9.03602
20
-41.7594
11
-17.4782
21
-52.8256
62
252
0
LINE
8
Roofs
10
-17.4782
20
-52.8256
11
-33.2387
21
-40.8025
62
252
0
LINE
8
Roofs
10
-33.2387
20
-40.8025
11
-34.6244
21
-30.5033
62
252
0
LINE
8
Roofs
10
-34.6244
20
-30.5033
11
-44.9243
21
-31.8875
62
252
0
LINE
8
Roofs
10
-44.9243
20
-31.8875
11
-36.4821
21
-20.8213
62
252
0
LINE
8
Roofs
10
-36.4821
20
-20.8213
11
-9.03602
21
-41.7594
62
252
0
LINE
8
Setbacks
10
-9.66117
20
-41.8435
11
-17.5623
21
-52.2005
62
2
0
LINE
8
Setbacks
10
-17.5623
20
-52.2005
11
-32.8212
21
-40.56
62
2
0
LINE
8
Setbacks
10
-32.8212
20
-40.56
11
-34.2418
21
-30.0018
62
2
0
LINE
8
Setbacks
10
-34.2418
20
-30.0018
11
-43.9166
21
-31.302
62
2
0
LINE
8
Setbacks
10
-43.9166
20
-31.302
11
-36.398
21
-21.4464
62
2
0
LINE
8
Setbacks
10
-36.398
20
-21.4464
11
-9.66117
21
-41.8435
62
2
0
LINE
8
Roofs
10
-26.8126
20
-23.5787
11
-12.5688
21
-21.6613
62
252
0
LINE
8
Roofs
10
-12.5688
20
-21.6613
11
-0.645647
21
-30.7589
62
252
0
LINE
8
Roofs
10
-0.645647
20
-30.7589
11
-9.03602
21
-41.7594
62
252
0
LINE
8
Roofs
10
-9.03602
20
-41.7594
11
-36.4821
21
-20.8213
62
252
0
LINE
8
Roofs
10
-36.4821
20
-20.8213
11
-34.2102
21
-17.8447
62
252
0
LINE
8
Roofs
10
-34.2102
20
-17.8447
11
-34.8467
21
-17.359
62
252
0
LINE
8
Roofs
10
-34.8467
20
-17.359
11
-28.7283
21
-9.33506
62
252
0
LINE
8
Roofs
10
-28.7283
20
-9.33506
11
-26.8126
21
-23.5787
62
252
0
LINE
8
Setbacks
10
-27.1963
20
-24.0816
11
-12.6928
21
-22.1293
62
2
0
LINE
8
Setbacks
10
-12.6928
20
-22.1293
11
-1.27247
21
-30.8433
62
2
0
LINE
8
Setbacks
10
-1.27247
20
-30.8433
11
-9.12037
21
-41.1325
62
2
0
LINE
8
Setbacks
10
-9.12037
20
-41.1325
11
-35.8552
21
-20.737
62
2
0
LINE
8
Setbacks
10
-35.8552
20
-20.737
11
-33.5832
21
-17.7605
62
2
0
LINE
8
Setbacks
10
-33.5832
20
-17.7605
11
-34.2199
21
-17.2747
62
2
0
LINE
8
Setbacks
10
-34.2199
20
-17.2747
11
-29.0276
21
-10.4652
62
2
0
LINE
8
Setbacks
10
-29.0276
20
-10.4652
11
-27.1963
21
-24.0816
62
2
0
LINE
8
Roofs
10
-8.77715
20
0.0620876
11
-26.8126
21
-23.5787
62
252
0
LINE
8
Roofs
10
-26.8126
20
-23.5787
11
-28.7283
21
-9.33506
62
252
0
LINE
8
Roofs
10
-28.7283
20
-9.33506
11
-23.021
21
-1.85532
62
252
0
LINE
8
Roofs
10
-23.021
20
-1.85532
11
-8.77715
21
0.0620876
62
252
0
LINE
8
Setbacks
10
-9.78763
20
-0.525163
11
-26.5133
21
-22.4491
62
2
0
LINE
8
Setbacks
10
-26.5133
20
-22.4491
11
-28.2604
21
-9.45905
62
2
0
LINE
8
Setbacks
10
-28.2604
20
-9.45905
11
-22.7778
21
-2.27382
62
2
0
LINE
8
Setbacks
10
-22.7778
20
-2.27382
11
-9.78763
21
-0.525163
62
2
0
LINE
8
Roofs
10
-16.8873
20
28.7393
11
-8.39037
21
22.2566
62
252
0
LINE
8
Roofs
10
-8.39037
20
22.2566
11
-6.51738
21
8.34166
62
252
0
LINE
8
Roofs
10
-6.51738
20
8.34166
11
7.39754
21
10.2152
62
252
0
LINE
8
Roofs
10
7.39754
20
10.2152
11
25.8777
21
-3.8823
62
252
0
LINE
8
Roofs
10
25.8777
20
-3.8823
11
19.2902
21
-12.5198
62
252
0
LINE
8
Roofs
10
19.2902
20
-12.5198
11
3.5602
21
-0.518614
62
252
0
LINE
8
Roofs
10
3.5602
20
-0.518614
11
1.69939
21
-2.95829
62
252
0
LINE
8
Roofs
10
1.69939
20
-2.95829
11
-25.3356
21
17.6621
62
252
0
LINE
8
Roofs
10
-25.3356
20
17.6621
11
-16.8873
21
28.7393
62
252
0
LINE
8
Setbacks
10
-16.8032
20
28.1142
11
-8.80771
21
22.0141
62
2
0
LINE
8
Setbacks
10
-8.80771
20
22.0141
11
-6.89987
21
7.84017
62
2
0
LINE
8
Setbacks
10
-6.89987
20
7.84017
11
7.27394
21
9.74861
62
2
0
LINE
8
Setbacks
10
7.27394
20
9.74861
11
25.2527
21
-3.96642
62
2
0
LINE
8
Setbacks
10
25.2527
20
-3.96642
11
19.2061
21
-11.8947
62
2
0
LINE
8
Setbacks
10
19.2061
20
-11.8947
11
3.4761
21
0.106489
62
2
0
LINE
8
Setbacks
10
3.4761
20
0.106489
11
1.61526
21
-2.33324
62
2
0
LINE
8
Setbacks
10
1.61526
20
-2.33324
11
-24.7105
21
17.7463
62
2
0
LINE
8
Setbacks
10
-24.7105
20
17.7463
11
-16.8032
21
28.1142
62
2
0
LINE
8
Roofs
10
-6.86153
20
-14.1779
11
-8.77715
21
0.0620876
62
252
0
LINE
8
Roofs
10
-8.77715
20
0.0620876
11
-23.021
21
-1.85532
62
252
0
LINE
8
Roofs
10
-23.021
20
-1.85532
11
-33.8934
21
6.44251
62
252
0
LINE
8
Roofs
10
-33.8934
20
6.44251
11
-25.3356
21
17.6621
62
252
0
LINE
8
Roofs
10
-25.3356
20
17.6621
11
1.69939
21
-2.95829
62
252
0
LINE
8
Roofs
10
1.69939
20
-2.95829
11
-6.86153
21
-14.1779
62
252
0
LINE
8
Setbacks
10
-6.56223
20
-13.0484
11
-8.39356
21
0.56497
62
2
0
LINE
8
Setbacks
10
-8.39356
20
0.56497
11
-22.897
21
-1.38739
62
2
0
LINE
8
Setbacks
10
-22.897
20
-1.38739
11
-33.2667
21
6.52677
62
2
0
LINE
8
Setbacks
10
-33.2667
20
6.52677
11
-25.2512
21
17.0353
62
2
0
LINE
8
Setbacks
10
-25.2512
20
17.0353
11
1.07252
21
-3.04261
62
2
0
LINE
8
Setbacks
10
1.07252
20
-3.04261
11
-6.56223
21
-13.0484
62
2
0
LINE
8
Roofs
10
25.631
20
-4.51414
11
-9.2492
21
22.1251
62
252
0
LINE
8
Roofs
10
-9.2492
20
22.1251
11
4.12971
21
26.1535
62
252
0
LINE
8
Roofs
10
4.12971
20
26.1535
11
13.1353
21
19.2727
62
252
0
LINE
8
Roofs
10
13.1353
20
19.2727
11
12.2399
21
18.104
62
252
0
LINE
8
Roofs
10
12.2399
20
18.104
11
31.6093
21
3.31256
62
252
0
LINE
8
Roofs
10
31.6093
20
3.31256
11
25.631
21
-4.51414
62
252
0
LINE
8
Setbacks
10
25.547
20
-3.8873
11
-8.28213
21
21.9493
62
2
0
LINE
8
Setbacks
10
-8.28213
20
21.9493
11
4.0398
21
25.6594
62
2
0
LINE
8
Setbacks
10
4.0398
20
25.6594
11
12.5079
21
19.1892
62
2
0
LINE
8
Setbacks
10
12.5079
20
19.1892
11
11.6125
21
18.0204
62
2
0
LINE
8
Setbacks
10
11.6125
20
18.0204
11
30.9824
21
3.22859
62
2
0
LINE
8
Setbacks
10
30.9824
20
3.22859
11
25.547
21
-3.8873
62
2
0
LINE
8
Roofs
10
-9.2492
20
22.1251
11
-11.1313
21
23.5604
62
252
0
LINE
8
Roofs
10
-11.1313
20
23.5604
11
-1.55321
21
36.1021
62
252
0
LINE
8
Roofs
10
-1.55321
20
36.1021
11
6.83716
21
29.6962
62
252
0
LINE
8
Roofs
10
6.83716
20
29.6962
11
4.12971
21
26.1535
62
252
0
LINE
8
Roofs
10
4.12971
20
26.1535
11
-9.2492
21
22.1251
62
252
0
LINE
8
Setbacks
10
-9.16673
20
22.5796
11
-10.5545
21
23.6379
62
2
0
LINE
8
Setbacks
10
-10.5545
20
23.6379
11
-1.47592
21
35.5256
62
2
0
LINE
8
Setbacks
10
-1.47592
20
35.5256
11
6.26039
21
29.6189
62
2
0
LINE
8
Setbacks
10
6.26039
20
29.6189
11
3.88367
21
26.509
62
2
0
LINE
8
Setbacks
10
3.88367
20
26.509
11
-9.16673
21
22.5796
62
2
0
LINE
8
Roofs
10
-9.65121
20
42.289
11
-19.2293
21
29.7473
62
252
0
LINE
8
Roofs
10
-19.2293
20
29.7473
11
-11.1313
21
23.5604
62
252
0
LINE
8
Roofs
10
-11.1313
20
23.5604
11
-1.55321
21
36.1021
62
252
0
LINE
8
Roofs
10
-1.55321
20
36.1021
11
-9.65121
21
42.289
62
252
0
LINE
8
Setbacks
10
-9.57488
20
41.7189
11
-18.6593
21
29.8236
62
2
0
LINE
8
Setbacks
10
-18.6593
20
29.8236
11
-11.2077
21
24.1305
62
2
0
LINE
8
Setbacks
10
-11.2077
20
24.1305
11
-2.12321
21
36.0258
62
2
0
LINE
8
Setbacks
10
-2.12321
20
36.0258
11
-9.57488
21
41.7189
62
2
0
LINE
8
Roofs
10
-39.1469
20
10.8726
11
-22.284
21
-2.01237
62
252
0
LINE
8
Roofs
10
-22.284
20
-2.01237
11
-30.5556
21
-12.8375
62
252
0
LINE
8
Roofs
10
-30.5556
20
-12.8375
11
-47.4185
21
0.0474788
62
252
0
LINE
8
Roofs
10
-47.4185
20
0.0474788
11
-39.1469
21
10.8726
62
252
0
LINE
8
Setbacks
10
-39.0631
20
10.2458
11
-22.9108
21
-2.0962
62
2
0
LINE
8
Setbacks
10
-22.9108
20
-2.0962
11
-30.6394
21
-12.2107
62
2
0
LINE
8
Setbacks
10
-30.6394
20
-12.2107
11
-46.7917
21
0.131305
62
2
0
LINE
8
Setbacks
10
-46.7917
20
0.131305
11
-39.0631
21
10.2458
62
2
0
CIRCLE
8
Obstructions
10
-8.11932
20
-31.5588
40
0.485336
62
252
0
CIRCLE
8
Obstructions
10
-8.24419
20
-27.198
40
0.485336
62
252
0
CIRCLE
8
Obstructions
10
-3.50842
20
-30.5325
40
0.485336
62
252
0
CIRCLE
8
Obstructions
10
-21.5439
20
-12.8996
40
0.485336
62
252
0
CIRCLE
8
Obstructions
10
-20.0059
20
1.09201
40
0.485336
62
252
0
CIRCLE
8
Obstructions
10
-20.2435
20
9.54324
40
0.485336
62
252
0
CIRCLE
8
Obstructions
10
-12.6998
20
14.6527
40
0.485336
62
252
0
CIRCLE
8
Obstructions
10
-10.6958
20
7.53817
40
0.485336
62
252
0
CIRCLE
8
Obstructions
10
-16.9482
20
18.0894
40
0.485336
62
252
0
CIRCLE
8
Obstructions
10
-16.2325
20
20.6679
40
0.485336
62
252
0
CIRCLE
8
Obstructions
10
-14.0367
20
20.2369
40
0.485336
62
252
0
CIRCLE
8
Obstructions
10
-11.5547
20
30.1198
40
0.485336
62
252
0
CIRCLE
8
Obstructions
10
-3.29524
20
25.2989
40
0.485336
62
252
0
CIRCLE
8
Obstructions
10
-12.651
20
26.7306
40
0.485336
62
252
0
CIRCLE
8
Trees
10
-62.2654
20
-62.3652
40
13.1234
62
84
0
CIRCLE
8
Trees
10
-77.834
20
-42.0954
40
9.67848
62
84
0
CIRCLE
8
Trees
10
-62.4116
20
-22.5561
40
7.87402
62
84
0
CIRCLE
8
Trees
10
-34.3564
20
-79.8411
40
13.6155
62
84
0
CIRCLE
8
Trees
10
-15.2032
20
-101.177
40
12.3031
62
84
0
CIRCLE
8
Trees
10
-24.8361
20
58.7933
40
14.2717
62
84
0
CIRCLE
8
Trees
10
63.7211
20
18.7395
40
10.9908
62
84
0
ENDSEC
0
EOF