999
Design created by Aurora
0
SECTION
2
HEADER
9
$ACADVER
1
AC1009
0
ENDSEC
0
SECTION
2
TABLES
0
TABLE
2
LTYPE
100
AcDbLinetypeTableRecord
2
LTYPE
0
LTYPE
2
DASHED
70
0
3

72
65
73
1
40
0.0
0
ENDTAB
0
TABLE
2
LAYER
70
1
0
LAYER
100
AcDbSymbolTable
100
AcDbLayerTable
2
1
70
0
62
7
6
CONTINUOUS
0
ENDTAB
0
ENDSEC
0
SECTION
2
ENTITIES
0
LINE
8
Modules
10
14.5336
20
-21.5247
11
13.8899
21
-24.8955
62
254
0
LINE
8
Modules
10
13.8899
20
-24.8955
11
9.06775
21
-23.9746
62
254
0
LINE
8
Modules
10
9.06775
20
-23.9746
11
9.71151
21
-20.6038
62
254
0
LINE
8
Modules
10
9.71151
20
-20.6038
11
14.5336
21
-21.5247
62
254
0
LINE
8
Modules
10
15.1769
20
-18.1537
11
14.5331
21
-21.5245
62
254
0
LINE
8
Modules
10
14.5331
20
-21.5245
11
9.71101
21
-20.6036
62
254
0
LINE
8
Modules
10
9.71101
20
-20.6036
11
10.3548
21
-17.2328
62
254
0
LINE
8
Modules
10
10.3548
20
-17.2328
11
15.1769
21
-18.1537
62
254
0
LINE
8
Modules
10
19.0393
20
2.07227
11
18.3956
21
-1.29857
62
254
0
LINE
8
Modules
10
18.3956
20
-1.29857
11
13.5734
21
-0.377645
62
254
0
LINE
8
Modules
10
13.5734
20
-0.377645
11
14.2172
21
2.99319
62
254
0
LINE
8
Modules
10
14.2172
20
2.99319
11
19.0393
21
2.07227
62
254
0
LINE
8
Modules
10
19.6826
20
5.44327
11
19.0388
21
2.07243
62
254
0
LINE
8
Modules
10
19.0388
20
2.07243
11
14.2167
21
2.99335
62
254
0
LINE
8
Modules
10
14.2167
20
2.99335
11
14.8604
21
6.36419
62
254
0
LINE
8
Modules
10
14.8604
20
6.36419
11
19.6826
21
5.44327
62
254
0
LINE
8
Modules
10
20.3258
20
8.81061
11
19.6821
21
5.43977
62
254
0
LINE
8
Modules
10
19.6821
20
5.43977
11
14.8599
21
6.36069
62
254
0
LINE
8
Modules
10
14.8599
20
6.36069
11
15.5037
21
9.73153
62
254
0
LINE
8
Modules
10
15.5037
20
9.73153
11
20.3258
21
8.81061
62
254
0
LINE
8
Modules
10
20.9691
20
12.1816
11
20.3253
21
8.81076
62
254
0
LINE
8
Modules
10
20.3253
20
8.81076
11
15.5032
21
9.73168
62
254
0
LINE
8
Modules
10
15.5032
20
9.73168
11
16.1469
21
13.1025
62
254
0
LINE
8
Modules
10
16.1469
20
13.1025
11
20.9691
21
12.1816
62
254
0
LINE
8
Modules
10
21.6152
20
15.5562
11
20.9715
21
12.1854
62
254
0
LINE
8
Modules
10
20.9715
20
12.1854
11
16.1493
21
13.1063
62
254
0
LINE
8
Modules
10
16.1493
20
13.1063
11
16.7931
21
16.4772
62
254
0
LINE
8
Modules
10
16.7931
20
16.4772
11
21.6152
21
15.5562
62
254
0
LINE
8
Modules
10
20.0806
20
-19.0887
11
19.4369
21
-22.4595
62
254
0
LINE
8
Modules
10
19.4369
20
-22.4595
11
14.6147
21
-21.5386
62
254
0
LINE
8
Modules
10
14.6147
20
-21.5386
11
15.2585
21
-18.1677
62
254
0
LINE
8
Modules
10
15.2585
20
-18.1677
11
20.0806
21
-19.0887
62
254
0
LINE
8
Modules
10
20.7239
20
-15.7213
11
20.0801
21
-19.0922
62
254
0
LINE
8
Modules
10
20.0801
20
-19.0922
11
15.258
21
-18.1712
62
254
0
LINE
8
Modules
10
15.258
20
-18.1712
11
15.9018
21
-14.8004
62
254
0
LINE
8
Modules
10
15.9018
20
-14.8004
11
20.7239
21
-15.7213
62
254
0
LINE
8
Modules
10
21.3671
20
-12.3503
11
20.7234
21
-15.7212
62
254
0
LINE
8
Modules
10
20.7234
20
-15.7212
11
15.9013
21
-14.8002
62
254
0
LINE
8
Modules
10
15.9013
20
-14.8002
11
16.545
21
-11.4294
62
254
0
LINE
8
Modules
10
16.545
20
-11.4294
11
21.3671
21
-12.3503
62
254
0
LINE
8
Modules
10
23.2998
20
-2.23734
11
22.656
21
-5.60818
62
254
0
LINE
8
Modules
10
22.656
20
-5.60818
11
17.8339
21
-4.68726
62
254
0
LINE
8
Modules
10
17.8339
20
-4.68726
11
18.4777
21
-1.31642
62
254
0
LINE
8
Modules
10
18.4777
20
-1.31642
11
23.2998
21
-2.23734
62
254
0
LINE
8
Modules
10
23.943
20
1.13365
11
23.2993
21
-2.23718
62
254
0
LINE
8
Modules
10
23.2993
20
-2.23718
11
18.4772
21
-1.31626
62
254
0
LINE
8
Modules
10
18.4772
20
-1.31626
11
19.1209
21
2.05457
62
254
0
LINE
8
Modules
10
19.1209
20
2.05457
11
23.943
21
1.13365
62
254
0
LINE
8
Modules
10
25.8728
20
11.2466
11
25.2291
21
7.8758
62
254
0
LINE
8
Modules
10
25.2291
20
7.8758
11
20.4069
21
8.79672
62
254
0
LINE
8
Modules
10
20.4069
20
8.79672
11
21.0507
21
12.1676
62
254
0
LINE
8
Modules
10
21.0507
20
12.1676
11
25.8728
21
11.2466
62
254
0
LINE
8
Modules
10
26.519
20
14.6176
11
25.8752
21
11.2468
62
254
0
LINE
8
Modules
10
25.8752
20
11.2468
11
21.0531
21
12.1677
62
254
0
LINE
8
Modules
10
21.0531
20
12.1677
11
21.6968
21
15.5385
62
254
0
LINE
8
Modules
10
21.6968
20
15.5385
11
26.519
21
14.6176
62
254
0
LINE
8
Modules
10
4.65646
20
15.3051
11
5.30021
21
18.676
62
254
0
LINE
8
Modules
10
5.30021
20
18.676
11
10.124
21
17.7547
62
254
0
LINE
8
Modules
10
10.124
20
17.7547
11
9.48023
21
14.3839
62
254
0
LINE
8
Modules
10
9.48023
20
14.3839
11
4.65646
21
15.3051
62
254
0
LINE
8
Modules
10
4.0132
20
11.9341
11
4.65696
21
15.305
62
254
0
LINE
8
Modules
10
4.65696
20
15.305
11
9.48072
21
14.3837
62
254
0
LINE
8
Modules
10
9.48072
20
14.3837
11
8.83697
21
11.0129
62
254
0
LINE
8
Modules
10
8.83697
20
11.0129
11
4.0132
21
11.9341
62
254
0
LINE
8
Modules
10
3.36707
20
8.56313
11
4.01082
21
11.934
62
254
0
LINE
8
Modules
10
4.01082
20
11.934
11
8.83459
21
11.0127
62
254
0
LINE
8
Modules
10
8.83459
20
11.0127
11
8.19083
21
7.6419
62
254
0
LINE
8
Modules
10
8.19083
20
7.6419
11
3.36707
21
8.56313
62
254
0
LINE
8
Modules
10
2.72381
20
5.19214
11
3.36756
21
8.56297
62
254
0
LINE
8
Modules
10
3.36756
20
8.56297
11
8.19133
21
7.64174
62
254
0
LINE
8
Modules
10
8.19133
20
7.64174
11
7.54758
21
4.27091
62
254
0
LINE
8
Modules
10
7.54758
20
4.27091
11
2.72381
21
5.19214
62
254
0
LINE
8
Modules
10
2.08056
20
1.82114
11
2.72431
21
5.19198
62
254
0
LINE
8
Modules
10
2.72431
20
5.19198
11
7.54808
21
4.27075
62
254
0
LINE
8
Modules
10
7.54808
20
4.27075
11
6.90432
21
0.899912
62
254
0
LINE
8
Modules
10
6.90432
20
0.899912
11
2.08056
21
1.82114
62
254
0
LINE
8
Modules
10
0.150791
20
-8.29184
11
0.794545
21
-4.921
62
254
0
LINE
8
Modules
10
0.794545
20
-4.921
11
5.61831
21
-5.84223
62
254
0
LINE
8
Modules
10
5.61831
20
-5.84223
11
4.97456
21
-9.21307
62
254
0
LINE
8
Modules
10
4.97456
20
-9.21307
11
0.150791
21
-8.29184
62
254
0
LINE
8
Modules
10
-0.495349
20
-11.6628
11
0.148406
21
-8.29199
62
254
0
LINE
8
Modules
10
0.148406
20
-8.29199
11
4.97217
21
-9.21322
62
254
0
LINE
8
Modules
10
4.97217
20
-9.21322
11
4.32842
21
-12.5841
62
254
0
LINE
8
Modules
10
4.32842
20
-12.5841
11
-0.495349
21
-11.6628
62
254
0
LINE
8
Modules
10
-1.1386
20
-15.0338
11
-0.494849
21
-11.663
62
254
0
LINE
8
Modules
10
-0.494849
20
-11.663
11
4.32892
21
-12.5842
62
254
0
LINE
8
Modules
10
4.32892
20
-12.5842
11
3.68516
21
-15.9551
62
254
0
LINE
8
Modules
10
3.68516
20
-15.9551
11
-1.1386
21
-15.0338
62
254
0
LINE
8
Modules
10
-0.250162
20
16.2437
11
0.393592
21
19.6146
62
254
0
LINE
8
Modules
10
0.393592
20
19.6146
11
5.21736
21
18.6933
62
254
0
LINE
8
Modules
10
5.21736
20
18.6933
11
4.5736
21
15.3225
62
254
0
LINE
8
Modules
10
4.5736
20
15.3225
11
-0.250162
21
16.2437
62
254
0
LINE
8
Modules
10
-0.896301
20
12.8691
11
-0.252547
21
16.2399
62
254
0
LINE
8
Modules
10
-0.252547
20
16.2399
11
4.57122
21
15.3187
62
254
0
LINE
8
Modules
10
4.57122
20
15.3187
11
3.92747
21
11.9479
62
254
0
LINE
8
Modules
10
3.92747
20
11.9479
11
-0.896301
21
12.8691
62
254
0
LINE
8
Modules
10
-1.53956
20
9.4981
11
-0.895802
21
12.8689
62
254
0
LINE
8
Modules
10
-0.895802
20
12.8689
11
3.92796
21
11.9477
62
254
0
LINE
8
Modules
10
3.92796
20
11.9477
11
3.28421
21
8.57687
62
254
0
LINE
8
Modules
10
3.28421
20
8.57687
11
-1.53956
21
9.4981
62
254
0
LINE
8
Modules
10
-2.18281
20
6.13076
11
-1.53906
21
9.50159
62
254
0
LINE
8
Modules
10
-1.53906
20
9.50159
11
3.28471
21
8.58036
62
254
0
LINE
8
Modules
10
3.28471
20
8.58036
11
2.64096
21
5.20953
62
254
0
LINE
8
Modules
10
2.64096
20
5.20953
11
-2.18281
21
6.13076
62
254
0
LINE
8
Modules
10
-2.82607
20
2.75976
11
-2.18231
21
6.1306
62
254
0
LINE
8
Modules
10
-2.18231
20
6.1306
11
2.64145
21
5.20937
62
254
0
LINE
8
Modules
10
2.64145
20
5.20937
11
1.9977
21
1.83853
62
254
0
LINE
8
Modules
10
1.9977
20
1.83853
11
-2.82607
21
2.75976
62
254
0
LINE
8
Modules
10
-3.46932
20
-0.614884
11
-2.82557
21
2.75595
62
254
0
LINE
8
Modules
10
-2.82557
20
2.75595
11
1.9982
21
1.83472
62
254
0
LINE
8
Modules
10
1.9982
20
1.83472
11
1.35445
21
-1.53611
62
254
0
LINE
8
Modules
10
1.35445
20
-1.53611
11
-3.46932
21
-0.614884
62
254
0
LINE
8
Modules
10
-4.11258
20
-3.98223
11
-3.46882
21
-0.611388
62
254
0
LINE
8
Modules
10
-3.46882
20
-0.611388
11
1.35494
21
-1.53262
62
254
0
LINE
8
Modules
10
1.35494
20
-1.53262
11
0.711191
21
-4.90346
62
254
0
LINE
8
Modules
10
0.711191
20
-4.90346
11
-4.11258
21
-3.98223
62
254
0
LINE
8
Modules
10
-4.75871
20
-7.35322
11
-4.11496
21
-3.98238
62
254
0
LINE
8
Modules
10
-4.11496
20
-3.98238
11
0.708805
21
-4.90361
62
254
0
LINE
8
Modules
10
0.708805
20
-4.90361
11
0.0650512
21
-8.27445
62
254
0
LINE
8
Modules
10
0.0650512
20
-8.27445
11
-4.75871
21
-7.35322
62
254
0
LINE
8
Modules
10
-5.40197
20
-10.7242
11
-4.75822
21
-7.35338
62
254
0
LINE
8
Modules
10
-4.75822
20
-7.35338
11
0.0655504
21
-8.27461
62
254
0
LINE
8
Modules
10
0.0655504
20
-8.27461
11
-0.578204
21
-11.6454
62
254
0
LINE
8
Modules
10
-0.578204
20
-11.6454
11
-5.40197
21
-10.7242
62
254
0
LINE
8
Modules
10
-6.04522
20
-14.0989
11
-5.40147
21
-10.728
62
254
0
LINE
8
Modules
10
-5.40147
20
-10.728
11
-0.577704
21
-11.6493
62
254
0
LINE
8
Modules
10
-0.577704
20
-11.6493
11
-1.22146
21
-15.0201
62
254
0
LINE
8
Modules
10
-1.22146
20
-15.0201
11
-6.04522
21
-14.0989
62
254
0
LINE
8
Modules
10
18.3961
20
-1.29872
11
17.7523
21
-4.66956
62
254
0
LINE
8
Modules
10
17.7523
20
-4.66956
11
12.9302
21
-3.74864
62
254
0
LINE
8
Modules
10
12.9302
20
-3.74864
11
13.5739
21
-0.377801
62
254
0
LINE
8
Modules
10
13.5739
20
-0.377801
11
18.3961
21
-1.29872
62
254
0
LINE
8
Modules
10
0.805584
20
-4.89528
11
1.44934
21
-1.52444
62
254
0
LINE
8
Modules
10
1.44934
20
-1.52444
11
6.2731
21
-2.44567
62
254
0
LINE
8
Modules
10
6.2731
20
-2.44567
11
5.62935
21
-5.81651
62
254
0
LINE
8
Modules
10
5.62935
20
-5.81651
11
0.805584
21
-4.89528
62
254
0
LINE
8
Roofs
10
5.01335
20
-29.6268
11
2.59898
21
-29.1301
62
252
0
LINE
8
Roofs
10
2.59898
20
-29.1301
11
-5.27007
21
-17.5489
62
252
0
LINE
8
Roofs
10
-5.27007
20
-17.5489
11
-7.04407
21
-17.0595
62
252
0
LINE
8
Roofs
10
-7.04407
20
-17.0595
11
0.761521
21
23.8015
62
252
0
LINE
8
Roofs
10
0.761521
20
23.8015
11
14.7083
21
21.1354
62
252
0
LINE
8
Roofs
10
14.7083
20
21.1354
11
5.01335
21
-29.6268
62
252
0
LINE
8
Setbacks
10
2.73215
20
-26.2167
11
0.276138
21
-25.7115
62
2
0
LINE
8
Setbacks
10
0.276138
20
-25.7115
11
-7.7687
21
-13.8716
62
2
0
LINE
8
Setbacks
10
-7.7687
20
-13.8716
11
-6.50185
21
-14.2211
62
2
0
LINE
8
Setbacks
10
-6.50185
20
-14.2211
11
0.221054
21
20.9722
62
2
0
LINE
8
Setbacks
10
0.221054
20
20.9722
11
11.3388
21
18.8469
62
2
0
LINE
8
Setbacks
10
11.3388
20
18.8469
11
2.73215
21
-26.2167
62
2
0
LINE
8
Roofs
10
20.339
20
-24.9446
11
21.363
21
-25.1418
62
252
0
LINE
8
Roofs
10
21.363
20
-25.1418
11
19.9611
21
-32.4791
62
252
0
LINE
8
Roofs
10
19.9611
20
-32.4791
11
5.01335
21
-29.6268
62
252
0
LINE
8
Roofs
10
5.01335
20
-29.6268
11
14.7083
21
21.1354
62
252
0
LINE
8
Roofs
10
14.7083
20
21.1354
11
28.6321
21
18.4766
62
252
0
LINE
8
Roofs
10
28.6321
20
18.4766
11
20.339
21
-24.9446
62
252
0
LINE
8
Setbacks
10
19.7988
20
-27.7729
11
20.8226
21
-27.9701
62
2
0
LINE
8
Setbacks
10
20.8226
20
-27.9701
11
20.5015
21
-29.6509
62
2
0
LINE
8
Setbacks
10
20.5015
20
-29.6509
11
8.38193
21
-27.3382
62
2
0
LINE
8
Setbacks
10
8.38193
20
-27.3382
11
16.9965
21
17.767
62
2
0
LINE
8
Setbacks
10
16.9965
20
17.767
11
28.0919
21
15.6482
62
2
0
LINE
8
Setbacks
10
28.0919
20
15.6482
11
19.7988
21
-27.7729
62
2
0
LINE
8
Roofs
10
-5.27007
20
-17.5489
11
2.59898
21
-29.1301
62
252
0
LINE
8
Roofs
10
2.59898
20
-29.1301
11
-12.9372
21
-26.1608
62
252
0
LINE
8
Roofs
10
-12.9372
20
-26.1608
11
-11.0796
21
-16.4386
62
252
0
LINE
8
Roofs
10
-11.0796
20
-16.4386
11
-5.27007
21
-17.5489
62
252
0
LINE
8
Setbacks
10
-5.27007
20
-17.5489
11
0.309083
21
-25.7599
62
2
0
LINE
8
Setbacks
10
0.309083
20
-25.7599
11
-9.56749
21
-23.8723
62
2
0
LINE
8
Setbacks
10
-9.56749
20
-23.8723
11
-8.25041
21
-16.9793
62
2
0
LINE
8
Setbacks
10
-8.25041
20
-16.9793
11
-5.27007
21
-17.5489
62
2
0
LINE
8
Roofs
10
2.59898
20
-29.1301
11
8.1027
21
-30.2805
62
252
0
LINE
8
Roofs
10
8.1027
20
-30.2805
11
6.26236
21
-39.9077
62
252
0
LINE
8
Roofs
10
6.26236
20
-39.9077
11
-14.792
21
-35.8867
62
252
0
LINE
8
Roofs
10
-14.792
20
-35.8867
11
-12.9372
21
-26.1608
62
252
0
LINE
8
Roofs
10
-12.9372
20
-26.1608
11
2.59898
21
-29.1301
62
252
0
LINE
8
Setbacks
10
2.03336
20
-31.9573
11
4.73867
21
-32.5228
62
2
0
LINE
8
Setbacks
10
4.73867
20
-32.5228
11
3.43036
21
-39.3669
62
2
0
LINE
8
Setbacks
10
3.43036
20
-39.3669
11
-11.96
21
-36.4275
62
2
0
LINE
8
Setbacks
10
-11.96
20
-36.4275
11
-10.6454
21
-29.5342
62
2
0
LINE
8
Setbacks
10
-10.6454
20
-29.5342
11
2.03336
21
-31.9573
62
2
0
LINE
8
Obstructions
10
-4.17106
20
-33.2972
11
-1.60669
21
-33.7866
62
252
0
LINE
8
Obstructions
10
-1.60669
20
-33.7866
11
-1.924
21
-35.4484
62
252
0
LINE
8
Obstructions
10
-1.924
20
-35.4484
11
-4.48836
21
-34.959
62
252
0
LINE
8
Obstructions
10
-4.48836
20
-34.959
11
-4.17106
21
-33.2972
62
252
0
LINE
8
Obstructions
10
1.95861
20
-29.1337
11
7.99886
21
-30.2878
62
252
0
LINE
8
Obstructions
10
7.99886
20
-30.2878
11
7.80848
21
-31.2849
62
252
0
LINE
8
Obstructions
10
7.80848
20
-31.2849
11
1.76535
21
-30.1308
62
252
0
LINE
8
Obstructions
10
1.76535
20
-30.1308
11
1.95861
21
-29.1337
62
252
0
CIRCLE
8
Obstructions
10
3.9778
20
-18.4181
40
1.01569
62
252
0
LINE
8
Obstructions
10
14.8266
20
-21.822
11
14.2583
21
-24.7912
62
252
0
LINE
8
Obstructions
10
14.2583
20
-24.7912
11
15.8535
21
-25.0944
62
252
0
LINE
8
Obstructions
10
15.8535
20
-25.0944
11
16.4217
21
-22.1251
62
252
0
LINE
8
Obstructions
10
16.4217
20
-22.1251
11
14.8266
21
-21.822
62
252
0
CIRCLE
8
Obstructions
10
14.0564
20
-26.8949
40
0.373368
62
252
0
LINE
8
Obstructions
10
4.68451
20
-11.4862
11
4.22587
21
-13.893
62
252
0
LINE
8
Obstructions
10
4.22587
20
-13.893
11
5.07104
21
-14.0537
62
252
0
LINE
8
Obstructions
10
5.07104
20
-14.0537
11
5.52968
21
-11.6469
62
252
0
LINE
8
Obstructions
10
5.52968
20
-11.6469
11
4.68451
21
-11.4862
62
252
0
LINE
8
Obstructions
10
9.62575
20
-12.5125
11
9.21614
21
-14.6527
62
252
0
LINE
8
Obstructions
10
9.21614
20
-14.6527
11
10.7825
21
-14.9522
62
252
0
LINE
8
Obstructions
10
10.7825
20
-14.9522
11
11.1892
21
-12.812
62
252
0
LINE
8
Obstructions
10
11.1892
20
-12.812
11
9.62575
21
-12.5125
62
252
0
LINE
8
Obstructions
10
5.1345
20
0.452875
11
4.73066
21
-1.65811
62
252
0
LINE
8
Obstructions
10
4.73066
20
-1.65811
11
8.47193
21
-2.37029
62
252
0
LINE
8
Obstructions
10
8.47193
20
-2.37029
11
8.87576
21
-0.262959
62
252
0
LINE
8
Obstructions
10
8.87576
20
-0.262959
11
5.1345
21
0.452875
62
252
0
LINE
8
Obstructions
10
9.43537
20
12.0085
11
9.0373
21
9.92307
62
252
0
LINE
8
Obstructions
10
9.0373
20
9.92307
11
9.88536
21
9.76237
62
252
0
LINE
8
Obstructions
10
9.88536
20
9.76237
11
10.2834
21
11.8478
62
252
0
LINE
8
Obstructions
10
10.2834
20
11.8478
11
9.43537
21
12.0085
62
252
0
LINE
8
Obstructions
10
20.7976
20
7.96548
11
20.2351
21
5.01814
62
252
0
LINE
8
Obstructions
10
20.2351
20
5.01814
11
21.9543
21
4.6931
62
252
0
LINE
8
Obstructions
10
21.9543
20
4.6931
11
22.5168
21
7.63678
62
252
0
LINE
8
Obstructions
10
22.5168
20
7.63678
11
20.7976
21
7.96548
62
252
0
CIRCLE
8
Obstructions
10
12.9661
20
3.02038
40
0.572574
62
252
0
CIRCLE
8
Obstructions
10
23.2379
20
3.59743
40
0.572574
62
252
0
CIRCLE
8
Obstructions
10
17.7804
20
-6.47903
40
0.907579
62
252
0
LINE
8
Obstructions
10
17.5236
20
-8.59731
11
17.0217
21
-11.2196
62
252
0
LINE
8
Obstructions
10
17.0217
20
-11.2196
11
18.4236
21
-11.4862
62
252
0
LINE
8
Obstructions
10
18.4236
20
-11.4862
11
18.9227
21
-8.86392
62
252
0
LINE
8
Obstructions
10
18.9227
20
-8.86392
11
17.5236
21
-8.59731
62
252
0
CIRCLE
8
Obstructions
10
19.9784
20
-23.6408
40
0.601286
62
252
0
ENDSEC
0
EOF