999
Design created by Aurora
0
SECTION
2
HEADER
9
$ACADVER
1
AC1009
0
ENDSEC
0
SECTION
2
TABLES
0
TABLE
2
LTYPE
100
AcDbLinetypeTableRecord
2
LTYPE
0
LTYPE
2
DASHED
70
0
3

72
65
73
1
40
0.0
0
ENDTAB
0
TABLE
2
LAYER
70
1
0
LAYER
100
AcDbSymbolTable
100
AcDbLayerTable
2
1
70
0
62
7
6
CONTINUOUS
0
ENDTAB
0
ENDSEC
0
SECTION
2
ENTITIES
0
LINE
8
Modules
10
7.14996
20
5.78602
11
6.42361
21
5.03333
62
254
0
LINE
8
Modules
10
6.42361
20
5.03333
11
5.40292
21
6.0183
62
254
0
LINE
8
Modules
10
5.40292
20
6.0183
11
6.12926
21
6.77099
62
254
0
LINE
8
Modules
10
6.12926
20
6.77099
11
7.14996
21
5.78602
62
254
0
LINE
8
Modules
10
7.87717
20
6.53965
11
7.15082
21
5.78696
62
254
0
LINE
8
Modules
10
7.15082
20
5.78696
11
6.13012
21
6.77194
62
254
0
LINE
8
Modules
10
6.13012
20
6.77194
11
6.85647
21
7.52462
62
254
0
LINE
8
Modules
10
6.85647
20
7.52462
11
7.87717
21
6.53965
62
254
0
LINE
8
Modules
10
8.6035
20
7.29217
11
7.87715
21
6.53948
62
254
0
LINE
8
Modules
10
7.87715
20
6.53948
11
6.85645
21
7.52445
62
254
0
LINE
8
Modules
10
6.85645
20
7.52445
11
7.5828
21
8.27714
62
254
0
LINE
8
Modules
10
7.5828
20
8.27714
11
8.6035
21
7.29217
62
254
0
LINE
8
Modules
10
9.32983
20
8.04469
11
8.60348
21
7.292
62
254
0
LINE
8
Modules
10
8.60348
20
7.292
11
7.58278
21
8.27697
62
254
0
LINE
8
Modules
10
7.58278
20
8.27697
11
8.30913
21
9.02966
62
254
0
LINE
8
Modules
10
8.30913
20
9.02966
11
9.32983
21
8.04469
62
254
0
LINE
8
Modules
10
10.0562
20
8.79721
11
9.32981
21
8.04452
62
254
0
LINE
8
Modules
10
9.32981
20
8.04452
11
8.30911
21
9.02949
62
254
0
LINE
8
Modules
10
8.30911
20
9.02949
11
9.03546
21
9.78218
62
254
0
LINE
8
Modules
10
9.03546
20
9.78218
11
10.0562
21
8.79721
62
254
0
LINE
8
Modules
10
6.01046
20
2.52547
11
5.28412
21
1.77278
62
254
0
LINE
8
Modules
10
5.28412
20
1.77278
11
4.26342
21
2.75775
62
254
0
LINE
8
Modules
10
4.26342
20
2.75775
11
4.98977
21
3.51044
62
254
0
LINE
8
Modules
10
4.98977
20
3.51044
11
6.01046
21
2.52547
62
254
0
LINE
8
Modules
10
6.73679
20
3.27799
11
6.01045
21
2.5253
62
254
0
LINE
8
Modules
10
6.01045
20
2.5253
11
4.98975
21
3.51027
62
254
0
LINE
8
Modules
10
4.98975
20
3.51027
11
5.7161
21
4.26296
62
254
0
LINE
8
Modules
10
5.7161
20
4.26296
11
6.73679
21
3.27799
62
254
0
LINE
8
Modules
10
7.46312
20
4.03162
11
6.73678
21
3.27893
62
254
0
LINE
8
Modules
10
6.73678
20
3.27893
11
5.71608
21
4.26391
62
254
0
LINE
8
Modules
10
5.71608
20
4.26391
11
6.44243
21
5.01659
62
254
0
LINE
8
Modules
10
6.44243
20
5.01659
11
7.46312
21
4.03162
62
254
0
LINE
8
Modules
10
8.18945
20
4.78414
11
7.46311
21
4.03145
62
254
0
LINE
8
Modules
10
7.46311
20
4.03145
11
6.44241
21
5.01643
62
254
0
LINE
8
Modules
10
6.44241
20
5.01643
11
7.16876
21
5.76911
62
254
0
LINE
8
Modules
10
7.16876
20
5.76911
11
8.18945
21
4.78414
62
254
0
LINE
8
Modules
10
8.91578
20
5.53666
11
8.18944
21
4.78397
62
254
0
LINE
8
Modules
10
8.18944
20
4.78397
11
7.16874
21
5.76895
62
254
0
LINE
8
Modules
10
7.16874
20
5.76895
11
7.89509
21
6.52163
62
254
0
LINE
8
Modules
10
7.89509
20
6.52163
11
8.91578
21
5.53666
62
254
0
LINE
8
Modules
10
9.64211
20
6.28918
11
8.91577
21
5.53649
62
254
0
LINE
8
Modules
10
8.91577
20
5.53649
11
7.89507
21
6.52147
62
254
0
LINE
8
Modules
10
7.89507
20
6.52147
11
8.62142
21
7.27415
62
254
0
LINE
8
Modules
10
8.62142
20
7.27415
11
9.64211
21
6.28918
62
254
0
LINE
8
Modules
10
10.3684
20
7.0417
11
9.6421
21
6.28901
62
254
0
LINE
8
Modules
10
9.6421
20
6.28901
11
8.6214
21
7.27399
62
254
0
LINE
8
Modules
10
8.6214
20
7.27399
11
9.34775
21
8.02667
62
254
0
LINE
8
Modules
10
9.34775
20
8.02667
11
10.3684
21
7.0417
62
254
0
LINE
8
Modules
10
11.0948
20
7.79422
11
10.3684
21
7.04153
62
254
0
LINE
8
Modules
10
10.3684
20
7.04153
11
9.34773
21
8.02651
62
254
0
LINE
8
Modules
10
9.34773
20
8.02651
11
10.0741
21
8.77919
62
254
0
LINE
8
Modules
10
10.0741
20
8.77919
11
11.0948
21
7.79422
62
254
0
LINE
8
Modules
10
5.91869
20
11.1494
11
6.64504
21
11.9021
62
254
0
LINE
8
Modules
10
6.64504
20
11.9021
11
7.67807
21
10.9052
62
254
0
LINE
8
Modules
10
7.67807
20
10.9052
11
6.95172
21
10.1525
62
254
0
LINE
8
Modules
10
6.95172
20
10.1525
11
5.91869
21
11.1494
62
254
0
LINE
8
Modules
10
5.19236
20
10.3969
11
5.91871
21
11.1496
62
254
0
LINE
8
Modules
10
5.91871
20
11.1496
11
6.95174
21
10.1527
62
254
0
LINE
8
Modules
10
6.95174
20
10.1527
11
6.22539
21
9.40001
62
254
0
LINE
8
Modules
10
6.22539
20
9.40001
11
5.19236
21
10.3969
62
254
0
LINE
8
Modules
10
4.46603
20
9.64436
11
5.19238
21
10.3971
62
254
0
LINE
8
Modules
10
5.19238
20
10.3971
11
6.22541
21
9.40018
62
254
0
LINE
8
Modules
10
6.22541
20
9.40018
11
5.49906
21
8.64749
62
254
0
LINE
8
Modules
10
5.49906
20
8.64749
11
4.46603
21
9.64436
62
254
0
LINE
8
Modules
10
3.01337
20
8.13932
11
3.73972
21
8.89201
62
254
0
LINE
8
Modules
10
3.73972
20
8.89201
11
4.77275
21
7.89514
62
254
0
LINE
8
Modules
10
4.77275
20
7.89514
11
4.0464
21
7.14245
62
254
0
LINE
8
Modules
10
4.0464
20
7.14245
11
3.01337
21
8.13932
62
254
0
LINE
8
Modules
10
2.28704
20
7.3868
11
3.01339
21
8.13949
62
254
0
LINE
8
Modules
10
3.01339
20
8.13949
11
4.04642
21
7.14262
62
254
0
LINE
8
Modules
10
4.04642
20
7.14262
11
3.32007
21
6.38993
62
254
0
LINE
8
Modules
10
3.32007
20
6.38993
11
2.28704
21
7.3868
62
254
0
LINE
8
Modules
10
1.56071
20
6.63428
11
2.28706
21
7.38697
62
254
0
LINE
8
Modules
10
2.28706
20
7.38697
11
3.32009
21
6.3901
62
254
0
LINE
8
Modules
10
3.32009
20
6.3901
11
2.59374
21
5.63741
62
254
0
LINE
8
Modules
10
2.59374
20
5.63741
11
1.56071
21
6.63428
62
254
0
LINE
8
Modules
10
0.834381
20
5.88065
11
1.56073
21
6.63334
62
254
0
LINE
8
Modules
10
1.56073
20
6.63334
11
2.59376
21
5.63646
62
254
0
LINE
8
Modules
10
2.59376
20
5.63646
11
1.86741
21
4.88378
62
254
0
LINE
8
Modules
10
1.86741
20
4.88378
11
0.834381
21
5.88065
62
254
0
LINE
8
Modules
10
4.86692
20
12.1646
11
5.59326
21
12.9173
62
254
0
LINE
8
Modules
10
5.59326
20
12.9173
11
6.62629
21
11.9204
62
254
0
LINE
8
Modules
10
6.62629
20
11.9204
11
5.89995
21
11.1678
62
254
0
LINE
8
Modules
10
5.89995
20
11.1678
11
4.86692
21
12.1646
62
254
0
LINE
8
Modules
10
4.14059
20
11.4121
11
4.86693
21
12.1648
62
254
0
LINE
8
Modules
10
4.86693
20
12.1648
11
5.89996
21
11.1679
62
254
0
LINE
8
Modules
10
5.89996
20
11.1679
11
5.17362
21
10.4152
62
254
0
LINE
8
Modules
10
5.17362
20
10.4152
11
4.14059
21
11.4121
62
254
0
LINE
8
Modules
10
3.41426
20
10.6596
11
4.1406
21
11.4123
62
254
0
LINE
8
Modules
10
4.1406
20
11.4123
11
5.17363
21
10.4154
62
254
0
LINE
8
Modules
10
5.17363
20
10.4154
11
4.44729
21
9.66272
62
254
0
LINE
8
Modules
10
4.44729
20
9.66272
11
3.41426
21
10.6596
62
254
0
LINE
8
Modules
10
2.68793
20
9.90708
11
3.41427
21
10.6598
62
254
0
LINE
8
Modules
10
3.41427
20
10.6598
11
4.4473
21
9.66289
62
254
0
LINE
8
Modules
10
4.4473
20
9.66289
11
3.72096
21
8.9102
62
254
0
LINE
8
Modules
10
3.72096
20
8.9102
11
2.68793
21
9.90708
62
254
0
LINE
8
Modules
10
0.508936
20
7.6484
11
1.23528
21
8.40109
62
254
0
LINE
8
Modules
10
1.23528
20
8.40109
11
2.26831
21
7.40422
62
254
0
LINE
8
Modules
10
2.26831
20
7.40422
11
1.54197
21
6.65153
62
254
0
LINE
8
Modules
10
1.54197
20
6.65153
11
0.508936
21
7.6484
62
254
0
LINE
8
Modules
10
-0.217394
20
6.89589
11
0.508951
21
7.64857
62
254
0
LINE
8
Modules
10
0.508951
20
7.64857
11
1.54198
21
6.6517
62
254
0
LINE
8
Modules
10
1.54198
20
6.6517
11
0.815636
21
5.89901
62
254
0
LINE
8
Modules
10
0.815636
20
5.89901
11
-0.217394
21
6.89589
62
254
0
LINE
8
Modules
10
-3.8889
20
-10.0953
11
-4.6663
21
-9.39544
62
254
0
LINE
8
Modules
10
-4.6663
20
-9.39544
11
-3.63931
21
-8.25463
62
254
0
LINE
8
Modules
10
-3.63931
20
-8.25463
11
-2.86191
21
-8.95446
62
254
0
LINE
8
Modules
10
-2.86191
20
-8.95446
11
-3.8889
21
-10.0953
62
254
0
LINE
8
Modules
10
-3.11082
20
-10.7955
11
-3.88822
21
-10.0956
62
254
0
LINE
8
Modules
10
-3.88822
20
-10.0956
11
-2.86123
21
-8.95483
62
254
0
LINE
8
Modules
10
-2.86123
20
-8.95483
11
-2.08383
21
-9.65466
62
254
0
LINE
8
Modules
10
-2.08383
20
-9.65466
11
-3.11082
21
-10.7955
62
254
0
LINE
8
Modules
10
-2.33361
20
-11.4957
11
-3.11101
21
-10.7958
62
254
0
LINE
8
Modules
10
-3.11101
20
-10.7958
11
-2.08402
21
-9.65503
62
254
0
LINE
8
Modules
10
-2.08402
20
-9.65503
11
-1.30662
21
-10.3549
62
254
0
LINE
8
Modules
10
-1.30662
20
-10.3549
11
-2.33361
21
-11.4957
62
254
0
LINE
8
Modules
10
-6.2372
20
-11.1417
11
-7.01459
21
-10.4418
62
254
0
LINE
8
Modules
10
-7.01459
20
-10.4418
11
-5.9876
21
-9.30103
62
254
0
LINE
8
Modules
10
-5.9876
20
-9.30103
11
-5.21021
21
-10.0009
62
254
0
LINE
8
Modules
10
-5.21021
20
-10.0009
11
-6.2372
21
-11.1417
62
254
0
LINE
8
Modules
10
-5.45999
20
-11.8408
11
-6.23739
21
-11.1409
62
254
0
LINE
8
Modules
10
-6.23739
20
-11.1409
11
-5.2104
21
-10.0001
62
254
0
LINE
8
Modules
10
-5.2104
20
-10.0001
11
-4.433
21
-10.7
62
254
0
LINE
8
Modules
10
-4.433
20
-10.7
11
-5.45999
21
-11.8408
62
254
0
LINE
8
Modules
10
-4.68278
20
-12.541
11
-5.46018
21
-11.8411
62
254
0
LINE
8
Modules
10
-5.46018
20
-11.8411
11
-4.43319
21
-10.7003
62
254
0
LINE
8
Modules
10
-4.43319
20
-10.7003
11
-3.65579
21
-11.4002
62
254
0
LINE
8
Modules
10
-3.65579
20
-11.4002
11
-4.68278
21
-12.541
62
254
0
LINE
8
Modules
10
-3.90557
20
-13.2412
11
-4.68297
21
-12.5413
62
254
0
LINE
8
Modules
10
-4.68297
20
-12.5413
11
-3.65598
21
-11.4005
62
254
0
LINE
8
Modules
10
-3.65598
20
-11.4005
11
-2.87858
21
-12.1004
62
254
0
LINE
8
Modules
10
-2.87858
20
-12.1004
11
-3.90557
21
-13.2412
62
254
0
LINE
8
Modules
10
-9.36357
20
-11.4879
11
-10.141
21
-10.788
62
254
0
LINE
8
Modules
10
-10.141
20
-10.788
11
-9.11398
21
-9.64724
62
254
0
LINE
8
Modules
10
-9.11398
20
-9.64724
11
-8.33658
21
-10.3471
62
254
0
LINE
8
Modules
10
-8.33658
20
-10.3471
11
-9.36357
21
-11.4879
62
254
0
LINE
8
Modules
10
-8.58636
20
-12.187
11
-9.36376
21
-11.4871
62
254
0
LINE
8
Modules
10
-9.36376
20
-11.4871
11
-8.33677
21
-10.3463
62
254
0
LINE
8
Modules
10
-8.33677
20
-10.3463
11
-7.55938
21
-11.0462
62
254
0
LINE
8
Modules
10
-7.55938
20
-11.0462
11
-8.58636
21
-12.187
62
254
0
LINE
8
Modules
10
-7.80916
20
-12.8872
11
-8.58655
21
-12.1873
62
254
0
LINE
8
Modules
10
-8.58655
20
-12.1873
11
-7.55956
21
-11.0465
62
254
0
LINE
8
Modules
10
-7.55956
20
-11.0465
11
-6.78217
21
-11.7464
62
254
0
LINE
8
Modules
10
-6.78217
20
-11.7464
11
-7.80916
21
-12.8872
62
254
0
LINE
8
Modules
10
-7.03195
20
-13.5863
11
-7.80935
21
-12.8864
62
254
0
LINE
8
Modules
10
-7.80935
20
-12.8864
11
-6.78236
21
-11.7456
62
254
0
LINE
8
Modules
10
-6.78236
20
-11.7456
11
-6.00496
21
-12.4454
62
254
0
LINE
8
Modules
10
-6.00496
20
-12.4454
11
-7.03195
21
-13.5863
62
254
0
LINE
8
Roofs
10
-1.51757
20
6.91962
11
5.67116
21
14.3702
62
252
0
LINE
8
Roofs
10
5.67116
20
14.3702
11
9.05281
21
11.1063
62
252
0
LINE
8
Roofs
10
9.05281
20
11.1063
11
1.86407
21
3.65685
62
252
0
LINE
8
Roofs
10
1.86407
20
3.65685
11
-1.51757
21
6.91962
62
252
0
LINE
8
Setbacks
10
-0.935736
20
7.52265
11
5.08933
21
13.7672
62
2
0
LINE
8
Setbacks
10
5.08933
20
13.7672
11
7.86799
21
11.0853
62
2
0
LINE
8
Setbacks
10
7.86799
20
11.0853
11
1.84292
21
4.84167
62
2
0
LINE
8
Setbacks
10
1.84292
20
4.84167
11
-0.935736
21
7.52265
62
2
0
LINE
8
Roofs
10
12.2274
20
8.04283
11
5.03869
21
0.593333
62
252
0
LINE
8
Roofs
10
5.03869
20
0.593333
11
1.86407
21
3.65685
62
252
0
LINE
8
Roofs
10
1.86407
20
3.65685
11
9.05281
21
11.1063
62
252
0
LINE
8
Roofs
10
9.05281
20
11.1063
11
12.2274
21
8.04283
62
252
0
LINE
8
Setbacks
10
11.6525
20
7.44704
11
5.61363
21
1.18912
62
2
0
LINE
8
Setbacks
10
5.61363
20
1.18912
11
3.03479
21
3.6777
62
2
0
LINE
8
Setbacks
10
3.03479
20
3.6777
11
9.07366
21
9.93562
62
2
0
LINE
8
Setbacks
10
9.07366
20
9.93562
11
11.6525
21
7.44704
62
2
0
LINE
8
Roofs
10
7.43874
20
16.187
11
11.0151
21
12.7383
62
252
0
LINE
8
Roofs
10
11.0151
20
12.7383
11
9.30457
21
10.9639
62
252
0
LINE
8
Roofs
10
9.30457
20
10.9639
11
5.72818
21
14.4125
62
252
0
LINE
8
Roofs
10
5.72818
20
14.4125
11
7.43874
21
16.187
62
252
0
LINE
8
Setbacks
10
6.84839
20
15.5746
11
9.81246
21
12.7163
62
2
0
LINE
8
Setbacks
10
9.81246
20
12.7163
11
9.28261
21
12.1667
62
2
0
LINE
8
Setbacks
10
9.28261
20
12.1667
11
6.31854
21
15.0249
62
2
0
LINE
8
Setbacks
10
6.31854
20
15.0249
11
6.84839
21
15.5746
62
2
0
LINE
8
Roofs
10
-12.3152
20
-11.4514
11
-5.9431
21
-17.1888
62
252
0
LINE
8
Roofs
10
-5.9431
20
-17.1888
11
0.668434
21
-9.84398
62
252
0
LINE
8
Roofs
10
0.668434
20
-9.84398
11
-5.70362
21
-4.10769
62
252
0
LINE
8
Roofs
10
-5.70362
20
-4.10769
11
-12.3152
21
-11.4514
62
252
0
LINE
8
Setbacks
10
-11.03
20
-11.384
11
-6.01054
21
-15.9036
62
2
0
LINE
8
Setbacks
10
-6.01054
20
-15.9036
11
-0.616703
21
-9.91148
62
2
0
LINE
8
Setbacks
10
-0.616703
20
-9.91148
11
-5.63617
21
-5.39283
62
2
0
LINE
8
Setbacks
10
-5.63617
20
-5.39283
11
-11.03
21
-11.384
62
2
0
LINE
8
Obstructions
10
-5.08431
20
-7.45395
11
-4.31851
21
-8.14302
62
252
0
LINE
8
Obstructions
10
-4.31851
20
-8.14302
11
-4.91676
21
-8.8076
62
252
0
LINE
8
Obstructions
10
-4.91676
20
-8.8076
11
-5.68257
21
-8.11853
62
252
0
LINE
8
Obstructions
10
-5.68257
20
-8.11853
11
-5.08431
21
-7.45395
62
252
0
LINE
8
Obstructions
10
-5.34221
20
-12.332
11
-4.40359
21
-13.1769
62
252
0
LINE
8
Obstructions
10
-4.40359
20
-13.1769
11
-4.76062
21
-13.5743
62
252
0
LINE
8
Obstructions
10
-4.76062
20
-13.5743
11
-5.69923
21
-12.7283
62
252
0
LINE
8
Obstructions
10
-5.69923
20
-12.7283
11
-5.34221
21
-12.332
62
252
0
LINE
8
Obstructions
10
-7.47909
20
-8.6729
11
-6.57469
21
-9.48665
62
252
0
LINE
8
Obstructions
10
-6.57469
20
-9.48665
11
-7.02031
21
-9.98202
62
252
0
LINE
8
Obstructions
10
-7.02031
20
-9.98202
11
-7.92472
21
-9.16827
62
252
0
LINE
8
Obstructions
10
-7.92472
20
-9.16827
11
-7.47909
21
-8.6729
62
252
0
LINE
8
Obstructions
10
-6.18082
20
-6.49104
11
-6.90715
21
-5.83759
62
252
0
LINE
8
Obstructions
10
-6.90715
20
-5.83759
11
-7.44488
21
-6.43538
62
252
0
LINE
8
Obstructions
10
-7.44488
20
-6.43538
11
-6.71943
21
-7.08883
62
252
0
LINE
8
Obstructions
10
-6.71943
20
-7.08883
11
-6.18082
21
-6.49104
62
252
0
CIRCLE
8
Obstructions
10
-5.94573
20
-12.0748
40
0.167489
62
252
0
CIRCLE
8
Obstructions
10
-7.64664
20
-10.0499
40
0.158092
62
252
0
CIRCLE
8
Obstructions
10
4.40886
20
3.96743
40
0.115715
62
252
0
CIRCLE
8
Obstructions
10
5.56327
20
5.20753
40
0.146719
62
252
0
CIRCLE
8
Obstructions
10
4.75009
20
8.45917
40
0.150457
62
252
0
CIRCLE
8
Obstructions
10
1.89741
20
9.10371
40
0.115715
62
252
0
CIRCLE
8
Obstructions
10
2.95971
20
11.0028
40
0.115715
62
252
0
CIRCLE
8
Obstructions
10
2.42198
20
9.42876
40
0.115715
62
252
0
CIRCLE
8
Obstructions
10
8.83614
20
9.88406
40
0.150457
62
252
0
CIRCLE
8
Obstructions
10
7.35892
20
15.4645
40
0.115715
62
252
0
ENDSEC
0
EOF