<svg width="30" height="17" viewBox="0 0 30 17" fill="none" xmlns="http://www.w3.org/2000/svg">
<path d="M3.4486 0.0010382C11.1506 0.0010382 18.8527 0.000519385 26.5541 0C27.0348 0 27.4275 0.315268 27.4541 0.711559L29.9911 16.1446C30.0668 16.6219 29.6506 16.9673 29.0998 16.9979C19.7012 16.999 10.3015 16.999 0.902961 17C0.324858 17 -0.102516 16.5502 0.0215404 16.0822L2.55725 0.655464C2.61742 0.277351 3.00448 0.00259636 3.4486 0.0010382ZM20.1454 1.51089L20.3563 5.04947H26.3519L25.7707 1.51089H20.1454ZM20.4462 6.56036L20.6776 10.4402H27.2377L26.6006 6.56036H20.4462ZM20.7681 11.9505L20.979 15.4896H28.0676L27.4864 11.9505H20.7681ZM9.02308 15.4896L9.23459 11.9505H2.51632L1.93449 15.4896H9.02308ZM9.32453 10.4402L9.55714 6.56036H3.40208L2.76443 10.4402H9.32453ZM9.64708 5.04947L9.8586 1.51089H4.23202L3.65081 5.04947H9.64708ZM11.6599 1.51089L11.449 5.04947H18.5543L18.3428 1.51089H11.6599ZM11.3591 6.56036L11.1265 10.4402H18.8756L18.6443 6.56036H11.3591ZM11.0365 11.9505L10.8256 15.4896H19.1771L18.9662 11.9505H11.0365Z" fill="black"/>
</svg>
