<svg width="15" height="12" viewBox="0 0 15 12" fill="none" xmlns="http://www.w3.org/2000/svg">
<path d="M10.3746 3.23951L11.2284 4.0931H10.0211H6.93892C3.37442 4.0931 0.485397 6.99744 0.500061 10.5441V10.5462C0.500061 11.0758 0.924145 11.5 1.45422 11.5C1.98429 11.5 2.40837 11.0758 2.40837 10.5462C2.40837 8.04178 4.43423 6.01655 6.93892 6.01655H10.0211H11.254L10.3694 6.87531L9.28167 7.93124C8.91029 8.30508 8.91106 8.919 9.28399 9.29184C9.47052 9.47833 9.72084 9.5721 9.95787 9.5721C10.1949 9.5721 10.4452 9.47833 10.6318 9.29184L10.6325 9.29106L14.2197 5.72049C14.2198 5.72037 14.22 5.72025 14.2201 5.72012C14.3955 5.54459 14.5 5.29244 14.5 5.04693C14.5 4.80124 14.3953 4.5489 14.2197 4.37336L14.2189 4.37258L10.6498 0.7885C10.25 0.402068 9.65211 0.408018 9.2888 0.78133C8.90605 1.17462 8.91292 1.77815 9.28399 2.14914L10.3746 3.23951Z" fill="black" stroke="black"/>
</svg>
