<svg width="15" height="12" viewBox="0 0 15 12" fill="none" xmlns="http://www.w3.org/2000/svg">
<path d="M4.62539 3.23951L3.7716 4.0931H4.97891H8.06108C11.6256 4.0931 14.5146 6.99744 14.4999 10.5441V10.5462C14.4999 11.0758 14.0759 11.5 13.5458 11.5C13.0157 11.5 12.5916 11.0758 12.5916 10.5462C12.5916 8.04178 10.5658 6.01655 8.06108 6.01655H4.97891H3.74604L4.63063 6.87531L5.71833 7.93124C6.08971 8.30508 6.08894 8.919 5.71601 9.29184C5.52948 9.47833 5.27916 9.5721 5.04213 9.5721C4.80509 9.5721 4.55478 9.47833 4.36825 9.29184L4.36747 9.29106L0.780276 5.72049C0.780154 5.72037 0.780032 5.72025 0.779909 5.72012C0.604547 5.54459 0.5 5.29244 0.5 5.04693C0.5 4.80124 0.604693 4.5489 0.780277 4.37336L0.781056 4.37258L4.35016 0.7885C4.75002 0.402068 5.34789 0.408018 5.7112 0.78133C6.09395 1.17462 6.08708 1.77815 5.71601 2.14914L4.62539 3.23951Z" fill="black" stroke="black"/>
</svg>
